<?xml version="1.0" encoding="utf-8"?>
<!-- Generator: Adobe Illustrator 18.1.1, SVG Export Plug-In . SVG Version: 6.00 Build 0)  -->
<svg version="1.1" id="Layer_1" xmlns="http://www.w3.org/2000/svg" xmlns:xlink="http://www.w3.org/1999/xlink" x="0px" y="0px"
	 viewBox="0 0 3421 1316" enable-background="new 0 0 3421 1316" xml:space="preserve">
<g>
	<defs>
		<rect id="SVGID_1_" x="-12" y="-42.5" width="3420.5" height="1315.6"/>
	</defs>
	<use xlink:href="#SVGID_1_"  overflow="visible" fill="#FFFFFF"/>
	<clipPath id="SVGID_2_">
		<use xlink:href="#SVGID_1_"  overflow="visible"/>
	</clipPath>
	<g clip-path="url(#SVGID_2_)">
		<path fill="#FFBB7D" d="M187.6,911.4c31.4-87.8,12.1-190.7,57.8-271.9c44-78.2,138.2-115.2,227.6-122.4
			c89.4-7.2,179,9.3,268.7,9.6c89.7,0.2,185.8-19.3,247.8-84.1c56.1-58.7,75.8-145.5,133.5-202.7c48.8-48.3,118.1-68.8,184.9-84.5
			c66.9-15.7,136.4-29,193.3-67.6c56.8-38.5,97.8-110.5,77.1-176c-15.4-48.7-61.3-82.7-110.2-97.5c-48.8-14.8-100.9-13.5-151.9-12
			c-369.2,10.6-738.4,21.2-1107.5,31.9c-127.9,3.7-266.8,11.4-364,94.5c-92.1,78.8-124,206.8-135.7,327.5
			c-17.7,181.6-0.7,366.4,48.7,542.1c21.4,76.1,44.9,173.6,92,238.4c34.7,47.7,112.5,41,163.2,27.8
			C90.5,1044.2,160.3,987.9,187.6,911.4z"/>
	</g>
	<g clip-path="url(#SVGID_2_)">
		<g>
		</g>
		<path fill="#FFB878" d="M3231.3,374.8c-31.4,87.8-12.1,190.7-57.8,271.9c-44,78.2-138.2,115.2-227.6,122.4
			c-89.4,7.2-179-9.3-268.7-9.6c-89.7-0.2-185.8,19.3-247.8,84.1c-56.1,58.7-75.8,145.5-133.5,202.7
			c-48.8,48.3-118.1,68.8-184.9,84.5c-66.9,15.7-136.4,29-193.3,67.6c-56.8,38.5-97.8,110.5-77.1,176
			c15.4,48.7,61.3,82.7,110.2,97.5c48.8,14.8,100.9,13.5,151.9,12c369.2-10.6,738.4-21.2,1107.5-31.9c127.9-3.7,266.8-11.4,364-94.5
			c92.1-78.8,124-206.8,135.7-327.5c17.7-181.6,0.7-366.4-48.7-542.1c-21.4-76.1-44.9-173.6-92-238.4
			c-34.7-47.7-112.5-41-163.2-27.8C3328.4,241.9,3258.6,298.3,3231.3,374.8z"/>
	</g>
</g>
<g>
	<g>
		<path fill="#454C82" d="M2298.2,406.9c-11.6-12.2-11.7-31.9-0.1-44.2c10.8-11.5,29-15.4,45.8-14.6c14.5,0.7,28.7,4.4,41.3,10.8
			c27.2,13.7,40.1,50,8.9,67.3c-10,5.5-22.3,7.6-33.8,5.7"/>
	</g>
	<g>
		<path fill="#F1AAB2" d="M2249.5,715c-0.8-2.4-3.2-4-5.5-5.4c-14.7-9.1-31.1-15.7-47.4-22.3c-3.7-1.5-7.6-3.1-11.7-3.2
			c-10.2-0.3-17.6,7.2-22.4,14.2c-5.9,8.7-12.5,17-19.3,25.3c-16.8-18.5-28.9-30.9-45.7-49.4c-3.3-4.5-6.2-9.3-8.5-14.3
			c-4.9-10.7,5.5-20.9,9.4-30.4c0.6-1.6,0.9-3.7-0.7-4.5c-4.4,1.3-7.1,3.8-9.9,6.9c-1.8,2-7.9,6.8-7.9,9.2c-0.1-8,1.8-15.8,2.9-23.6
			c0.6-4.7,2.4-9.5,2.4-14.2c0-1.1-0.1-2.3-0.9-3.2c-3.4-4-5.3,4.3-5.8,5.9c-2.9,11.2-5.7,22.4-8.6,33.6
			c-0.7-13.3-2.5-26.5-5.6-39.5c-0.4-1.9-1.7-4.3-3.8-3.8c-1.8,0.4-2.2,2.5-2.1,4.2c0.4,13.3,0.8,26.5,1.2,39.8
			c-2.4-12.6-5.5-25.1-9.2-37.5c-0.2-0.7-0.5-1.5-1.3-1.8c-1.4-0.5-2.5,1.1-2.9,2.4c-1.7,6.3,0,12,1.2,18.1c1.3,6.5,0.7,13.8,0,20.3
			c-2.6-7.9-5.2-15.9-10-23c-0.6-0.9-2-1.9-2.8-1.1c-0.2,0.2-0.3,0.5-0.3,0.7c-1.2,5.2,0.7,11.5,1.3,16.8c0.8,7,1.1,14,0.8,21.1
			c-0.4,9.6-1.5,19.3,0.3,28.8c3.1,16.5,13.7,32.4,22.7,46.8c10,16.1,21.1,31.6,33.4,46.3c16.2,19.5,40.6,39.8,68.4,26.6
			c17.2-8.1,30.1-22.1,41.3-36.3c9.3-11.7,15-26,24.1-37.4C2231.5,724.5,2252.9,725.2,2249.5,715z"/>
	</g>
	<g opacity="0.15">
		<path fill="#FF65A7" d="M2242.8,714.4c-0.1-2-0.3-3.9-0.5-5.9c-14.3-8.5-30-14.9-45.7-21.3c-3.7-1.5-7.6-3.1-11.7-3.2
			c-10.2-0.3-17.6,7.2-22.4,14.2c-4,5.8-8.3,11.5-12.7,17.1c6.1,9.5,13.4,18.4,21.2,26.8c7.1,7.6,14.7,15,23.7,20.8
			c2.6,1.7,5.4,3.3,8.3,4.7c9.1-11.6,14.7-25.6,23.6-36.8c2.7-3.4,10.4-4.7,16.2-6.9C2242.9,720.6,2242.9,717.5,2242.8,714.4z"/>
	</g>
	<path fill="#F1AAB2" d="M2200.9,1259.1v28.7c0,0-54.1-7.6-56.6,24l118.8,1.6l-2.3-66.7"/>
	<path fill="#F1AAB2" d="M2412.6,1251.1l5.4,28.3c0,0,51.9-15.6,60.3,15.3l-116.8,19.3l-10.2-66.1"/>
	<polygon fill="#FFC364" points="2185.9,994.3 2190.6,1266.6 2271.2,1268.3 2275.1,985.1 	"/>
	<path fill="#D37F46" d="M2200.9,1282.9v5c0,0-54.1-7.6-56.6,24l118.8,1.6l-0.7-20c-5.7,1.2-11.1,3.5-15.8,6.7
		C2233.8,1290.5,2217.6,1284.5,2200.9,1282.9z"/>
	<polygon fill="#FFC364" points="2378,987.7 2424.3,1256.9 2345.1,1270.6 2288.3,991.9 	"/>
	<path fill="#D37F46" d="M2417.1,1274.5l0.9,4.9c0,0,51.9-15.6,60.3,15.3l-116.8,19.3l-3.1-19.9c5.8,0.4,11.6,1.8,16.8,4.2
		C2386.1,1286.9,2400.9,1278.6,2417.1,1274.5z"/>
	<g>
		<g>
			<path fill="#EFB35B" d="M2260.8,986.5c-0.4,7.6-0.9,16.9-1.4,27.6c-1.5,31.5-3.1,75-4.3,123.1c-1.2,48.1-1.6,91.6-1.7,123.1
				c0,2.6,0,5.1,0,7.5l1.3,0c0-2.4,0.1-4.9,0.1-7.5c0.4-31.5,1.1-75,2.2-123.1c1.2-48.1,2.6-91.6,3.7-123.1
				c0.4-10.5,0.7-19.8,1-27.8L2260.8,986.5z"/>
			<path fill="#EFB35B" d="M2271.4,1251.6c-11.9,0.3-24.9,0.5-38.5,0.4c-15.3-0.1-29.7-0.6-42.6-1.2l0.1,3.2
				c12.9,0.8,27.3,1.4,42.5,1.6c13.7,0.1,26.7-0.2,38.5-0.7L2271.4,1251.6z"/>
			<path fill="#EFB35B" d="M2302.7,991.2c1.8,7.5,4,16.6,6.5,27.1c7.3,30.8,17.1,73.5,27.3,120.7c10.1,47.2,18.7,90.1,24.6,121.2
				c0.5,2.6,1,5,1.4,7.4l-1.3,0.2c-0.5-2.4-1-4.9-1.5-7.4c-6.3-31-15.1-73.8-25.2-121c-10.1-47.2-19.7-89.9-26.7-120.8
				c-2.3-10.3-4.4-19.4-6.2-27.3L2302.7,991.2z"/>
			<path fill="#EFB35B" d="M2341.7,1254.1c11.7-1.4,24.6-3.2,38.1-5.3c15-2.4,29.2-5,41.8-7.6l0.5,3.2c-12.5,2.7-26.7,5.5-41.6,7.9
				c-13.5,2.1-26.3,3.8-38.1,5.1L2341.7,1254.1z"/>
		</g>
	</g>
	<g>
		<path fill="#F1AAB2" d="M2470.6,761.6c-4.8-23.5-13.9-47.2-29.9-66.6c-6.9-8.3-15.3-20.6-27.9-16.4c-13.2,4.3-26.5,14.3-37.4,22.1
			c-1.5,1-3,2.1-3.8,3.6c-3,5.4,6.7,18,8.5,22.9c3.9,10.6,6.4,21.1,11.7,31.3c-20.7,1.5-40.9,8.4-60.6,13.6
			c-18.2,4.8-36.3,9.8-54.4,14.9c1.4,16,5.1,32,10.6,47.4c49.3,4.7,100.5,0.6,145.4-17.5c11.7-4.7,22.9-11.8,31.4-20.6
			C2474.1,786,2473.2,774.5,2470.6,761.6z"/>
	</g>
	<g>
		<path fill="#525798" d="M2327.3,561c1.8,2.3,4.9,3.6,8,4c3.1,0.4,6.3,0,9.3-0.5c3.5-0.5,7.1-1.2,10.2-2.6c5.8-2.6,9.9-7.6,12.3-13
			c2.4-5.4,3.3-11.2,4.2-16.9c-10,2.2-20.6,2.3-30.6,0.3"/>
	</g>
	<g>
		<path fill="#F4D13D" d="M2209.3,487.7c-8-0.7-16.1-1.3-24.2-1.6c-0.5,1-1.1,1.9-1.6,2.9c8.6,0.3,17.2,0.9,25.8,1.7
			C2211.4,490.9,2211.4,487.9,2209.3,487.7z"/>
	</g>
	<g>
		<path fill="#DB8F9A" d="M2199.8,493.6c-8.4-0.6-16.2,5.5-18.7,12.7c-2.5,7.2-0.7,15.1,2.6,22.1c5.3,11.4,16.9,21.7,31.9,19.7"/>
	</g>
	<g>
		<path fill="#C1747F" d="M2210,539.9c0.3,0,0.7-2.5,0.2-6.4c-0.5-3.9-2.1-9.3-5.4-14.7c-3.3-5.3-7.5-9.5-10.9-12
			c-3.4-2.5-5.9-3.6-6.1-3.3c-0.5,0.6,8.5,6.2,14.7,16.5C2208.7,530.2,2209.1,539.9,2210,539.9z"/>
	</g>
	<g>
		<path fill="#F4D13D" d="M2370.5,427.7c0,0.3,2.2,0.8,6.3,1.4c4.1,0.5,10,1.2,17.4,1.2c7.4,0,16.5-0.5,26-3.4
			c4.7-1.4,9.9-3.4,14.1-7.2c2.1-2,3.8-4.3,4.6-7.4c0.4-1.5,0.3-3.5-0.8-5.2c-1-1.7-2.7-2.8-4.2-3.4c-1.6-0.7-3.2-1.1-4.7-1.3
			c-1.5-0.2-3-0.3-4.4-0.4c-2.9-0.1-5.8,0.1-8.5,0.5c-5.5,0.8-10.4,2.2-15.1,3.7c-9.3,3-17.1,6.7-23.5,10
			c-12.7,6.7-20,11.5-19.6,12.1c0.4,0.6,8.4-3.2,21.4-9c6.5-2.8,14.3-6.1,23.3-8.8c4.5-1.3,9.3-2.6,14.2-3.2c2.5-0.3,5-0.5,7.5-0.4
			c1.2,0.1,2.5,0.2,3.7,0.3c1.2,0.2,2.3,0.5,3.2,0.9c0.9,0.4,1.6,0.9,1.9,1.4c0.3,0.5,0.4,1.1,0.2,1.9c-0.4,1.7-1.6,3.6-3.1,5
			c-3.1,3-7.5,4.9-11.9,6.3c-8.7,2.9-17.3,3.8-24.5,4.2c-7.2,0.4-13.1,0.3-17.2,0.3C2372.8,427.3,2370.5,427.4,2370.5,427.7z"/>
	</g>
	<g>
		<path fill="#F4D13D" d="M2360.3,427.5c-0.5,0.5,5.7,6.3,16.1,15.2c5.3,4.3,11.2,10,19.7,14.8c4.2,2.3,9.1,4.3,14.5,5.4
			c2.7,0.6,5.4,0.9,8.5,0.9c3-0.1,6.3-0.7,9.2-2.7c1.5-1,2.7-2.6,3.2-4.3c0.5-1.7,0.3-3.5-0.3-5c-1.2-2.9-3.3-4.9-5.3-6.6
			c-3.9-3.3-7.9-6.2-12.1-8.6c-8.3-4.7-16.7-7.6-23.9-9.1c-7.2-1.5-13.2-1.8-17.3-1.7c-4.1,0.1-6.3,0.6-6.3,0.9
			c0,0.8,9.1,0.5,22.6,4.2c6.7,1.9,14.5,4.9,22.1,9.5c3.8,2.3,7.6,5.1,11.1,8.2c1.8,1.5,3.3,3.2,3.9,4.8c0.6,1.6,0.2,2.8-1.2,3.8
			c-1.4,1-3.8,1.6-6.1,1.6c-2.2,0-4.8-0.3-7.2-0.7c-4.7-0.9-9.1-2.6-13.1-4.6c-7.9-4.1-14.1-9.4-19.7-13.5
			C2367.9,431.9,2360.8,427,2360.3,427.5z"/>
	</g>
	<g>
		<path fill="#525798" d="M2362,420.6c8.8,3.1,17.3,7.7,22.4,14.8c9.1,12.7,9.9,29,8,43.6c-1.7,13.4-4.6,32.9-15.4,42.9
			c-6.9-5.7-11.8-13.4-13.6-21.7c-3.1-13.4,1.5-28.3-5.2-40.6c-3.3-6.1-9.2-11-11.9-17.4c-2-4.6-2.2-9.8-5.4-13.8
			c-3.1-3.9-13.4-9.2-5.2-13.4C2342.1,411.7,2356,418.4,2362,420.6z"/>
	</g>
	<g>
		<path fill="#F1AAB2" d="M2320,577.9c16-7.3,24.6-22.1,32.1-35.9c5.7,1.8,12.2,0.3,17.3-2.7c7.6-4.5,16.7-13.4,16.1-22.1
			c-0.5-7.1-0.9-16.5-5.4-22.7c-5.5-7.6-17.2-10.5-26.9-8.1c0.4-12.7,2.7-23.2-1.6-35.8c-3.6-10.5-10.6-19.8-21.3-25.4
			c-25.9-13.5-56-13.2-83.2-3c-15.1,5.7-28.6,15.3-36.7,28.1c-10.9,17.3-11.1,38.3-9.7,58.1c1.3,18.3,3.9,37.2,14.6,52.8
			c10.7,15.6,31.6,27.1,51.6,22.9c0.9,7.2,1.2,14.5,0.7,21.7c-5.6,0.6-11.1,1.9-16.4,3.8c7.1,11,21.2,17.4,35.4,19
			c14.1,1.6,28.5-0.9,42.3-4c4.5-1,9.1-2.1,12.9-4.5c3.8-2.4,6.6-6.5,5.9-10.6c-8.7-2.4-20.3-2.2-28-6.9c-6.4-4-4.5-16.2-5.2-22.6
			C2316.4,579.5,2318.2,578.7,2320,577.9z"/>
	</g>
	<path fill="#D37F46" d="M2256.3,606c0,0-46.1-2.4-74.3,44.1c-23.3,38.2-31.2,51.8-31.2,51.8s16.8,18.4,38,21.2
		c21.2,2.8,89.6,19.9,89.6,19.9l32,41.7l56.1,36.5l5.8,7.4l-3.4-105.8l8.7,16.3c0,0,48.7-8,75.7-38.3c0,0-40.2-49.5-46.8-58
		c-8.2-10.5-20.4-26.7-75.6-36.9C2330.8,605.9,2293.7,638.2,2256.3,606z"/>
	<g>
		<g>
			<path fill="#C1747F" d="M2371.4,495.3c0-0.2-0.8-0.3-2.2-0.3c-1.4,0.1-3.6,0.5-5.8,1.7c-2.3,1.1-4.7,3.1-6.6,5.7
				c-1.9,2.6-3.2,5.8-4,9.2c-1.7,6.8-0.9,13.3,0.3,17.6c1.3,4.4,2.9,6.8,3.2,6.7c0.4-0.1-0.6-2.7-1.3-7c-0.7-4.3-1.1-10.3,0.5-16.8
				c0.8-3.2,1.9-6.1,3.5-8.5c1.6-2.4,3.5-4.2,5.5-5.4C2368.2,495.7,2371.4,495.7,2371.4,495.3z"/>
		</g>
		<g>
			<path fill="#C1747F" d="M2360.8,531.1c0.3,0.2,1.6-1,2.8-3.4c1.2-2.4,2-6,1.3-10c-0.7-4-2.7-7.2-4.6-9.1
				c-1.9-1.9-3.6-2.7-3.8-2.4c-0.3,0.3,0.9,1.4,2.2,3.5c1.4,2,2.9,5,3.5,8.5c0.6,3.5,0.2,6.8-0.4,9.1
				C2361.1,529.5,2360.4,530.9,2360.8,531.1z"/>
		</g>
	</g>
	<g>
		<path fill="#C1747F" d="M2268.5,521.4c-0.1-0.2-1,0.2-2.7,0.5c-1.7,0.3-4.2,0.6-7.1-0.1c-2.6-0.6-7.4-2.3-4.3-4.7
			c1.3-1.3,2.9-2.7,4.5-4.2c1.6-1.5,3.2-3.3,4.2-5.5c2-4.5,1.3-9,0.4-12.7c-0.9-3.7-2.2-6.9-3.1-9.6c-1.9-5.4-3.3-8.7-3.7-8.6
			c-0.4,0.1,0.4,3.5,1.8,9.1c0.7,2.8,1.8,6,2.5,9.6c0.7,3.6,1.2,7.6-0.5,11.3c-1.6,3.7-5.4,6.2-8.1,9.2c-0.7,0.7-1.6,1.8-1.5,3.2
			c0.1,1.4,1.2,2.3,2,2.9c1.8,1.1,3.6,1.5,5.3,1.7c3.4,0.5,6.1-0.1,7.8-0.7C2267.8,522.2,2268.6,521.5,2268.5,521.4z"/>
	</g>
	<g>
		<path fill="#C1747F" d="M2279.8,524.8c-0.4-0.2-1.2,0.9-2.8,2.4c-1.6,1.5-3.9,3.4-7.1,4.6c-3.1,1.2-6.3,1.3-8.5,1.1
			c-2.3-0.2-3.6-0.7-3.9-0.4c-0.2,0.2,0.9,1.3,3.4,2.1c2.4,0.7,6.3,0.9,10-0.5c3.7-1.4,6.2-3.9,7.5-5.8
			C2279.8,526.3,2280.1,524.9,2279.8,524.8z"/>
	</g>
	<g>
		<ellipse fill="#C1747F" cx="2238.3" cy="505.7" rx="1.4" ry="7"/>
	</g>
	<g>
		<path fill="#C1747F" d="M2289.7,509.3c0.7-0.1,1.2-3.3,1-7.2c-0.2-3.9-1-7.1-1.8-7.1c-0.8,0-1.2,3.2-1,7.2
			C2288.1,506.2,2288.9,509.4,2289.7,509.3z"/>
	</g>
	<ellipse opacity="0.15" fill="#FF65A7" cx="2312.5" cy="534.1" rx="20.4" ry="18.3"/>
	<path opacity="0.15" fill="#FF65A7" d="M2234.3,539.9c0-10.1-9.2-18.3-20.4-18.3c-4.2,0-8.2,1.2-11.4,3.1
		c1.7,11.7,4.7,23.1,10.9,33.4c0.2,0,0.4,0,0.5,0C2225.1,558.2,2234.3,550,2234.3,539.9z"/>
	<path fill="#C1747F" d="M2306.7,473.7c-1.3,3.6-8.1,4.9-15.2,2.9s-11.9-6.6-10.6-10.2c1.3-3.6,8.1-4.9,15.2-2.9
		S2308,470.1,2306.7,473.7z"/>
	<path fill="#C1747F" d="M2243.3,466.6c1.6,3.5-2.8,8.4-9.7,10.8c-6.9,2.5-13.8,1.6-15.4-1.9c-1.6-3.5,2.8-8.4,9.7-10.8
		C2234.8,462.2,2241.7,463.1,2243.3,466.6z"/>
	<g>
		<path fill="#525798" d="M2371.4,461.4c0.2-15.2-3.1-30.8-17.3-40.1c-15.6-10.2-35.2-15.1-53.8-17.7c-17.2-2.3-34.7-4.6-52-2.7
			c-17.3,2-34.6,8.8-44.7,21.5c-10.3,12.9-11.6,29.7-12.6,45.5c15-0.2,30.1-0.1,45.1,0.4c2.8-8.4,5.5-16.8,8.3-25.2
			c0.4,7.9,0.9,15.9,1.3,23.8c16.9,1,33.8,2.1,50.7,3.1c0.9,0.1,1.9,0.1,2.8-0.3c1-0.4,1.5-1.4,2-2.3c4.2-7.5,8.4-14.9,12.6-22.4
			c1.6,8.6,2.5,17.3,2.7,26c7.7,0.7,15.4,1,23.2,1c-0.3,8.1,5.1,16.2,13.2,19.9c1.3,0.6,2.7,1.1,4.2,1c2.7-0.2,4.7-2.2,6.2-4.2
			C2369.2,480.7,2371.3,470.9,2371.4,461.4z"/>
	</g>
	<g>
		<path fill="#AC6C45" d="M2448.4,695.1c-0.4-0.5-0.8-1-1.3-1.5c-0.9,0.8-1.9,1.5-2.9,2.3c-2.3,1.9-5.1,3.7-7.9,5.7
			c-5.7,3.8-12.3,7.6-19.6,11c-7.3,3.4-14.6,6-21.3,8.1c-3.4,0.9-6.6,1.9-9.7,2.5c-3.1,0.8-6,1.3-8.6,1.7c-1.4,0.2-2.7,0.4-3.9,0.6
			l0.8,1.5c1.1-0.1,2.3-0.2,3.5-0.4c2.7-0.4,5.7-0.8,8.8-1.5c3.2-0.6,6.5-1.5,9.9-2.4c6.9-2,14.3-4.6,21.8-8
			c7.4-3.5,14.1-7.5,19.8-11.4c2.8-2,5.5-4,7.8-6C2446.6,696.6,2447.5,695.8,2448.4,695.1z"/>
	</g>
	<g>
		<path fill="#AC6C45" d="M2434.7,689.7c-0.2-0.3-3.3,1.3-8.2,4c-4.9,2.7-11.6,6.5-19.3,10.2c-7.7,3.7-14.9,6.4-20.4,8
			c-5.4,1.6-8.9,2.3-8.8,2.6c0,0.3,3.7,0.2,9.3-1c5.7-1.2,13.3-3.7,21.1-7.5c7.8-3.8,14.4-7.8,19.1-10.9
			C2432.2,692,2434.9,689.9,2434.7,689.7z"/>
	</g>
	<path fill="#AC6C45" d="M2207.4,719.1c8,1.7,13.1,2,13.1,1.7c0.1-0.4-4.9-1.2-12.6-3.3c-3.9-1-8.4-2.5-13.3-4.3
		c-4.9-1.9-10.1-4.2-15.4-7c-5.2-2.8-10-5.9-14.1-8.9c-3-2.2-5.6-4.3-7.9-6.2c-0.4,0.6-0.7,1.2-1,1.7c2.2,2,4.6,4.1,7.4,6.2
		c4.2,3.1,9,6.3,14.3,9.2c5.4,2.9,10.8,5.2,15.8,7C2198.7,716.9,2203.4,718.3,2207.4,719.1z"/>
	<g>
		<path fill="#AC6C45" d="M2214.3,705.4c0.2-0.7-11.4-3.3-24.4-9.1c-13.1-5.6-22.6-12.1-23.1-11.6c-0.5,0.4,8.5,7.9,21.9,13.7
			C2202.1,704.4,2214.2,706,2214.3,705.4z"/>
	</g>
	<path fill="#AC6C45" d="M2295.9,775.6c16.7-0.5,32.6-2.3,46.8-4.8c5.9-1.2,11.5-2.3,16.8-3.7l-0.6-1.9c-5.3,1.3-10.9,2.3-16.7,3.5
		c-14.1,2.4-29.8,4.1-46.4,4.6c-16.6,0.3-32.3-0.8-46.6-2.5c-7.1-1.1-13.8-1.9-20-3.3c-3.1-0.6-6.1-1.1-9-1.9
		c-2.8-0.7-5.5-1.4-8.2-2.1c-3.2-0.7-6.2-1.6-9-2.5c-0.1,0.2-0.4,0.7-0.7,1.3c2.8,0.9,5.8,1.9,9.1,2.7c2.7,0.7,5.4,1.5,8.2,2.2
		c2.9,0.8,5.9,1.3,9,2c6.2,1.5,13,2.4,20.2,3.6C2263.3,774.8,2279.2,775.9,2295.9,775.6z"/>
	<g>
		<path fill="#AC6C45" d="M2376.3,788.2c-0.1-0.2-2.6,0.6-7,2c-4.5,1.4-10.9,3.3-19.1,5.4c-8.1,2-17.9,4.2-28.9,5.7
			c-11,1.6-23.2,2.7-36.1,3c-25.7,0.5-48.9-2.6-65.3-6.1c-8.2-1.7-14.6-3.9-18.7-5.9c-4.2-1.9-6.2-3.4-6.4-3.2
			c-0.1,0.1,0.4,0.5,1.4,1.2c1,0.7,2.4,1.7,4.5,2.8c4.1,2.2,10.5,4.7,18.7,6.7c16.4,4,39.8,7.4,65.9,6.8c13-0.3,25.3-1.5,36.4-3.2
			c11.1-1.7,20.9-4.1,29-6.2c8.1-2.3,14.5-4.5,18.9-6.1C2374,789.4,2376.4,788.4,2376.3,788.2z"/>
	</g>
	<path fill="#3D447A" d="M2358.8,764.8l20.2-51.3c0,0-32.1-45.1-15.6-101.4c-4.1-1.5-8.3-2.8-12.5-4.2c-5.4,12.9-10.6,43.1-13,58.3
		c-0.9,6-5.5,11.1-11.8,13.2c-45.1,15.4-94.4-4.6-97.7-14c-3-8.5-0.2-44.2,0.7-55.7c-2.8,0.7-5.5,1.6-8.2,2.7l-8,47
		c0,0-33.2,30.8-24.2,63.7s14.4,37.8,14.4,37.8s-8.2,14.2-17.3,54.6c-9.1,40.4-27.4,181.6-27.4,181.6s134.8,43,267.8-14
		L2358.8,764.8z"/>
	<path fill="#6B75C1" d="M2301.1,791.2c-25.8,2-51.6,1.4-76.9-2.9v57.4c0,21.6,19.6,39.2,43.9,39.2h16.1c24.2,0,43.9-17.5,43.9-39.2
		v-57.4C2319.1,789.6,2310.1,790.5,2301.1,791.2z"/>
	<path fill="#6B75C1" d="M2301.1,791.2c-25.8,2-51.6,1.4-76.9-2.9v57.4c0,21.6,19.6,39.2,43.9,39.2h16.1c24.2,0,43.9-17.5,43.9-39.2
		v-57.4C2319.1,789.6,2310.1,790.5,2301.1,791.2z"/>
	<g>
		<path fill="#657DDD" d="M2292.6,695.2l-66.6,4.2l-1.6-19.9c-0.2-2.1,1.4-3.9,3.4-4l59.4-3.8c2-0.1,3.7,1.4,3.8,3.4L2292.6,695.2z"
			/>
		<path fill="#FFC364" d="M2344.8,855.4l-145.4,9.2c-2,0.1-3.7-1.4-3.8-3.5l-13.1-165.7c-0.2-2.1,1.4-3.9,3.4-4.1l145.4-9.2
			c2-0.1,3.7,1.4,3.9,3.5l13.1,165.7C2348.4,853.5,2346.9,855.3,2344.8,855.4z"/>
		<g>
			<path fill="#EFAD2B" d="M2212,855.5c-4.6,0-8.5-3.2-8.8-7.4L2192,707.4c-0.3-4.4,3.3-8.2,8.2-8.5l117.8-7.5
				c4.9-0.3,9.1,3,9.5,7.3l11.2,140.7c0.2,2.1-0.6,4.2-2.1,5.7c-1.6,1.6-3.7,2.6-6.1,2.7l-117.8,7.5
				C2212.5,855.5,2212.2,855.5,2212,855.5z M2318.6,693.2c-0.2,0-0.3,0-0.5,0l-117.8,7.5c-3.8,0.2-6.6,3.2-6.3,6.5l11.2,140.7
				c0.3,3.3,3.5,5.9,7.3,5.7l117.8-7.5c1.8-0.1,3.5-0.9,4.7-2.1c1.2-1.2,1.8-2.8,1.7-4.4l-11.2-140.7
				C2325.2,695.7,2322.2,693.2,2318.6,693.2z"/>
		</g>
	</g>
	<path fill="#4C589E" d="M2422.2,969.9c-30.7,10.1-70.8,20.6-115.9,24.9c-26.1,2.4-51.3,2.4-73.9,0.4c-11.3-0.9-22-2.4-32-4.1
		c-5-0.9-9.8-1.8-14.3-2.8c-4.5-1.1-9-1.9-13.1-3.1c-4.4-1.1-8.6-2.3-12.5-3.5c-0.1,0.8-0.2,1.6-0.3,2.3c3.8,1.2,7.8,2.4,12,3.6
		c4.1,1.2,8.6,2.2,13.1,3.3c4.6,1.1,9.4,2,14.4,3c10,1.8,20.8,3.4,32.3,4.4c22.9,2.2,48.3,2.3,74.7-0.1c26.4-2.5,51.2-7.2,73.3-12.9
		c15.8-4,30.2-8.5,43-12.9L2422.2,969.9z"/>
	<g>
		<g>
			<g>
				<path fill="#F4D13D" d="M2342.4,488.6c17,0.4,68.4-3.2,69.4,19.9c0.1,1.9,3.4,2.1,3.3,0.1c-0.4-10.3-8.4-15.6-18.9-18.5
					c-16.8-4.6-36.2-4-53.6-4.4C2340.5,485.6,2340.3,488.5,2342.4,488.6L2342.4,488.6z"/>
			</g>
		</g>
		<g>
			<g>
				<path fill="#F4D13D" d="M2217.1,535.2c-21.3-1-37.7-17.2-36.6-36.2s19.3-33.6,40.5-32.7c21.3,1,37.7,17.2,36.6,36.2
					S2238.4,536.1,2217.1,535.2z M2220.9,469.4c-19.3-0.9-35.8,12.4-36.8,29.7c-1,17.2,13.9,32,33.2,32.9
					c19.3,0.9,35.8-12.4,36.8-29.7C2255.1,485.1,2240.2,470.3,2220.9,469.4z"/>
			</g>
			<g>
				<path fill="#F4D13D" d="M2308.3,537.8c-21.3-1-37.7-17.2-36.6-36.2s19.3-33.6,40.5-32.7c21.3,1,37.7,17.2,36.6,36.2
					C2347.7,524.1,2329.6,538.8,2308.3,537.8z M2312.1,472.1c-19.3-0.9-35.8,12.4-36.8,29.7c-1,17.2,13.9,32,33.2,32.9
					c19.3,0.9,35.8-12.4,36.8-29.7C2346.3,487.7,2331.4,473,2312.1,472.1z"/>
			</g>
			<g>
				<g>
					<path fill="#F4D13D" d="M2273.3,504c0.1-0.7,0.1-1.4,0.3-2.1c0.2-0.6,0.1-0.4,0,0.6c0.1-0.7,0.3-1.3,0.5-1.9
						c-4.4-5.7-14.4-6-18.8,0.8c-1.1,1.6,1.7,3.3,2.8,1.6c3.7-5.7,12.7-4.8,14.6,1.7c0.1,0.5,0.5,0.8,0.9,1
						C2273.4,505,2273.3,504.5,2273.3,504z"/>
				</g>
			</g>
		</g>
	</g>
	<g>
		<ellipse fill="#EFAD2B" cx="2350.6" cy="659.7" rx="23.9" ry="21.4"/>
		<g>
			<ellipse fill="#5646A1" cx="2339.1" cy="654.9" rx="1.8" ry="2.9"/>
			<ellipse fill="#5646A1" cx="2362.1" cy="654.9" rx="1.8" ry="2.9"/>
		</g>
		<g>
			<path fill="#CE4576" d="M2343.4,656.6C2343.4,656.6,2343.4,656.6,2343.4,656.6c0,3.6,3.2,6.5,7.2,6.5s7.2-2.9,7.2-6.4
				c0,0,0,0,0-0.1H2343.4z"/>
			<path fill="#FF5C9E" d="M2350.6,663.1c2,0,3.9-0.8,5.2-2c-1.2-1.4-3.1-2.3-5.2-2.3c-2.1,0-4,0.9-5.2,2.3
				C2346.8,662.3,2348.6,663.1,2350.6,663.1z"/>
		</g>
	</g>
	<g>
		<path fill="#F1AAB2" d="M2470.6,761.6c-2-9.7-4.7-19.3-8.3-28.7c-6.7,1.8-13.5,3.3-20.3,4.5c-15.7,2.8-31.7,4.8-47.6,6.9
			c-2.7,0.3-5.5,0.7-8.2,0.9c1.6,4.5,3.3,8.9,5.6,13.3c-20.7,1.5-40.9,8.4-60.6,13.6c-6.5,1.7-13.1,3.5-19.6,5.3
			c-15.5,2.9-30.1,8.5-46.6,7.8c-5.7-0.2-11.5-1-17.2-0.1c-0.6,0.1-1.4,0.3-1.6,0.8c-0.4,0.7,0.3,1.5,0.9,2
			c2.8,2.1,6.6,2.7,10.2,3.2c4.5,0.6,9,1.3,13.5,1.9c-14.4,4.9-30.9,6.4-42.7,15.4c-1.8,1.4-3.5,3-4,5.1c3.8,1.2,7.8-0.7,11.5-2.3
			c6.9-3,14.4-5.1,22.1-5.9c-12.8,4.3-25.5,10.5-33.3,20.6c-0.7,0.9-1.3,1.8-1.4,2.9c0,1.1,0.8,2.2,2,2.2c0.9,0,1.6-0.6,2.3-1.1
			c8.6-7.3,18.8-13.1,29.9-17c-6.9,4.5-13.9,9.1-19.9,14.5c-3.3,3-6.4,6.5-6.9,10.7c-0.1,0.7,0,1.6,0.7,1.9c0.7,0.3,1.5-0.1,2.1-0.6
			c8.4-5.7,16.8-11.5,25.2-17.2c-6.3,6-12.6,12.2-16.1,19.8c-0.9,1.9-0.9,4.8,1.4,5.1c7-4.3,11.2-12,19-14.7
			c6.6-2.3,14.1-0.5,21,0.9c3.5,0.7,7,1.2,10.5,1.6c0,0,0,0,0,0c0.1,0,0.1,0,0.2,0c5.2,0.6,10.4,0.9,15.7,0.9
			c42.1,1.6,84.6-3.6,122.7-19c11.7-4.7,22.9-11.8,31.4-20.6C2474.1,786,2473.2,774.5,2470.6,761.6z"/>
	</g>
	<path fill="#F2985A" d="M2326.8,652.3c0,0,14.8-21.2,15.3-44.1c-3.5-0.8-7.3-1.6-11.3-2.3c0,0-37.1,32.3-74.5,0.1
		c0,0-2.6-0.1-6.9,0.3c-2.1,9.7-4.9,28.3-0.6,43.8l43.1-25.8L2326.8,652.3z"/>
	<path fill="#AC6C45" d="M2335.9,619c0.9-4.2,1.4-8.2,1.6-11.8c-0.6-0.1-1.2-0.2-1.8-0.4c-0.3,3.6-0.8,7.6-1.8,11.9
		c-2.7,13.1-8.1,23.1-9,25.6c-1.1-1.6-7-7.4-13.7-14.4c-3.8-3.9-6.9-7.7-9.2-10.5c-0.5,0.1-1,0.2-1.5,0.2c2,3.1,5.1,7.2,9.2,11.4
		c7.1,7.4,13.7,12.9,15.1,13.6c0,0.1,0,0.2,0,0.2c0,0,0.1,0,0.2-0.1c0,0,0.1,0,0.1,0c0,0,0-0.1,0-0.1c0.6-0.7,2.3-3.1,4.2-6.9
		C2331.6,633.2,2334.3,626.6,2335.9,619z"/>
	<path fill="#AC6C45" d="M2281.6,619.1c-2.8,2-5.9,4.2-9.2,6.6c-9.8,6.9-18.2,12.3-20.5,14.2c0.2-2.8,0.2-10.6,1.2-19.7
		c0.6-5.5,1.4-10.5,2.1-14.2c-0.4,0-0.9,0-1.5,0c-1,3.6-2,8.5-2.6,14c-1.1,9.8-0.3,18,0.3,20.3c-0.1,0.1-0.1,0.1-0.1,0.2
		c0,0,0.1,0,0.1,0c0.1,0.3,0.2,0.5,0.2,0.5c0.1,0,0.2-0.2,0.2-0.6c1-0.4,3.3-1.6,6.3-3.4c4.1-2.4,9.6-5.8,15.5-10
		c3.8-2.6,7.2-5.2,10.2-7.5C2283,619.4,2282.3,619.3,2281.6,619.1z"/>
	<g>
		<path fill="#C1747F" d="M2161.2,752.3c0.3-0.1-1.2-4-4.4-10c-3.2-6-8.2-14-14.8-22.3c-6.6-8.3-13.5-15.1-18.8-19.8
			c-5.3-4.7-8.9-7.2-9.2-7c-0.6,0.5,12.8,11.8,25.7,28.1C2153,737.7,2160.5,752.6,2161.2,752.3z"/>
	</g>
	<g>
		<path fill="#C1747F" d="M2430.8,752.2c0-0.3-4.4-0.2-11.3,0.4c-6.9,0.6-16.5,1.8-27,3.6c-10.5,1.8-19.8,4-26.5,5.7
			c-6.7,1.8-10.7,3.1-10.6,3.4c0.2,0.7,16.9-3.2,37.7-6.8C2413.8,754.8,2430.9,752.8,2430.8,752.2z"/>
	</g>
</g>
<g>
	<g>
		<path fill="#F1AAB2" d="M2691.9,683.3c-7.8-4.5-15-8-20.9-14.5c-4.4-4.8-7.7-9.9-13.4-13.9c-26.8-18.2-49.5,16.2-65.7,30.9
			c-14.1-23.4-28.5-46.3-42.2-69.8c-2.7-8.4-1.8-17.8,2.2-25.6c2.1-4,4.7-7.7,6.4-11.9c1.2-2.9,0.4-6.2-4.4-4.5
			c-2.1,0.7-3.8,2.6-5.3,3.9c-2.2,1.9-4.4,3.9-6.3,6c-0.8,0.9-5.3,4.7-5,5.8c-2.4-10.7,0.6-21.5,1.8-32.2c0.5-4.1,1.7-9.9-0.2-13.8
			c-0.7-1.5-2.7-3.8-4.7-2.6c-1.2,0.7-1.2,2.8-1.5,3.9c-1.2,4.4-2.3,8.8-3.3,13.3c-1,4.6-2,9.2-2.8,13.8c-0.7,4-2.4,8.9-2,12.9
			c-1.5-15.7-5.2-31.3-10.9-46.3c-0.4-0.9-0.8-2-1.8-2.5c-1.7-0.9-4.1,0.1-5,1.6c-0.9,1.5-0.6,3.3-0.4,5c2,13.3,4.1,26.6,6.1,39.8
			c-5.5-9.9-11-19.8-16.5-29.7c-1.1-2-3.4-6.9-6.3-7.6c-3.1-0.7-3.9,2.1-3.2,4c1.3,3.9,3.2,7.8,4.8,11.6c3.3,7.9,6.5,15.8,9.8,23.8
			c-2.3-5.5-8.3-11-12.9-15.2c-2.5-2.3-5.4-5.2-8.9-6.5c-1.4-0.5-3.4-1.1-4.6,0.1c-1.9,1.8,1.3,5.5,2.6,7c3.4,4.1,6.5,8.4,8.8,13
			c3.8,7.6,4.9,17.5,4.2,25.6c-0.8,9,0.5,17.5,2.7,26.1c6,41.5,20.6,80.6,48.4,115.8c20,25.4,53,24.7,79.6,7.3
			c14.5-9.5,34.7-20.6,44.4-33.9C2668.3,720.1,2696.5,685.9,2691.9,683.3z"/>
	</g>
	<g opacity="7.000000e-002">
		<path fill="#E05A90" d="M2691.9,683.3c-7.8-4.5-15-8-20.9-14.5c-4.4-4.8-7.7-9.9-13.4-13.9c-23.7-16.1-44.2,8.9-59.8,25
			c14.2,21.3,34.8,39.7,59.4,52.9c3.2-2.9,6-5.8,8.3-8.9C2668.3,720.1,2696.5,685.9,2691.9,683.3z"/>
	</g>
	<g>
		<path fill="#F1AAB2" d="M2859.5,764c1.5,26.1,2,52.6-5.7,78.1c-1.6,5.2-5.6,11.1-6.3,16.3c-0.6,5.4,4.1,9.7,7.2,14.2
			c7.8,11.4,14.5,23.4,19.9,35.8c23.6-13.9,32-35.9,44.3-56.5c16.6-27.9,22-57.9,21.9-88.6c-0.1-29.5-4.6-59.6-19.1-86.7
			c-4.1-7.8-5.4-15.9-9.9-23.5c-0.7-1.2-1.5-2.5-3-3.1c-1.4-0.7-3.2-0.5-4.8-0.4c-11.4,1.1-21.7,3.2-30.9,8.9
			c-9.7,5.9-20.8,12.6-32.9,14.2C2851,702.7,2857.7,732.7,2859.5,764z"/>
	</g>
	<g opacity="7.000000e-002">
		<path fill="#E05A90" d="M2926.2,690c0.5-0.4,0.9-0.7,1.4-1.1c-1.7-4.1-3.6-8.2-5.8-12.3c-4.1-7.8-5.4-15.9-9.9-23.5
			c-0.7-1.2-1.5-2.5-3-3.1c-1.4-0.7-3.2-0.5-4.8-0.4c-11.4,1.1-21.7,3.2-30.9,8.9c-9.7,5.9-20.8,12.6-32.9,14.2
			c6,17.1,10.8,34.2,14.1,51.5c8.1-2.5,16-5.5,23.8-8.7C2895.3,708.5,2912.2,700.7,2926.2,690z"/>
	</g>
	<g>
		<path fill="#314584" d="M2844.8,465.8c5.5-15.7,8.4-32.1,8.6-48.5c0.1-8.4-0.5-16.7-1.7-25c-1.1-6.9-1.4-15.1-6.5-20.9
			c-5.8-6.6-15.6-11.2-25.3-10c-1.2,0.1-2.4,0.4-3.5,0c-0.8-0.3-1.5-0.9-2.1-1.4c-5-4.7-9.5-10.3-16.3-13.1
			c-6.8-2.8-14.1-5.4-21.4-7.1c-28.2-7-56.4-4.2-84.4,1.7c-13.8,2.9-27,6.2-38.8,13.2c-14.7,8.7-21.7,21-25.5,35.5
			c-6.3,23.9-1.7,52,5,75.4"/>
	</g>
	<g>
		<path fill="#E29CA6" d="M2641.9,444.5c-9.6-0.7-18.5,5.9-21.3,13.6c-2.8,7.7-0.8,16.2,3,23.6c5.6,11.2,18.1,21.8,33.8,20.3"/>
	</g>
	<g>
		<path fill="#C4707D" d="M2652.9,490.8c0.4,0,0.5-2.5-0.5-6.4c-0.9-3.9-3.2-9.2-7.1-14.3c-3.9-5.1-8.7-9.1-12.5-11.4
			c-3.8-2.4-6.5-3.3-6.7-3.1c-0.6,0.7,9.2,6,16.6,15.9C2650.3,481.3,2652,490.9,2652.9,490.8z"/>
	</g>
	<g>
		<path fill="#C4707D" d="M2644.6,489.8c0.2-0.4-1.5-1.3-3.7-3.1c-2.1-1.8-4.7-4.8-5.7-8.6c-1-3.8-0.3-7.4,0.7-9.8
			c1-2.5,2-3.9,1.7-4.1c-0.3-0.2-2.1,0.9-3.7,3.4c-1.6,2.5-2.9,6.7-1.7,11.1c1.2,4.4,4.5,7.7,7.3,9.4
			C2642.3,489.8,2644.4,490.1,2644.6,489.8z"/>
	</g>
	<g>
		<path fill="#F1AAB2" d="M2779,534.7c18.3-7.8,28.1-23.7,36.6-38.4c6.5,1.9,14,0.3,19.7-2.9c18.1-10.1,24.3-32.3,12.2-47.9
			c-6.3-8.1-19.6-11.3-30.7-8.6c0.4-13.6,3.1-24.8-1.9-38.3c-4.1-11.2-12.1-21.2-24.3-27.2c-29.6-14.5-63.9-14.1-94.9-3.2
			c-17.2,6.1-32.6,16.4-41.8,30c-12.5,18.5-12.6,40.9-11,62.1c1.5,19.6,4.4,39.8,16.6,56.5c11.9,16.3,36.9,29.1,60.2,27.8
			c0.1,5.8,1.2,11.5-0.4,17.1c-0.6,2.3,0.3,1.8-1.9,3c-1.4,0.7-4.5,0.6-6.1,1c-0.9,0.2-11,2.8-10.9,2.8
			c8.1,11.8,24.2,18.6,40.3,20.3c16.1,1.7,32.4-1,48.2-4.2c5.1-1.1,10.4-2.2,14.7-4.8c4.3-2.6,7.5-6.9,6.8-11.3
			c-9.9-2.6-23.2-2.3-31.9-7.4c-7.3-4.3-5.2-17.3-5.9-24.1C2774.8,536.4,2776.9,535.6,2779,534.7z"/>
	</g>
	<path fill="#F1AAB2" d="M2648,1248.7v30.1c0,0-60.3-8-63.2,25.2l132.6,1.7l-2.5-69.8"/>
	<path fill="#F1AAB2" d="M2884.2,1240.3l6,29.7c0,0,57.9-16.3,67.3,16l-130.4,20.2l-11.4-69.1"/>
	<polygon fill="#3D447A" points="2631.2,971.6 2636.4,1256.5 2726.4,1258.3 2730.7,961.9 	"/>
	<path fill="#525798" d="M2648,1273.5v5.2c0,0-60.3-8-63.2,25.2l132.6,1.7l-0.8-21c-6.3,1.3-12.4,3.6-17.6,7
		C2684.7,1281.6,2666.6,1275.3,2648,1273.5z"/>
	<path fill="#657DDD" d="M2714.8,963.5c-0.5,8-1,17.7-1.6,28.9c-1.7,32.9-3.5,78.5-4.8,128.8c-1.3,50.3-1.8,95.9-1.8,128.8
		c0,2.7,0,5.3,0,7.9l1.5,0c0-2.6,0.1-5.2,0.1-7.9c0.5-33,1.2-78.5,2.5-128.8c1.3-50.3,2.9-95.8,4.2-128.8c0.4-11,0.8-20.7,1.1-29.1
		L2714.8,963.5z"/>
	<polygon fill="#3D447A" points="2845.6,964.7 2897.2,1246.4 2808.8,1260.7 2745.5,969.1 	"/>
	<path fill="#657DDD" d="M2726.6,1240.8c-13.2,0.3-27.7,0.5-43,0.4c-17-0.1-33.2-0.6-47.6-1.3l0.1,3.4c14.4,0.9,30.5,1.5,47.5,1.6
		c15.2,0.1,29.8-0.2,43-0.7L2726.6,1240.8z"/>
	<path fill="#525798" d="M2889.1,1264.8l1,5.2c0,0,57.9-16.3,67.3,16l-130.4,20.2l-3.4-20.8c6.5,0.4,12.9,1.9,18.7,4.4
		C2854.6,1277.8,2871.1,1269.1,2889.1,1264.8z"/>
	<path fill="#657DDD" d="M2761.5,968.4c2.1,7.8,4.5,17.3,7.3,28.3c8.2,32.3,19.1,76.9,30.4,126.3c11.3,49.4,20.9,94.3,27.5,126.8
		c0.5,2.7,1.1,5.2,1.6,7.8l-1.4,0.2c-0.5-2.5-1.1-5.1-1.7-7.8c-7-32.4-16.8-77.2-28.1-126.7c-11.3-49.4-22-94.1-29.8-126.4
		c-2.6-10.8-4.9-20.3-6.9-28.5L2761.5,968.4z"/>
	<path fill="#657DDD" d="M2805.1,1243.5c13.1-1.5,27.5-3.3,42.5-5.6c16.8-2.5,32.6-5.3,46.6-7.9l0.6,3.3c-14,2.9-29.7,5.7-46.5,8.2
		c-15,2.2-29.4,4-42.5,5.3L2805.1,1243.5z"/>
	<g>
		<path fill="#C4707D" d="M2724.1,472.1c-0.1-0.2-1.2,0.1-3.1,0.3c-1.9,0.2-4.8,0.3-8-0.6c-2.9-0.8-8.1-3.1-4.3-5.3
			c1.6-1.3,3.6-2.6,5.6-4.1c2-1.5,4-3.3,5.4-5.6c2.7-4.6,2.4-9.5,1.8-13.5c-0.7-4.1-1.8-7.6-2.5-10.5c-1.6-5.9-2.9-9.5-3.3-9.5
			c-0.4,0.1,0,3.8,1.1,9.8c0.5,3,1.4,6.6,1.9,10.4c0.5,3.9,0.5,8.2-1.7,12c-2.2,3.8-6.8,6.2-10.2,9.2c-0.8,0.7-2,1.8-2,3.3
			c0,1.5,1.1,2.5,2,3.2c2,1.3,3.9,1.8,5.8,2.3c3.8,0.8,6.9,0.4,8.9-0.2C2723.2,472.8,2724.2,472.2,2724.1,472.1z"/>
	</g>
	<g>
		<path fill="#C4707D" d="M2690.7,460.4c0.9,0.1,1.9-3.2,2.3-7.3c0.4-4.1,0-7.5-0.8-7.5c-0.9-0.1-1.9,3.2-2.3,7.3
			C2689.5,456.9,2689.8,460.3,2690.7,460.4z"/>
	</g>
	<g>
		<path fill="#C4707D" d="M2749.4,460.8c0.9,0,1.7-3.4,1.8-7.6c0.2-4.2-0.4-7.6-1.3-7.7c-0.9-0.1-1.7,3.3-1.8,7.6
			C2747.9,457.4,2748.5,460.8,2749.4,460.8z"/>
	</g>
	<ellipse opacity="7.000000e-002" fill="#E05A90" cx="2770.5" cy="487.8" rx="23.3" ry="19.5"/>
	<path opacity="7.000000e-002" fill="#E05A90" d="M2681.2,494.1c0-10.8-10.4-19.5-23.3-19.5c-4.8,0-9.3,1.2-13,3.3
		c1.9,12.5,5.4,24.8,12.4,35.7c0.2,0,0.4,0,0.6,0C2670.8,513.6,2681.2,504.9,2681.2,494.1z"/>
	<path fill="#525798" d="M2709.8,565.3c0,0-51.4-2.5-83,46.1c-26,40-34.8,54.2-34.8,54.2s18.8,19.3,42.5,22.1
		c23.7,2.9,100,20.9,100,20.9l35.7,43.6l62.7,38.1l8.5,5.8l-3.8-110.7l9.7,17.1c0,0,52.3-6.4,82.4-38.2c0,0-47-51.6-54.3-60.5
		c-9.1-11-20.6-28.1-82.3-38.8C2792.9,565.2,2751.5,599,2709.8,565.3z"/>
	<path fill="#6B75C1" d="M2655.2,683.7c8.9,1.8,14.6,2,14.6,1.8c0.1-0.4-5.4-1.3-14-3.5c-4.3-1.1-9.3-2.6-14.8-4.5
		c-5.4-2-11.3-4.4-17.1-7.4c-5.8-3-11.1-6.2-15.8-9.3c-3.3-2.3-6.3-4.4-8.8-6.5c-0.4,0.6-0.8,1.2-1.1,1.8c2.4,2.1,5.2,4.2,8.2,6.5
		c4.6,3.3,10,6.6,16,9.6c6,3,12,5.4,17.6,7.4C2645.5,681.4,2650.7,682.8,2655.2,683.7z"/>
	<g>
		<path fill="#6B75C1" d="M2662.9,669.3c0.2-0.7-12.7-3.5-27.3-9.5c-14.7-5.9-25.2-12.7-25.8-12.1c-0.5,0.4,9.4,8.3,24.5,14.3
			C2649.3,668.2,2662.8,669.9,2662.9,669.3z"/>
	</g>
	<path fill="#D37F46" d="M2833.2,730.8l8.9-51.9c0,0-31.3-48.4-12.9-107.3c-4.6-1.6-9.3-3-13.9-4.4c-6,13.5-11.9,45.1-14.5,61
		c-1.1,6.3-6.1,11.6-13.2,13.8c-50.3,16.1-101.9-4.5-105.5-14.3c-3.3-8.9,0.5-46.6,1.6-58.7c-3.1,0.7-10.5,1.7-13.4,2.9l-6.7,36.6
		c-1.4,7.5-4,14.7-7.8,21.6c-7.9,14.1-20.9,42.4-13.6,67.1c10.1,34.5,8.3,30.2,8.3,30.2s-9.2,14.8-19.3,57.1
		c-10.2,42.3-30.6,190-30.6,190s150.4,45,298.8-14.7L2833.2,730.8z"/>
	<path fill="#AC6C45" d="M2894.9,946.1c-34.3,10.5-79,21.6-129.3,26.1c-29.2,2.5-57.2,2.5-82.5,0.4c-12.7-1-24.6-2.6-35.7-4.3
		c-5.5-1-10.9-1.9-16-2.9c-5.1-1.1-10-2-14.6-3.2c-4.9-1.2-9.6-2.4-14-3.6c-0.1,0.8-0.2,1.6-0.3,2.4c4.2,1.3,8.7,2.5,13.4,3.8
		c4.6,1.3,9.6,2.3,14.7,3.5c5.1,1.1,10.5,2.1,16.1,3.1c11.2,1.9,23.2,3.6,36,4.6c25.5,2.3,53.9,2.4,83.4-0.1
		c29.5-2.7,57.2-7.6,81.8-13.5c17.6-4.2,33.7-8.9,48-13.5L2894.9,946.1z"/>
	<g>
		<path fill="#C4707D" d="M2741,473.2c-0.4-0.2-1.8,1.3-4.6,3.2c-2.8,1.9-7.1,4-12.4,4.7c-5.3,0.7-10.2-0.2-13.5-1.3
			c-3.4-1.1-5.3-2.2-5.6-1.9c-0.3,0.2,1.2,1.9,4.6,3.5c3.4,1.6,8.9,3,14.9,2.2c6.1-0.8,10.8-3.5,13.4-5.9
			C2740.5,475.3,2741.3,473.3,2741,473.2z"/>
	</g>
	<path fill="#C4707D" d="M2698.6,412.6c1.6,3.7-4.1,8.7-12.7,11.3c-8.6,2.6-16.9,1.7-18.4-1.9s4.1-8.7,12.7-11.3
		C2688.8,408.1,2697,409,2698.6,412.6z"/>
	<path fill="#C4707D" d="M2765.7,420.7c-0.8,3.8-8.7,5.9-17.8,4.5c-9-1.3-15.7-5.5-14.9-9.3c0.8-3.8,8.7-5.9,17.8-4.5
		S2766.5,416.9,2765.7,420.7z"/>
	<g>
		<path fill="#6B75C1" d="M2924.1,658.5c-0.4-0.5-0.9-1-1.4-1.6c-1,0.8-2.1,1.6-3.3,2.4c-2.6,2-5.6,3.9-8.8,6
			c-6.4,4-13.7,8-21.8,11.6c-8.1,3.5-16.3,6.3-23.8,8.4c-3.8,1-7.4,2-10.8,2.6c-3.4,0.8-6.6,1.3-9.6,1.8c-1.5,0.2-3,0.5-4.4,0.7
			l0.9,1.5c1.2-0.1,2.5-0.2,3.9-0.4c3-0.4,6.3-0.8,9.8-1.5c3.5-0.6,7.2-1.5,11.1-2.5c7.7-2.1,16-4.8,24.3-8.4
			c8.3-3.7,15.7-7.8,22.1-11.9c3.1-2.1,6.2-4.1,8.7-6.2C2922.1,660.1,2923.1,659.3,2924.1,658.5z"/>
	</g>
	<g>
		<path fill="#6B75C1" d="M2908.8,652.8c-0.2-0.3-3.7,1.4-9.2,4.2c-5.5,2.8-12.9,6.8-21.5,10.6c-8.6,3.9-16.7,6.7-22.7,8.3
			c-6,1.7-9.9,2.4-9.8,2.8c0,0.3,4.1,0.2,10.4-1.1c6.3-1.2,14.8-3.9,23.5-7.8c8.7-3.9,16.1-8.2,21.3-11.4
			C2906,655.3,2909.1,653.1,2908.8,652.8z"/>
	</g>
	<g opacity="7.000000e-002">
		<path fill="#E05A90" d="M2659.4,392.8c7.1,6,17.4,9.1,27.5,9.5c10.1,0.4,20.2-1.5,29.7-4.4c3.8,8.4,13.6,14.2,24.1,15.8
			c10.5,1.6,21.4-0.5,31-4.5c1,6.9,2.1,14,5.2,20.5c3.1,6.5,8.6,12.5,16.2,15.3c7.6,2.8,17.6,1.9,23-3.4c2.2-2.1,3.5-4.8,4.7-7.4
			c7.8-18,6.8-39.4-6.6-54.9c-13.7-16-37.9-23.4-61.2-26c-19.7-2.3-41.3-1.4-57.2,8.6"/>
	</g>
	<g>
		<path fill="#314584" d="M2659.1,373.6c-4.3,5.9-0.4,14.1,6.4,17.9c6.9,3.8,15.7,4.1,23.8,3.3c13.6-1.3,26.9-5.1,38.6-11.1
			c-2.1,6.5,2.2,13.7,9,17.3s15.4,4.1,23.3,2.7c7.9-1.4,15.2-4.4,22.4-7.3c-0.9,7.6-0.6,15.4,0.9,23c1.4,6.8,3.9,13.7,9.7,18.5
			c5.8,4.8,15.6,6.9,22.4,3.1c4.2-2.4,6.6-6.5,8.1-10.6c6.6-17.7,0.4-37.8-13.7-52c-14.1-14.2-35.4-22.8-57.2-25.5
			s-44.3,0.1-65.3,5.9c-10.6,2.9-21.1,6.7-29.2,13.2"/>
	</g>
	<g opacity="7.000000e-002">
		<path fill="#E05A90" d="M2845.7,476.1c-3.1,5.1-7.1,7.8-12.6,11c-1.2,0.7-10.6,6.4-11.7,4c-3.2-7-5-15.4-4.3-22.9
			c0.6-7.2,3.9-14.3,10-19.3c1.6-1.3,3.4-2.4,5.5-3c3.2-0.8,6.8,0,9.5,1.7c2.7,1.7,4.5,4.2,5.7,6.8
			C2850.9,461.4,2849.7,469.4,2845.7,476.1z"/>
	</g>
	<g>
		<g>
			<path fill="#C4707D" d="M2837.6,446.4c0-0.2-0.9-0.4-2.5-0.3c-1.6,0.1-4.1,0.5-6.7,1.8c-2.6,1.2-5.4,3.3-7.5,6.1
				c-2.2,2.8-3.7,6.2-4.6,9.8c-1.9,7.3-1.1,14.2,0.4,18.8c1.4,4.7,3.3,7.3,3.6,7.2c0.4-0.1-0.6-2.9-1.5-7.5
				c-0.8-4.6-1.2-11.1,0.5-17.9c0.9-3.4,2.2-6.6,4-9.1c1.8-2.6,4-4.5,6.2-5.8C2834,446.8,2837.6,446.8,2837.6,446.4z"/>
		</g>
		<g>
			<path fill="#C4707D" d="M2825.5,484.6c0.3,0.2,1.8-1,3.1-3.6c1.3-2.5,2.2-6.4,1.4-10.7c-0.8-4.2-3.1-7.7-5.3-9.8
				c-2.2-2.1-4.1-2.9-4.3-2.6c-0.3,0.3,1,1.5,2.5,3.7c1.6,2.2,3.3,5.3,4,9.1c0.7,3.8,0.2,7.2-0.5,9.7
				C2825.8,482.9,2825.1,484.4,2825.5,484.6z"/>
		</g>
	</g>
	<path fill="#AC6C45" d="M2752.7,736.7c17.4-0.3,33.9-1.5,48.8-3.1c7.4-1,14.5-1.8,21.1-2.9c3.3-0.6,6.5-1,9.5-1.6
		c0.5-0.1,1-0.2,1.5-0.3l0.5-2.9c-0.9,0.2-1.8,0.3-2.7,0.5c-3,0.5-6.2,0.9-9.5,1.4c-6.5,1-13.6,1.7-21,2.6
		c-14.8,1.4-31.2,2.5-48.4,2.8c-17.2,0.2-33.6-0.5-48.5-1.5c-7.4-0.7-14.5-1.2-21.1-2c-3.3-0.4-6.5-0.7-9.5-1.1
		c-3-0.4-5.9-0.8-8.7-1.2c-5.5-0.8-10.4-1.6-14.7-2.3c0.3,1.2,0.4,1.9,0.5,2.2c4.1,0.9,8.6,1.9,13.6,2.7c2.8,0.5,5.8,1,8.8,1.5
		c3.1,0.5,6.3,0.9,9.6,1.3c6.6,1,13.7,1.6,21.2,2.4C2718.7,736.2,2735.3,736.9,2752.7,736.7z"/>
	<path fill="#6B75C1" d="M2788.4,613.7c0,0,16.5-22.2,17-46.1c-4-0.8-8.1-1.6-12.6-2.4c0,0-41.4,33.8-83.1,0.1c0,0-2.9-0.1-7.7,0.3
		c-2.3,10.2-5.4,29.6-0.7,45.8l48.1-27L2788.4,613.7z"/>
	<g>
		<path fill="#525798" d="M2739.6,579.3c-3,1.7-6.3,3.5-9.9,5.4c-11.3,6-21.1,10.3-22.8,11.4c0.3-2.3,0.2-10.4,1.4-19.9
			c0.5-4,1.1-7.7,1.7-10.9c-0.1,0-0.1-0.1-0.2-0.1c0,0-0.6,0-1.7,0c-0.8,3.1-1.6,6.8-2,10.8c-1.4,11.5,0,20.8,0.6,20.8
			c0.1,0,0.1-0.1,0.2-0.4c1.6-0.2,12.3-3.9,24.1-10.2c4.3-2.3,8.2-4.6,11.4-6.6C2741.4,579.6,2740.5,579.5,2739.6,579.3z"/>
		<path fill="#525798" d="M2789.1,603.7C2789.1,603.7,2789.1,603.7,2789.1,603.7c0.3,0,2-2.7,4-7.2c2.1-4.6,4.6-11.1,6.4-18.4
			c1-4,1.6-7.8,2.1-11.3c-0.7-0.1-1.3-0.3-2-0.4c-0.6,3.4-1.3,7.3-2.3,11.3c-3.3,13.6-8.2,24.3-8.3,25.8c-1-1.1-10.4-6.5-20.5-14.5
			c-4.2-3.3-7.9-6.6-10.9-9.3c-0.7,0.1-1.4,0.1-2.1,0.2c2.9,3.1,6.8,6.7,11.5,10.4C2778,599.1,2788.8,604.1,2789.1,603.7z"/>
	</g>
	<g>
		<ellipse fill="#AC6C45" cx="2669.7" cy="634.4" rx="0.2" ry="0.9"/>
	</g>
	<path fill="#AC6C45" d="M2787.1,659.2c9.1-1.3,17.4-3.4,24.6-5.8c0.1,0.4,0.2,0.7,0.2,0.7c0.1,0,0.1-0.3,0.2-0.8
		c2.9-1,5.6-2.1,8.1-3.2c3.1-1.3,5.8-2.7,8.3-4.1c-0.1-0.4-0.2-0.8-0.3-1.2c-2.6,1.4-5.5,2.7-8.7,4.1c-2.3,1-4.7,1.9-7.3,2.8
		c0-0.4,0-0.9,0-1.4c0-3.6,0-7,0-10.4c0.1-8.7,0.3-20.8,2.3-34c2-13.2,5.9-24.8,9.7-32.9c0.4-0.9,0.9-1.8,1.3-2.7
		c-0.4-0.1-0.9-0.3-1.3-0.4c-0.5,0.8-0.9,1.7-1.4,2.6c-4.2,8.1-8.4,19.8-10.5,33.2c-2.1,13.3-2,25.5-1.7,34.2
		c0.2,4.4,0.4,7.9,0.7,10.4c0.1,0.6,0.1,1.1,0.2,1.6c-7.2,2.4-15.5,4.4-24.7,5.6c-12.8,1.7-27.1,1.9-42,0.5
		c-14.9-1.4-28.9-4.1-41.1-7.8c-12.2-3.6-22.6-8.2-30.8-12.8c-1-0.5-1.9-1.1-2.8-1.6c0.3-1.4,0.6-4.9,1-9.7c0.6-6.5,1.6-15.4,3-25.2
		c1.5-9.8,3.3-18.7,4.6-25.1c0.5-2.4,0.9-4.5,1.3-6.1c-0.4,0.1-0.8,0.1-1.2,0.2c-0.5,1.5-1.1,3.4-1.7,5.6
		c-1.8,6.4-3.8,15.2-5.3,25.1c-1.5,9.9-2.2,18.9-2.4,25.4c-0.1,4.6-0.1,7.9,0.1,9.5c-5.1-3.1-9.1-6-12.2-8.6
		c-0.1,0.3-0.3,0.6-0.4,0.8c3.6,3.2,8.5,6.9,15,10.7c8.1,4.8,18.6,9.5,31,13.3c12.3,3.8,26.5,6.6,41.5,8
		C2759.6,661.3,2774.1,661.1,2787.1,659.2z"/>
	<g>
		<ellipse fill="#EFAD2B" cx="2808.7" cy="636.1" rx="26.7" ry="22.4"/>
		<g>
			<ellipse fill="#5646A1" cx="2795.9" cy="631.1" rx="2" ry="3.1"/>
			<ellipse fill="#5646A1" cx="2821.5" cy="631.1" rx="2" ry="3.1"/>
		</g>
		<g>
			<path fill="#CE4576" d="M2800.7,632.8C2800.7,632.9,2800.7,632.9,2800.7,632.8c0,3.8,3.6,6.8,8,6.8c4.4,0,8-3,8-6.7
				c0,0,0,0,0-0.1H2800.7z"/>
			<path fill="#FF5C9E" d="M2808.7,639.6c2.3,0,4.3-0.8,5.8-2.1c-1.3-1.5-3.4-2.4-5.8-2.4c-2.4,0-4.4,1-5.8,2.4
				C2804.4,638.9,2806.5,639.6,2808.7,639.6z"/>
		</g>
	</g>
	<g>
		<path fill="#BA6B36" d="M2759.7,759.1c-28.8,2.1-57.6,1.4-85.8-3v60c0,22.7,21.9,41,49,41h17.9c27,0,49-18.4,49-41V756
			C2779.8,757.4,2769.7,758.3,2759.7,759.1z"/>
		<path fill="#D37F46" d="M2785.1,765.9c1.6-0.3,3.1-0.6,4.6-0.8v-1.5c-1.6,0.3-3.3,0.6-5,0.8c-4.5,0.8-9.3,1.3-14.3,2
			c-10.1,1.1-21.4,2-33.2,2.4c-11.8,0.3-23.1,0-33.3-0.6c-5.1-0.4-10-0.7-14.5-1.2c-4.5-0.4-8.7-1-12.5-1.5c-1-0.1-2-0.3-3-0.4v1.3
			c0.9,0.1,1.8,0.3,2.7,0.4c3.8,0.6,8,1.2,12.6,1.7c4.5,0.6,9.4,1,14.5,1.4c10.3,0.7,21.6,1.1,33.5,0.8c11.9-0.4,23.2-1.3,33.4-2.6
			C2775.8,767.4,2780.6,766.8,2785.1,765.9z"/>
	</g>
	<g>
		<path fill="#C4707D" d="M2604,716.1c0.4-0.1-0.6-4.3-2.8-11c-2.3-6.7-5.9-15.7-10.8-25.5c-4.9-9.7-10.2-18.2-14.4-24.2
			c-4.2-6-7.1-9.5-7.4-9.3c-0.4,0.2,1.9,4,5.6,10.1c3.7,6.2,8.6,14.7,13.5,24.3c4.9,9.6,8.8,18.5,11.6,25
			C2601.9,712.2,2603.6,716.2,2604,716.1z"/>
	</g>
</g>
</svg>
