<?xml version="1.0" encoding="utf-8"?>
<!-- Generator: Adobe Illustrator 18.1.1, SVG Export Plug-In . SVG Version: 6.00 Build 0)  -->
<svg version="1.1" xmlns="http://www.w3.org/2000/svg" xmlns:xlink="http://www.w3.org/1999/xlink" x="0px" y="0px"
	 viewBox="0 0 960 560" enable-background="new 0 0 960 560" xml:space="preserve">
<g id="Layer_2">
	<g>
		<path fill="#FFBB7D" d="M81.3,280.6c8.8-24.6,3.4-53.5,16.2-76.3c12.3-21.9,38.8-32.3,63.9-34.3s50.2,2.6,75.4,2.7
			c25.2,0.1,52.1-5.4,69.5-23.6c15.7-16.5,21.3-40.8,37.5-56.9c13.7-13.6,33.1-19.3,51.9-23.7c18.8-4.4,38.3-8.1,54.2-19
			c15.9-10.8,27.4-31,21.6-49.4c-4.3-13.7-17.2-23.2-30.9-27.4c-13.7-4.2-28.3-3.8-42.6-3.4c-103.6,3-207.2,5.9-310.8,9
			c-35.9,1-74.9,3.2-102.1,26.5C-40.8,27-49.7,62.9-53,96.8c-5,51-0.2,102.8,13.7,152.1c6,21.4,12.6,48.7,25.8,66.9
			c9.7,13.4,31.6,11.5,45.8,7.8C54.1,317.9,73.6,302.1,81.3,280.6z"/>
	</g>
	<g>
		<path fill="#FFBB7D" d="M874.8,282.4c-8.9,24.6-3.6,53.5-16.5,76.2c-12.4,21.9-38.9,32.2-64,34.1s-50.2-2.8-75.4-2.9
			c-25.2-0.1-52.2,5.2-69.6,23.4c-15.8,16.4-21.4,40.8-37.7,56.8c-13.7,13.5-33.2,19.2-52,23.5c-18.8,4.3-38.3,8-54.3,18.8
			c-16,10.8-27.5,30.9-21.8,49.3c4.3,13.7,17.1,23.3,30.8,27.5c13.7,4.2,28.3,3.9,42.6,3.5c103.6-2.6,207.2-5.3,310.8-7.9
			c35.9-0.9,74.9-3,102.2-26.2c25.9-22,35-57.9,38.4-91.8c5.1-50.9,0.5-102.8-13.2-152.2c-5.9-21.4-12.4-48.8-25.6-67
			c-9.7-13.4-31.5-11.6-45.8-8C902.1,245.2,882.5,260.9,874.8,282.4z"/>
	</g>
	
		<text transform="matrix(1 0 0 1 104 350.762)" fill="#E35B5D" stroke="#E35B5D" stroke-width="2" stroke-miterlimit="10" font-family="'Kanit-Light'" font-size="73">Bienvenid@</text>
</g>
<g id="Layer_3">
	<g>
		<path fill="#F1AAB2" d="M680.5,248.5l2,27c0.5,7-5.9,12.4-12.5,10.6c-11.8-3.2-28.5-5-39.4,5.8c-18.3,18.1-17.2,144-17.2,144
			l150.1,28.9l37.4-147.6c0,0-13.4-31.6-60.9-32.3c-4.9-0.1-9.1-3.8-9.7-8.8l-5.7-44.3L680.5,248.5z"/>
		<g>
			<path fill="#D8D8D8" d="M605.8,167.6l-3.6-18.6c2.6-4.2,4.7-8.8,6.2-13.8c8.9-29.7-7.4-61.2-36.3-70.3
				c-28.9-9.1-59.6,7.6-68.5,37.3c-8.9,29.7,7.4,61.2,36.3,70.3c15.7,4.9,31.9,2.3,44.9-5.9l15,6.1
				C603,174.1,606.4,171.2,605.8,167.6z"/>
		</g>
		<g>
			<g>
				<path fill="#FF65A7" d="M591.3,251.3c-2.4-4.2-5.7-8.1-9.8-10.5c-10-5.9-21.2-0.2-27.2,8.9c-9.3-5.4-21.8-5.4-28.2,4.4
					c-2.7,4.1-3.9,9-4.2,13.9c-0.7,10.2,2.4,20.5,7.7,29.2c3.1,5.1,7.1,9.8,12.2,12.7c5.2,2.9,11.6,3.7,16.9,1.1
					c3.2-1.6,5.7-4.2,8-6.9c3.3,1.4,6.6,2.6,10.2,2.6c5.9-0.1,11.3-3.7,14.7-8.7c3.4-4.9,4.9-11,5.5-17
					C598.1,270.8,596.4,260.1,591.3,251.3z"/>
			</g>
			<g>
				<path fill="#A84373" d="M558.5,262.6c0.6-0.3-3.2-8.1-4.1-18.7c-1.1-10.5,1.1-19,0.5-19.1c-0.3-0.1-1.1,1.9-1.9,5.4
					c-0.7,3.5-1.2,8.5-0.7,13.9c0.5,5.4,1.9,10.2,3.3,13.5C557,260.9,558.3,262.7,558.5,262.6z"/>
			</g>
			<g>
				<path fill="#A84373" d="M568.2,253.2c-0.2-0.1-0.8,1.2-2.2,3c-1.4,1.7-3.8,3.8-7,4.9c-3.2,1.1-6.3,1-8.5,0.5
					c-2.2-0.5-3.4-1.1-3.5-1c-0.1,0.1,1.1,1,3.3,1.7c2.2,0.7,5.6,1,9-0.2c3.4-1.2,5.9-3.5,7.3-5.5
					C568,254.7,568.3,253.2,568.2,253.2z"/>
			</g>
		</g>
		<g>
			<polygon fill="#9B9FBC" points="620.4,341.6 637.1,334.8 652.5,236.3 600.3,230.2 583.5,238.9 635.6,244.1 			"/>
			<polygon fill="#BCC1D8" points="635.6,244.1 583.5,238.9 574.4,335.5 620.4,341.6 			"/>
			<polygon fill="#898FAD" points="600.3,230.2 584.1,238.9 635.6,244.1 652.5,236.3 			"/>
			<g>
				<path fill="#898FAD" d="M618.4,260.5c0.1-0.7-6.4-2-14.5-2.8c-8.1-0.8-14.7-0.9-14.8-0.2c-0.1,0.7,6.4,2,14.5,2.8
					C611.8,261.1,618.4,261.2,618.4,260.5z"/>
			</g>
			<g>
				<path fill="#898FAD" d="M623.9,277.3c0-0.7-8.1-1.9-18.2-3c-10.1-1.1-18.3-1.9-18.4-1.2c-0.1,0.7,8,2.6,18.1,3.8
					C615.6,278,623.8,278,623.9,277.3z"/>
			</g>
			<g>
				<path fill="#898FAD" d="M619.7,298.4c0.1-0.7-6.9-2.9-15.7-4.4c-8.9-1.6-16.2-1.9-16.3-1.2c-0.1,0.7,7,2.2,15.8,3.8
					C612.3,298.2,619.5,299.2,619.7,298.4z"/>
			</g>
			<g>
				<path fill="#898FAD" d="M619.2,318.7c0-0.7-7.3-0.9-16.2-1.1c-8.9-0.2-16.2-0.4-16.2,0.3c-0.1,0.7,7.2,2.1,16.2,2.3
					C612,320.4,619.3,319.4,619.2,318.7z"/>
			</g>
			<g>
				<path fill="#898FAD" d="M646.2,252.2c-0.2-0.7-2.6-0.4-5.2,1c-2.6,1.4-4.2,3.2-3.8,3.8c0.4,0.6,2.5-0.2,4.9-1.5
					C644.6,254.3,646.4,252.9,646.2,252.2z"/>
			</g>
			<g>
				<path fill="#898FAD" d="M644.2,273.2c-0.2-0.7-2.6-0.6-5.2,0.6c-2.6,1.2-4.4,2.9-4,3.5c0.4,0.6,2.5,0,5-1.1
					C642.4,275.1,644.4,273.9,644.2,273.2z"/>
			</g>
			<g>
				<path fill="#898FAD" d="M640.7,295.4c-0.3-0.6-2.5-0.2-4.9,1c-2.4,1.2-4,2.7-3.7,3.3c0.3,0.6,2.5,0.2,4.9-1
					C639.3,297.5,641,296,640.7,295.4z"/>
			</g>
			<g>
				<path fill="#898FAD" d="M639,316.4c-0.4-0.6-2.7,0.5-5.2,2.1c-2.5,1.6-4.5,3.1-4.2,3.8c0.3,0.7,2.8,0.1,5.5-1.6
					C637.8,319,639.4,316.9,639,316.4z"/>
			</g>
		</g>
		<g>
			<g>
				<path fill="#3F7689" d="M523.7,221.3c-2.8,4-6.5,6.3-8.3,11c-1,2.7-6.6,10.5-5.9,13c-2.1-8-6.1-13.6-10.4-20.3
					c-1.7-2.6-3.1-5.4-3.2-8.5c0-4.1,2.5-7.7,4-11.4c1.7-4,2.4-8.4,2-12.8c-0.3-3-1-5.9-1.1-8.9c-0.2-5.9,2.5-11.8,7-15.5
					c1.8-1.5,4-2.6,6.2-2.3c3.4,0.5,5.5,4.1,6.4,7.5c1.4,5.1,1.4,10.6,0.5,15.9c-0.6,3.3-1.4,6.5-1.7,9.9c-0.2,3.3,0.3,6.9,2.3,9.6
					c1.2,1.6,2.8,2.8,3.6,4.6C526.4,215.5,525.4,218.8,523.7,221.3z"/>
			</g>
			<g>
				<path fill="#3F7689" d="M469.5,247.5c4.8,0.3,8.9-1.2,13.5,0.5c2.6,0.9,12.1,1.5,13.5,3.6c-4.6-6.8-6.3-13.5-8.6-21.2
					c-0.9-2.9-2.1-5.9-4.4-7.9c-3-2.6-7.3-3-11.2-4.1c-4.1-1.2-7.8-3.5-10.8-6.6c-2.1-2.1-3.8-4.6-6-6.6c-4.3-3.9-10.4-5.6-16.1-4.4
					c-2.2,0.5-4.5,1.5-5.7,3.5c-1.8,3-0.4,6.9,1.5,9.8c2.9,4.4,7.1,7.9,11.6,10.5c2.8,1.7,5.8,3,8.5,5c2.6,2,5,4.6,5.7,7.9
					c0.4,1.9,0.3,4,1.1,5.8C463.5,246,466.6,247.3,469.5,247.5z"/>
			</g>
			<g>
				<path fill="#4D96AA" d="M500.3,224.1c0.5,7.1,1.2,14.1,2.9,21.1c-4.9-9.6-18-10.4-26.4-15.2c-3.9-2.2-7.8-5.2-9.1-9.6
					c-0.7-2.6-0.5-5.3-1.1-7.9c-1.1-4.4-4.8-7.6-7.8-11c-3-3.5-5.5-7.6-6.2-12.1c-0.7-4.6,0.8-9.7,4.5-12.4c5.4-4,13.4-1.4,17.9,3.7
					c4.5,5,6.5,11.8,9.1,18.1c0.5,1.4,1.1,2.7,2.1,3.9c1.8,2.1,4.5,2.9,6.8,4.5C498.1,210.7,499.8,217.7,500.3,224.1z"/>
			</g>
			<g>
				<path fill="#2E5560" d="M513,261.8c0.2-0.1-0.8-3.9-1.9-10.2c-1.1-6.3-2-15.1-2.5-24.8c-0.5-9.7,0.5-18.5,1.7-24.8
					c1.2-6.3,2.3-10.1,2.1-10.1c-0.1,0-0.5,0.9-1.1,2.6c-0.6,1.7-1.3,4.2-2,7.3c-1.4,6.3-2.6,15.2-2.1,25.1c0.4,9.8,1.6,18.7,2.9,25
					c0.7,3.2,1.3,5.7,1.8,7.4C512.5,260.9,512.9,261.8,513,261.8z"/>
			</g>
			<g>
				<path fill="#2E5560" d="M506.7,264.9c0.1-0.1-0.4-0.9-1.3-2.4c-0.9-1.5-2.4-3.6-4.4-6.2c-3.9-5.1-9.8-11.6-16.9-18.2
					c-7.1-6.7-14.5-11.4-20.2-14.3c-2.8-1.4-5.2-2.5-6.8-3.1c-1.6-0.6-2.6-0.9-2.6-0.8c-0.1,0.2,3.5,1.7,9,4.8
					c5.5,3.1,12.7,7.9,19.7,14.5c7,6.6,13,12.9,17.1,17.8C504.3,261.8,506.5,265,506.7,264.9z"/>
			</g>
			<g>
				<path fill="#2E5560" d="M472.8,199c-0.2,0.2,2.4,3.2,6.3,8.3c3.9,5.1,9.1,12.3,14,20.8c5,8.5,8.8,16.5,11.4,22.5
					c2.6,5.9,4,9.7,4.2,9.6c0.1,0-0.2-1-0.7-2.7c-0.5-1.7-1.4-4.2-2.6-7.3c-2.3-6.1-6.1-14.3-11.1-22.8c-5-8.5-10.3-15.7-14.5-20.7
					c-2.1-2.5-3.8-4.4-5-5.7C473.6,199.6,472.9,198.9,472.8,199z"/>
			</g>
			<g>
				<path fill="#F99A5A" d="M530.2,267.3c-2.1-6.4-5.1-13-10.5-15c-4.7-1.7-10.3-0.6-14.8,1.3c-4.1,1.7-7.6,5.1-8.9,9.4
					c-1.2,3.9-0.5,8.1,0.3,12c2.2,10.5,5.2,20.8,9.2,30.8c4,10.1,8.9,18.4,15.2,27.2c1.9,2.7,4,5.5,6.8,7.3c2.8,1.8,6.6,2.4,9.4,0.6
					c9.2-6.1,4.6-24.3,3.2-33C537.9,294.2,534.5,280.6,530.2,267.3z"/>
			</g>
			<g>
				<path fill="#D37F46" d="M522.6,278.1c3.8-1.3,7.1-2.7,9.7-4.1c-0.1-0.3-0.2-0.5-0.2-0.8c-2.6,1.2-6,2.6-9.8,3.9
					c-4.4,1.5-8.5,2.5-11.5,3.1c-3,0.6-4.8,1-4.8,1.1c0,0.1,1.9,0.1,5-0.4C513.9,280.5,518.1,279.6,522.6,278.1z"/>
				<g>
					<path fill="#D37F46" d="M500.1,271.6c-1.5,0.5-2.9,0.9-4.1,1.2c0.1,0.3,0.1,0.6,0.2,0.9c1.3-0.3,2.7-0.6,4.3-1.1
						c4.9-1.5,8.5-3.8,8.4-4C508.7,268.4,504.9,270.1,500.1,271.6z"/>
				</g>
				<g>
					<path fill="#D37F46" d="M519.5,298.9c-0.1-0.3-2.3,0.5-5,1.3c-2.7,0.9-4.9,1.5-4.9,1.8c0,0.3,2.4,0.1,5.2-0.8
						C517.6,300.4,519.6,299.2,519.5,298.9z"/>
				</g>
				<path fill="#D37F46" d="M530.7,305c-0.2-0.3-6.4,3.7-15,6.4c-2.5,0.8-4.8,1.4-7,1.9c0.1,0.3,0.3,0.6,0.4,0.9
					c2.1-0.4,4.4-1,6.8-1.7c4.3-1.4,8.1-3.2,10.7-4.7C529.3,306.3,530.8,305.1,530.7,305z"/>
				<g>
					<path fill="#D37F46" d="M535.5,315c-0.1-0.3-2.5,0.9-5.5,1.9c-3,1.1-5.5,1.7-5.5,2c0,0.3,2.7,0.1,5.8-1
						C533.5,316.9,535.7,315.3,535.5,315z"/>
				</g>
				<path fill="#D37F46" d="M535.5,328.5c-0.2-0.3-3.8,3.5-9.5,5.8c-1.2,0.5-2.3,0.9-3.4,1.2c0.2,0.3,0.4,0.6,0.7,0.8
					c1-0.3,2.1-0.6,3.2-1.1c2.9-1.2,5.3-2.9,6.9-4.2C534.8,329.6,535.6,328.6,535.5,328.5z"/>
				<g>
					<path fill="#D37F46" d="M517.2,255.4c-0.1-0.3-2.8,1.1-6.2,2.5c-3.3,1.4-6.1,2.4-6.1,2.7c0.1,0.3,3-0.3,6.5-1.8
						C514.9,257.4,517.4,255.6,517.2,255.4z"/>
				</g>
			</g>
			<g opacity="0.1">
				<path fill="#FFC364" d="M527.5,321.6c-8.7-11.2-16.3-23.5-20.5-37.1c-3-9.8-4.2-20.4-2.7-30.5c-3.8,1.8-7,5-8.2,9.1
					c-1.2,3.9-0.5,8.1,0.3,12c2.2,10.5,5.2,20.8,9.2,30.8c4,10.1,8.9,18.4,15.2,27.2c1.9,2.7,4,5.5,6.8,7.3s6.6,2.4,9.4,0.6
					c1.9-1.3,3.2-3.1,4.1-5.2C535.8,331.8,531.5,326.8,527.5,321.6z"/>
			</g>
		</g>
		<g>
			<path fill="#525798" d="M740,284.8c-1.5,0-3-0.4-4.3-1.1c-9.2,6.4-21.4,8.7-32.1,9.6c-10.8,0.9-25.5,1.2-33.3-7.2
				c-0.1,0-0.2,0-0.3-0.1c-11.8-3.2-28.5-5-39.4,5.8c-18.3,18.1-17.2,144-17.2,144l150.1,28.9l37.4-147.6
				C800.9,317.1,787.5,285.4,740,284.8z"/>
		</g>
		<path fill="#6771B7" d="M735.8,283.7c-9.2,6.4-21.4,8.7-32.1,9.6c-10.8,0.9-25.5,1.2-33.3-7.2c-0.1,0-0.2,0-0.3-0.1
			c-1.4-0.4-2.9-0.7-4.4-1.1l-3.1,36.9l35.8-21.6c0,0,32,34.9,32.5,29.5c0.3-3.7,7.2-29,11.6-44.9c-0.8,0-1.6-0.1-2.4-0.1
			C738.5,284.7,737.1,284.3,735.8,283.7z"/>
		<g>
			<path fill="#D37F46" d="M772.8,427.8c-1.1-11.4-7.1-20-9.6-30.8c-5-21-9.1-43.4-7.1-65.2c0.9-9.8,2.5-18.5,6-27.7
				c1-2.6,3-9.2,5.5-14.8c-4.2-1.5-8.9-2.7-14-3.5c-0.1,0.2-0.2,0.4-0.3,0.6c-10.6,22.4-13.5,47.6-16.2,72.3
				c-34.4,6-70.7-0.2-101.2-17.4l-19.7,15.4c-3,38.4-2.7,78.9-2.7,78.9l150.1,28.9L772.8,427.8z"/>
		</g>
		<g>
			<path fill="#AC6C45" d="M758.2,292c-0.6,1-1.3,2.2-2,3.7c-0.7,1.5-1.6,3.1-2.3,5c-1.7,3.7-3.3,8.4-4.8,13.6
				c-1.5,5.2-2.8,11-3.8,17.2c-2,12.4-2.6,23.7-2.8,31.8c-0.1,3.4-0.1,6.3-0.1,8.5c0.3-0.1,0.6-0.2,1-0.2c0.2-2.1,0.4-4.9,0.6-8.2
				c0.6-8.1,1.4-19.3,3.4-31.6c1-6.1,2.2-11.9,3.6-17c1.4-5.2,2.9-9.7,4.3-13.5c2.9-7.6,5.2-12,4.9-12.2
				C760.1,289,759.4,290,758.2,292z"/>
		</g>
		<g>
			<path fill="#AC6C45" d="M772.5,363.2c-0.1-0.4-6.9,2.1-18.2,4.9c-1.5,0.3-2.9,0.7-4.4,1c-1.5,0.4-3.2,0.6-4.8,1
				c-3.3,0.7-6.9,1.2-10.7,1.8c-7.6,1-16,1.7-24.8,1.8c-8.8,0-17.2-0.5-24.9-1.4c-3.8-0.5-7.4-1-10.8-1.6c-1.7-0.3-3.3-0.6-4.9-0.9
				c-1.5-0.3-3-0.7-4.5-1c-11.3-2.6-18.2-5-18.3-4.6c0,0.1,1.6,0.8,4.7,2c1.5,0.6,3.4,1.3,5.6,1.9c2.2,0.7,4.7,1.5,7.6,2.2
				c1.5,0.4,3,0.7,4.5,1.1c1.6,0.4,3.2,0.7,4.9,1c3.4,0.7,7,1.2,10.8,1.8c7.7,1,16.2,1.6,25.1,1.6c8.9-0.1,17.4-0.9,25.1-2
				c3.8-0.6,7.5-1.2,10.8-2c1.7-0.4,3.3-0.7,4.9-1.1c1.5-0.4,3-0.8,4.4-1.2c2.8-0.7,5.3-1.6,7.6-2.3c2.2-0.7,4.1-1.4,5.6-2
				C770.9,364.1,772.6,363.4,772.5,363.2z"/>
		</g>
		<g>
			<polygon fill="#FFC364" points="487.7,283.5 500.1,452.6 625.3,452.6 631.4,278 608.8,293.9 592.4,277.4 574.7,293.9 558,277.9 
				541.5,295.2 523.2,278 508.1,297.4 			"/>
			<polygon fill="#EFB35B" points="625.3,452.6 649.1,430 654.6,276.2 641.9,292.5 631.4,278 			"/>
			<polygon fill="#EFB35B" points="605,344 509.9,349 510.4,378.6 607,378.6 			"/>
		</g>
		<g>
			<path fill="#F1AAB2" d="M809.2,327.8c-5.6-10-14-19.4-24.3-24.5c-11.2-5.4-17.3,8.9-19.8,18.7c-2.3,9.1-2.3,18.6-2.9,27.9
				c-0.8,14.3-2.8,28.6-7.1,42.2c-2.4,7.8-5.7,15.6-11.6,21.1c-9.1,8.6-22.5,10-34.8,10.6c-26.1,1.3-53.1,0.8-77.4-8.7
				c-5.5,10.6-9.4,22.2-11.9,33.6c-1.3,5.6-2.3,11.4-2.9,17.3c2.2,2.7,5.3,4.5,8.3,6.2c27.4,15.6,58.1,25.9,89.4,28
				c1.2,0.1,2.3,0.1,3.5,0.2c30.6,1.4,65.6-3.2,86.2-28.6c15.9-19.6,19.3-43,20.3-67.7C825.3,378,822.1,351.1,809.2,327.8z"/>
		</g>
		<g>
			<path fill="#525798" d="M782.4,295.8c-2.4-1.3-4.8-2.5-7.4-3.7c-0.4-0.2-0.8-0.3-1.2-0.3c-0.5,0.1-0.8,0.5-1.1,0.9
				c-5.1,6.2-8.7,14.3-10.7,22.1c-2.4,9.6-2.5,19.6-3,29.5c-0.9,15.1-3,30.1-7.5,44.5c-2.6,8.2-6.1,16.4-12.3,22.3
				c-9.6,9-23.7,10.5-36.7,11.2c-2.3,0.1-4.6,0.2-6.8,0.3c7,28.8,19.2,56.3,35.8,80.6c26.8-1.3,54.1-8.7,71.6-30.2
				c16.8-20.7,20.4-45.4,21.4-71.5c1.1-27.8-2.4-56.2-16-80.7C801.7,308.8,793.2,301.7,782.4,295.8z"/>
		</g>
		<g opacity="0.14">
			<path fill="#FF65A7" d="M729.1,266.8l-4.5-35.2l-44.1,16.9l2,27c0.1,1,0,2-0.2,3C698.5,278.7,714.8,274.6,729.1,266.8z"/>
		</g>
		<g>
			<path fill="#3D447A" d="M780.5,215.3c3-15.2,8.4-29.9,10-45.4c1.7-16.7-3.9-51.7-26.4-50.7c0.6-5.4-2.7-10.6-7-13.7
				c-4.3-3.1-9.5-4.6-14.6-6c-8.2-2.3-16.4-4.5-24.6-6.8c-6.4-1.8-12-5.1-18.5-7.1c-13.1-4-25.5-6-36.8,2.9c-5,4-9.2,9.1-12.3,14.8
				c-1,2-4.5,16.5-5.1,16.7c-20.5,9.2-26,38.2-19.1,58.5"/>
		</g>
		<g>
			<path fill="#E5A1AB" d="M639.6,167.9c-6.4-1.7-13.4,2.2-16.9,8c-3.4,5.8-3.8,13.1-2.7,19.9c0.7,4.2,2,8.3,4.3,11.8
				c3.6,5.5,8.9,10.4,15.9,9.7"/>
		</g>
		<g>
			<g>
				<path fill="#C97380" d="M638.1,211.7c0.3,0,0.7-2.2,0.7-5.7c0.1-3.5-0.2-8.6-2.1-13.8c-1.9-5.2-4.8-9.3-7.3-11.8
					c-2.5-2.5-4.4-3.6-4.6-3.4c-0.2,0.3,1.3,1.8,3.4,4.5c2.1,2.7,4.6,6.7,6.4,11.6c1.8,4.9,2.3,9.6,2.6,13.1
					C637.6,209.6,637.8,211.7,638.1,211.7z"/>
			</g>
			<g>
				<path fill="#C97380" d="M631.8,205.6c0.3-0.2-0.4-1.3-1.1-3.1c-0.7-1.8-1.4-4.3-1.5-7.2c0-2.9,0.6-5.5,1.4-7.3
					c0.7-1.8,1.3-2.9,1.1-3.1c-0.2-0.2-1.3,0.6-2.5,2.4c-1.2,1.8-2.2,4.7-2.2,8c0,3.3,1.1,6.2,2.3,8
					C630.5,205.1,631.6,205.8,631.8,205.6z"/>
			</g>
		</g>
		<g>
			<path fill="#F1AAB2" d="M639.6,230c6.7,19.7,26.7,30.5,45.8,33c11.2,1.5,22.8,0,33.2-4.7c10.5-4.7,19.3-14.2,28.1-21.6
				c4.7,1.7,9.6,3,14.6,2.7c18.1-0.9,29.4-19.2,21.8-36.4c-3.3-7.5-10-13.2-17.7-15.3c11.4-25.6-0.4-52.6-20.6-69
				c-20.8-16.8-53.9-25.9-76.3-7.8c-13.5,10.9-21.9,27.3-26.3,44.3c-4.4,17-4.9,34.8-5,52.4C637.1,215.1,637.2,222.8,639.6,230z"/>
		</g>
		<path fill="#FFFFFF" d="M674.9,212.8c0.6,5.5,5.5,9.8,11.4,9.8c5.9,0,10.8-4.3,11.4-9.8C690.1,213.9,682.4,214.1,674.9,212.8z"/>
		<path fill="#C97380" d="M677.7,148.7c0.6,3.4-4.5,7.2-11.3,8.4c-6.8,1.2-12.8-0.6-13.4-4c-0.6-3.4,4.4-7.2,11.3-8.4
			C671.1,143.5,677.1,145.3,677.7,148.7z"/>
		<path fill="#C97380" d="M725.3,162.3c-1.1,3.3-7.3,4.2-13.8,1.9c-6.5-2.3-11-6.8-9.9-10.1c1.1-3.3,7.3-4.2,13.8-1.9
			C722,154.5,726.4,159,725.3,162.3z"/>
		<ellipse opacity="0.14" fill="#FF65A7" cx="721.2" cy="218.7" rx="16.4" ry="16.8"/>
		<path opacity="0.14" fill="#FF65A7" d="M656.6,211.7c0-9.3-7.3-16.8-16.4-16.8c-1,0-1.9,0.1-2.8,0.3c-0.1,4.1-0.2,8.3-0.2,12.4
			c0,7.1,0.1,14.2,2.1,21c0.3,0,0.6,0.1,1,0.1C649.2,228.6,656.6,221,656.6,211.7z"/>
		<g opacity="0.14">
			<path fill="#FF65A7" d="M779.1,215.8c-0.1,9.7-8.8,17.3-17.8,17.8c-1.6,0.1-4.6,0-6.1-0.4c-3.9-1-2.7,0.8-3.5-3.6
				c-0.8-4.6,1.4-11.5,3-15.8c2.3-6.2,6.3-11.8,11.7-15.4C776.9,191.7,779.2,208.8,779.1,215.8z"/>
		</g>
		<g>
			<g>
				<g>
					<path fill="#C97380" d="M771.8,196.7c-0.1-0.2-2.5,0.4-5.8,2.7c-1.7,1.1-3.5,2.7-5.2,4.7c-1.7,2-3.5,4.4-4.9,7.2
						c-1.4,2.8-2.3,5.6-2.9,8.2c-0.6,2.6-0.8,5.1-0.7,7.1c0.1,4.1,0.9,6.5,1.1,6.4c0.4-0.1,0.1-2.5,0.4-6.3c0.1-1.9,0.5-4.2,1.2-6.6
						c0.7-2.4,1.6-5.1,2.9-7.7c1.3-2.6,2.9-4.9,4.5-6.8c1.6-1.9,3.2-3.5,4.7-4.8C769.9,198.2,772,197.1,771.8,196.7z"/>
				</g>
				<g>
					<path fill="#C97380" d="M762.1,232.4c0.2,0.2,1.5-0.9,2.9-3.4c0.7-1.2,1.3-2.8,1.7-4.6c0.4-1.8,0.6-3.9,0.4-6.1
						c-0.2-2.2-0.7-4.2-1.3-5.9c-0.7-1.7-1.5-3.2-2.4-4.3c-1.7-2.2-3.2-3.1-3.4-2.9c-0.2,0.3,0.8,1.5,2.1,3.8
						c1.2,2.3,2.5,5.6,2.8,9.6c0.3,3.9-0.5,7.5-1.3,9.9C762.7,230.8,761.9,232.2,762.1,232.4z"/>
				</g>
			</g>
			<g>
				<path fill="#C97380" d="M687.5,204.5c-0.1-0.2-1,0-2.6,0.4c-1.6,0.3-3.9,1-6.7,0.8c-0.7,0-1.4-0.2-2.1-0.4
					c-0.7-0.2-1.5-0.5-1.9-0.9c-0.2-0.2-0.3-0.4-0.3-0.5c0-0.1,0.1-0.4,0.3-0.7c0.5-0.7,1-1.4,1.7-2.1c1.3-1.3,3-2.6,4.6-4
					c1.7-1.5,3.2-3.3,4.5-5.4c2.5-4.1,3.8-8.6,4.3-12.7c0.5-4.1,0.4-7.8,0.2-10.9c-0.5-6.1-1.3-9.8-1.6-9.8c-0.3,0-0.1,3.8,0,9.9
					c0,3,0,6.6-0.6,10.5c-0.6,3.9-1.8,8.1-4.2,11.8c-1.1,1.9-2.5,3.5-4,4.9c-1.5,1.4-3.2,2.7-4.7,4.2c-0.7,0.8-1.4,1.6-1.9,2.5
					c-0.3,0.4-0.6,1-0.6,1.9c0.1,0.9,0.6,1.5,1,1.8c1.8,1.2,3.5,1.4,5.1,1.4c3.2,0,5.5-1,7.1-1.6
					C686.8,205.2,687.6,204.7,687.5,204.5z"/>
			</g>
			<g>
				<path fill="#C97380" d="M663.6,192.7c0.6,0,1.3-3.7,1.8-8.3c0.5-4.6,0.7-8.4,0.1-8.5c-0.6-0.1-1.7,3.6-2.2,8.3
					C662.6,188.8,663,192.7,663.6,192.7z"/>
			</g>
			<g>
				<path fill="#C97380" d="M708.8,197.5c0.6,0.1,1.6-3.3,2.2-7.6c0.6-4.3,0.7-7.9,0.1-8c-0.6-0.1-1.6,3.3-2.2,7.6
					S708.2,197.4,708.8,197.5z"/>
			</g>
		</g>
		<g opacity="0.14">
			<path fill="#FF65A7" d="M753.4,131c-20.8-33.1-57.9-23.6-90.1-23.4c-0.8,0-1.7,0-2.3,0.5c-0.4,0.3-0.8,0.8-1.1,1.3
				c-2.3,3.7-4.6,7.5-5.3,11.9c-2,12.5,14.2,18.7,24.2,16.8c2.3-0.4,4.7-1.3,6.9-0.5c1.3,0.4,2.4,1.3,3.5,2.2
				c10,7.6,23.8,9.3,35.3,4.4c-2.1,17.3,6.1,35.6,20.4,45.1c2.3,1.6,5,3,7.8,2.9c2.8,0,5.8-1.9,6.3-4.7c0.3-1.8-0.4-3.7-1-5.4
				c-2.7-7.8-3.5-16.3-2.1-24.5c0.9-5.4,2.6-10.8,1.9-16.2C757.1,137.7,755.4,134.2,753.4,131z"/>
		</g>
		<g>
			<path fill="#3D447A" d="M772.3,185.6c6.4-19.9,1.5-47.3-13.3-62.5c-5.5-5.7-13.2-8.8-20.1-12.3c-10.4-5.3-20.4-12.6-32.2-14.1
				c-10.8-1.3-21.9-2.2-32.3,0.9c-7.7,2.3-15,7.1-19.3,14.1c-5.8,9.3,1.1,13.5,9.8,17c8,3.2,17.5,3,24.6-1.8
				c5.2,6.6,13.5,10.2,21.8,10.7c8.3,0.4,16.5-2.1,23.8-6.2c-6.3,20.1,0,43.7,15.3,57.8c4.8,4.4,12.2,8,17.4,4
				C770.2,191.4,771.4,188.5,772.3,185.6z"/>
		</g>
		<g>
			<path fill="#FFFFFF" d="M780.4,299c-0.1-0.1-1.5,0.6-3.7,2.4c-2.2,1.8-5.2,4.8-8.1,9.1c-2.9,4.3-5.6,9.9-7.5,16.5
				c-2,6.6-3.2,14-4.1,21.8c-0.9,7.8-1.5,15.2-2.4,21.9c-0.9,6.7-2.2,12.6-3.7,17.5c-3,9.7-6.7,14.9-6.4,15.1
				c0.1,0.1,1.1-1.1,2.7-3.6c1.5-2.4,3.4-6.2,5.1-11.1c1.7-4.9,3.1-10.9,4.2-17.7c1.1-6.8,1.7-14.2,2.6-22c0.9-7.8,2-15.1,3.9-21.5
				c1.8-6.4,4.3-12,6.9-16.2C775.2,302.7,780.7,299.3,780.4,299z"/>
		</g>
		<g>
			<path fill="#F1AAB2" d="M627.7,474c-8.6-3.7-17.5-9.7-20.6-19.3c-3.1-9.5-3.5-19.7-4.8-29.7c-1-7.6-1.6-15.3-6.7-21.4
				c-3.2-3.8-9-4.4-12.8-7.7c-0.7-0.6-1.4-1.6-1-2.5c0.2-0.5,0.7-0.8,1.1-1c2-1,4.4-0.9,6.5-0.5c4.2,0.8,8.4,3.2,11.4,6.2
				c1.7,1.7,3,4,4.2,6.1c0.5,1,3.3,5.3,2.9,6.3c2.8-6.4,1.5-14.2-2-20.3c-3.5-6.1-8.9-10.8-14.5-14.8c-2.2-1.6-4.9-4-4-6.7
				c8.1,0.1,15.7,5.1,20.5,11.8c3.3,4.7,5.5,10.8,8,16c1.6-5.7,0.1-11.8-2.6-17c-2.7-5.2-6.5-9.7-9.9-14.4c-0.2-0.3-0.4-0.6-0.4-0.9
				c0-0.6,0.6-1.1,1.1-1.3c1.9-0.7,3.9,0.2,5.6,1.3c9.3,5.9,13.8,17.8,14.2,28.6c2.2-3.8,3.1-8.2,3.3-12.6c0.1-2.6,0-5.2-0.2-7.8
				c-0.1-1.7-0.9-4.1-0.2-5.7c1.9-4.5,5.7-0.3,6.2,2.6c2.2,12.2-0.5,24.9,2.7,37c1.5,5.8,2.8,8.8,8.1,11.4c4.6,2.3,9.8,3.9,14.9,4.4
				c9.4,0.9,18.8,1.8,28.2,2.6"/>
		</g>
		<g>
			<path fill="#F1AAB2" d="M510,369.2c-5.7,3-10.1,6.6-12.1,13.6c-1.2,4-1.5,8.2-1.7,12.3c0.1-1.8-2.5-5.4-3.2-7.1
				c-1.1-2.6-2.1-5.3-2.9-8c-1.6-4.9-2.6-10-3.2-15.2c-0.5-4.3,0.9-7,1.6-11c0.7-4.1,1.6-8.1,3.3-12c3.7-8.6,10.5-15.6,17.8-21
				c4.3-3.2,9-6.6,14-8.8c3.4-1.5,13-4.7,15.4,0c-1.1,1.3-2.5,2.1-4,2.9c-5.4,3.1-10.2,7.3-15.7,10.3c-4.9,2.6-8,5.3-11.3,10.2
				c7.4-4.1,15-8.3,23.3-9.7c4.6-0.7,9.1,0.1,13.7,0.4c2.4,0.2,7.6,2.6,4.8,5.9c-0.7,0.8-1.8,1.1-2.9,1.2c-6.3,1-12.6,1.2-18.9,2.2
				c-7,1.1-11.7,4.5-17.2,9c11.3-1.9,23-3.7,34.3-1.3c2,0.4,5,1.6,4.3,4.2c-0.7,2.8-4.8,2.9-6.9,3.1c-7,0.7-13.9,1.3-20.9,2
				c-5.1,0.5-13.1,1.5-15.2,7.4c0.8-1.8,7.4-2.4,8.9-2.6c5.5-0.7,11.2-0.5,16.4,1.6c1.9,0.8,9.3,3.9,4.1,5.8c-1,0.4-2,0.3-3,0.2
				c-5.2-0.4-10.5-0.5-15.6,0.9C514.4,366.2,512.4,367.9,510,369.2z"/>
		</g>
		<g>
			<g>
				<g>
					<g>
						<defs>
							<path id="SVGID_12_" d="M537.7,104.1c0-11.1,8.5-20.1,19-20.1s19,9,19,20.1s-8.5,20.1-19,20.1
								C546.2,124.4,537.7,115.2,537.7,104.1 M528.9,104.1c0,32.2,27.8,50.4,27.8,50.4s27.9-18.1,27.9-50.4
								c0-16.2-12.5-29.5-27.8-29.5C541.4,74.6,528.9,87.9,528.9,104.1"/>
						</defs>
						<clipPath id="SVGID_1_">
							<use xlink:href="#SVGID_12_"  overflow="visible"/>
						</clipPath>
						
							<linearGradient id="SVGID_2_" gradientUnits="userSpaceOnUse" x1="-247.7467" y1="-403.8782" x2="-247.7068" y2="-403.8782" gradientTransform="matrix(1393.1029 0 0 -1393.1029 345665.5313 -562529.3125)">
							<stop  offset="0" style="stop-color:#F9A051"/>
							<stop  offset="1" style="stop-color:#E66262"/>
							<stop  offset="1" style="stop-color:#E66262"/>
						</linearGradient>
						<rect x="528.9" y="74.7" clip-path="url(#SVGID_1_)" fill="url(#SVGID_2_)" width="55.6" height="79.8"/>
					</g>
				</g>
			</g>
			<g>
				<g>
					<g>
						<defs>
							<rect id="SVGID_15_" x="511.7" y="72.4" width="88.5" height="92.7"/>
						</defs>
						<clipPath id="SVGID_3_">
							<use xlink:href="#SVGID_15_"  overflow="visible"/>
						</clipPath>
						<path clip-path="url(#SVGID_3_)" fill="#F58359" d="M574.3,155.2c0,4.1-7.9,7.5-17.5,7.5s-17.5-3.4-17.5-7.5
							c0-2.6,3.2-4.9,8.2-6.3c4.6,4.6,8.3,7,8.5,7.1l0.9,0.5l0.9-0.5c0.2-0.1,3.9-2.5,8.5-7.1C571,150.3,574.3,152.5,574.3,155.2"/>
					</g>
				</g>
				<g>
					<g>
						<defs>
							<rect id="SVGID_17_" x="511.7" y="72.4" width="88.5" height="92.7"/>
						</defs>
						<clipPath id="SVGID_4_">
							<use xlink:href="#SVGID_17_"  overflow="visible"/>
						</clipPath>
						
							<linearGradient id="SVGID_5_" gradientUnits="userSpaceOnUse" x1="-248.3634" y1="-404.4746" x2="-248.3232" y2="-404.4746" gradientTransform="matrix(374.558 0 0 -374.558 93575.6875 -151399.75)">
							<stop  offset="0" style="stop-color:#F9A051"/>
							<stop  offset="1" style="stop-color:#E66262"/>
							<stop  offset="1" style="stop-color:#E66262"/>
						</linearGradient>
						<path clip-path="url(#SVGID_4_)" fill="url(#SVGID_5_)" d="M549.7,99.5h-0.4c0-4.6,3.2-8.3,7.5-8.3c4.1,0,7.5,3.7,7.5,8.3
							c0,4.6-3.2,8.3-7.5,8.3c-4.1,0-7.5-3.7-7.5-8.3H549.7h0.4c0,4.2,3,7.5,6.6,7.5c3.7,0,6.6-3.4,6.6-7.5s-3-7.5-6.6-7.5
							c-3.7,0-6.6,3.4-6.6,7.5H549.7L549.7,99.5z"/>
					</g>
				</g>
			</g>
			<g>
				<g>
					<g>
						<defs>
							<path id="SVGID_20_" d="M548.8,98c-0.4,0-0.7,0.3-0.7,0.7V116c0,0.4,0.3,0.7,0.7,0.7h15.9c0.4,0,0.7-0.3,0.7-0.7V98.7
								c0-0.4-0.3-0.7-0.7-0.7H548.8z"/>
						</defs>
						<clipPath id="SVGID_6_">
							<use xlink:href="#SVGID_20_"  overflow="visible"/>
						</clipPath>
						
							<linearGradient id="SVGID_7_" gradientUnits="userSpaceOnUse" x1="-248.2495" y1="-403.9913" x2="-248.2096" y2="-403.9913" gradientTransform="matrix(432.9473 0 0 -432.9473 108027.0781 -174799.5781)">
							<stop  offset="0" style="stop-color:#F9A051"/>
							<stop  offset="1" style="stop-color:#E66262"/>
							<stop  offset="1" style="stop-color:#E66262"/>
						</linearGradient>
						<rect x="548.1" y="98" clip-path="url(#SVGID_6_)" fill="url(#SVGID_7_)" width="17.3" height="18.8"/>
					</g>
				</g>
			</g>
		</g>
	</g>
</g>
<g id="Layer_1">
	<g>
		<g>
			<path fill="#F1AAB2" d="M624.5,379.6c-5,9-5.8,18.3-8.7,27.9c-3.6,11.9-1.8,24.7,0.6,36.7c5.2,26.2,19,51.9,40.3,69.5
				c10.2,8.5,22.5,12.8,35.6,8.5c27.1-8.8,50.3-36,64.3-58.9"/>
		</g>
		<g>
			<path fill="#F1AAB2" d="M729.3,347.3c-9.2,15.1-20.8,28.8-34.4,40.6c14.1,8.8,28.9,16.4,44.3,22.8c20.3-20.9,36.7-45.2,48.2-71.4
				"/>
		</g>
		<g>
			<path fill="#525798" d="M832.6,477.5c8.7,2.9,16.7,7.5,25.5,10c12.4,3.4,25.7,2.4,38.3-0.4c22.4-4.9,44.1-15.4,58.7-32.3
				c8.4-9.7,14.2-21.2,18.8-32.9c3.9-10.2,7-20.9,6.8-31.8c-0.3-15.3-7.1-30.2-17.5-41.9c-19-21.4-46.2-32.5-73.9-39.2
				c-5.9-1.4-9.3-2.5-15.1-0.8c-4.9,1.4-8.5,4.9-13.9,5.2c-11.2,0.5-21.4-5.9-31.2-11.1c-20.8-11-44.8-5.3-64.5,6
				c-20.3,11.7-35.5,30.4-46.2,50.6c14.9,12.9,37.8,10.2,57.8,12c5.8,0.5,11.8,1.5,16.5,4.8c6.2,4.4,9.1,12.1,9.1,19.5
				c0,7.4-2.3,14.6-4.6,21.6c-4.3,13-6.9,24.9-5.5,38.7c0.4,3.7,1,7.4,3,10.6C802.5,478.4,820.6,473.4,832.6,477.5z"/>
		</g>
		<g>
			<path fill="#FFC364" d="M902.4,485.6c1.1-0.3,2.3-0.6,3.4-1c0.5-0.1,1-0.3,1.4-0.4c1.2-0.4,2.3-0.7,3.5-1.1
				c0.4-0.1,0.8-0.3,1.1-0.4c1.5-0.5,3-1.1,4.5-1.7c3.2-1.3,6.4-2.7,9.4-4.2c0.1-0.1,0.2-0.1,0.3-0.2c1.4-0.7,2.8-1.4,4.2-2.2
				c0.1-0.1,0.3-0.1,0.4-0.2c1.4-0.8,2.9-1.7,4.3-2.5c2.1-6.7,3.7-13.6,3.3-20.6c-0.7-11.7-6.6-22.5-10.9-33.5
				c-12.3-31.3-12-64.8-0.4-95.7c-4.8-2.3-9.6-4.3-14.6-6.1c-0.3,0.5-0.6,1-0.8,1.5c-11.1,20.1-10.9,44.2-19.2,65.4
				c-14.4-0.7-29.5-1.2-43.6-4c-5.4-1.1-10.7-2.5-15.9-4.1c-4.9-1.5-9.7-3.9-14.7-5c-3.8-0.8-7.4-0.3-11.2-1.5
				c-4.6-1.4-8.9-3.4-12.9-6c-0.4-0.2-0.8-0.5-1-0.9c-0.2-0.4-0.2-0.8-0.2-1.3c0.9-18.3,3.9-37.1,10.6-54.3c0.3-0.8,2.1-5.9,3.6-9.3
				c-6.2-0.3-12.4,0.5-18.6,2c-6.9,19.2-15.2,38.6-19.2,58.5c-0.4,2.2-0.8,4.4-1.1,6.6c-0.5,3.5,0.1,3.7,3.6,4.6
				c3.4,0.8,6.8,1.2,9.9,2.7c0.7,0.3,1.4,0.7,2.1,1.1c3.2,0.7,6.3,1.9,9,3.7c1,0.7,1.9,1.5,2.7,2.3c2.7,1.2,5.5,2,8.5,2.3
				c-1.7,0.3-3.3,1.6-5,2.1c0.2,0.5,0.4,1,0.6,1.5c1.6,3.5,2.4,7.4,2.4,11.2c0,0.8,0,1.7-0.1,2.5c-0.2,8.3-2.9,16.5-6.3,24.7
				c-11.4,28,2.6,63.5,32.9,74.5c12.9,4.7,27.7,4.5,40.7,0.1c4.9-1.7,8.6-4.7,13.2-6.8c5.8-2.6,12.6-2.7,18.7-4.2
				C901.5,485.9,902,485.7,902.4,485.6z"/>
		</g>
		<g>
			<path fill="#657DDD" d="M897.7,311.2c-2.8-0.8-5.6-1.5-8.4-2.2c-5.9-1.4-9.3-2.5-15.1-0.8c-4.9,1.4-8.5,4.9-13.9,5.2
				c-11.2,0.5-21.4-5.9-31.2-11.1c-1.9-1-3.8-1.8-5.8-2.6c-3.8,11.1,0.4,24.4,9.9,32c10.9,8.7,27.2,10,40.2,4.4
				C884.5,331.4,893,322,897.7,311.2z"/>
		</g>
		<g>
			<path fill="#3B4272" d="M745.9,379.8c0.8,0.1,3.5-15.1,10.1-32.9c6.5-17.9,14.2-31.4,13.6-31.8c-0.3-0.2-2.6,3.1-5.7,8.6
				c-3.1,5.5-6.9,13.4-10.3,22.4c-3.3,9-5.4,17.5-6.6,23.6C745.8,375.8,745.5,379.7,745.9,379.8z"/>
		</g>
		<g>
			<g>
				<path fill="#FF65A7" d="M768.6,322.2c-2.8-5.2-6.7-9.9-11.8-13c-12.4-7.6-27-1.6-35.2,8.8c-11.5-7-27.3-7.8-36.2,3.4
					c-3.7,4.6-5.6,10.4-6.3,16.2c-1.5,12,1.7,24.3,7.9,34.9c3.6,6.2,8.4,12.1,14.8,15.8c6.4,3.7,14.6,5.1,21.5,2.3
					c4.2-1.7,7.5-4.6,10.6-7.7c4.1,1.9,8.3,3.5,12.8,3.7c7.5,0.3,14.7-3.7,19.3-9.3c4.6-5.6,6.9-12.6,8-19.7
					C775.9,345.5,774.4,332.9,768.6,322.2z"/>
			</g>
			<g>
				<path fill="#AC6C45" d="M726,333.4c0.8-0.3-3.5-9.8-3.9-22.3c-0.6-12.5,2.8-22.3,2-22.5c-0.3-0.1-1.6,2.2-2.8,6.3
					c-1.2,4.1-2.1,9.9-1.9,16.3c0.3,6.5,1.8,12.2,3.3,16.1C724.2,331.3,725.7,333.5,726,333.4z"/>
			</g>
			<g>
				<path fill="#AC6C45" d="M739,323c-0.2-0.1-1.1,1.4-3,3.3c-1.9,1.9-5.2,4.2-9.3,5.3c-4.1,1.1-8.1,0.7-10.8,0
					c-2.7-0.7-4.3-1.6-4.4-1.4c-0.1,0.1,1.3,1.3,4.1,2.2c2.8,1,7,1.5,11.5,0.4c4.4-1.2,7.8-3.8,9.6-6
					C738.6,324.8,739.2,323.1,739,323z"/>
			</g>
		</g>
		<g>
			<path fill="#F1AAB2" d="M863.3,325.6c8.1-1.4,17-6.1,18.1-14.2c1.5-10.7-0.5-21.4-1.4-32.1c-1-11.9-0.7-23.9,0.9-35.8
				c-6.4,1.8-13.4,0.2-20.2,1.4c-8.3,1.5-16.5,3.7-24.6,5.9c-0.5,0.1-1.1,0.3-1.5,0.6c-0.5,0.4-0.7,1.1-0.8,1.8
				c-2.5,10.5-3.5,21.2-3.8,31.9c-0.3,8.9-3.3,20.4,1.9,28.6c4.3,6.7,14.6,10.6,22.4,12C857.3,326.2,860.3,326.1,863.3,325.6z"/>
		</g>
		<g opacity="0.16">
			<path fill="#FF65A7" d="M867.9,294.5c5-1.5,9.1-3.8,13-6.5c-0.3-2.9-0.6-5.8-0.8-8.7c-1-11.9-0.7-23.9,0.9-35.8
				c-6.4,1.8-13.4,0.2-20.2,1.4c-8.3,1.5-16.5,3.7-24.6,5.9c-0.5,0.1-1.1,0.3-1.5,0.6c-0.5,0.4-0.7,1.1-0.8,1.8
				c-2.5,10.5-3.5,21.2-3.8,31.9c-0.1,3.5-0.6,7.4-0.9,11.3C842,298.4,855.5,298.3,867.9,294.5z"/>
		</g>
		<g>
			<path fill="#484F87" d="M852.9,103.5c-3.5-6.7-5.6-14.1-5.3-21.6c0.3-7.5,3.1-14.9,8.3-20.5c8.7-9.1,22.7-11.8,35.6-11.8
				c8.8,0,17.8,1,26,4c8.2,3,15.8,8.1,20.6,15.2c2.5,3.6,4.2,7.7,5.7,11.8c2.4,6.6,4.4,13.7,2.7,20.6c-1.6,6.5-6.4,12-12,16
				c-5.7,4-12.2,6.6-18.7,9.2"/>
		</g>
		<g>
			<g>
				<path fill="#FF65A7" d="M888.2,109c0.1,0.1,1.2-1.4,2.9-4.2c1.7-2.8,3.9-7,6.1-12.5c2.1-5.5,4.3-12.2,5-20
					c0.4-3.9,0.4-8-0.1-12.2c-0.2-1.1-0.3-2.1-0.5-3.2c-0.2-1.1-0.5-2.1-0.7-3.2c-0.2-1.1-0.6-2.2-1.2-3.3c-0.6-1.1-1.5-2.3-3.1-2.9
					c-1.5-0.6-3.4-0.2-4.5,0.6c-1.2,0.8-1.9,1.8-2.5,2.9c-0.6,1-1.1,2.2-1.4,3.2c-0.3,1-0.6,2-1,3c-1.2,4-2.1,8-2.8,11.8
					c-1.3,7.6-1.6,14.6-1.4,20.4c0.2,5.8,0.9,10.5,1.6,13.7c0.6,3.2,1.2,4.9,1.4,4.9c0.5-0.1-1.1-7.1-1.1-18.6
					c0-5.7,0.5-12.6,1.9-20c0.7-3.7,1.6-7.6,2.9-11.5c0.7-2,1.2-4.1,2.2-5.7c0.5-0.8,1.1-1.6,1.8-2.1c0.7-0.5,1.3-0.6,2-0.3
					c1.3,0.5,2.2,2.5,2.6,4.5c0.2,1,0.5,2,0.7,3c0.2,1,0.3,2,0.5,3c0.5,4,0.5,8,0.3,11.7c-0.6,7.5-2.5,14.1-4.3,19.6
					c-1.9,5.4-3.9,9.7-5.2,12.7C888.8,107.3,888,108.9,888.2,109z"/>
			</g>
			<g>
				<path fill="#FF65A7" d="M883.3,112.3c0.1-0.2-1.5-1.2-4.4-3.1c-2.9-1.9-7-4.7-11.7-8.7c-4.7-3.9-9.9-9-14.5-15.5
					c-2.3-3.3-4.3-6.8-6-10.8c-0.9-1.9-1.6-4-2.2-6.1c-0.5-2-0.6-4.2,0.4-5.5c1-1.3,3-1.3,5-0.5c1.9,0.8,3.9,2,5.7,3.2
					c3.6,2.4,6.7,5.3,9.3,8.3c5.3,5.9,8.9,12.2,11.5,17.6c2.7,5.4,4.5,9.9,5.9,13c1.4,3.1,2.2,4.8,2.3,4.7c0.2-0.1-0.3-1.9-1.4-5.1
					c-1.1-3.2-2.7-7.8-5.2-13.4c-2.5-5.5-6-12.1-11.4-18.3c-2.7-3.1-5.9-6.2-9.7-8.8c-1.9-1.3-3.8-2.5-6.2-3.5
					c-1.2-0.5-2.5-0.8-4-0.8c-1.5,0.1-3.1,0.8-4,2c-1,1.2-1.3,2.7-1.3,3.9c0,1.3,0.1,2.5,0.4,3.7c0.7,2.3,1.4,4.4,2.3,6.4
					c1.8,4.1,4,7.8,6.4,11.1c4.9,6.6,10.4,11.7,15.3,15.5c4.9,3.8,9.3,6.5,12.3,8.2C881.4,111.7,883.2,112.4,883.3,112.3z"/>
			</g>
		</g>
		<g>
			<path fill="#525798" d="M940.4,208.7c6.3-22.9,7.7-47.1,4.3-70.5c-1.4-9.9-6.2-16.1-14.7-21.9c-7.7-5.2-17-7.9-26.3-8.3
				c-3.4-0.1-6.4,0.1-9.1-2c-2.4-1.9-3.9-4.6-6.7-6.4c-5.5-3.4-12.2-4.9-18.7-5.1c-10.5-0.4-21,1.8-31.4,0.8
				c-10.6-1.1-20.6-5.4-31.2-6.2c-9.3-0.7-19.6,2.5-27.8,6.7c-16.5,8.4-33.6,30.3-26.8,49.4c1.2,3.3,3,6.4,3.2,9.8
				c0.4,5.4-3.2,10.2-6.2,14.9c-5.7,9-9.4,19.8-7.8,30.3c1.7,10.5,9.8,20.4,20.5,22.1"/>
		</g>
		<g>
			<path fill="#E29CA6" d="M776.1,189.6c-8.8-0.7-17.6,5-20.3,12.9c-1.6,4.7-1.2,9.9-0.1,14.8c1.2,5.5,3.2,10.9,6.7,15.5
				c3.5,4.6,8.5,8.2,14.3,9.4"/>
		</g>
		<g>
			<g>
				<path fill="#AD597F" d="M779.3,235.5c0.3,0,0.6-2.3,0.5-6.1c-0.1-3.7-0.6-9-2.7-14.5c-2.1-5.5-5.6-9.9-8.8-12.3
					c-3.2-2.4-5.7-3-5.8-2.8c-0.2,0.3,1.9,1.5,4.5,4.1c2.6,2.5,5.6,6.7,7.6,11.8c2,5.2,2.7,10.2,3.3,13.8
					C778.6,233.2,779,235.5,779.3,235.5z"/>
			</g>
			<g>
				<path fill="#AD597F" d="M768.5,227.4c0.7-0.2-0.5-4.8,0.1-10.3c0.5-5.6,2.7-9.8,2-10.2c-0.3-0.2-1.3,0.7-2.3,2.5
					c-1,1.7-2,4.4-2.4,7.5c-0.3,3.1,0.1,5.9,0.8,7.8C767.4,226.5,768.1,227.5,768.5,227.4z"/>
			</g>
		</g>
		<g>
			<path fill="#F1AAB2" d="M886.3,277.3c15.6-8.3,26.6-21.7,32.4-40.3c-0.1,0.2,13.9-1.3,15.4-2c10.5-4.6,17.6-14.6,18-25.2
				c0.4-9.8-2.3-20.3-11.8-25.6c-5.3-2.9-11.9-3.6-17.7-1.8c1.1-15,0.2-26.4-8.3-39.6c-8.2-12.8-23.3-24-39.3-24.8
				c-18.5-0.9-37.9-5.1-55.8,1.5c-14.2,5.2-27.2,15.4-35,27.9c-4.7,7.6-4.8,13.7-6.2,22c-3.3,20.8-5.6,42-2.9,63
				c1.6,12.1,5.2,25.4,14.2,34.5c18,18.3,46.4,23.4,71.6,19C870.4,284.1,878.9,281.3,886.3,277.3z"/>
		</g>
		<path fill="#FFFFFF" d="M825,233.5c2.3,4,6.2,6.4,10.3,5.9c5.1-0.7,8.6-5.8,8.6-11.8C837.7,230.3,831.3,232.3,825,233.5z"/>
		<g opacity="0.16">
			<path fill="#FF65A7" d="M800.8,129.5c-4.7,2.4-9.5,5-12.7,9.1c-7.5,9.6,0,16.4,10.2,17.9c9.1,1.4,18.4-1.5,26.3-6
				c1.4,7.5,8.9,13,16.7,14.1c10.8,1.5,16.4-4.4,25.4-7.5c-2.2,0.8,9.5,20.9,10.9,22.6c5.1,6.2,13.2,13,21.6,14.6
				c18.9,3.6,8.6-36.5,5.5-43.5c-4.6-10.3-8.6-20.5-19.6-26.5c-6.3-3.5-13.8-4.6-21-5.6c-16.3-2.2-32.6-4.5-48.9-6.7"/>
		</g>
		<ellipse opacity="0.16" fill="#FF65A7" cx="880.3" cy="231.3" rx="23.8" ry="20.2"/>
		<path opacity="0.16" fill="#FF65A7" d="M775.2,232.3c1.1,8.1,3.1,16.8,7,24.3c10.9-0.9,19.8-8.1,20.9-17.7
			c1.2-11.1-8.4-21.1-21.5-22.5c-2.6-0.3-5.2-0.1-7.6,0.3C774.1,221.9,774.5,227.1,775.2,232.3z"/>
		<g>
			<path fill="#525798" d="M783.4,120.5c-5.4,4.8-4.8,14.2,0.1,19.6c4.9,5.3,12.8,7,19.9,6.1c7.1-0.9,13.8-4.1,20.3-7.2
				c2.9-1.4,5.7-2.8,8.6-4.1c-3.1,5.4-0.6,12.9,4.5,16.5c5.1,3.6,11.9,3.8,17.8,2.1c6-1.7,11.3-5.2,16.5-8.5
				c1.8,17.8,11.8,34.6,26.5,44.6c3.3,2.2,6.9,4.2,10.8,4.9c3.9,0.7,8.2,0.1,11.3-2.4c5.5-4.3,5.8-12.4,5.3-19.4
				c-0.5-8.2-1.3-16.5-3.8-24.4c-2.4-7.9-6.6-15.4-12.8-20.7c-5.8-5-13.1-7.9-20.5-10c-17.8-5.2-36.5-6.7-55.1-7.5
				c-16.4-0.6-33.8-0.4-47.6,8.7"/>
		</g>
		<g>
			<path fill="#E5A548" d="M920.3,392.7c-5.2,0.5-10.8,0.9-16.9,1c0.4-2.2,0.9-6,1.6-10.9c1.2-8.1,3.3-19.3,6.7-31.5
				c3.4-12.1,7.4-22.8,10.5-30.5c0.1-0.3,0.2-0.6,0.4-0.9c-0.5-0.2-1-0.5-1.6-0.7c-0.1,0.3-0.3,0.6-0.4,0.9
				c-3.6,7.5-7.9,18.3-11.3,30.6c-3.4,12.3-5.2,23.6-6,31.9c-0.5,5-0.6,8.8-0.6,11.1c-13.6,0.3-29.1-0.5-45.4-2.9
				c-25.1-3.6-47.3-9.7-63.9-14.7c0.8,0.6,1.5,1.2,2.1,1.9c2.7,1.2,5.5,2,8.5,2.3c-0.5,0.1-1,0.3-1.5,0.5
				c15.1,4.6,33.8,9.4,54.5,12.4c16.5,2.4,32.2,3.1,45.9,2.6c0,0.1,0.1,0.2,0.1,0.2c0,0,0.1-0.1,0.2-0.2c6.3-0.2,12.3-0.7,17.6-1.3
				C920.5,393.9,920.4,393.3,920.3,392.7z"/>
			<path fill="#E5A548" d="M783.5,371.9c0.1,0.1,0.2,0.1,0.3,0.2c0.2,0,0.3,0.1,0.5,0.1c0.4-2.3,0.9-6.3,1.6-11.5
				c1.2-8.4,3-20,5.8-32.7c2.7-12.2,5.7-23.1,8.1-31.2c-0.7,0.1-1.3,0.1-2,0.1c-2.8,7.9-6,18.6-8.6,30.6c-2.8,12.8-4.3,24.5-5.1,33
				C783.7,365.6,783.5,369.5,783.5,371.9z"/>
		</g>
		<g>
			<path fill="#DCA146" d="M817.3,396.1c-32.4,36.8-72.1,55.9-88.6,42.7c-16.5-13.2-3.6-53.7,28.9-90.4
				c32.4-36.8,72.1-55.9,88.6-42.7C862.7,318.9,849.8,359.3,817.3,396.1z"/>
			<g>
				<path fill="#A5712B" d="M845.1,339c0-1.3-10.6-2.1-22.8-6c-12.3-3.8-21.3-9.1-22.1-8c-0.3,0.5,1.5,2.4,5.1,4.9
					c3.6,2.4,9.1,5.3,15.5,7.3c6.5,2,12.6,2.8,17,2.9C842.3,340.1,845,339.6,845.1,339z"/>
			</g>
			<g>
				<path fill="#A5712B" d="M831.7,366c-0.1-1.3-14.4-1.1-31.3-5.4c-16.9-4.1-29.4-10.9-30.1-9.8c-0.3,0.5,2.4,2.8,7.5,5.7
					c5.1,2.9,12.6,6.1,21.4,8.3c8.8,2.2,17.1,2.8,23,2.6C828.2,367.4,831.8,366.6,831.7,366z"/>
			</g>
			<g>
				<path fill="#A5712B" d="M796.1,397.3c0.2-1.3-10.1-3.7-21.7-9c-11.6-5.2-20.1-11.3-21-10.4c-0.4,0.4,1.2,2.6,4.5,5.4
					c3.3,2.8,8.3,6.2,14.5,9c6.1,2.8,12,4.4,16.4,5.1C793.3,398,796,397.9,796.1,397.3z"/>
			</g>
			<g>
				<path fill="#A5712B" d="M776.7,418.5c0.1-1.3-10.3-2.3-21.5-7.5c-11.3-5.1-18.7-12.1-19.7-11.3c-0.4,0.4,0.8,2.7,3.8,5.7
					c3,3,7.8,6.7,13.9,9.5c6.1,2.8,12.1,4.1,16.4,4.4C774,419.6,776.7,419.1,776.7,418.5z"/>
			</g>
			<g opacity="0.19">
				<path fill="#DCA146" d="M728.8,438.8c7.8,6.2,20.8,5.2,35.7-1.4c0.3-0.6,0.6-1.2,0.8-1.9c8.5-20.4,2.5-44,9.3-65
					c3.6-11.2,10.7-21.2,18.6-30.3c12.7-14.7,27.8-27.6,44.4-38.3c-19.3-3.4-52.2,15.1-79.9,46.4
					C725.2,385.1,712.3,425.6,728.8,438.8z"/>
			</g>
		</g>
		<g>
			<path fill="#8DC0EF" d="M722.3,454.9l-57.6,15c-4.5,1.2-9.2-1.1-10.3-5.1l-35.7-124.5c-2.1-7.3,2.8-14.7,11.1-16.9l42.1-10.9
				c8.9-2.3,18.3,2.3,20.5,10.1l35.5,123.8C729,450.1,726.5,453.8,722.3,454.9z"/>
			<polygon fill="#8DC0EF" points="667.1,329.9 644.8,335.7 624.3,264.2 646.7,258.4 			"/>
			<path fill="#FFC364" d="M699.9,435.5l-26.2,6.8c-5.3,1.4-10.9-1.4-12.2-6l-22.9-80c-1.2-4.3,1.7-8.8,6.6-10.1l26.2-6.8
				c5.3-1.4,10.9,1.4,12.2,6l22.9,80C707.8,429.7,704.9,434.2,699.9,435.5z"/>
			<path fill="#FF65A7" d="M656.8,284l-27.6,7.2l-7.2-25c-0.6-2.1,0.8-4.3,3.3-5l18.4-4.8c2.6-0.7,5.4,0.7,6,3L656.8,284z"/>
		</g>
		<g>
			<path fill="#657DDD" d="M614.1,375.6l22.4,102.5c1.6,7.2,8.2,12.4,16,12.4h176.2c7.7,0,14.4-5.2,16-12.4L867,375.6H614.1z"/>
			<path fill="#4C68C1" d="M875.8,385.4H605.3c-2.4,0-4.3-1.9-4.3-4.3v-13.8c0-2.4,1.9-4.3,4.3-4.3h270.5c2.4,0,4.3,1.9,4.3,4.3
				v13.8C880.1,383.5,878.2,385.4,875.8,385.4z"/>
			<g>
				<path fill="#4C68C1" d="M661.5,478.6L661.5,478.6c-2.6,0-4.7-2-4.7-4.5V404c0-2.5,2.1-4.5,4.7-4.5l0,0c2.6,0,4.7,2,4.7,4.5v70.1
					C666.2,476.6,664.1,478.6,661.5,478.6z"/>
				<path fill="#4C68C1" d="M701,478.6L701,478.6c-2.6,0-4.7-2-4.7-4.5V404c0-2.5,2.1-4.5,4.7-4.5l0,0c2.6,0,4.7,2,4.7,4.5v70.1
					C705.7,476.6,703.6,478.6,701,478.6z"/>
				<path fill="#4C68C1" d="M740.5,478.6L740.5,478.6c-2.6,0-4.7-2-4.7-4.5V404c0-2.5,2.1-4.5,4.7-4.5l0,0c2.6,0,4.7,2,4.7,4.5v70.1
					C745.2,476.6,743.1,478.6,740.5,478.6z"/>
				<path fill="#4C68C1" d="M780,478.6L780,478.6c-2.6,0-4.7-2-4.7-4.5V404c0-2.5,2.1-4.5,4.7-4.5l0,0c2.6,0,4.7,2,4.7,4.5v70.1
					C784.7,476.6,782.6,478.6,780,478.6z"/>
				<path fill="#4C68C1" d="M819.5,478.6L819.5,478.6c-2.6,0-4.7-2-4.7-4.5V404c0-2.5,2.1-4.5,4.7-4.5l0,0c2.6,0,4.7,2,4.7,4.5v70.1
					C824.2,476.6,822.1,478.6,819.5,478.6z"/>
			</g>
			<g>
				<path fill="#FFC364" d="M769,451.4L769,451.4c-3.7,1.2-7.7-0.6-9-4.1l-22.8-62.1c-1.3-3.5,0.7-7.3,4.3-8.5l0,0
					c3.7-1.2,7.7,0.6,9,4.1l22.8,62.1C774.6,446.3,772.7,450.1,769,451.4z"/>
				<ellipse fill="#FFC364" cx="740.5" cy="374.2" rx="17.3" ry="16.5"/>
				<ellipse fill="#4C68C1" cx="740.5" cy="374.2" rx="10.6" ry="10.1"/>
			</g>
		</g>
		<g>
			<path fill="#F1AAB2" d="M989.3,393.3c-0.9-2.7-1.8-5.3-2.9-7.9c-5.7-14-17-34.3-31.9-41.4c-15.9-7.6-28.4,13.9-31.7,25.5
				c-7.8,27.1-0.1,57.9-14.2,82.6c-12.8,22.3-41,33.4-67.8,33.7c-18.6,0.2-36.4-4.3-54.2-8.7c-8.6,13.9-15.8,29-19.3,44.5
				c3.4,1.8,6.2,3.2,6.9,3.5c9,4.3,18.4,7.8,28.1,10.5c41.8,11.6,82.9,17.2,125.3,4.6C990,521.6,1007,447.6,989.3,393.3z"/>
		</g>
		<g>
			<path fill="#525798" d="M989.8,392.9c-0.9-2.7-1.9-5.4-2.9-8c-5.8-14.2-17.2-34.7-32.2-41.9c-16-7.6-28.7,14-32.1,25.8
				c-7.9,27.4-0.1,58.5-14.4,83.4c-5.8,10-14.6,17.8-25,23.4c19.3,22.3,46,38,74.1,50.3C995.6,496,1004.4,437.8,989.8,392.9z"/>
		</g>
		<g>
			<path fill="#FFFFFF" d="M893.3,468.4c0.1,0.1,1.8-1.2,4.8-3.9c2.9-2.7,7.2-6.5,11.4-12.3c2.1-2.9,4.1-6.2,5.7-10
				c1.6-3.8,2.7-8.2,3.3-12.7c1.4-9,1.9-19,2.6-29.5c0.7-10.4,1.7-20.3,3.7-29.1c2-8.7,5.7-16.2,10.6-20.9
				c4.9-4.9,10.6-6.6,14.5-7.1c0.9-0.1,1.8-0.2,2.6-0.3l1.9,0c1.1,0,1.6-0.1,1.6-0.2c0-0.1-0.5-0.2-1.6-0.3l-2-0.2
				c-0.9,0-1.8,0-2.7,0.1c-1,0-2.1,0.3-3.4,0.4c-1.2,0.3-2.5,0.6-3.9,1.1c-2.8,1-5.6,2.8-8.3,5.2c-5.4,4.9-9.5,12.7-11.6,21.6
				c-2.2,8.9-3.2,19-3.9,29.4c-0.7,10.5-1.2,20.4-2.4,29.3c-1,8.9-4.2,16.5-8.2,22.1c-3.9,5.7-7.9,9.7-10.6,12.5
				C894.7,466.7,893.1,468.2,893.3,468.4z"/>
		</g>
		<g>
			<path fill="#F1AAB2" d="M615.7,406.2c1.8-8.5,6.9-16.3,14.2-21.5c7.3-5.2,16.5-7.8,25.6-7.2c5.4,0.4,11.4,2.5,13.5,7.3
				c-2.3,0.7-4.8,0.4-7.2,0.1c-7-0.8-14.6-1.1-20.7,2.4c2.6,0.1,5.2,0.3,7.8,0.4c4.5,0.2,9.2,0.5,13.4,2.1c4.2,1.6,8,4.8,9,9.1
				c-0.7,0.4-1.5,0.3-2.3,0.2c-5.7-0.8-11.1-2.8-16.8-3.5c-5.7-0.7-12.1,0.2-15.9,4.3c8.3-1,16.9,0.4,24.4,3.8
				c2,0.9,4.1,2.1,4.6,4.2c0.1,0.4,0.1,0.8-0.1,1.1c-0.4,0.6-1.3,0.5-2,0.3c-9.5-2.5-20-4.4-28.8-0.3c5.6,1.1,11.2,2.3,16.4,4.5
				c2.5,1,5,2.5,6,4.9c0.2,0.4,0.3,0.9,0.1,1.3c-0.3,0.7-1.1,0.9-1.9,0.9c-6.3,0.5-12.7-2.8-18.9-1.4c-1,0.2-2.1,0.7-2.5,1.6
				c-0.3,0.6-0.2,1.3-0.1,1.9c1,8.3,2.5,16.7,1.3,25c-0.5,3.1-1.4,6.2-3.8,8.3c-2.4,2.1-6.7,2.4-8.7,0"/>
		</g>
		<g>
			<path fill="#F1AAB2" d="M781,527.2c-7.3-0.8-14.3-4.2-19.3-9.4c-5.5-5.7-6.3-11.9-8.3-19c-1.4-4.9-1.9-9.5-2.1-14.5
				c-0.2-4.9-1.4-9.7-3.5-14.1c-2.7-5.7-6.9-9.9-11-14.6c-0.7-0.8-1.3-1.9-0.7-2.8c0.3-0.5,1-0.6,1.6-0.7c2-0.3,4,0.4,5.7,1.4
				c4.5,2.7,7.5,6,9.8,10.6c1.9,3.7,5.2,10.5,4.4,14.8c1.5-7.6,0-15.7-3.9-22.5c-1.9-3.2-4.4-6-6.7-8.9c-2.3-2.9-5.7-4.6-6.8-8.3
				c-0.2-0.8-0.4-1.6,0-2.3c2.7-4.8,15.9,8.8,17.6,10.9c2.4,3.1,4.4,6.5,5.9,10c1.2,2.7,3.8,7.6,3.4,10.6c1.1-8.1-1.9-16-5.6-23.1
				c-1.5-2.9-2.4-5.5-3.5-8.5c-1.3-3.6-3.6-7-5.1-10.5c-0.3-0.7-0.6-1.3-0.5-2.1c0-0.7,0.5-1.4,1.2-1.6c0.4-0.1,0.8,0,1.2,0.1
				c3.9,1.2,6.7,4.3,8.7,7.6c5,8.3,8.5,17.4,10.3,26.8c-0.2-1.2,1.2-4,1.3-5.4c0.2-2.2,0.4-4.4,0.4-6.6c0-4.8-1-9.6-1.5-14.4
				c-0.1-0.6-0.1-1.1,0.1-1.7s0.8-1,1.3-0.9c0.4,0.1,0.8,0.4,1.1,0.7c3.1,3.4,3.4,6.8,4.2,10.9c1.2,6.4,1.7,13.8,4,20
				c3.2,8.3,7.2,15.5,15.9,19.6c4.7,2.2,9.8,2.9,14.8,4c5.7,1.3,11.5,2.1,17.4,2.7c0.7,0.1,1.4,0.1,2.1,0.2"/>
		</g>
		<g opacity="0.16">
			<path fill="#FF65A7" d="M947.9,198.7c0.4,1,0.6,2.1,0.6,3.1c0.1,7.3-2.2,15.3-7.6,20.7c-4.3,4.3-10.4,6.9-16.6,7
				c-0.9,0-1.8,0-2.5-0.5c-0.5-0.3-0.8-0.8-1.1-1.3c-2.2-4.2-2.6-10.1-2.4-14.8c0.2-6,2.4-12,6.6-16.4c3-3.1,7.5-5.7,12-6
				C942,190.4,946.4,194.4,947.9,198.7z"/>
		</g>
		<g>
			<g>
				<g>
					<path fill="#AD597F" d="M939.5,190.7c0-0.3-3.1-0.4-7.6,1.5c-4.4,1.9-10.1,6.2-12.7,13.1c-1.3,3.4-1.7,6.8-1.5,9.9
						c0.1,3.1,0.6,5.7,1.2,7.9c1.2,4.4,2.3,6.9,2.7,6.9c0.4-0.1-0.2-2.8-0.8-7.2c-0.6-4.3-1.3-10.5,1-16.6
						c2.4-6.1,7.3-10.2,11.1-12.4C936.7,191.6,939.6,191.1,939.5,190.7z"/>
				</g>
				<g>
					<path fill="#AD597F" d="M928.2,226.9c0.3,0.1,1.2-1.4,2.2-4c1-2.6,2.2-6.3,2.1-10.7c-0.1-4.4-1.8-8.2-3.6-10.5
						c-1.7-2.3-3.3-3.3-3.6-3.1c-0.3,0.3,0.8,1.6,2,4c1.2,2.3,2.5,5.8,2.5,9.7c0.1,3.9-0.8,7.5-1.3,10.2
						C928.1,225.1,927.9,226.8,928.2,226.9z"/>
				</g>
			</g>
			<g>
				<path fill="#AD597F" d="M837.2,219.2c-0.2-0.3-3.2,2.3-9.2,3.7c-1.5,0.3-3.1,0.6-4.9,0.6c-0.9,0-1.9,0.1-2.5-0.2
					c-0.3-0.1-0.7-0.3-0.7-0.4c0-0.1-0.1,0,0.2-0.3c3.2-2.3,6.9-5.6,8.6-10.3c1.6-4.7,0.8-9.3,0.1-13.2c-0.7-3.9-1.7-7.4-2.5-10.3
					c-1.7-5.8-3.1-9.2-3.3-9.2c-0.3,0.1,0.6,3.7,2,9.5c0.7,2.9,1.5,6.4,2.1,10.2c0.6,3.8,1.2,8.2-0.2,12.3c-0.7,2-1.9,3.8-3.3,5.4
					c-1.4,1.6-2.9,2.9-4.6,4.2c-0.5,0.4-1.1,1.5-0.5,2.3c0.5,0.8,1.1,1,1.7,1.2c0.5,0.2,1.2,0.2,1.7,0.2c0.5,0,1,0,1.5,0
					c1.9-0.1,3.7-0.4,5.2-0.9c3.1-0.9,5.4-2.2,6.8-3.2C836.6,220,837.3,219.3,837.2,219.2z"/>
			</g>
			<g>
				<path fill="#AD597F" d="M807.2,212.1c0.7,0,1.1-3.3,0.9-7.3c-0.2-4-1-7.2-1.7-7.1c-0.7,0-1.1,3.3-0.9,7.3
					C805.7,208.9,806.4,212.1,807.2,212.1z"/>
			</g>
			<g>
				<ellipse fill="#AD597F" cx="858.1" cy="201" rx="1.3" ry="7.1"/>
			</g>
			<path fill="#AD597F" d="M874.9,175.3c-1.1,3.2-8.2,4-15.9,1.6c-7.7-2.3-13.1-6.8-12.1-10.1c1.1-3.2,8.2-4,15.9-1.6
				C870.6,167.5,876,172,874.9,175.3z"/>
			<path fill="#AD597F" d="M814.5,168.7c0.8,3.3-4.9,7.4-12.8,9.2c-7.9,1.8-14.9,0.6-15.8-2.7c-0.8-3.3,4.9-7.4,12.8-9.2
				S813.7,165.4,814.5,168.7z"/>
		</g>
	</g>
</g>
</svg>
