<?xml version="1.0" encoding="utf-8"?>
<!-- Generator: Adobe Illustrator 18.1.1, SVG Export Plug-In . SVG Version: 6.00 Build 0)  -->
<svg version="1.1" xmlns="http://www.w3.org/2000/svg" xmlns:xlink="http://www.w3.org/1999/xlink" x="0px" y="0px"
	 viewBox="0 0 500 500" enable-background="new 0 0 500 500" xml:space="preserve">
<g id="Boxes">
	<g id="Box_00000147208046212786268380000006760803953150175109_">
		
			<rect x="258.3" y="351.2" fill="#303030" stroke="#303030" stroke-width="1.5" stroke-miterlimit="10" width="109.2" height="109.2"/>
		
			<rect x="290.5" y="351.2" fill="#FFA446" stroke="#303030" stroke-width="1.5" stroke-miterlimit="10" width="109.2" height="109.2"/>
		<rect x="377" y="351.2" fill="#F55571" stroke="#303030" stroke-width="1.5" stroke-miterlimit="10" width="11" height="36.7"/>
	</g>
	<g id="Box">
		<g id="Box_00000108285848432313192390000009554235652174113449_">
			
				<rect x="274.4" y="242" fill="#303030" stroke="#303030" stroke-width="1.5" stroke-miterlimit="10" width="109.2" height="109.2"/>
			
				<rect x="306.5" y="242" fill="#FFA446" stroke="#303030" stroke-width="1.5" stroke-miterlimit="10" width="109.2" height="109.2"/>
			<rect x="393.1" y="242" fill="#F55571" stroke="#303030" stroke-width="1.5" stroke-miterlimit="10" width="11" height="48"/>
		</g>
		<polygon fill="#FFA446" stroke="#303030" stroke-width="1.5" stroke-miterlimit="10" points="415.8,242 306.5,242 325.7,269.5 
			434.9,269.5 		"/>
		<polygon fill="#FFA446" stroke="#303030" stroke-width="1.5" stroke-miterlimit="10" points="260.4,269.5 292.5,269.5 306.5,242 
			274.4,242 		"/>
	</g>
</g>
<g id="Character">
	<g id="Character_00000139266540723751579440000010256650342055292064_">
		<g id="Legs_00000006707430946088646140000004486268567895336369_">
			<g id="Leg_00000038375629566762607850000010843594079383243940_">
				<path fill="#FFCCCC" d="M213.6,187.8h-57.7c-2.7,26-2.9,44.4,12.5,82.2c-5.3,4.8-10.8,8.4-18.7,18.3
					c-9.2,11.5-32.5,38.8-47,57.4c-4.4,1.9-8.7,4-13,6.1c-2.8,1.3-5.6,2.6-7.8,4.7c-2.2,2.1-3.9,5.1-3.5,8.1c0.3,2.4,1.6,4.5,3,6.5
					c9.9,14.1,22.1,26.5,32.6,40.2c2.8,3.6,5.4,7.4,8.7,10.6c1.4,1.4,3.5,3.6,5.4,4.3c1.7,0.6,3.9-0.8,4.7-2.2
					c0.8-1.4,0.9-3.1,0.7-4.7c-0.3-1.6-0.9-3.1-1.4-4.6c-1-2.6-2-5.3-2.9-8c-2.5-7.7-4.3-15.6-4.7-23.7c-0.2-3.6-2.3-10.5-1.2-14
					c1-3.2,3.1-5.2,5.6-7.3c22.1-18.3,56.6-43.5,67.2-51.3c16.5-12.2,27.3-25.3,25.5-51.5C219.6,231.5,218.1,215.1,213.6,187.8z"/>
				
					<path fill="#E35B5D" stroke="#303030" stroke-width="1.5" stroke-linecap="round" stroke-linejoin="round" stroke-miterlimit="10" d="
					M114.3,326.3c2.3,13.1,17.1,27.4,27.4,33.3c0,0,52.4-43.1,68.3-56.6c15.9-13.5,20-21.1,18.9-38.8c-1-17.1-11.9-80.3-11.9-80.3
					h-61.2c0,0-8,24.8-0.4,50.2c6.2,20.6,9.7,34.7,9.7,34.7S135.3,296.3,114.3,326.3z"/>
				<g>
					<path fill="#303030" d="M114.3,324.5l-6.8,8.5c0,0,3,8.9,10.7,17.7c7.8,8.8,17.7,14.9,17.7,14.9l8.3-7c0,0-7.8-3.6-17.9-14.8
						C118,334.5,114.3,324.5,114.3,324.5z"/>
					
						<path fill="none" stroke="#303030" stroke-width="1.5" stroke-linecap="round" stroke-linejoin="round" stroke-miterlimit="10" d="
						M144.3,358.5c0,0-7.8-3.6-17.9-14.8c-8.3-9.3-12.1-19.3-12.1-19.3"/>
				</g>
				<g>
					<g>
						<path fill="#F55571" d="M133.3,426.4c-1.4,2-3.7,4.2-3.7,4.2s-8.9-6.7-15.1-14.2c-8.7-10.5-17.9-23.9-21.8-28.5
							c-6.5-7.6-19-21-20.3-27.2c0.2-0.3,0.4-0.6,0.7-0.9c2.8-3.1,11.7-7.4,16.8-9.3c4.8-1.8,9.7-8.6,12.8-4.8
							c-3.3,3.1-5.2,7.4-3.2,11.8c3.2,7.4,11.2,13.6,16,12c2.1-3.9,3.7-5.2,8.8-1.7c3.5,2.4,5.3,3.4,4.1,7.8
							c-1.1,3.9-2.9,10.5-1.1,18.9c1.3,6.1,3.5,13,5.7,20C134.8,420.1,135.3,423.4,133.3,426.4z"/>
						<g>
							<g>
								<g>
									<path fill="#303030" d="M115,368.9c-0.5,4.3-0.8,8.7-0.6,13c0.3,5.1,1.3,10.1,3,14.9c1.1,3.2,2.5,6.3,4.1,9.3
										c0.5,0.8,1.8,0.1,1.3-0.8c-2.7-5-4.8-10.3-5.9-15.8c-0.9-4.5-1.3-9.1-1.1-13.6c0.1-2.3,0.3-4.7,0.6-7
										C116.6,367.9,115.1,367.9,115,368.9L115,368.9z"/>
								</g>
							</g>
							<g>
								<g>
									<path fill="#303030" d="M92.8,347.6c-1.9,3.6-1,7.7,0.6,11.3c1.6,3.5,3.7,6.7,6.1,9.7c1.4,1.7,2.9,3.3,4.5,4.7
										c0.7,0.7,1.8-0.4,1.1-1.1c-3.4-3.1-6.3-6.7-8.6-10.7c-2.2-3.8-4.8-8.9-2.4-13.3C94.5,347.5,93.2,346.7,92.8,347.6
										L92.8,347.6z"/>
								</g>
							</g>
							<g>
								<g>
									<path fill="#303030" d="M82.7,353.6c2.3,9.6,8.7,17.4,15,24.7c1.6,1.9,3.2,3.8,4.4,6.1c0.9,1.7,1.4,3.5,1.9,5.3
										c0.5,1.9,0.8,3.8,1.3,5.7c0.6,2.3,1.5,4.6,2.3,6.9c0.6,1.9,1.1,3.9,1.9,5.7c0.7,1.7,1.6,3.3,2.8,4.7
										c0.6,0.7,1.7-0.3,1.1-1.1c-2.1-2.6-3.1-5.7-4-8.9c-0.7-2.3-1.5-4.5-2.2-6.7c-0.6-1.9-1-3.9-1.4-5.9
										c-0.4-1.8-0.9-3.6-1.6-5.3c-0.9-2.1-2.2-4-3.7-5.8c-1.6-1.9-3.2-3.7-4.8-5.6c-1.6-1.9-3.1-3.8-4.5-5.8
										c-3.1-4.4-5.7-9.2-6.9-14.5C83.9,352.3,82.5,352.7,82.7,353.6L82.7,353.6z"/>
								</g>
							</g>
							<g>
								<g>
									<path fill="#303030" d="M129.7,404.1c-6.2-0.6-12.2,2.9-16.5,7.1c-0.7,0.7,0.4,1.7,1.1,1.1c4-3.9,9.6-7.3,15.4-6.7
										C130.6,405.6,130.6,404.1,129.7,404.1L129.7,404.1z"/>
								</g>
							</g>
						</g>
						
							<path fill="#FFFFFF" stroke="#303030" stroke-width="1.5" stroke-linecap="round" stroke-linejoin="round" stroke-miterlimit="10" d="
							M127.6,431.9c-1.9,2.1-5.2,2.1-7.2,0.1c-3-3.1-8.3-9.3-19.4-22.6l-29-34.9c-3.9-4.7-6-7.5-4.7-10c0.9-1.8,3.3-3.1,5.1-3.8
							c1.3,6.3,13.1,18.3,20.3,27.2c3.8,4.7,13.4,16.2,22.1,26.7c4.2,5.1,14,15.8,14,15.8S128.4,431,127.6,431.9z"/>
					</g>
				</g>
			</g>
			<g id="Leg_00000127723937125962623410000016562433968258565279_">
				<path fill="#FFCCCC" d="M188.5,413c0.9-12,9.8-92.2,12.6-109.8c2.8-17.6-6.8-76.6-6.8-76.6l6.7-34.9h-50.3
					c-7.4,15.6-11,29.9-6.1,52.2c6.1,27.7,11.8,57.5,11.8,57.5s-4,25.7-4,48.4c0,23.6,3.9,66.2,4.2,71.5c0.1,1.5-4.7,19.8-5.4,24.7
					c-0.3,1.9-0.5,4,0.6,5.6c1,1.4,2.8,2,4.4,2.3c3.2,0.6,6.5,0.7,9.8,0.8c20.5,0.5,41.1,0.9,61.6,1.4c1.4,0,2.9,0.1,4.2-0.5
					c1.3-0.5,2.5-1.7,2.6-3.2c0.3-4.5-4.9-7.2-8.1-8.8c-8.1-4.1-16.5-7.7-24.5-12.2C193,426.4,187.7,423.8,188.5,413z"/>
				<g>
					
						<path fill="#E35B5D" stroke="#303030" stroke-width="1.5" stroke-linecap="round" stroke-linejoin="round" stroke-miterlimit="10" d="
						M202.6,185.3c0.3,1.9,1.3,10.7,1.3,10.7c2.1,22.1,0.5,27.8-1,34.9c-1.5,6.5-4.1,4.8-1.2,31.6c2.8,26.8,1.6,38.8-1,59.5
						c-3.6,28.3-6.4,76.6-6.4,76.6c-13,5.2-30.8,6.3-43.3,1.2c0,0-3.2-50.9-1.4-67.8c1.1-10.5,2.8-20.2,4-27
						c0.8-4.6,0.8-9.2-0.1-13.8c-1.9-9.7-6.6-26.8-10.9-45.3c-6.8-29.4-1.2-48.6,0-60.6H202.6z"/>
					
						<path fill="none" stroke="#303030" stroke-width="1.5" stroke-linecap="round" stroke-linejoin="round" stroke-miterlimit="10" d="
						M151,399.8c0,0-3.2-50.9-1.4-67.8c1.1-10.5,2.8-20.2,4-27c0.8-4.6,0.8-9.2-0.1-13.8c-1.9-9.7-6.8-26.7-10.9-45.3"/>
					
						<path fill="none" stroke="#303030" stroke-width="1.5" stroke-linecap="round" stroke-linejoin="round" stroke-miterlimit="10" d="
						M203.9,195.9c2.1,22.1,0.5,27.8-1,34.9c-1.5,6.5-4.1,4.8-1.2,31.6c2.8,26.8,2.2,36.5-1,59.5"/>
				</g>
				
					<path fill="none" stroke="#303030" stroke-width="1.5" stroke-linecap="round" stroke-linejoin="round" stroke-miterlimit="10" d="
					M161,186.5c-3.7,10.1-6,20.7-6.9,31.4c-1.2,14.3,2.3,27.1,5.6,40.8c2.4,10.2,4.2,20.4,4.2,30.9c0,15.4-2.8,30.7-3.9,46
					c-1.2,16.6-0.6,49.1-0.1,65.8"/>
				<g>
					<path fill="#303030" d="M148.8,399.1l0.4,9.8c0,0,11.4,4.3,23.2,4.1c11.8-0.2,21.5-3.6,21.5-3.6l1.3-11c0,0-7.8,3.6-22.8,4
						C160,402.8,148.8,399.1,148.8,399.1z"/>
					
						<path fill="none" stroke="#303030" stroke-width="1.5" stroke-linecap="round" stroke-linejoin="round" stroke-miterlimit="10" d="
						M195.3,398.4c0,0-7.8,3.6-22.8,4c-12.5,0.3-23.6-3.3-23.6-3.3"/>
				</g>
				
					<path fill="none" stroke="#303030" stroke-width="1.5" stroke-linecap="round" stroke-linejoin="round" stroke-miterlimit="10" d="
					M172.8,190.4c0,0-1.7,11.4-2.8,16.9c-1.2,5.7-1.6,14.5-7.3,17.2c-2.8,1.3-5.5,1.2-8.5,1.2"/>
				<g>
					<g>
						<path fill="#F55571" d="M236.7,449.4c0.7,2.3,0.9,5.5,0.9,5.5s-10.9,2.6-20.6,2.6c-13.7,0-29.8-1.5-35.8-1.5
							c-10,0.1-28.3,1.2-33.9-1.8c-0.1-0.3-0.2-0.7-0.2-1.1c-0.6-4.2,1.8-13.7,3.6-18.9c1.7-4.8,1.1-12.9,6-12.9
							c0.3,4.5,0.9,8.7,5.5,10c7.7,2.3,17.6,0.1,19.5-4.6c-1.7-4.2-1.6-6.1,4.3-7.8c4-1.2,6-1.9,8.6,1.8c2.3,3.3,6.2,8.9,13.8,12.9
							c5.5,2.9,12.2,5.7,19,8.4C232.9,444.2,235.7,445.9,236.7,449.4z"/>
						<g>
							<g>
								<g>
									<path fill="#303030" d="M180.8,426.6c3,3.2,6.1,6.2,9.6,8.8c4.1,3,8.6,5.4,13.3,7.2c3.2,1.2,6.5,2.1,9.8,2.8
										c0.9,0.2,1.3-1.3,0.4-1.4c-5.6-1.1-11-2.9-16-5.6c-4-2.1-7.8-4.8-11.2-7.9c-1.7-1.6-3.4-3.2-5-4.9
										C181.2,424.9,180.1,425.9,180.8,426.6L180.8,426.6z"/>
								</g>
							</g>
							<g>
								<g>
									<path fill="#303030" d="M150.2,430.1c1.4,3.4,4.5,5.3,7.8,6.4c3.9,1.3,8,1.8,12.1,1.9c2.3,0,4.7-0.1,7-0.4
										c0.4-0.1,0.7-0.3,0.8-0.8c0-0.4-0.3-0.8-0.8-0.8c-4.9,0.6-9.9,0.5-14.8-0.4c-4-0.8-9-2.2-10.7-6.4
										C151.3,428.8,149.9,429.2,150.2,430.1L150.2,430.1z"/>
								</g>
							</g>
							<g>
								<g>
									<path fill="#303030" d="M148.4,441.7c9,4.4,19.1,4.5,28.9,4.3c2.5-0.1,5,0,7.4,0.5c1.8,0.4,3.5,1.1,5.2,1.9
										c1.7,0.9,3.4,1.8,5.2,2.6c2.2,1,4.4,1.7,6.7,2.6c1.9,0.8,3.8,1.6,5.7,2.3c1.7,0.6,3.5,0.8,5.4,0.9c1,0,1-1.5,0-1.5
										c-3.3,0-6.3-1.2-9.4-2.5c-2.2-0.9-4.4-1.7-6.6-2.6c-1.8-0.8-3.6-1.7-5.4-2.6c-1.6-0.8-3.3-1.6-5-2.2
										c-2.1-0.7-4.4-0.9-6.6-1c-2.6-0.1-5.2,0.1-7.8,0.1c-2.4,0-4.8-0.1-7.2-0.2c-5.4-0.4-10.8-1.5-15.7-3.9
										C148.3,440,147.5,441.3,148.4,441.7L148.4,441.7z"/>
								</g>
							</g>
							<g>
								<g>
									<path fill="#303030" d="M217.3,437.9c-4.4,4.4-5.6,11.3-5.1,17.2c0.1,1,1.6,1,1.5,0c-0.5-5.6,0.5-12.1,4.7-16.2
										C219.1,438.2,218,437.2,217.3,437.9L217.3,437.9z"/>
								</g>
							</g>
						</g>
						
							<path fill="#FFFFFF" stroke="#303030" stroke-width="1.5" stroke-linecap="round" stroke-linejoin="round" stroke-miterlimit="10" d="
							M237.4,457.3c0.4,2.8-1.7,5.3-4.5,5.6c-4.3,0.3-12.5,0.5-29.8,0.5h-45.4c-6.1,0-9.6-0.2-10.7-2.7c-0.8-1.9-0.3-4.6,0.3-6.4
							c5.7,3,22.5,1.7,33.9,1.8c6,0.1,21,0,34.6,0c6.6,0,21.1-0.7,21.1-0.7S237.2,456.1,237.4,457.3z"/>
					</g>
				</g>
			</g>
		</g>
		<g id="Head_00000006707632541377701150000018370298542019238547_">
			<g>
				<path fill="#303030" d="M153.1,58.3c-1.3,11.3,6.9,24.8,18.8,26.2c11.8,1.4,22.8-9.8,24.1-21.1c1.3-11.3-7.2-21.6-19-23
					C165.1,38.9,154.5,47,153.1,58.3z"/>
				<path fill="#303030" d="M158,67c-1.8,0-3.3-0.6-4.6-1.9c-1.5-1.4-1.6-4.5-1.1-6c-0.7,0.1-1.5,0.1-2.2,0c-0.7-0.1-1.4-0.5-1.9-1
					c-0.3-0.4-0.4-1,0-1.2c0.2-0.1,0.4-0.1,0.6-0.1c1,0,1.9-0.9,2.3-1.8c0.4-1,0.4-2,0.5-3c0.6-4.1,3.8-9.1,8.2-9.7
					c1.6-0.2,3.2,0.1,4.7,0.5c0.9-2.5,2.9-4.6,5.2-6c2.3-1.4,5-2.1,7.7-2.3c1.8-0.1,3.7,0,5.4,0.5c3.2,1,5.8,3.5,8.6,5.4
					c2.8,1.9,6.6,3.1,9.6,1.5c0.5-0.3,1.2-0.7,1.7-0.3c0.2,0.2,0.3,0.4,0.4,0.6c0.8,2.7-0.8,5.3-3.1,6.7c1.8,0.2,3.5,1.1,4.5,2.9
					c0.9,1.8,1,4.3,0.5,6.3c-0.9-1.1-2.1-1.9-3.5-2.2c1.1,2.1,1.1,4.7,0,6.7c-0.9,1.6-2.4,2.8-4.2,3.4c-0.9,0.3-1.7,0.1-2.7,0.2
					c-1.2,0.1-2.5,0.2-3.7,0.3c-4.9,0.4-9.9,0.6-14.8,0.6c-3,0-6-0.2-9-0.2C164.1,66.8,161.1,67.1,158,67z"/>
			</g>
			<path fill="#FFCCCC" d="M195,71.5c0.5-3.2,0.9-5,1.1-9.1c0.3-6-2.5-11.1-2.5-11.1c-5.6-6.1-16.8-6.1-24.6-1.2
				c0,4.5-0.2,8.5-5.6,8.9c1.3,3.3,1.7,4.8,1.6,7.9c-0.1,3.1-1.9,2.3-2.9,0.7c-1.4-2-3.7-3.9-6.2-4.1c-3.3-0.3-5.7,1.4-6.4,3.7
				c-0.7,2.3,0.9,5,3.1,6.2c2.2,1.2,5.2,1.5,7.5,0.3c0,0-0.2,2.9-0.4,5.3c-0.2,2.5,0.5,4.8,2,6.7l-3.5,13.3l-7.4,6.5
				c4.6,4.9,12,8.1,22.8,7c11.5-1.1,14-10.6,14-10.6l-6-1.4l0.1-6.6c1.4,0.1,6.8,0.4,9.6-1.8c2.8-2.3,2.7-5.7,3-11
				C194.2,78.4,194.5,74.1,195,71.5z"/>
			<path fill="#FF95FB" d="M178.8,79.9c-1-0.1-2.1,2.1-1.8,2.9c0.3,1.1,1.8,1.2,2.5,0.4c0.6-0.7,0.8-1.8,0.3-2.7
				c-0.2-0.3-0.6-0.7-1-0.6"/>
			<g>
				<g>
					<path fill="#303030" d="M181.2,78.5c-1.3-0.2-2.7,0-3.7,0.9c-0.9,0.7-1.5,2-1.3,3.2c0.2,1.1,1.2,2,2.4,2c1.2,0,2.2-1,2.4-2.1
						c0.2-1.4-0.4-2.8-1.6-3.6c-0.3-0.2-0.8-0.1-1,0.3c-0.2,0.4-0.1,0.8,0.3,1c0,0,0.2,0.1,0,0c0,0,0.1,0.1,0.1,0.1
						c0.1,0.1,0.2,0.2,0.2,0.2c0,0,0.1,0.1,0.1,0.1c0.1,0.1,0-0.1,0,0c0.1,0.1,0.1,0.2,0.2,0.3c0,0,0,0.1,0.1,0.1c0.1,0.2,0-0.1,0,0
						c0,0.1,0.1,0.2,0.1,0.3c0,0,0,0.1,0,0.1c0,0.2,0-0.1,0,0.1c0,0.1,0,0.3,0,0.4c0,0,0,0.1,0,0.1c0,0.1-0.1,0.1,0-0.1
						c0,0.1,0,0.1,0,0.2c0,0-0.1,0.2-0.1,0.2c0,0,0.1-0.1,0,0c0,0.1-0.1,0.1-0.1,0.2c0,0,0,0.1-0.1,0.1c0.1-0.1,0,0,0,0
						c0,0-0.1,0.1-0.1,0.1c0,0-0.2,0.1-0.1,0.1c-0.1,0-0.2,0.1-0.2,0.1c0.1,0,0.1,0,0,0c0,0-0.2,0.1-0.2,0c0,0,0.2,0,0,0
						c-0.1,0-0.1,0-0.2,0c0,0-0.1,0-0.1,0c0,0,0.2,0,0,0c0,0-0.1,0-0.1,0c-0.1,0,0,0,0,0c0,0-0.2-0.1-0.3-0.2c-0.1-0.1,0.1,0.1,0,0
						c0,0-0.1-0.1-0.1-0.1c0,0-0.1-0.1-0.1-0.1c-0.1-0.1-0.1,0,0,0c0,0-0.1-0.2-0.1-0.2c0,0,0,0,0,0c0-0.1,0-0.1,0,0
						c0,0,0-0.1,0-0.2c0,0,0-0.1,0-0.1c0-0.1,0,0.2,0,0c0-0.1,0-0.2,0-0.3c0-0.2,0,0.2,0,0c0,0,0-0.1,0-0.1c0-0.1,0.1-0.2,0.1-0.4
						c0-0.1,0-0.1,0.1-0.2c0,0-0.1,0.1,0,0c0-0.1,0.1-0.2,0.1-0.3c0,0,0.1-0.1,0.1-0.1c0.1-0.1,0,0,0,0c0.1-0.1,0.2-0.2,0.2-0.3
						c0,0,0.1-0.1,0.1-0.1c0.2-0.1-0.1,0.1,0.1,0c0.1-0.1,0.2-0.1,0.3-0.2c0,0,0.1,0,0.1-0.1c0,0,0,0,0,0c0,0,0.1,0,0.1,0
						c0.1,0,0.3-0.1,0.4-0.1c0.1,0,0.3-0.1,0.4-0.1c-0.1,0,0,0,0,0c0.1,0,0.2,0,0.3,0c0.1,0,0.3,0,0.4,0c0,0,0.1,0,0.1,0
						c0,0,0.1,0,0.1,0c-0.1,0-0.1,0,0,0c0.4,0.1,0.8-0.1,0.9-0.5C181.8,79.1,181.6,78.6,181.2,78.5L181.2,78.5z"/>
				</g>
			</g>
			<g>
				<g>
					<g>
						<path fill="#FFFFFF" d="M185.7,66.5c0.6-1.3,1.9-1.8,3.4-1.8c1.5,0,3.5,0.6,3.7,2.6C192,69.3,187.4,69.5,185.7,66.5z"/>
						<path fill="#303030" d="M191.6,68c-0.5,0.8-1.7,1.1-2.5,0.5c-0.9-0.5-1.2-1.7-0.7-2.5c0.5-0.8,1.7-1.1,2.5-0.5
							C191.9,66.1,192.2,67.2,191.6,68z"/>
						<polygon fill="#FFFFFF" points="188.3,66 190,67.1 188,67 						"/>
						
							<path fill="none" stroke="#303030" stroke-width="1.5" stroke-linecap="round" stroke-linejoin="round" stroke-miterlimit="10" d="
							M193,67c-0.8-1.6-2.4-2.1-3.9-2.1c-1.5,0-3,0.7-3.5,1.6"/>
					</g>
					
						<path fill="none" stroke="#303030" stroke-width="1.5" stroke-linecap="round" stroke-linejoin="round" stroke-miterlimit="10" d="
						M187.9,57c2.9,0.1,5.7,1.6,7.1,3.5"/>
				</g>
				<g>
					<g>
						<path fill="#FFFFFF" d="M171,65.4c0.6-1.3,1.9-1.8,3.4-1.8c1.5,0,3.5,0.6,3.7,2.7C177.4,68.3,172.7,68.4,171,65.4z"/>
						<path fill="#303030" d="M177,67c-0.5,0.8-1.7,1.1-2.5,0.5c-0.9-0.5-1.2-1.7-0.6-2.5c0.5-0.8,1.7-1.1,2.5-0.5
							C177.2,65,177.5,66.1,177,67z"/>
						<polygon fill="#FFFFFF" points="173.7,64.9 175.4,66 173.3,65.9 						"/>
						
							<path fill="none" stroke="#303030" stroke-width="1.5" stroke-linecap="round" stroke-linejoin="round" stroke-miterlimit="10" d="
							M178.4,65.9c-0.8-1.6-2.4-2.1-3.8-2.1c-1.5,0-3,0.7-3.5,1.6"/>
					</g>
					
						<path fill="none" stroke="#303030" stroke-width="1.5" stroke-linecap="round" stroke-linejoin="round" stroke-miterlimit="10" d="
						M168.4,60.3c1.3-2.3,4.7-4.2,7.5-4.2"/>
				</g>
				
					<path fill="none" stroke="#303030" stroke-width="1.5" stroke-linecap="round" stroke-linejoin="round" stroke-miterlimit="10" d="
					M183.2,62.3c0.3,4.2,1.7,7,2.5,9.1c0.6,1.7,0.4,4.4-3.6,4.2"/>
				<g>
					
						<path fill="none" stroke="#303030" stroke-width="1.5" stroke-linecap="round" stroke-linejoin="round" stroke-miterlimit="10" d="
						M152.9,67.5c0.5-0.5,2-1.1,3.5-0.6c1.5,0.5,2.6,1.7,3,3.2"/>
					
						<path fill="none" stroke="#303030" stroke-width="1.5" stroke-linecap="round" stroke-linejoin="round" stroke-miterlimit="10" d="
						M155.1,69.3c0.5-0.6,2.2-1.5,3.6-0.6"/>
				</g>
				<g>
					
						<path fill="none" stroke="#303030" stroke-width="1.5" stroke-linecap="round" stroke-linejoin="round" stroke-miterlimit="10" d="
						M167.9,64.6c-0.3,3.7,2.5,7,6.2,7.3c3.7,0.3,7-2.5,7.3-6.2c0.3-3.7-2.7-4.3-6.4-4.6C171.2,60.8,168.2,60.9,167.9,64.6z"/>
					
						<path fill="none" stroke="#303030" stroke-width="1.5" stroke-linecap="round" stroke-linejoin="round" stroke-miterlimit="10" d="
						M185.7,66c-0.3,3.7,2.5,7,6.2,7.3c3.7,0.3,7-2.5,7.3-6.2c0.3-3.7-2.7-4.3-6.4-4.6C189,62.2,186,62.3,185.7,66z"/>
					
						<path fill="none" stroke="#303030" stroke-width="1.5" stroke-linecap="round" stroke-linejoin="round" stroke-miterlimit="10" d="
						M185.6,67.9c-1.2-1.4-3.4-1.3-4.4-0.3"/>
					
						<line fill="none" stroke="#303030" stroke-width="1.5" stroke-linecap="round" stroke-linejoin="round" stroke-miterlimit="10" x1="167.5" y1="65.7" x2="162.6" y2="66.4"/>
				</g>
				<path fill="#303030" d="M181.6,94.2c-5.2-0.9-11-2.9-14.3-5.5c0.6,2.4,4.4,6.6,14.2,9.3L181.6,94.2z"/>
			</g>
		</g>
		<g id="Arm_00000173851454160205417140000014728188381267150491_">
			<path fill="#FFCCCC" d="M305.7,101c-2.1,2-5.6,4.5-5.6,4.5c2.1-2,5.3-6,6.8-8.3c2-3,3.9-7.7,2.5-9.4c-0.8-1.2-2.1-1.4-3.2-0.5
				c0.2-1.3,0.6-3.4-1.8-3.4c-2.1,0-4.3,3.9-6.3,6.6c-1.1,1.6-2.8,3.7-4.6,6.1c1.8-3.4,2.9-6.1,3.9-9.8c0.6-2.3,1.3-4.7-0.8-5.2
				c-2-0.5-3.4,2.4-4.2,4.4c-0.8,2-3,6.5-4.2,8.1c-1.2,1.7-2.9,4.1-4,2.1c-1.1-2,0.8-6-0.4-8.3c-0.8-1.5-2.6-2.5-3.6-0.7
				c-1.1,1.8-1.3,4.5-1.9,6.6c-0.7,2.8-1.2,6-1.5,8.9c-0.4,4.6-2.7,5.4-9.1,8.6c-5.3,2.6-26.9,10.1-26.9,10.1L203.7,107l-8.7,24.8
				c12.4,4.8,30.3,10,37.2,11.8c8.3,2.2,12.7,3.5,23.8-1.9c10.3-5,24.5-14.9,28.4-17.4c3.8-2.5,9.5-6.2,13-8.7
				c3.5-2.5,6.2-4.5,8.7-7.1c2.2-2.3,6.9-7,4.8-9.4C309.8,97.7,308.2,98.7,305.7,101z"/>
			
				<path fill="none" stroke="#303030" stroke-width="1.5" stroke-linecap="round" stroke-linejoin="round" stroke-miterlimit="10" d="
				M297.2,100.4c3.7-3.9,6.7-8.3,9.1-13.1"/>
			
				<path fill="none" stroke="#303030" stroke-width="1.5" stroke-linecap="round" stroke-linejoin="round" stroke-miterlimit="10" d="
				M289.4,103.2c-1.8,0.2-3.5,1.4-4.5,3c-1,1.5-1.5,3.4-1.7,5.3"/>
			
				<path fill="#FFFFFF" stroke="#303030" stroke-width="1.5" stroke-linecap="round" stroke-linejoin="round" stroke-miterlimit="10" d="
				M191.6,103.1c7.3-0.3,14.6,3,19.5,4.9c4.9,1.9,23.5,9.1,23.5,9.1c1.5,8.3-0.8,22.2-4.3,27.1l-33-8.8L191.6,103.1z"/>
		</g>
		
			<path id="Chest_00000121281781536298453560000016736456662582720139_" fill="#FFFFFF" stroke="#303030" stroke-width="1.5" stroke-linecap="round" stroke-linejoin="round" stroke-miterlimit="10" d="
			M156.7,99.7c0,0-7.9,4.8-16.3,16.8c-7.9,11.3-7.3,19.9-3.3,36.5c4.8,19.6,4.2,26.4,2.8,35.3c-1.4,8.9-2.2,15.6-2.2,15.6
			c4.8,4.7,24.4,8.3,46.6,5.6c20.4-2.5,33.3-9.1,36.5-13.1c-0.8-6-2.1-12.4-2.8-28.5c-1-20.9-0.3-25-3.3-39.7
			c-3.2-16.4-11.3-22.8-15.6-24.2c-2.8-1-16.2-3-16.2-3C183.9,108.9,172.1,110.7,156.7,99.7z"/>
		<g id="Box_00000104692702572304562170000000309515374245602179_">
			
				<polygon fill="#FFA446" stroke="#303030" stroke-width="1.5" stroke-linecap="round" stroke-linejoin="round" stroke-miterlimit="10" points="
				313.2,63.7 217,90.4 214,136 234.8,210.9 331,184.1 334.9,142 			"/>
			
				<polygon fill="#303030" stroke="#303030" stroke-width="1.5" stroke-linecap="round" stroke-linejoin="round" stroke-miterlimit="10" points="
				217,90.4 238.7,168.8 234.8,210.9 214,136 			"/>
			
				<polygon fill="#FFA446" stroke="#303030" stroke-width="1.5" stroke-linecap="round" stroke-linejoin="round" stroke-miterlimit="10" points="
				365.3,141.2 334.9,141.8 313.2,63.7 343.6,63.1 			"/>
			
				<polygon fill="#FFA446" stroke="#303030" stroke-width="1.5" stroke-linecap="round" stroke-linejoin="round" stroke-miterlimit="10" points="
				238.6,168.6 213.9,184.5 192.2,106.4 216.9,90.4 			"/>
			
				<polygon fill="#FFA446" stroke="#303030" stroke-width="1.5" stroke-linecap="round" stroke-linejoin="round" stroke-miterlimit="10" points="
				208.4,66.9 217,90.4 313.2,63.7 304.6,40.2 			"/>
			
				<polygon fill="#FFA446" stroke="#303030" stroke-width="1.5" stroke-linecap="round" stroke-linejoin="round" stroke-miterlimit="10" points="
				334.9,142 238.7,168.8 217,90.4 313.2,63.7 			"/>
			
				<polygon fill="#303030" stroke="#303030" stroke-width="1.5" stroke-linecap="round" stroke-linejoin="round" stroke-miterlimit="10" points="
				313.2,63.7 296.2,96.9 310.6,148.8 334.9,142 			"/>
			
				<polygon fill="#FFA446" stroke="#303030" stroke-width="1.5" stroke-linecap="round" stroke-linejoin="round" stroke-miterlimit="10" points="
				238.7,168.8 310.6,148.8 296.2,96.7 224.3,116.7 			"/>
			
				<line fill="#00826F" stroke="#303030" stroke-width="1.5" stroke-linecap="round" stroke-linejoin="round" stroke-miterlimit="10" x1="313.2" y1="63.7" x2="296.2" y2="96.7"/>
			
				<line fill="#00826F" stroke="#303030" stroke-width="1.5" stroke-linecap="round" stroke-linejoin="round" stroke-miterlimit="10" x1="238.7" y1="168.8" x2="234.8" y2="210.9"/>
		</g>
		<g id="Arm_00000010306684955061483100000003062101449733021343_">
			<path fill="#FFCCCC" d="M259.3,189.9c-1-2.1-6-1.7-8.8-1.5c-1.1,0.1-3.2,0-5.1-0.1c2.5-0.1,5.8-0.4,7.7-1.1
				c2.2-0.8,4.5-1.5,3.8-3.5c-0.7-1.9-3.8-1.5-5.9-1.1c-2.4,0.5-5.1,0.8-7.7,0.4c-2.6-0.4-4.2-1.5-4.1-2.5c0.1-1.1,0.9-1.4,2.3-2
				c1.8-0.8,2.4-1,3.7-1.9c1.3-0.9,1.9-2,2-3.2c0.1-3.3-3-1.7-4.8-1.2c-2.8,0.8-5.2,1.3-9,2.8c-1.4,0.5-3.2,1.7-5.6,2.2
				c-1.1,0.2-4.2,0.6-6.4-0.3c-3.9-1.6-14.5-6.4-18.9-8.7c-4-2.1-8-4.1-12-6.2c-9.6-15.9-16-26.2-21.9-35.7
				c-5.9-9.6-12.1-13.6-18.9-12.2l-0.6,35.3c0,0,8,11.9,16.5,23.8c3.6,5,6.2,9.7,18,13.7c5.1,1.7,33.2,7.9,37.4,9.4
				c6.8,2.5,4.6,2,8.5,3.5c4,1.5,7,2.6,10.5,3.2c3,0.6,9.7,1.9,10.3-1.2c0.3-1.4-1.5-2.4-4.7-3.1c-0.5-0.1-1.1-0.3-1.6-0.4
				c2.4,0.3,4.9,0.4,6.4,0.3c3.7-0.3,7.8-0.7,8.4-2.9c0.4-1.7-0.1-2.2-1.3-2.6C258.5,192.9,260.2,192,259.3,189.9z"/>
			
				<path fill="#FFFFFF" stroke="#303030" stroke-width="1.5" stroke-linecap="round" stroke-linejoin="round" stroke-miterlimit="10" d="
				M145.9,147.2l12.4,19.2c0,0,6.6,0,15-5.8c8.4-5.8,10.4-11.3,10.4-11.3s-9.2-16-15.5-26.2c-5.4-8.8-11.6-12.5-19.5-10.1"/>
			
				<path fill="none" stroke="#303030" stroke-width="1.5" stroke-linecap="round" stroke-linejoin="round" stroke-miterlimit="10" d="
				M241.2,193.3c5.2,0.9,11,0.5,16.3-0.1"/>
			<g>
				<g>
					<path fill="#303030" d="M240.1,199.1c3.7,0.6,7.4,1,11.1,0.7c2.6-0.3,6-0.8,7.6-3.2c1-1.5,0.6-3.2-0.9-4.1
						c-0.8-0.5-1.6,0.8-0.8,1.3c1.6,0.9,0.4,2.4-0.8,3.1c-1.2,0.7-2.6,1-4,1.3c-4,0.6-7.9,0.1-11.8-0.5
						C239.5,197.5,239.1,199,240.1,199.1L240.1,199.1z"/>
				</g>
			</g>
			
				<path fill="none" stroke="#303030" stroke-width="1.5" stroke-linecap="round" stroke-linejoin="round" stroke-miterlimit="10" d="
				M241.4,188.2c2.8,0.2,6.4,0.2,10.8-0.8c4.5-0.9,5.2-1.8,5.2-3.1c-0.1-1.5-1.5-2.7-6.5-1.9"/>
		</g>
		
			<rect x="240.6" y="154.9" transform="matrix(0.9634 -0.268 0.268 0.9634 -34.603 84.0514)" fill="#FFA446" stroke="#303030" stroke-width="1.5" stroke-linecap="round" stroke-linejoin="round" stroke-miterlimit="10" width="99.9" height="27.8"/>
	</g>
</g>
<g id="Dotted_Line_00000127006702397199231560000014052799432086072981_">
	<g id="Dotted_Line">
		<g>
			<g>
				<path fill="none" stroke="#B57518" stroke-width="1.5" stroke-linecap="round" stroke-linejoin="round" d="M284.8,144.6
					c0-0.8,0.1-1.7,0.2-2.5"/>
				
					<path fill="none" stroke="#B57518" stroke-width="1.5" stroke-linecap="round" stroke-linejoin="round" stroke-dasharray="4.8431,6.7803" d="
					M286.9,135.6c4.6-9.7,16-16.7,26.4-13.3c3.4,1.1,9.6,4.9,8,9.5c-1.3,3.7-5,2.6-6.1-0.7c-2.9-9.6,14.9-25.9,33.2-27.3
					c19.9-1.5,32.9,4.7,40.1,17.3"/>
				<path fill="none" stroke="#B57518" stroke-width="1.5" stroke-linecap="round" stroke-linejoin="round" d="M390.1,124.1
					c0.3,0.7,0.7,1.5,1,2.3"/>
			</g>
		</g>
	</g>
</g>
<g id="Fly">
	<g>
		
			<path fill="#FFFFFF" stroke="#303030" stroke-width="1.5" stroke-linecap="round" stroke-linejoin="round" stroke-miterlimit="10" d="
			M397.7,144.7c-1.7-0.7-2.8-2.4-3.2-4.2c-0.3-1.7-0.4-4,1.3-5c2.5-1.5,6.6-1.2,8.1,0.9c0.9,1.3,0.3,2.7-1.2,2.9
			c-1.5,0.2-3-0.1-4.2-0.5C401.3,140.1,401.6,146.2,397.7,144.7z"/>
		<circle fill="#303030" cx="394.1" cy="136.1" r="2.5"/>
	</g>
</g>
</svg>
