<?xml version="1.0" encoding="utf-8"?>
<!-- Generator: Adobe Illustrator 27.5.0, SVG Export Plug-In . SVG Version: 6.00 Build 0)  -->
<svg version="1.1" xmlns="http://www.w3.org/2000/svg" xmlns:xlink="http://www.w3.org/1999/xlink" x="0px" y="0px"
	 viewBox="0 0 500 500" style="enable-background:new 0 0 500 500;" xml:space="preserve">
<g id="Boxes">
	<g id="Box_00000147208046212786268380000006760803953150175109_">
		
			<rect x="258.349" y="351.238" style="fill:#303030;stroke:#303030;stroke-width:1.5;stroke-miterlimit:10;" width="109.25" height="109.25"/>
		
			<rect x="290.482" y="351.238" style="fill:#00826F;stroke:#303030;stroke-width:1.5;stroke-miterlimit:10;" width="109.25" height="109.25"/>
		
			<rect x="377.045" y="351.238" style="fill:#F55571;stroke:#303030;stroke-width:1.5;stroke-miterlimit:10;" width="11.028" height="36.657"/>
	</g>
	<g id="Box">
		<g id="Box_00000108285848432313192390000009554235652174113449_">
			
				<rect x="274.415" y="241.988" style="fill:#303030;stroke:#303030;stroke-width:1.5;stroke-miterlimit:10;" width="109.25" height="109.25"/>
			
				<rect x="306.548" y="241.988" style="fill:#00826F;stroke:#303030;stroke-width:1.5;stroke-miterlimit:10;" width="109.25" height="109.25"/>
			
				<rect x="393.111" y="241.988" style="fill:#F55571;stroke:#303030;stroke-width:1.5;stroke-miterlimit:10;" width="11.028" height="47.993"/>
		</g>
		<polygon style="fill:#00826F;stroke:#303030;stroke-width:1.5;stroke-miterlimit:10;" points="415.798,241.988 306.548,241.988 
			325.669,269.478 434.919,269.478 		"/>
		<polygon style="fill:#00826F;stroke:#303030;stroke-width:1.5;stroke-miterlimit:10;" points="260.368,269.478 292.5,269.478 
			306.548,241.988 274.415,241.988 		"/>
	</g>
</g>
<g id="Character">
	<g id="Character_00000139266540723751579440000010256650342055292064_">
		<g id="Legs_00000006707430946088646140000004486268567895336369_">
			<g id="Leg_00000038375629566762607850000010843594079383243940_">
				<path style="fill:#FFCCCC;" d="M213.598,187.846H155.87c-2.696,25.998-2.852,44.391,12.495,82.21
					c-5.301,4.81-10.778,8.383-18.687,18.308c-9.158,11.493-32.509,38.844-46.957,57.357c-4.371,1.89-8.679,4.028-13.014,6.064
					c-2.768,1.3-5.583,2.632-7.825,4.711c-2.241,2.08-3.856,5.066-3.538,8.107c0.25,2.392,1.63,4.498,3.014,6.464
					c9.925,14.101,22.116,26.458,32.552,40.185c2.759,3.629,5.416,7.374,8.67,10.587c1.424,1.406,3.457,3.637,5.41,4.264
					c1.724,0.554,3.892-0.767,4.749-2.245c0.803-1.386,0.925-3.082,0.667-4.663c-0.257-1.581-0.865-3.08-1.449-4.572
					c-1.034-2.642-2.004-5.31-2.883-8.008c-2.502-7.672-4.306-15.634-4.657-23.717c-0.157-3.609-2.255-10.548-1.182-14.032
					c0.973-3.16,3.075-5.219,5.594-7.302c22.075-18.255,56.592-43.463,67.156-51.261c16.541-12.21,27.296-25.297,25.508-51.538
					C219.632,231.51,218.122,215.108,213.598,187.846z"/>
				
					<path style="fill:#F55571;stroke:#303030;stroke-width:1.5;stroke-linecap:round;stroke-linejoin:round;stroke-miterlimit:10;" d="
					M114.322,326.338c2.315,13.076,17.092,27.428,27.371,33.291c0,0,52.39-43.122,68.314-56.602
					c15.924-13.48,19.959-21.099,18.915-38.843c-1.007-17.12-11.884-80.327-11.884-80.327H155.85c0,0-8.021,24.771-0.373,50.205
					c6.2,20.618,9.667,34.702,9.667,34.702S135.298,296.327,114.322,326.338z"/>
				<g>
					<path style="fill:#303030;" d="M114.322,324.48l-6.769,8.461c0,0,2.961,8.866,10.731,17.688
						c7.77,8.822,17.665,14.934,17.665,14.934l8.302-7.019c0,0-7.812-3.592-17.876-14.794
						C118.028,334.459,114.322,324.48,114.322,324.48z"/>
					
						<path style="fill:none;stroke:#303030;stroke-width:1.5;stroke-linecap:round;stroke-linejoin:round;stroke-miterlimit:10;" d="
						M144.251,358.545c0,0-7.812-3.592-17.876-14.794c-8.348-9.292-12.054-19.271-12.054-19.271"/>
				</g>
				<g>
					<g>
						<path style="fill:#F55571;" d="M133.268,426.38c-1.368,1.992-3.698,4.215-3.698,4.215s-8.905-6.716-15.112-14.174
							c-8.738-10.501-17.876-23.889-21.784-28.494c-6.486-7.642-18.971-20.973-20.294-27.226c0.201-0.303,0.425-0.596,0.683-0.885
							c2.833-3.128,11.682-7.411,16.834-9.312c4.769-1.763,9.74-8.56,12.822-4.783c-3.286,3.127-5.158,7.37-3.248,11.797
							c3.172,7.353,11.218,13.599,16.043,12.031c2.14-3.93,3.669-5.177,8.772-1.705c3.458,2.353,5.301,3.377,4.107,7.794
							c-1.064,3.937-2.879,10.451-1.075,18.89c1.304,6.096,3.469,13.027,5.69,19.977
							C134.791,420.082,135.327,423.382,133.268,426.38z"/>
						<g>
							<g>
								<g>
									<path style="fill:#303030;" d="M114.98,368.869c-0.544,4.318-0.821,8.672-0.56,13.022
										c0.306,5.089,1.324,10.119,3.02,14.927c1.127,3.194,2.532,6.285,4.14,9.265c0.459,0.85,1.754,0.093,1.295-0.757
										c-2.685-4.977-4.762-10.267-5.931-15.808c-0.946-4.485-1.259-9.073-1.074-13.65c0.095-2.341,0.317-4.675,0.61-6.999
										C116.601,367.914,115.1,367.922,114.98,368.869L114.98,368.869z"/>
								</g>
							</g>
							<g>
								<g>
									<path style="fill:#303030;" d="M92.778,347.578c-1.93,3.62-1.014,7.744,0.615,11.283c1.602,3.481,3.719,6.738,6.141,9.702
										c1.377,1.685,2.874,3.268,4.471,4.746c0.708,0.655,1.771-0.403,1.061-1.061c-3.361-3.11-6.252-6.694-8.552-10.655
										c-2.226-3.834-4.765-8.899-2.44-13.258C94.527,347.484,93.233,346.725,92.778,347.578L92.778,347.578z"/>
								</g>
							</g>
							<g>
								<g>
									<path style="fill:#303030;" d="M82.703,353.592c2.319,9.646,8.674,17.425,15.044,24.741
										c1.642,1.886,3.218,3.832,4.384,6.056c0.876,1.671,1.45,3.456,1.888,5.285c0.454,1.897,0.813,3.814,1.327,5.697
										c0.64,2.34,1.53,4.605,2.258,6.918c0.606,1.923,1.14,3.88,1.901,5.75c0.706,1.733,1.635,3.299,2.827,4.744
										c0.615,0.745,1.671-0.321,1.061-1.061c-2.14-2.593-3.064-5.711-4.042-8.868c-0.701-2.261-1.54-4.478-2.23-6.741
										c-0.591-1.939-0.999-3.921-1.44-5.897c-0.405-1.814-0.896-3.593-1.641-5.3c-0.922-2.115-2.23-4.016-3.678-5.803
										c-1.559-1.924-3.247-3.741-4.836-5.642c-1.557-1.864-3.059-3.774-4.452-5.763c-3.098-4.421-5.658-9.238-6.926-14.514
										C83.924,352.255,82.477,352.652,82.703,353.592L82.703,353.592z"/>
								</g>
							</g>
							<g>
								<g>
									<path style="fill:#303030;" d="M129.662,404.051c-6.195-0.625-12.243,2.943-16.508,7.141
										c-0.689,0.678,0.372,1.739,1.061,1.061c4.007-3.944,9.626-7.289,15.447-6.702
										C130.622,405.647,130.615,404.147,129.662,404.051L129.662,404.051z"/>
								</g>
							</g>
						</g>
						
							<path style="fill:#FFFFFF;stroke:#303030;stroke-width:1.5;stroke-linecap:round;stroke-linejoin:round;stroke-miterlimit:10;" d="
							M127.576,431.923c-1.936,2.072-5.198,2.11-7.174,0.076c-3.018-3.105-8.329-9.298-19.402-22.605l-29.021-34.877
							c-3.908-4.696-6.014-7.539-4.747-9.969c0.929-1.782,3.321-3.143,5.149-3.847c1.323,6.253,13.062,18.349,20.294,27.226
							c3.814,4.682,13.393,16.158,22.131,26.659c4.243,5.099,14.021,15.757,14.021,15.757S128.397,431.044,127.576,431.923z"/>
					</g>
				</g>
			</g>
			<g id="Leg_00000127723937125962623410000016562433968258565279_">
				<path style="fill:#FFCCCC;" d="M188.543,413.016c0.936-12.022,9.784-92.152,12.56-109.792
					c2.776-17.639-6.795-76.638-6.795-76.638l6.696-34.918H150.7c-7.398,15.62-11.002,29.864-6.095,52.171
					c6.083,27.654,11.845,57.514,11.845,57.514s-3.977,25.729-3.977,48.431c0,23.563,3.874,66.208,4.171,71.545
					c0.082,1.477-4.745,19.794-5.447,24.736c-0.27,1.9-0.495,4.013,0.579,5.584c0.975,1.427,2.752,1.99,4.42,2.312
					c3.227,0.624,6.527,0.699,9.81,0.772c20.528,0.456,41.056,0.912,61.584,1.368c1.423,0.032,2.886,0.057,4.22-0.455
					c1.334-0.511,2.526-1.692,2.636-3.15c0.341-4.497-4.866-7.192-8.079-8.843c-8.067-4.144-16.546-7.694-24.468-12.201
					C193.038,426.411,187.701,423.833,188.543,413.016z"/>
				<g>
					
						<path style="fill:#F55571;stroke:#303030;stroke-width:1.5;stroke-linecap:round;stroke-linejoin:round;stroke-miterlimit:10;" d="
						M202.62,185.274c0.278,1.862,1.272,10.671,1.272,10.671c2.093,22.076,0.542,27.801-1.046,34.865
						c-1.462,6.508-4.06,4.83-1.239,31.605c2.821,26.774,1.619,38.801-0.995,59.545c-3.57,28.327-6.356,76.628-6.356,76.628
						c-12.967,5.185-30.763,6.259-43.305,1.212c0,0-3.225-50.923-1.428-67.844c1.116-10.512,2.838-20.176,4.039-26.958
						c0.81-4.57,0.763-9.245-0.129-13.799c-1.904-9.717-6.6-26.799-10.893-45.341c-6.803-29.381-1.231-48.597,0-60.584H202.62z"/>
					
						<path style="fill:none;stroke:#303030;stroke-width:1.5;stroke-linecap:round;stroke-linejoin:round;stroke-miterlimit:10;" d="
						M150.952,399.801c0,0-3.225-50.923-1.428-67.844c1.116-10.512,2.838-20.176,4.039-26.958c0.81-4.57,0.763-9.245-0.129-13.799
						c-1.904-9.717-6.835-26.743-10.893-45.341"/>
					
						<path style="fill:none;stroke:#303030;stroke-width:1.5;stroke-linecap:round;stroke-linejoin:round;stroke-miterlimit:10;" d="
						M203.892,195.946c2.093,22.076,0.542,27.801-1.046,34.865c-1.462,6.508-4.06,4.83-1.239,31.605
						c2.821,26.774,2.162,36.474-0.995,59.545"/>
				</g>
				<path style="fill:none;stroke:#303030;stroke-width:1.5;stroke-linecap:round;stroke-linejoin:round;stroke-miterlimit:10;" d="
					M161.041,186.523c-3.675,10.089-6.006,20.697-6.921,31.428c-1.216,14.255,2.302,27.102,5.554,40.806
					c2.416,10.178,4.175,20.421,4.175,30.89c0,15.427-2.777,30.654-3.917,46.013c-1.232,16.595-0.639,49.134-0.143,65.769"/>
				<g>
					<path style="fill:#303030;" d="M148.841,399.063l0.427,9.846c0,0,11.419,4.326,23.173,4.12
						c11.754-0.206,21.549-3.609,21.549-3.609l1.3-11.049c0,0-7.796,3.626-22.849,4.038
						C159.954,402.751,148.841,399.063,148.841,399.063z"/>
					
						<path style="fill:none;stroke:#303030;stroke-width:1.5;stroke-linecap:round;stroke-linejoin:round;stroke-miterlimit:10;" d="
						M195.29,398.371c0,0-7.796,3.626-22.849,4.038c-12.486,0.342-23.6-3.346-23.6-3.346"/>
				</g>
				<path style="fill:none;stroke:#303030;stroke-width:1.5;stroke-linecap:round;stroke-linejoin:round;stroke-miterlimit:10;" d="
					M172.776,190.37c0,0-1.668,11.381-2.811,16.925c-1.167,5.662-1.599,14.478-7.323,17.181c-2.755,1.301-5.518,1.181-8.503,1.181"
					/>
				<g>
					<g>
						<path style="fill:#F55571;" d="M236.736,449.411c0.656,2.326,0.875,5.539,0.875,5.539s-10.858,2.55-20.561,2.55
							c-13.661,0-29.797-1.539-35.836-1.481c-10.023,0.098-28.256,1.168-33.909-1.815c-0.104-0.348-0.186-0.708-0.244-1.091
							c-0.592-4.178,1.776-13.72,3.61-18.897c1.695-4.794,1.098-12.933,5.973-12.887c0.302,4.527,0.918,8.651,5.543,10.015
							c7.681,2.265,17.629,0.075,19.51-4.637c-1.652-4.158-1.633-6.132,4.3-7.833c4.021-1.153,5.986-1.914,8.618,1.828
							c2.346,3.336,6.192,8.898,13.833,12.908c5.52,2.897,12.232,5.665,18.995,8.405
							C232.869,444.212,235.748,445.911,236.736,449.411z"/>
						<g>
							<g>
								<g>
									<path style="fill:#303030;" d="M180.78,426.637c2.972,3.181,6.143,6.166,9.645,8.76c4.08,3.022,8.575,5.434,13.326,7.22
										c3.193,1.2,6.488,2.105,9.83,2.779c0.943,0.19,1.346-1.255,0.399-1.446c-5.56-1.122-10.985-2.901-16.005-5.561
										c-4.046-2.144-7.775-4.821-11.169-7.889c-1.73-1.564-3.374-3.219-4.965-4.923
										C181.18,424.87,180.121,425.932,180.78,426.637L180.78,426.637z"/>
								</g>
							</g>
							<g>
								<g>
									<path style="fill:#303030;" d="M150.245,430.076c1.361,3.355,4.454,5.342,7.787,6.424
										c3.862,1.253,8.049,1.777,12.097,1.857c2.349,0.047,4.696-0.09,7.025-0.394c0.405-0.053,0.745-0.307,0.75-0.75
										c0.004-0.365-0.348-0.802-0.75-0.75c-4.907,0.641-9.909,0.523-14.77-0.425c-4.029-0.785-8.986-2.153-10.694-6.361
										C151.334,428.794,149.882,429.18,150.245,430.076L150.245,430.076z"/>
								</g>
							</g>
							<g>
								<g>
									<path style="fill:#303030;" d="M148.372,441.687c9.007,4.44,19.097,4.493,28.91,4.294c2.488-0.051,4.99-0.011,7.427,0.543
										c1.813,0.412,3.524,1.104,5.184,1.931c1.737,0.865,3.433,1.807,5.203,2.606c2.176,0.982,4.445,1.739,6.655,2.642
										c1.891,0.772,3.76,1.627,5.707,2.253c1.74,0.56,3.538,0.846,5.366,0.854c0.965,0.004,0.967-1.496,0-1.5
										c-3.349-0.014-6.319-1.246-9.363-2.512c-2.173-0.904-4.396-1.682-6.569-2.581c-1.839-0.761-3.594-1.698-5.361-2.609
										c-1.625-0.838-3.283-1.626-5.035-2.161c-2.137-0.653-4.375-0.916-6.604-0.971c-2.603-0.063-5.208,0.092-7.81,0.099
										c-2.408,0.007-4.818-0.056-7.22-0.243c-5.415-0.423-10.834-1.526-15.733-3.941
										C148.267,439.967,147.506,441.26,148.372,441.687L148.372,441.687z"/>
								</g>
							</g>
							<g>
								<g>
									<path style="fill:#303030;" d="M217.311,437.85c-4.447,4.362-5.621,11.263-5.119,17.239c0.08,0.955,1.581,0.964,1.5,0
										c-0.469-5.584,0.508-12.087,4.68-16.178C219.062,438.234,218.001,437.173,217.311,437.85L217.311,437.85z"/>
								</g>
							</g>
						</g>
						
							<path style="fill:#FFFFFF;stroke:#303030;stroke-width:1.5;stroke-linecap:round;stroke-linejoin:round;stroke-miterlimit:10;" d="
							M237.356,457.332c0.355,2.814-1.702,5.345-4.53,5.563c-4.317,0.333-12.474,0.455-29.786,0.455h-45.372
							c-6.109,0-9.642-0.199-10.7-2.727c-0.776-1.854-0.291-4.563,0.337-6.419c5.652,2.983,22.459,1.696,33.909,1.815
							c6.039,0.063,20.987,0.04,34.648,0.04c6.634,0,21.08-0.699,21.08-0.699S237.206,456.139,237.356,457.332z"/>
					</g>
				</g>
			</g>
		</g>
		<g id="Head_00000006707632541377701150000018370298542019238547_">
			<g>
				<path style="fill:#303030;" d="M153.119,58.273c-1.337,11.309,6.927,24.802,18.768,26.202
					c11.841,1.4,22.774-9.823,24.111-21.132c1.337-11.309-7.178-21.612-19.019-23.012C165.139,38.931,154.456,46.964,153.119,58.273
					z"/>
				<path style="fill:#303030;" d="M158.038,66.988c-1.819-0.036-3.291-0.587-4.636-1.877c-1.488-1.427-1.602-4.487-1.065-5.997
					c-0.736,0.069-1.484,0.123-2.212-0.004c-0.729-0.127-1.447-0.455-1.911-1.031c-0.287-0.356-0.406-0.986,0-1.194
					c0.179-0.091,0.392-0.058,0.593-0.056c1.028,0.013,1.885-0.856,2.258-1.814c0.374-0.958,0.389-2.01,0.529-3.028
					c0.558-4.054,3.849-9.12,8.218-9.698c1.576-0.208,3.178,0.086,4.701,0.541c0.943-2.528,2.859-4.638,5.168-6.036
					c2.308-1.398,4.991-2.113,7.683-2.303c1.823-0.129,3.683-0.02,5.423,0.541c3.234,1.044,5.76,3.528,8.6,5.394
					c2.84,1.866,6.608,3.119,9.575,1.461c0.526-0.294,1.197-0.669,1.668-0.294c0.195,0.155,0.288,0.403,0.357,0.643
					c0.765,2.66-0.828,5.3-3.068,6.685c1.835,0.216,3.537,1.051,4.528,2.922c0.933,1.763,0.996,4.303,0.521,6.253
					c-0.907-1.063-2.128-1.854-3.47-2.246c1.119,2.058,1.123,4.682,0.008,6.743c-0.874,1.617-2.413,2.848-4.163,3.395
					c-0.928,0.29-1.746,0.136-2.689,0.223c-1.229,0.113-2.458,0.223-3.689,0.316c-4.923,0.374-9.859,0.561-14.796,0.557
					c-2.999-0.002-5.989-0.152-8.986-0.214C164.135,66.807,161.081,67.051,158.038,66.988z"/>
			</g>
			<path style="fill:#FFCCCC;" d="M194.969,71.532c0.514-3.162,0.93-5.027,1.149-9.114c0.322-5.996-2.503-11.093-2.503-11.093
				c-5.623-6.094-16.848-6.114-24.573-1.245c0.038,4.519-0.184,8.529-5.553,8.937c1.31,3.296,1.691,4.819,1.554,7.851
				c-0.142,3.124-1.889,2.306-2.943,0.739c-1.417-2.034-3.672-3.873-6.212-4.137c-3.307-0.344-5.65,1.376-6.398,3.705
				c-0.74,2.303,0.879,5.046,3.081,6.232c2.202,1.187,5.242,1.495,7.499,0.339c0,0-0.225,2.87-0.419,5.334
				c-0.193,2.465,0.476,4.836,2.017,6.739l-3.536,13.325l-7.435,6.535c4.613,4.904,12.041,8.064,22.807,7.021
				c11.505-1.115,13.96-10.584,13.96-10.584l-5.976-1.36l0.084-6.6c1.398,0.127,6.827,0.442,9.585-1.832
				c2.758-2.274,2.728-5.674,2.964-11.033C194.249,78.4,194.546,74.136,194.969,71.532z"/>
			<path style="fill:#FF95FB;" d="M178.834,79.93c-1.031-0.149-2.074,2.069-1.815,2.919c0.342,1.127,1.846,1.229,2.52,0.399
				c0.603-0.742,0.817-1.83,0.255-2.663c-0.201-0.297-0.589-0.731-0.992-0.554"/>
			<g>
				<g>
					<path style="fill:#303030;" d="M181.202,78.499c-1.307-0.204-2.663,0.027-3.711,0.868c-0.914,0.734-1.465,2.017-1.267,3.185
						c0.189,1.116,1.239,2.021,2.369,2.035c1.163,0.014,2.199-0.978,2.38-2.101c0.232-1.438-0.43-2.829-1.625-3.637
						c-0.326-0.22-0.845-0.073-1.026,0.269c-0.2,0.379-0.079,0.791,0.269,1.026c0.023,0.016,0.183,0.135,0.043,0.024
						c0.032,0.025,0.063,0.051,0.094,0.077c0.086,0.074,0.167,0.152,0.243,0.236c0.035,0.038,0.069,0.078,0.103,0.117
						c0.13,0.148-0.045-0.079,0.017,0.023c0.067,0.109,0.141,0.211,0.202,0.325c0.025,0.047,0.048,0.096,0.072,0.144
						c0.09,0.18-0.021-0.086,0.012,0.03c0.033,0.116,0.077,0.228,0.105,0.346c0.01,0.043,0.018,0.087,0.027,0.131
						c0.044,0.209,0-0.147,0.009,0.069c0.005,0.128,0.012,0.253,0.005,0.381c-0.002,0.043-0.007,0.086-0.01,0.129
						c-0.006,0.086-0.052,0.082,0.013-0.088c-0.021,0.054-0.022,0.122-0.036,0.179c-0.007,0.026-0.071,0.208-0.066,0.212
						c-0.017-0.014,0.072-0.145,0.017-0.041c-0.034,0.064-0.066,0.129-0.104,0.191c-0.021,0.033-0.043,0.065-0.065,0.097
						c0.097-0.145-0.021,0.019-0.042,0.041c-0.031,0.033-0.063,0.064-0.096,0.094c-0.007,0.007-0.184,0.137-0.074,0.064
						c-0.067,0.045-0.164,0.126-0.243,0.139c0.147-0.022,0.078-0.029,0.03-0.018c-0.02,0.005-0.191,0.065-0.201,0.049
						c-0.01-0.016,0.171-0.008,0.048-0.01c-0.05-0.001-0.1,0.003-0.151,0.001c0.008,0-0.1-0.008-0.1-0.008
						c0.005-0.021,0.181,0.036,0.003-0.009c-0.041-0.01-0.08-0.025-0.12-0.036c-0.138-0.038-0.01,0.023,0.016,0.01
						c-0.037,0.018-0.235-0.134-0.264-0.152c-0.136-0.086,0.069,0.085,0.01,0.007c-0.024-0.032-0.066-0.059-0.095-0.087
						c-0.031-0.03-0.059-0.063-0.089-0.094c-0.068-0.07-0.089-0.033,0.004,0.01c-0.047-0.022-0.114-0.178-0.137-0.223
						c-0.008-0.016-0.016-0.031-0.024-0.047c-0.034-0.075-0.03-0.064,0.013,0.033c-0.027-0.019-0.042-0.124-0.05-0.152
						c-0.011-0.04-0.013-0.094-0.031-0.131c-0.042-0.09,0.005,0.179,0.001,0.01c-0.003-0.094-0.003-0.185,0.001-0.279
						c0.007-0.189-0.045,0.169,0.009-0.038c0.011-0.042,0.018-0.087,0.028-0.129c0.028-0.123,0.061-0.244,0.101-0.364
						c0.019-0.057,0.04-0.113,0.062-0.169c-0.009,0.025-0.067,0.139-0.005,0.018c0.044-0.086,0.086-0.171,0.137-0.253
						c0.03-0.049,0.063-0.096,0.095-0.144c0.076-0.112,0.005-0.005-0.012,0.014c0.078-0.09,0.157-0.178,0.243-0.261
						c0.045-0.043,0.092-0.083,0.139-0.124c0.154-0.136-0.12,0.08,0.053-0.043c0.104-0.074,0.21-0.143,0.323-0.203
						c0.047-0.025,0.097-0.046,0.144-0.071c0.049-0.022,0.039-0.019-0.029,0.011c0.041-0.016,0.082-0.032,0.124-0.047
						c0.127-0.046,0.256-0.084,0.387-0.116c0.133-0.032,0.267-0.058,0.403-0.078c-0.143,0.021-0.024,0.004,0.004,0.002
						c0.091-0.006,0.181-0.015,0.271-0.019c0.133-0.006,0.267-0.005,0.4,0.001c0.043,0.002,0.087,0.005,0.13,0.008
						c0.043,0.003,0.085,0.007,0.128,0.012c-0.095-0.014-0.099-0.014-0.013-0.001c0.386,0.06,0.826-0.098,0.923-0.524
						C181.807,79.063,181.616,78.563,181.202,78.499L181.202,78.499z"/>
				</g>
			</g>
			<g>
				<g>
					<g>
						<path style="fill:#FFFFFF;" d="M185.67,66.52c0.559-1.297,1.934-1.841,3.398-1.816c1.464,0.025,3.512,0.574,3.697,2.643
							C192.027,69.339,187.36,69.505,185.67,66.52z"/>
						<path style="fill:#303030;" d="M191.638,68.039c-0.522,0.842-1.663,1.087-2.548,0.546c-0.885-0.54-1.179-1.661-0.657-2.503
							c0.522-0.842,1.663-1.087,2.548-0.546C191.866,66.076,192.16,67.197,191.638,68.039z"/>
						<polygon style="fill:#FFFFFF;" points="188.309,66.019 190.036,67.061 187.958,66.991 						"/>
						
							<path style="fill:none;stroke:#303030;stroke-width:1.5;stroke-linecap:round;stroke-linejoin:round;stroke-miterlimit:10;" d="
							M193.036,66.99c-0.76-1.574-2.387-2.093-3.851-2.118c-1.464-0.025-3.036,0.743-3.515,1.647"/>
					</g>
					
						<path style="fill:none;stroke:#303030;stroke-width:1.5;stroke-linecap:round;stroke-linejoin:round;stroke-miterlimit:10;" d="
						M187.929,57.025c2.931,0.083,5.749,1.634,7.067,3.516"/>
				</g>
				<g>
					<g>
						<path style="fill:#FFFFFF;" d="M171.022,65.411c0.564-1.295,1.941-1.834,3.405-1.803c1.464,0.031,3.51,0.588,3.686,2.657
							C177.368,68.254,172.701,68.402,171.022,65.411z"/>
						<path style="fill:#303030;" d="M176.984,66.953c-0.525,0.84-1.667,1.08-2.549,0.536c-0.883-0.544-1.173-1.666-0.647-2.506
							c0.526-0.84,1.667-1.08,2.55-0.536C177.22,64.992,177.509,66.113,176.984,66.953z"/>
						<polygon style="fill:#FFFFFF;" points="173.663,64.92 175.386,65.969 173.308,65.891 						"/>
						
							<path style="fill:none;stroke:#303030;stroke-width:1.5;stroke-linecap:round;stroke-linejoin:round;stroke-miterlimit:10;" d="
							M178.386,65.91c-0.754-1.577-2.379-2.102-3.843-2.133c-1.464-0.031-3.039,0.731-3.521,1.634"/>
					</g>
					
						<path style="fill:none;stroke:#303030;stroke-width:1.5;stroke-linecap:round;stroke-linejoin:round;stroke-miterlimit:10;" d="
						M168.388,60.297c1.324-2.334,4.658-4.242,7.548-4.23"/>
				</g>
				<path style="fill:none;stroke:#303030;stroke-width:1.5;stroke-linecap:round;stroke-linejoin:round;stroke-miterlimit:10;" d="
					M183.176,62.291c0.295,4.215,1.713,6.97,2.512,9.145c0.613,1.667,0.44,4.443-3.573,4.249"/>
				<g>
					
						<path style="fill:none;stroke:#303030;stroke-width:1.5;stroke-linecap:round;stroke-linejoin:round;stroke-miterlimit:10;" d="
						M152.891,67.514c0.513-0.485,2.02-1.145,3.48-0.649c1.46,0.496,2.617,1.741,2.958,3.185"/>
					
						<path style="fill:none;stroke:#303030;stroke-width:1.5;stroke-linecap:round;stroke-linejoin:round;stroke-miterlimit:10;" d="
						M155.122,69.325c0.486-0.615,2.166-1.526,3.628-0.608"/>
				</g>
				<g>
					
						<path style="fill:none;stroke:#303030;stroke-width:1.5;stroke-linecap:round;stroke-linejoin:round;stroke-miterlimit:10;" d="
						M167.86,64.597c-0.292,3.723,2.488,6.977,6.211,7.27c3.723,0.292,6.977-2.488,7.27-6.211c0.292-3.723-2.7-4.279-6.423-4.571
						C171.195,60.792,168.152,60.874,167.86,64.597z"/>
					
						<path style="fill:none;stroke:#303030;stroke-width:1.5;stroke-linecap:round;stroke-linejoin:round;stroke-miterlimit:10;" d="
						M185.681,65.996c-0.292,3.723,2.489,6.978,6.211,7.27c3.723,0.292,6.977-2.488,7.27-6.211c0.292-3.723-2.7-4.279-6.423-4.571
						C189.016,62.191,185.973,62.273,185.681,65.996z"/>
					
						<path style="fill:none;stroke:#303030;stroke-width:1.5;stroke-linecap:round;stroke-linejoin:round;stroke-miterlimit:10;" d="
						M185.57,67.937c-1.176-1.418-3.444-1.325-4.423-0.347"/>
					
						<line style="fill:none;stroke:#303030;stroke-width:1.5;stroke-linecap:round;stroke-linejoin:round;stroke-miterlimit:10;" x1="167.5" y1="65.661" x2="162.572" y2="66.388"/>
				</g>
				<path style="fill:#303030;" d="M181.573,94.155c-5.248-0.899-11.024-2.906-14.265-5.524c0.646,2.379,4.439,6.557,14.193,9.301
					L181.573,94.155z"/>
			</g>
		</g>
		<g id="Arm_00000173851454160205417140000014728188381267150491_">
			<path style="fill:#FFCCCC;" d="M305.743,101.012c-2.143,2.028-5.572,4.452-5.572,4.452c2.11-1.95,5.262-6.014,6.787-8.327
				c1.982-3.006,3.937-7.66,2.529-9.437c-0.835-1.244-2.062-1.367-3.182-0.506c0.19-1.273,0.583-3.403-1.788-3.422
				c-2.072-0.017-4.348,3.859-6.251,6.609c-1.119,1.617-2.846,3.717-4.564,6.144c1.772-3.418,2.91-6.126,3.864-9.759
				c0.605-2.304,1.264-4.713-0.755-5.181c-2.02-0.468-3.384,2.389-4.225,4.359c-0.841,1.97-3.031,6.538-4.154,8.084
				c-1.22,1.678-2.887,4.095-3.978,2.056c-1.091-2.039,0.761-6-0.438-8.302c-0.774-1.486-2.568-2.515-3.624-0.726
				c-1.055,1.789-1.284,4.455-1.861,6.628c-0.744,2.802-1.238,5.994-1.47,8.908c-0.365,4.581-2.672,5.392-9.12,8.552
				c-5.319,2.606-26.892,10.105-26.892,10.105l-37.346-14.288l-8.674,24.838c12.394,4.799,30.269,9.956,37.223,11.757
				c8.348,2.161,12.728,3.476,23.845-1.921c10.262-4.982,24.519-14.865,28.368-17.392c3.849-2.527,9.462-6.214,13.009-8.71
				c3.546-2.496,6.153-4.464,8.669-7.053c2.189-2.253,6.923-6.97,4.839-9.363C309.756,97.71,308.157,98.728,305.743,101.012z"/>
			<path style="fill:none;stroke:#303030;stroke-width:1.5;stroke-linecap:round;stroke-linejoin:round;stroke-miterlimit:10;" d="
				M297.171,100.389c3.711-3.934,6.665-8.312,9.112-13.129"/>
			<path style="fill:none;stroke:#303030;stroke-width:1.5;stroke-linecap:round;stroke-linejoin:round;stroke-miterlimit:10;" d="
				M289.433,103.179c-1.846,0.242-3.49,1.426-4.539,2.964c-1.049,1.538-1.549,3.399-1.699,5.255"/>
			
				<path style="fill:#FFFFFF;stroke:#303030;stroke-width:1.5;stroke-linecap:round;stroke-linejoin:round;stroke-miterlimit:10;" d="
				M191.607,103.095c7.267-0.31,14.575,3.019,19.467,4.894c4.892,1.875,23.517,9.139,23.517,9.139
				c1.469,8.337-0.784,22.161-4.307,27.128l-32.989-8.849L191.607,103.095z"/>
		</g>
		
			<path id="Chest_00000121281781536298453560000016736456662582720139_" style="fill:#FFFFFF;stroke:#303030;stroke-width:1.5;stroke-linecap:round;stroke-linejoin:round;stroke-miterlimit:10;" d="
			M156.737,99.689c0,0-7.921,4.834-16.251,16.834c-7.85,11.31-7.342,19.937-3.273,36.458c4.815,19.55,4.167,26.389,2.794,35.282
			c-1.372,8.893-2.163,15.603-2.163,15.603c4.759,4.711,24.413,8.333,46.639,5.626c20.423-2.487,33.327-9.074,36.517-13.135
			c-0.82-5.986-2.056-12.416-2.85-28.522c-1.032-20.945-0.347-24.996-3.254-39.694c-3.246-16.415-11.311-22.763-15.628-24.221
			c-2.824-0.953-16.212-3.011-16.212-3.011C183.941,108.891,172.081,110.697,156.737,99.689z"/>
		<g id="Box_00000104692702572304562170000000309515374245602179_">
			
				<polygon style="fill:#00826F;stroke:#303030;stroke-width:1.5;stroke-linecap:round;stroke-linejoin:round;stroke-miterlimit:10;" points="
				313.187,63.66 216.986,90.422 213.972,136.017 234.794,210.867 330.995,184.105 334.946,142.003 			"/>
			
				<polygon style="fill:#303030;stroke:#303030;stroke-width:1.5;stroke-linecap:round;stroke-linejoin:round;stroke-miterlimit:10;" points="
				216.986,90.422 238.745,168.766 234.794,210.867 213.972,136.017 			"/>
			
				<polygon style="fill:#00826F;stroke:#303030;stroke-width:1.5;stroke-linecap:round;stroke-linejoin:round;stroke-miterlimit:10;" points="
				365.345,141.244 334.884,141.782 313.187,63.66 343.648,63.123 			"/>
			
				<polygon style="fill:#00826F;stroke:#303030;stroke-width:1.5;stroke-linecap:round;stroke-linejoin:round;stroke-miterlimit:10;" points="
				238.636,168.557 213.9,184.484 192.203,106.362 216.939,90.435 			"/>
			
				<polygon style="fill:#00826F;stroke:#303030;stroke-width:1.5;stroke-linecap:round;stroke-linejoin:round;stroke-miterlimit:10;" points="
				208.428,66.918 216.986,90.422 313.187,63.66 304.629,40.156 			"/>
			
				<rect x="226.039" y="75.558" transform="matrix(0.9634 -0.268 0.268 0.9634 -21.0504 78.2144)" style="fill:#00826F;stroke:#303030;stroke-width:1.5;stroke-linecap:round;stroke-linejoin:round;stroke-miterlimit:10;" width="99.854" height="81.309"/>
			
				<polygon style="fill:#303030;stroke:#303030;stroke-width:1.5;stroke-linecap:round;stroke-linejoin:round;stroke-miterlimit:10;" points="
				313.187,63.66 296.235,96.896 310.61,148.774 334.946,142.003 			"/>
			
				<rect x="230.161" y="105.751" transform="matrix(0.9634 -0.268 0.268 0.9634 -25.7945 76.5391)" style="fill:#00826F;stroke:#303030;stroke-width:1.5;stroke-linecap:round;stroke-linejoin:round;stroke-miterlimit:10;" width="74.593" height="54.002"/>
			
				<line style="fill:#00826F;stroke:#303030;stroke-width:1.5;stroke-linecap:round;stroke-linejoin:round;stroke-miterlimit:10;" x1="313.187" y1="63.66" x2="296.17" y2="96.738"/>
			
				<line style="fill:#00826F;stroke:#303030;stroke-width:1.5;stroke-linecap:round;stroke-linejoin:round;stroke-miterlimit:10;" x1="238.745" y1="168.766" x2="234.794" y2="210.867"/>
		</g>
		<g id="Arm_00000010306684955061483100000003062101449733021343_">
			<path style="fill:#FFCCCC;" d="M259.269,189.862c-0.98-2.117-5.957-1.718-8.823-1.491c-1.135,0.09-3.166,0.03-5.105-0.118
				c2.525-0.079,5.774-0.449,7.677-1.108c2.214-0.767,4.544-1.546,3.821-3.453c-0.723-1.907-3.805-1.459-5.875-1.068
				c-2.424,0.458-5.074,0.786-7.697,0.395c-2.623-0.39-4.244-1.475-4.095-2.545c0.149-1.07,0.921-1.395,2.27-1.99
				c1.847-0.816,2.427-0.99,3.701-1.851c1.274-0.861,1.943-2.05,1.962-3.176c0.056-3.341-3.01-1.747-4.804-1.221
				c-2.821,0.827-5.16,1.28-9.02,2.755c-1.388,0.531-3.168,1.653-5.613,2.204c-1.082,0.244-4.184,0.589-6.359-0.29
				c-3.947-1.594-14.458-6.37-18.871-8.657c-3.991-2.068-7.979-4.143-11.961-6.229c-9.614-15.86-16.042-26.169-21.901-35.749
				c-5.859-9.58-12.053-13.586-18.881-12.21l-0.645,35.346c0,0,7.972,11.901,16.505,23.802c3.565,4.973,6.183,9.711,18.033,13.738
				c5.142,1.747,33.191,7.878,37.413,9.408c6.77,2.454,4.554,1.978,8.535,3.511c3.981,1.533,7.016,2.586,10.509,3.225
				c3.04,0.556,9.694,1.893,10.301-1.17c0.281-1.417-1.511-2.407-4.699-3.13c-0.524-0.119-1.074-0.252-1.625-0.39
				c2.351,0.31,4.882,0.389,6.351,0.271c3.711-0.298,7.816-0.727,8.359-2.89c0.427-1.701-0.136-2.169-1.281-2.588
				C258.455,192.865,260.248,191.979,259.269,189.862z"/>
			
				<path style="fill:#FFFFFF;stroke:#303030;stroke-width:1.5;stroke-linecap:round;stroke-linejoin:round;stroke-miterlimit:10;" d="
				M145.892,147.173l12.36,19.185c0,0,6.582,0,14.961-5.842c8.38-5.842,10.375-11.276,10.375-11.276s-9.227-15.968-15.516-26.219
				c-5.427-8.845-11.632-12.451-19.511-10.097"/>
			<path style="fill:none;stroke:#303030;stroke-width:1.5;stroke-linecap:round;stroke-linejoin:round;stroke-miterlimit:10;" d="
				M241.188,193.341c5.246,0.879,10.986,0.492,16.262-0.145"/>
			<g>
				<g>
					<path style="fill:#303030;" d="M240.055,199.133c3.707,0.581,7.363,1.036,11.122,0.678c2.634-0.251,5.96-0.816,7.594-3.159
						c1.041-1.492,0.591-3.193-0.942-4.102c-0.832-0.494-1.588,0.802-0.757,1.295c1.567,0.93,0.359,2.39-0.78,3.073
						c-1.205,0.722-2.623,1.05-3.998,1.259c-3.965,0.604-7.913,0.126-11.839-0.489C239.51,197.538,239.103,198.984,240.055,199.133
						L240.055,199.133z"/>
				</g>
			</g>
			<path style="fill:none;stroke:#303030;stroke-width:1.5;stroke-linecap:round;stroke-linejoin:round;stroke-miterlimit:10;" d="
				M241.388,188.158c2.813,0.22,6.384,0.152,10.837-0.774c4.454-0.926,5.231-1.823,5.185-3.136c-0.053-1.508-1.549-2.668-6.506-1.9"
				/>
		</g>
		
			<rect x="240.643" y="154.876" transform="matrix(0.9634 -0.268 0.268 0.9634 -34.603 84.0514)" style="fill:#00826F;stroke:#303030;stroke-width:1.5;stroke-linecap:round;stroke-linejoin:round;stroke-miterlimit:10;" width="99.854" height="27.793"/>
	</g>
</g>
<g id="Dotted_Line_00000127006702397199231560000014052799432086072981_">
	<g id="Dotted_Line">
		<g>
			<g>
				<path style="fill:none;stroke:#FF95FB;stroke-width:1.5;stroke-linecap:round;stroke-linejoin:round;" d="M284.751,144.608
					c0-0.836,0.056-1.668,0.164-2.494"/>
				
					<path style="fill:none;stroke:#FF95FB;stroke-width:1.5;stroke-linecap:round;stroke-linejoin:round;stroke-dasharray:4.8431,6.7803;" d="
					M286.85,135.642c4.599-9.712,15.989-16.703,26.423-13.305c3.434,1.118,9.609,4.894,7.979,9.488
					c-1.312,3.7-5.041,2.622-6.051-0.713c-2.901-9.585,14.874-25.897,33.217-27.298c19.852-1.516,32.926,4.721,40.114,17.285"/>
				<path style="fill:none;stroke:#FF95FB;stroke-width:1.5;stroke-linecap:round;stroke-linejoin:round;" d="M390.092,124.12
					c0.346,0.746,0.676,1.512,0.987,2.296"/>
			</g>
		</g>
	</g>
</g>
<g id="Fly">
	<g>
		
			<path style="fill:#FFFFFF;stroke:#303030;stroke-width:1.5;stroke-linecap:round;stroke-linejoin:round;stroke-miterlimit:10;" d="
			M397.716,144.721c-1.715-0.679-2.848-2.401-3.196-4.165c-0.331-1.676-0.416-3.977,1.294-5.015
			c2.453-1.489,6.639-1.229,8.117,0.901c0.877,1.264,0.291,2.714-1.16,2.904c-1.458,0.191-2.984-0.07-4.192-0.52
			C401.272,140.144,401.567,146.246,397.716,144.721z"/>
		<path style="fill:#303030;" d="M396.425,136.964c-0.469,1.27-1.878,1.92-3.149,1.452c-1.27-0.469-1.92-1.878-1.452-3.149
			c0.469-1.27,1.878-1.92,3.149-1.452C396.243,134.284,396.893,135.694,396.425,136.964z"/>
	</g>
</g>
</svg>
