<?xml version="1.0" encoding="utf-8"?>
<!-- Generator: Adobe Illustrator 18.1.1, SVG Export Plug-In . SVG Version: 6.00 Build 0)  -->
<svg version="1.1" xmlns="http://www.w3.org/2000/svg" xmlns:xlink="http://www.w3.org/1999/xlink" x="0px" y="0px"
	 viewBox="0 0 500 500" enable-background="new 0 0 500 500" xml:space="preserve">
<g id="BACKGROUND">
	<g id="Capa_5">
	</g>
	<g>
		<rect x="0" y="0" fill="#FFFFFF" width="500" height="500"/>
		<g>
			<defs>
				<circle id="SVGID_1_" cx="253.2" cy="254" r="161.7"/>
			</defs>
			<clipPath id="SVGID_2_">
				<use xlink:href="#SVGID_1_"  overflow="visible"/>
			</clipPath>
			<path clip-path="url(#SVGID_2_)" fill="#CAE8E8" d="M253.3,92.1C253.3,92.1,253.2,92.1,253.3,92.1C164.2,92.1,92,164.3,92,253.3
				s72.2,161.2,161.2,161.2c0,0,0,0,0,0l0,0c89,0,161.2-72.2,161.2-161.2C414.5,164.3,342.3,92.1,253.3,92.1z"/>
			<path clip-path="url(#SVGID_2_)" fill="#21A556" d="M253.3,345.6L253.3,345.6H118.2c33.1,75.1,134.6,73.2,135.1,73.2
				c0.5,0,102,1.9,135.1-73.2H253.3z"/>
			<g clip-path="url(#SVGID_2_)">
				<circle fill="#FFFFFF" cx="331.9" cy="183.6" r="13.8"/>
				<circle fill="#FFFFFF" cx="372.1" cy="180.2" r="17.3"/>
				<circle fill="#FFFFFF" cx="352.1" cy="175.1" r="22.3"/>
				<polygon fill="#FFFFFF" points="331.9,197.4 372.1,197.4 372.1,187.7 331.5,187.7 				"/>
			</g>
			<g clip-path="url(#SVGID_2_)">
				<circle fill="#FFFFFF" cx="129.5" cy="235.7" r="20.8"/>
				<circle fill="#FFFFFF" cx="190" cy="230.6" r="26"/>
				<circle fill="#FFFFFF" cx="159.8" cy="222.9" r="33.6"/>
				<polygon fill="#FFFFFF" points="129.5,256.6 190,256.6 190,242 128.8,242 				"/>
			</g>
			<g clip-path="url(#SVGID_2_)">
				<circle fill="#FFFFFF" cx="210.2" cy="139.1" r="13.4"/>
				<circle fill="#FFFFFF" cx="249.3" cy="135.8" r="16.8"/>
				<circle fill="#FFFFFF" cx="229.8" cy="130.9" r="21.7"/>
				<polygon fill="#FFFFFF" points="210.2,152.5 249.3,152.5 249.3,143.1 209.8,143.1 				"/>
			</g>
		</g>
	</g>
</g>
<g id="OBJECTS">
	<g>
		<g>
			<path fill="#2E4672" d="M274.9,340.3c-0.8,0-1.7-0.1-2.5-0.4c-4.5-1.4-6.9-6.1-5.6-10.6c0.1-0.4,11.8-37.8,15.4-58.4
				c-9-3.2-31.4-8.7-50.6-12.6c-4.6-0.9-7.5-5.4-6.6-10c0.9-4.6,5.4-7.5,10-6.6c0.1,0,15,3.1,29.6,6.7c8.7,2.1,15.6,4,20.6,5.7
				c6.2,2,15.6,5.1,14.6,13.6c-2.4,20-16.3,64.7-16.9,66.6C281.8,338,278.5,340.3,274.9,340.3z M285.7,272.4L285.7,272.4
				L285.7,272.4z"/>
		</g>
		<g>
			<path fill="#514F4F" d="M269.6,328.1c0,0-10.4-14.3-13.9-9.4C252.6,323.1,269.6,328.1,269.6,328.1z"/>
			<path fill="#63605E" d="M267.7,325.8l-8,36c0,0,31,9.2,52.5-1.4c0,0,4.8-20.9-28.8-15.7l4-16
				C287.4,328.7,279.7,332.6,267.7,325.8z"/>
			<path fill="#514F4F" d="M258.8,359.9c0,0,29.4,10.7,53.8-0.6l0.8,3.1c0,0-19.6,12.1-54.6,1.3L258.8,359.9z"/>
		</g>
		<g>
			<path fill="#EFC09A" d="M316.5,225.1c-34.6,0-56.2-7.9-64.2-23.6c-10.2-20,6.5-43.3,7.2-44.3c2.2-3.1,6.5-3.7,9.6-1.5
				c3.1,2.2,3.7,6.5,1.5,9.6c-3.5,4.9-11.4,19.7-6.1,30.1c5.4,10.5,23.3,16,51.9,16c3.8,0,6.9,3.1,6.9,6.9
				C323.4,222,320.3,225.1,316.5,225.1z"/>
		</g>
		<g opacity="0.17">
			<path fill="#1E0909" d="M316.5,225.1c-34.6,0-56.2-7.9-64.2-23.6c-10.2-20,6.5-43.3,7.2-44.3c2.2-3.1,6.5-3.7,9.6-1.5
				c3.1,2.2,3.7,6.5,1.5,9.6c-3.5,4.9-11.4,19.7-6.1,30.1c5.4,10.5,23.3,16,51.9,16c3.8,0,6.9,3.1,6.9,6.9
				C323.4,222,320.3,225.1,316.5,225.1z"/>
		</g>
		<path fill="#2E4672" d="M246.9,197.5l17.4-2c0,0-0.7-15.6,6.5-27.5c1.3-2.1,1.9-4.6,1.6-7.1c-0.4-2.9-2-6.2-7-7.7
			c-10-3.1-13.9,9.5-13.9,9.5S245.1,182.3,246.9,197.5z"/>
		<path fill="#514F4F" d="M258,145.4c0,0,15.1,2.8,19.3-5.3c4.2-8,7.7-41.2,12-46c0,0-47-13.3-54.3-5
			C227.8,97.4,193.1,144.4,258,145.4z"/>
		<g>
			<g>
				<circle fill="#514F4F" cx="387.4" cy="379.6" r="53.1"/>
				<circle fill="#E0DADA" cx="387.4" cy="379.6" r="28.9"/>
				<circle fill="#FFFFFF" cx="387.4" cy="379.6" r="25.1"/>
			</g>
			<path fill="#ED662B" d="M380.5,380.9l-31.3-31.3c-2.2-2.2-2.2-5.8,0-8l0,0c2.2-2.2,5.8-2.2,8,0l31.3,31.3c2.2,2.2,2.2,5.8,0,8
				l0,0C386.3,383.1,382.7,383.1,380.5,380.9z"/>
			<g>
				<circle fill="#514F4F" cx="143.9" cy="379.6" r="53.1"/>
				<circle fill="#E0DADA" cx="143.9" cy="379.6" r="28.9"/>
				<circle fill="#FFFFFF" cx="143.9" cy="379.6" r="25.1"/>
			</g>
			<path fill="#ED662B" d="M332.9,235.6h-21.1c-4.3,0-7.8,3.5-7.8,7.8v115.2c0,4.3-3.5,7.8-7.8,7.8h-61.6c-4.3,0-7.8-3.5-7.8-7.8
				v-70.1c0-4.3-3.5-7.8-7.8-7.8h-89.5c-0.5,0-1,0.1-1.6,0.2c-7.7,1.6-67.2,16.3-71.4,90.5c-0.2,4.5,3.3,8.3,7.8,8.3h85.9h76.5H304
				h16c4,0,7.3-3,7.7-6.9c2.7-26.9,20.9-37.4,29.8-40.9c2.9-1.2,4.8-4,4.8-7.2V291c0-3.2-1.9-6.1-4.8-7.2
				c-12.8-4.8-16.1-28.7-16.9-41C340.3,238.7,337,235.6,332.9,235.6z"/>
			<path fill="#A5482B" d="M321.3,382.4c0,0,23.4,8.7,37.5-7.3c14.1-16,28.5-30.9,73.6-28.9c0,0-8.8-28.6-45-28.6
				C351.2,317.6,329.7,343.8,321.3,382.4z"/>
			<path fill="#A5482B" d="M88.7,372.9H200c3.5,0,6.4-2.8,6.4-6.4v-52.7c0-3.5-2.8-6.4-6.4-6.4h-36.3c-22.9,0-44.5,10.4-58.7,28.4
				l-21.2,26.7C80.4,366.8,83.4,372.9,88.7,372.9z"/>
			<circle fill="#ED662B" cx="387.4" cy="379.6" r="13.7"/>
			<path fill="#514F4F" d="M221.5,284.8H91.4c-5,0-9.1-4.1-9.1-9.1v0c0-5,4.1-9.1,9.1-9.1h130.1c5,0,9.1,4.1,9.1,9.1v0
				C230.6,280.8,226.5,284.8,221.5,284.8z"/>
			<g>
				<path fill="#E0DADA" d="M66.8,354.5h-1.2c-2.5,0-4.5-2-4.5-4.5v-31c0-2.5,2-4.5,4.5-4.5h1.2c2.5,0,4.5,2,4.5,4.5v31
					C71.3,352.4,69.3,354.5,66.8,354.5z"/>
				<path fill="#E63231" d="M63.1,354.5L63.1,354.5c-1.1,0-2-0.9-2-2v-36.1c0-1.1,0.9-2,2-2l0,0c1.1,0,2,0.9,2,2v36.1
					C65.1,353.6,64.2,354.5,63.1,354.5z"/>
			</g>
			<path fill="#ED662B" d="M191.3,365.9h-87.6c-0.9,0-1.6-0.7-1.6-1.6l0,0c0-0.9,0.7-1.6,1.6-1.6h87.6c0.9,0,1.6,0.7,1.6,1.6l0,0
				C192.9,365.2,192.2,365.9,191.3,365.9z"/>
			<path fill="#ED662B" d="M191.3,356.1h-68.6c-0.9,0-1.6-0.7-1.6-1.6l0,0c0-0.9,0.7-1.6,1.6-1.6h68.6c0.9,0,1.6,0.7,1.6,1.6l0,0
				C192.9,355.4,192.2,356.1,191.3,356.1z"/>
			<path fill="#ED662B" d="M191.3,346.3h-47.8c-0.9,0-1.6-0.7-1.6-1.6l0,0c0-0.9,0.7-1.6,1.6-1.6h47.8c0.9,0,1.6,0.7,1.6,1.6l0,0
				C192.9,345.6,192.2,346.3,191.3,346.3z"/>
			<path fill="#ED662B" d="M191.3,336.5h-27.8c-0.9,0-1.6-0.7-1.6-1.6l0,0c0-0.9,0.7-1.6,1.6-1.6h27.8c0.9,0,1.6,0.7,1.6,1.6l0,0
				C192.9,335.7,192.2,336.5,191.3,336.5z"/>
		</g>
		<path fill="#679FC1" d="M197,234.5c0,0,28,3.5,42.5,0c0,0,25-59.7,27.6-73.3c2.7-13.6-41.9-16.8-54-9.4
			C201.1,159.2,197,234.5,197,234.5z"/>
		<g>
			<path fill="#EFC09A" d="M247.9,156.8l-5-0.7c-3.8-0.5-6.5-4-6-7.8l1.5-11.4c0.5-3.8,4-6.5,7.8-6l5,0.7c3.8,0.5,6.5,4,6,7.8
				l-1.5,11.4C255.2,154.6,251.7,157.3,247.9,156.8z"/>
			<path opacity="0.17" fill="#1E0909" d="M248.8,150.2l-5-0.7c-3.8-0.5-6.5-4-6-7.8l1.5-11.4c0.5-3.8,4-6.5,7.8-6l5,0.7
				c3.8,0.5,6.5,4,6,7.8l-1.5,11.4C256.1,148,252.6,150.7,248.8,150.2z"/>
			<g>
				<g>
					<path fill="#EFC09A" d="M253.6,145.2l-12.8-1.7c-13-1.7-22.2-13.8-20.4-26.8l2.7-19.9c1.7-13,13.8-22.2,26.8-20.4l12.8,1.7
						c13,1.7,22.2,13.8,20.4,26.8l-2.7,19.9C278.6,137.7,266.6,146.9,253.6,145.2z"/>
					<path opacity="0.17" fill="#1E0909" d="M282.9,103.1c-0.4-12.7-10-23.7-23-25.4l-7.5-1c-14.4-1.9-27.9,8.3-29.8,22.7l-2,14.6
						c-0.2,1.5-0.3,3-0.2,4.4c6.5,0.4,19.5-1.5,24.7-21.2C245.1,97.3,265.3,105.2,282.9,103.1z"/>
					<path fill="#5B2B1D" d="M219.1,116.6c0,0,16.7,5,25.5-21.4c0,0,22.3,8.7,38.2,6.4c0,0,0.2,2.6,0,4.8c0,0,13.6-17.1-5.7-38.7
						c0,0,1.2,2.8-4.2,3.8l1.4-2.2c0,0-8.8,2.8-14.8,1.5c-6-1.3-22.7-2.5-27.1,2.3l1.6-4c0,0-2.3,3.3-2.4,4
						c-0.2,0.6-0.2,0.6-0.2,0.6s-4.8-2.9-7.5-3.3c0,0,2.8,3.1,3.9,5c0,0-5.6,2.3-6.2,11.8C221,96.8,219.1,116.6,219.1,116.6z"/>
					<path fill="#472218" d="M282.8,101.6c0,0,0.2,2.6,0,4.8c0,0,2.5-4.2,4.3-10.6c-7.7,4.1-18.8,1.2-18.8,1.2l2.5-1.4
						c-16.8,2.4-27.2-5.5-27.2-5.5L243,92l-1-1.9c-2.4,8.7-7,11.6-7,11.6l0.5-5c-4.8,6.5-11.6,8.3-15.4,8.7c-0.5,6.2-1,11.3-1,11.3
						s16.7,5,25.5-21.4C244.6,95.3,266.9,103.9,282.8,101.6z"/>
					<path fill="#725139" d="M245.4,78.3l-0.7-2.6c2.8-2.3,4.6-4.5,5.6-5.9c-0.7,0-1.5-0.1-2.2-0.1c-5.3,5.1-11,8.1-15.9,9.8
						l-1.5-1.2l1,1.4c-3.6,1.2-6.8,1.7-9.1,2c-0.3,0.7-0.5,1.4-0.7,2.2c1.2-0.1,2.4-0.2,3.5-0.3l-0.8,2.1l3-2.4
						c3.1-0.5,5.8-1.4,8.2-2.4l-0.2,2.7l1.1-3.1c2.6-1.2,4.8-2.5,6.7-3.9L245.4,78.3z"/>
				</g>
				<g>
					
						<ellipse transform="matrix(0.9933 -0.1157 0.1157 0.9933 -11.1713 27.2009)" fill="#EFC09A" cx="228.8" cy="109.8" rx="6.6" ry="11.3"/>
					
						<linearGradient id="SVGID_3_" gradientUnits="userSpaceOnUse" x1="226.8119" y1="118.6174" x2="226.8119" y2="104.7689" gradientTransform="matrix(0.9911 0.1333 -0.1333 0.9911 18.8659 -31.0838)">
						<stop  offset="0" style="stop-color:#FFFFFF"/>
						<stop  offset="0.2303" style="stop-color:#C7B9B9"/>
						<stop  offset="0.5092" style="stop-color:#886B6B"/>
						<stop  offset="0.7396" style="stop-color:#593131"/>
						<stop  offset="0.9093" style="stop-color:#3D0D0D"/>
						<stop  offset="1" style="stop-color:#320000"/>
					</linearGradient>
					<path opacity="0.17" fill="url(#SVGID_3_)" d="M232.8,109.4c0.5,3.9-1,7.2-3.3,7.5c-2.2,0.3-4.4-2.7-4.9-6.5
						c-0.5-3.9,1-7.2,3.3-7.5C230.2,102.6,232.4,105.5,232.8,109.4z"/>
				</g>
			</g>
			<path fill="#E59595" d="M272.1,130.3l-2-0.3c-1.9-0.3-3.2-2-2.9-3.9l3.2-23.4c0.1-0.9,1-1.6,1.9-1.5l5.4,0.7c1,0.1,1.6,1,1.5,2
				l-3.1,23.4C275.7,129.2,274,130.5,272.1,130.3z"/>
			<path fill="#BF7F7F" d="M270.5,130.1l1.3,0.2c1.2,0.2,2.3-0.3,3.1-1c-4.3,0.3-5.6-2-5.6-2l3.5-25.9l-0.4-0.1
				c-1-0.1-2,0.6-2.1,1.6l-3.1,22.9C266.9,127.9,268.4,129.8,270.5,130.1z"/>
			
				<ellipse transform="matrix(0.9911 0.1333 -0.1333 0.9911 16.9828 -33.9098)" fill="#472218" cx="261.8" cy="109.9" rx="2.9" ry="6.2"/>
			
				<ellipse transform="matrix(0.9911 0.1333 -0.1333 0.9911 17.5094 -36.4038)" fill="#472218" cx="280.7" cy="112.6" rx="1.8" ry="6.1"/>
			<path fill="#271E54" d="M271.9,137c-3-0.4-6.2-0.9-9.7-1.3c-6.3-0.8-11.8-1.5-16.5-2.1c0.6,0.2,1.6,0.5,3.4,0.9
				c0.9,0.2,2.5,0.6,5.2,1C269.3,138.1,271.9,137,271.9,137z"/>
		</g>
		<g>
			<path fill="#425F8E" d="M248,340.3c-1.2,0-2.4-0.3-3.6-0.8c-4.2-2-6-7-4.1-11.2c0.2-0.4,15.2-32.5,20.8-52.3
				c-10.5-2.9-35-7.2-56-10.2c-4.6-0.7-7.8-4.9-7.2-9.6c0.7-4.6,4.9-7.8,9.6-7.2c64.7,9.3,68,13.9,70.2,17c1.5,2.1,2,4.6,1.5,7
				c-4,20.3-22.8,60.7-23.6,62.4C254.2,338.5,251.2,340.3,248,340.3z M265.7,277.5L265.7,277.5L265.7,277.5z"/>
		</g>
		<path fill="#425F8E" d="M228.9,266.7h-19.3c-9.2,0-16.6-7.5-16.6-16.6v0c0-9.2,7.5-16.6,16.6-16.6h19.3c9.2,0,16.6,7.5,16.6,16.6
			v0C245.5,259.2,238,266.7,228.9,266.7z"/>
		<path fill="#A5482B" d="M332.7,235.7h-18.4c-6.1,0-11.1-5-11.1-11.1V222c0-6.1,5-11.1,11.1-11.1h18.4c6.1,0,11.1,5,11.1,11.1v2.7
			C343.7,230.7,338.7,235.7,332.7,235.7z"/>
		<g>
			<path fill="#E0DADA" d="M342.4,209.3h2.7c2.1,0,3.8,1.7,3.8,3.8v20.4c0,2.1-1.7,3.8-3.8,3.8h-2.7c-2.1,0-3.8-1.7-3.8-3.8v-20.4
				C338.6,211,340.3,209.3,342.4,209.3z"/>
			<path fill="#FFCE55" d="M346.5,209.3h0.7c0.9,0,1.7,0.8,1.7,1.7v24.6c0,0.9-0.8,1.7-1.7,1.7h-0.7c-0.9,0-1.7-0.8-1.7-1.7V211
				C344.8,210.1,345.6,209.3,346.5,209.3z"/>
		</g>
		<g>
			<path fill="#514F4F" d="M240.6,328.1c0,0-10.4-14.3-13.9-9.4C223.6,323.1,240.6,328.1,240.6,328.1z"/>
			<path fill="#7A7673" d="M238.7,325.8l-8,36c0,0,31,9.2,52.5-1.4c0,0,4.8-20.9-28.8-15.7l4-16
				C258.4,328.7,250.7,332.6,238.7,325.8z"/>
			<path fill="#514F4F" d="M229.8,359.9c0,0,29.4,10.7,53.8-0.6l0.8,3.1c0,0-19.6,12.1-54.6,1.3L229.8,359.9z"/>
		</g>
		<path fill="#ED662B" d="M292.3,91.7c-3.9-20.3-21.6-36.2-43.7-36.3c-21.9-0.2-40.9,16-44.3,37.7c-3.4,21.6,9.1,41.6,28.3,48.8
			c7.3-10.7,3.7-45.5,7.9-50.1c3.3-3.6,31.4,0.7,48.2,3.6C290.8,95.6,292.7,93.8,292.3,91.7z"/>
		<path fill="#A5482B" d="M255.7,86.7c-22.9-2.8-20.7,4.9-31,23.6c-5.2,9.5-13.3,5.5-20-0.7c3.2,14.7,13.7,26.8,27.8,32.2
			c7.3-10.7,3.7-45.5,7.9-50.1c3.3-3.6,31.4,0.7,48.2,3.6c1.7,0.3,3.3-0.9,3.5-2.5C285.1,91.9,271.7,88.6,255.7,86.7z"/>
		<ellipse fill="#FFFFFF" cx="220.4" cy="103.1" rx="8.1" ry="13.2"/>
		<ellipse fill="#514F4F" cx="219.1" cy="103.1" rx="4.3" ry="6.9"/>
		<g>
			<path fill="#EFC09A" d="M285.3,228.3c-34.3,0-57.2-8.6-68.1-25.5c-13.9-21.5-2.5-47.5-2-48.6c1.6-3.5,5.6-5,9.1-3.4
				c3.5,1.6,5,5.6,3.4,9.1c-0.2,0.4-8.8,20.5,1,35.6c8.2,12.5,27.7,19.1,56.5,19.1c3.8,0,6.9,3.1,6.9,6.9
				C292.2,225.3,289.1,228.3,285.3,228.3z"/>
		</g>
		<path fill="#514F4F" d="M317.3,218.2l-21.1,6.1c-1.1,0.4-2.2,1.1-2.8,2.1c-0.8,1.1-1.4,2.7-0.9,4.5c0,0,0,0.1,0,0.1
			c1,3,4.5,4.3,7.3,2.9l20-9.8c0,0,1.6-0.8,1.1-3.4C320.4,218.2,317.3,218.2,317.3,218.2z"/>
		<ellipse fill="#514F4F" cx="243.9" cy="345.5" rx="3.3" ry="6.3"/>
		<path fill="#425F8E" d="M210.3,193.5l17-4.2c0,0-3-16.9,3.7-29.9c0,0,2.2-10.4-8.1-12.1c-10.3-1.8-12.5,11.3-12.5,11.3
			S206.6,178.7,210.3,193.5z"/>
		<rect x="88.2" y="185.2" fill="#D89C60" width="100" height="81.5"/>
		<rect x="134.9" y="183.8" fill="#BA8352" width="6.5" height="82.9"/>
		<rect x="87.2" y="222" fill="#BA8352" width="101.5" height="6.5"/>
		<rect x="93.8" y="189.7" fill="#FFFFFF" width="25.5" height="11.5"/>
		<path fill="#EFC09A" d="M285.7,214.6c0,0,17.2,1.3,18.8,4.3c1.5,3,5.1,10.5,4.7,11.3c-0.4,0.8-7.9,5.9-10.4,5.5
			c-1.5-0.2-2-1.3-2-1.3s2-1.2,1.5-4.3c-0.6-4.2-4.2-4.5-4.2-4.5s-1.6,1.8-1.7,3.4c0,0.5-10.6-0.8-10.6-0.8L285.7,214.6z"/>
	</g>
</g>
<g id="DESIGNED_BY_FREEPIK">
	<g>
		<g>
			<path fill="#A39D9D" d="M135.6,169.9c0,0-0.1,0-0.1,0l-45-9.9c-0.2,0-0.4-0.2-0.5-0.4c-0.1-0.2-0.1-0.5-0.1-0.8L101,98.9
				c0.1-0.5,0.5-0.8,0.8-0.7l33.9,9.9c0.3,0.1,0.6,0.5,0.6,1v59.9c0,0.3-0.1,0.6-0.3,0.8C135.9,169.8,135.8,169.9,135.6,169.9z
				 M91.5,158.2l43.4,9.5v-57.9l-32.6-9.5L91.5,158.2z"/>
		</g>
		<g>
			<path fill="#A39D9D" d="M135.6,169.9c-0.2,0-0.3-0.1-0.5-0.2c-0.2-0.2-0.3-0.5-0.3-0.8V109c0-0.5,0.2-0.9,0.6-1l33.9-9.9
				c0.4-0.1,0.8,0.2,0.8,0.7l11.2,59.9c0.1,0.3,0,0.6-0.1,0.8c-0.1,0.2-0.3,0.4-0.5,0.4l-45,9.9
				C135.7,169.9,135.6,169.9,135.6,169.9z M136.3,109.8v57.9l43.4-9.5l-10.8-57.9L136.3,109.8z"/>
		</g>
		<g>
			<g>
				<path fill="#FFFFFF" d="M141.4,79.2c-4.9,0.6-8.5,6.5-8.1,13.2c0.4,6.7,4.7,11.7,9.6,11.1c4.9-0.6,8.5-6.5,8.1-13.2
					C150.6,83.6,146.3,78.6,141.4,79.2z"/>
				<path fill="#AF6161" d="M142.1,104.5c-4.9,0-9.1-5.3-9.6-12c-0.5-7.2,3.5-13.6,8.7-14.3c5.3-0.6,10,4.9,10.4,12
					c0.2,3.5-0.6,6.9-2.2,9.6c-1.7,2.7-4,4.3-6.5,4.6C142.7,104.5,142.4,104.5,142.1,104.5z M142.1,80.2c-0.2,0-0.5,0-0.7,0
					c-4.5,0.5-7.8,6-7.4,12.1c0.4,6.1,4.4,10.7,8.8,10.2c2.2-0.3,4.1-1.7,5.5-3.9c1.4-2.3,2.1-5.2,1.9-8.2
					C149.9,84.7,146.3,80.2,142.1,80.2z"/>
			</g>
			<g>
				<path fill="#E59388" d="M140.7,68.5c-9.2,1.1-16.1,12.2-15.3,24.9c0.5,7.9,3.8,14.5,8.5,18.1l10.9,23.1l7.8-25.3
					c4.2-4.6,6.6-11.9,6.1-19.8C158,76.7,149.9,67.4,140.7,68.5z M142.9,103.5c-4.9,0.6-9.2-4.4-9.6-11.1
					c-0.4-6.7,3.2-12.6,8.1-13.2c4.9-0.6,9.2,4.4,9.6,11.1C151.4,97,147.8,102.9,142.9,103.5z"/>
				<path fill="none" d="M144.9,135.5c-0.2,0-0.5-0.2-0.6-0.5l-10.8-22.9c-5-3.9-8.2-10.9-8.7-18.7c-0.4-6.4,1-12.6,4-17.5
					c3-4.9,7.2-7.9,11.9-8.5c9.7-1.1,18.1,8.8,18.9,21.8c0.5,7.8-1.8,15.5-6.3,20.5l-7.8,25.1C145.4,135.2,145.2,135.5,144.9,135.5
					C144.9,135.5,144.9,135.5,144.9,135.5z M142.2,69.4c-0.5,0-0.9,0-1.4,0.1c-4.3,0.5-8.1,3.3-10.9,7.8c-2.8,4.5-4.1,10.2-3.7,16
					c0.5,7.3,3.5,13.7,8.2,17.3c0.1,0.1,0.2,0.2,0.3,0.3l10.2,21.5l7.3-23.6c0-0.1,0.1-0.3,0.2-0.4c4.1-4.6,6.3-11.7,5.9-19
					C157.4,78.2,150.4,69.4,142.2,69.4z M142.1,104.5c-4.9,0-9.1-5.3-9.6-12c-0.5-7.2,3.5-13.6,8.7-14.3c5.3-0.6,10,4.9,10.4,12
					c0.2,3.5-0.6,6.9-2.2,9.6c-1.7,2.7-4,4.3-6.5,4.6C142.7,104.5,142.4,104.5,142.1,104.5z M142.1,80.2c-0.2,0-0.5,0-0.7,0
					c-4.5,0.5-7.8,6-7.4,12.1c0.4,6.1,4.3,10.7,8.8,10.2c2.2-0.3,4.1-1.7,5.5-3.9c1.4-2.3,2.1-5.2,1.9-8.2
					C149.9,84.7,146.3,80.2,142.1,80.2z"/>
			</g>
		</g>
	</g>
</g>
</svg>
