<?xml version="1.0" encoding="utf-8"?>
<!-- Generator: Adobe Illustrator 18.1.1, SVG Export Plug-In . SVG Version: 6.00 Build 0)  -->
<svg version="1.1" id="Layer_1" xmlns="http://www.w3.org/2000/svg" xmlns:xlink="http://www.w3.org/1999/xlink" x="0px" y="0px"
	 viewBox="0 0 560 560" enable-background="new 0 0 560 560" xml:space="preserve">
<g>
	<g>
		<path fill="#C7B996" d="M374.8,196.2c-27,109.7-45.1,199.3-40.6,200.6c4.6,1.3,30.1-86.3,57.2-196L374.8,196.2z"/>
	</g>
	<g>
		<path fill="#D1C4A1" d="M383.1,198.4l-48.9,198.2c0,0,0,0,0,0c4.6,1.3,30.1-86.3,57.2-196L383.1,198.4z"/>
	</g>
	<path fill="#AB948C" d="M520.6,277.7c-1.3,5.3-6.5,8.5-11.5,7.1l-271.8-74.7c-5.1-1.4-8.1-6.8-6.8-12.2l33.6-136.1
		c1.3-5.3,6.5-8.5,11.5-7.1l271.8,74.7c5.1,1.4,8.1,6.8,6.8,12.2L520.6,277.7z"/>
	<g>
		<path fill="#F2F2F2" d="M494.7,163.6l0.8-3.1c2.4-9.7-3.1-19.6-12.3-22.1L323.6,94.6c-9.2-2.5-18.6,3.3-21,13l-0.8,3.1
			c-16.8-4.6-33.9,6-38.3,23.7c-4.4,17.7,5.7,35.8,22.5,40.4l-0.8,3.1c-2.4,9.7,3.1,19.6,12.3,22.1l159.5,43.8
			c9.2,2.5,18.6-3.3,21-13l0.8-3.1c16.8,4.6,33.9-6,38.3-23.7C521.5,186.3,511.5,168.2,494.7,163.6z"/>
	</g>
</g>
<g>
	<g>
		<g>
			<path fill="#CAECF4" d="M339.6,307.6c0,0.1,0,0.2,0,0.2v130.3c0,5.7-6,11.6-17.2,16.1c-11.1,4.5-27.3,7.5-47.5,7.5h-0.3
				c-40.5-0.1-64.7-12.2-64.7-23.6V307.8c0,0,0-0.1,0-0.2c0-0.1,0-0.2,0-0.3c0.1-12.7,12.4-26,24.7-39.2
				c8.3-8.8,10.3-21.4,10.7-28.8c0-0.9,0.1-1.7,0.1-2.4h-1.1c-5.3,0-9.7-2.8-9.7-6.3v-5.5c0-3.5,4.3-6.3,9.7-6.3h60.8
				c4,0,7.5,1.6,8.9,3.8c0.5,0.8,0.7,1.6,0.7,2.5v5.5c0,3.5-4.3,6.3-9.7,6.3h-1.1c0,0.7,0,1.5,0.1,2.4c0.4,7.4,2.4,20.1,10.7,28.8
				c12.4,13.1,24.7,26.4,24.7,39.2C339.7,307.4,339.6,307.5,339.6,307.6z"/>
			<path fill="#F7971E" d="M223.7,309.6v128.7c0,7.6,23,13.8,51.3,13.8c28.3,0,51.3-6.2,51.3-13.8V309.6H223.7z"/>
			<path fill="#F9B256" d="M326.3,309.6c0,3.7-23,6.7-51.3,6.7c-28.3,0-51.3-3-51.3-6.7c0-3.7,23-6.7,51.3-6.7
				C303.3,302.8,326.3,305.8,326.3,309.6z"/>
			<path fill="#E8721B" d="M315,232.8c0,3.6-3.9,6.6-8.6,6.6h-63.6c-4.8,0-8.6-2.9-8.6-6.6v-7.4c0-3.6,3.9-6.6,8.6-6.6h63.6
				c4.8,0,8.6,2.9,8.6,6.6V232.8z"/>
			<path fill="#FFFFFF" d="M294.9,287.7c0,3.6-3.9,6.6-8.6,6.6h-1.8c-4.8,0-8.6-2.9-8.6-6.6v-35.6c0-3.6,3.9-6.6,8.6-6.6h1.8
				c4.8,0,8.6,2.9,8.6,6.6V287.7z"/>
		</g>
		<path fill="#FFFFFF" d="M315.6,416.6c0,3.6-3.9,6.6-8.6,6.6h-3.4c-4.8,0-8.6-2.9-8.6-6.6v-85.3c0-3.6,3.9-6.6,8.6-6.6h3.4
			c4.8,0,8.6,2.9,8.6,6.6V416.6z"/>
	</g>
	<path fill="#F2F2F2" d="M275.8,418.7c-52.1,6.9-65.8-6.9-65.8-6.9v-84.5c0,0,9.4,13,65.8,6.9V418.7z"/>
	<g>
		<g>
			<path fill="#E8721B" d="M211.6,374.5c0,12.2,13,22.2,29.1,22.2c16.1,0,29.1-9.9,29.1-22.2c0-12.2-13-22.2-29.1-22.2
				C224.6,352.3,211.6,362.3,211.6,374.5z"/>
			<path fill="#F9B256" d="M215.5,374.5c0,0.3,0,0.6,0,0.8c0.2,4.7,2.7,8.9,6.6,12.1c0.5,0.4,1,0.8,1.6,1.2c4.2,3,9.8,4.8,15.9,5
				c0.4,0,0.7,0,1.1,0c0.4,0,0.7,0,1.1,0c6.1-0.2,11.7-2.1,15.9-5c0.5-0.4,1.1-0.8,1.6-1.2c3.9-3.2,6.3-7.5,6.6-12.1
				c0-0.3,0-0.6,0-0.8c0-0.3,0-0.6,0-0.8c-0.2-4.7-2.7-8.9-6.6-12.1c-0.5-0.4-1-0.8-1.6-1.2c-4.2-3-9.8-4.8-15.9-5
				c-0.4,0-0.7,0-1.1,0c-0.4,0-0.7,0-1.1,0c-6.1,0.2-11.7,2.1-15.9,5c-0.5,0.4-1.1,0.8-1.6,1.2c-3.9,3.2-6.3,7.5-6.6,12.1
				C215.5,373.9,215.5,374.2,215.5,374.5z"/>
			<path fill="#F7971E" d="M215.5,375.3H238l-15.9,12.1c0.5,0.4,1,0.8,1.6,1.2l15.9-12.1v17.2c0.4,0,0.7,0,1.1,0c0.4,0,0.7,0,1.1,0
				v-17.2l15.9,12.1c0.5-0.4,1.1-0.8,1.6-1.2l-15.9-12.1h22.5c0-0.3,0-0.6,0-0.8c0-0.3,0-0.6,0-0.8h-22.5l15.9-12.1
				c-0.5-0.4-1-0.8-1.6-1.2l-15.9,12.1v-17.2c-0.4,0-0.7,0-1.1,0c-0.4,0-0.7,0-1.1,0v17.2l-15.9-12.1c-0.5,0.4-1.1,0.8-1.6,1.2
				l15.9,12.1h-22.5c0,0.3,0,0.6,0,0.8C215.5,374.8,215.5,375,215.5,375.3z"/>
			<path fill="#FCF6A8" d="M232,363.4c1.1,1.7,4.1,2.2,4.1,2.2s1.1-2.1,0-3.8c-1.1-1.7-3-2.7-4.1-2.2
				C230.9,360,230.9,361.7,232,363.4z"/>
			<path fill="#FCF6A8" d="M224.3,371.5c2.3,0.6,4.9-0.7,4.9-0.7s-1.2-2.1-3.6-2.7c-2.3-0.6-4.6-0.3-4.9,0.7
				C220.3,369.7,221.9,370.9,224.3,371.5z"/>
			<path fill="#FCF6A8" d="M226.2,381c2.2-0.9,2.9-3.1,2.9-3.1s-2.8-0.9-5,0c-2.2,0.9-3.5,2.3-2.9,3.1
				C221.8,381.9,224.1,381.9,226.2,381z"/>
			<path fill="#FCF6A8" d="M236.6,386.9c0.7-1.8-0.9-3.8-0.9-3.8s-2.8,0.9-3.5,2.7c-0.7,1.8-0.3,3.5,0.9,3.8
				C234.3,389.9,235.9,388.7,236.6,386.9z"/>
			<path fill="#FCF6A8" d="M248.9,385.6c-1.1-1.7-4-2.3-4-2.3s-1.2,2.1-0.1,3.8c1.1,1.7,2.9,2.7,4,2.3
				C249.9,389,250,387.3,248.9,385.6z"/>
			<path fill="#FCF6A8" d="M257.1,377.5c-2.3-0.6-4.9,0.6-4.9,0.6s1.2,2.1,3.5,2.7c2.3,0.6,4.6,0.3,4.9-0.6
				C261,379.2,259.4,378,257.1,377.5z"/>
			<path fill="#FCF6A8" d="M255.5,368c-2.2,0.8-3,3-3,3s2.8,0.9,5,0.1c2.2-0.8,3.6-2.2,3-3C260,367.3,257.7,367.3,255.5,368z"/>
			<path fill="#FCF6A8" d="M245,361.9c-0.8,1.8,0.6,3.8,0.6,3.8s2.9-0.8,3.7-2.6c0.8-1.8,0.6-3.5-0.6-3.8
				C247.5,359,245.8,360.1,245,361.9z"/>
		</g>
	</g>
</g>
<g>
	<g>
		<g>
			<path fill="#EBE391" d="M144.6,469.1c0.4,1,0.7,2,0.7,3.2c0,4.6-3.8,8.3-8.4,8.3H78c-4.6,0-8.4-3.8-8.4-8.3
				c0-1.2,0.2-2.2,0.6-3.2c-3.9-2.6-7.5-5.5-10.7-8.8c-1.8-1.9-3.6-3.8-5.2-5.9c-1.5-2-2.9-4.1-4.2-6.2c-0.8-1.3-1.6-2.7-2.3-4.1
				c-4.7-9-7.3-19.3-7.3-30.1c0-6.9,1.1-13.6,3.1-19.9c0.7-2.3,1.6-4.5,2.5-6.7c2.3-5.2,5.3-10.1,8.8-14.5c1.6-2.1,3.4-4,5.3-5.9
				c7.3-7.2,16.4-12.8,26.5-16.1v-70.7c-4-2.6-6.5-7-6.5-12.1c0-1.4,0.2-2.9,0.6-4.2c1.8-5.9,7.4-10.2,14-10.2h25.2
				c0.6,0,1.2,0,1.8,0.1h0c5.7,0.7,10.4,4.7,12.1,10c0.4,1.3,0.6,2.8,0.6,4.3c0,5.1-2.6,9.4-6.5,12.1v70.7
				c26.8,8.6,46.2,33.6,46.2,63.1C174.4,436.9,162.5,457.2,144.6,469.1z"/>
			<path fill="#8D5C3E" d="M121.9,240v20.8c0,4.1-3.3,7.4-7.4,7.4h-10.4c-4.1,0-7.4-3.3-7.4-7.4V240c0-4.1,3.3-7.4,7.4-7.4h10.4
				C118.6,232.6,121.9,235.9,121.9,240z"/>
			<path fill="#9D6C4E" d="M121.9,240v20.8c0,4.1-3.3,7.4-7.4,7.4h-1.7c-4.1,0-7.4-3.3-7.4-7.4V240c0-4.1,3.3-7.4,7.4-7.4h1.7
				C118.6,232.6,121.9,235.9,121.9,240z"/>
			<path fill="#FBCB43" d="M162.4,414.1c0,30.1-24.6,54.6-55,54.6c-30.4,0-55-24.4-55-54.6c0-9.9,2.7-19.2,7.4-27.2h95.3
				C159.8,394.9,162.4,404.2,162.4,414.1z"/>
			<path fill="#FFFFFF" d="M120.9,349.2c0,3.7-3,6.7-6.7,6.7l0,0c-3.7,0-6.7-3-6.7-6.7v-54.9c0-3.7,3-6.7,6.7-6.7l0,0
				c3.7,0,6.7,3,6.7,6.7V349.2z"/>
			<path fill="#FFFFFF" d="M155.3,410.2c0,4.1-3.3,7.4-7.4,7.4h-19.1c-4.1,0-7.4-3.3-7.4-7.4v-7.3c0-4.1,3.3-7.4,7.4-7.4h19.1
				c4.1,0,7.4,3.3,7.4,7.4V410.2z"/>
			<path fill="#E49306" d="M155.1,386.9c0,2.4-21.3,4.3-47.6,4.3c-26.3,0-47.7-1.9-47.7-4.3c0-2.4,21.3-4.3,47.7-4.3
				C133.8,382.5,155.1,384.5,155.1,386.9z"/>
		</g>
		<path fill="#F2F2F2" d="M118,417.6c0,17-16.6,30.7-37.1,30.7h-28c-0.9,0-1.9,0-2.8-0.1c-0.9-1.3-1.6-2.7-2.3-4.1
			c-4.7-9-7.3-19.3-7.3-30.1c0-6.9,1.1-13.6,3.1-19.9c0.7-2.3,1.6-4.5,2.5-6.7c0.7-0.1,1.4-0.2,2.1-0.3c0.1,0,0.2,0,0.3,0
			c1.4-0.1,2.9-0.2,4.4-0.2h28c6.9,0,13.4,1.6,18.9,4.3l0,0C110.7,396.5,118,406.3,118,417.6z"/>
		<g>
			<g>
				<path fill="#5F9653" d="M70.8,436.5c1.7,1.6,3.3,2.8,2.8,3.6c-0.5,0.8-3.1,1.4-4-0.8c-0.8-2.1-5-6-5-6S68.4,434.2,70.8,436.5z"
					/>
			</g>
			<g>
				<path fill="#5F9653" d="M75.7,436.1c-2,1.5-3.8,2.6-3.4,3.5c0.4,0.9,3.2,1.9,4.3-0.3c1.1-2.1,6-5.8,6-5.8S78.5,434,75.7,436.1z"
					/>
			</g>
			<g>
				<path fill="#5F9653" d="M74.2,442.8c0,0.7-0.6,1.3-1.3,1.3l0,0c-0.7,0-1.3-0.6-1.3-1.3v-15c0-0.7,0.6-4.3,1.3-4.3l0,0
					c0.7,0,1.3,3.6,1.3,4.3V442.8z"/>
			</g>
			<g>
				<g>
					<path fill="#F0CA39" d="M78.3,400.2c-0.9,4.2-2.7,7.4-4.1,7.1c-1.4-0.3-1.8-3.9-0.9-8.2c0.9-4.2,2.7-7.4,4.1-7.1
						C78.8,392.3,79.2,396,78.3,400.2z"/>
				</g>
				<g>
					<path fill="#F0CA39" d="M72.6,427.7c-0.9,4.2-2.7,7.4-4.1,7.1c-1.4-0.3-1.8-3.9-0.9-8.2c0.9-4.2,2.7-7.4,4.1-7.1
						C73.1,419.8,73.5,423.4,72.6,427.7z"/>
				</g>
				<g>
					<path fill="#F0CA39" d="M59.6,408.1c4.3,0.9,7.5,2.7,7.2,4.1c-0.3,1.4-4,1.8-8.2,0.9c-4.3-0.9-7.5-2.7-7.2-4.1
						C51.7,407.6,55.4,407.2,59.6,408.1z"/>
				</g>
				<g>
					<path fill="#F0CA39" d="M87.3,413.7c4.3,0.9,7.5,2.7,7.2,4.1c-0.3,1.4-4,1.8-8.2,0.9c-4.3-0.9-7.5-2.7-7.2-4.1
						C79.3,413.3,83,412.9,87.3,413.7z"/>
				</g>
				<g>
					<path fill="#F0CA39" d="M86.2,407.9c-3.6,2.4-7.2,3.3-8,2.2c-0.8-1.2,1.5-4.1,5.2-6.4c3.6-2.4,7.2-3.3,8-2.2
						C92.1,402.6,89.8,405.5,86.2,407.9z"/>
				</g>
				<g>
					<path fill="#F0CA39" d="M62.5,423.3c-3.6,2.4-7.2,3.3-8,2.1c-0.8-1.2,1.5-4.1,5.2-6.4c3.6-2.4,7.2-3.3,8-2.2
						C68.5,418,66.2,420.9,62.5,423.3z"/>
				</g>
				<g>
					<path fill="#F0CA39" d="M67.3,400.3c2.4,3.6,3.4,7.2,2.2,7.9c-1.2,0.8-4.1-1.5-6.5-5.1c-2.4-3.6-3.4-7.2-2.2-7.9
						C62,394.4,64.9,396.7,67.3,400.3z"/>
				</g>
				<g>
					<path fill="#F0CA39" d="M82.9,423.7c2.4,3.6,3.4,7.2,2.2,7.9c-1.2,0.8-4.1-1.5-6.5-5.1c-2.4-3.6-3.4-7.2-2.2-7.9
						C77.6,417.8,80.5,420.1,82.9,423.7z"/>
				</g>
			</g>
			<g>
				<g>
					<path fill="#F0CA39" d="M82.9,403.1c-2.4,3.6-5.3,5.9-6.5,5.1c-1.2-0.8-0.2-4.3,2.2-7.9c2.4-3.6,5.3-5.9,6.5-5.1
						C86.3,396,85.3,399.5,82.9,403.1z"/>
				</g>
				<g>
					<path fill="#F0CA39" d="M67.3,426.5c-2.4,3.6-5.3,5.9-6.5,5.1c-1.2-0.8-0.2-4.3,2.2-7.9c2.4-3.6,5.3-5.9,6.5-5.1
						C70.7,419.4,69.7,422.9,67.3,426.5z"/>
				</g>
				<g>
					<path fill="#F0CA39" d="M62.6,403.5c3.6,2.4,5.9,5.3,5.1,6.5c-0.8,1.2-4.4,0.2-8-2.2c-3.6-2.4-5.9-5.3-5.1-6.4
						C55.4,400.2,58.9,401.2,62.6,403.5z"/>
				</g>
				<g>
					<path fill="#F0CA39" d="M86.1,419c3.6,2.4,5.9,5.3,5.1,6.5c-0.8,1.2-4.4,0.2-8-2.2c-3.6-2.4-5.9-5.3-5.1-6.4
						C78.9,415.7,82.5,416.6,86.1,419z"/>
				</g>
				<g>
					<path fill="#F0CA39" d="M87.3,413.1c-4.3,0.9-8,0.4-8.2-1c-0.3-1.4,2.9-3.2,7.2-4.1c4.3-0.9,8-0.4,8.2,1
						C94.8,410.5,91.6,412.3,87.3,413.1z"/>
				</g>
				<g>
					<path fill="#F0CA39" d="M59.6,418.7c-4.3,0.9-8,0.4-8.2-1c-0.3-1.4,2.9-3.2,7.2-4.1c4.3-0.9,8-0.4,8.2,1
						C67.1,416,63.9,417.8,59.6,418.7z"/>
				</g>
				<g>
					<path fill="#F0CA39" d="M72.7,399.2c0.9,4.2,0.4,7.9-1,8.2c-1.4,0.3-3.2-2.9-4.1-7.2c-0.9-4.2-0.4-7.9,1-8.2
						C70,391.7,71.8,394.9,72.7,399.2z"/>
				</g>
				<g>
					<path fill="#F0CA39" d="M78.3,426.6c0.9,4.2,0.4,7.9-1,8.2c-1.4,0.3-3.2-2.9-4.1-7.2c-0.9-4.2-0.4-7.9,1-8.2
						C75.6,419.2,77.4,422.4,78.3,426.6z"/>
				</g>
			</g>
			<g>
				<path fill="#7D4C2E" d="M82.4,413.4c0,5.2-4.2,9.4-9.5,9.4c-5.2,0-9.5-4.2-9.5-9.4c0-5.2,4.2-9.4,9.5-9.4
					C78.2,404,82.4,408.2,82.4,413.4z"/>
			</g>
			<g>
				<ellipse fill="#89695E" cx="72.9" cy="413.4" rx="8.2" ry="8.2"/>
			</g>
		</g>
	</g>
	<path fill="#EDE671" d="M134,263.8c-1,3.3-4,5.7-7.7,5.7H88.5c-3.6,0-6.7-2.4-7.7-5.7c1.8-5.9,7.4-10.2,14-10.2h27.1v0.1h0
		C127.7,254.5,132.4,258.5,134,263.8z"/>
	<path fill="#FFFFFF" d="M131.7,264.9c0,1.8-1.5,3.3-3.3,3.3h-15.7c-1.8,0-3.3-1.5-3.3-3.3l0,0c0-1.8,1.5-3.3,3.3-3.3h15.7
		C130.2,261.6,131.7,263,131.7,264.9L131.7,264.9z"/>
	<g>
		<g>
			<g>
				<path fill="#CAECF4" d="M474.9,342c0,0.1,0.1,0.2,0.1,0.2V466c0,5.4-5,11-14.1,15.3c-9.1,4.2-22.4,7.1-39,7.2h-0.1
					c0,0,0,0-0.1,0c-33.3-0.1-53.1-11.6-53.1-22.5V342.2c0,0,0-0.1,0-0.2c0-0.1,0-0.2,0-0.2c0.1-12.1,10.2-24.7,20.3-37.2
					c6.8-8.3,8.5-20.3,8.8-27.4c0-0.8,0.1-1.6,0.1-2.3h-0.9c-4.4,0-7.9-2.7-7.9-6v-5.2c0-3.3,3.5-6,7.9-6h49.9
					c3.3,0,6.1,1.5,7.3,3.7c0.4,0.7,0.6,1.5,0.6,2.4v5.2c0,3.3-3.5,6-7.9,6h-0.9c0,0.7,0,1.4,0.1,2.3c0.3,7.1,1.9,19.1,8.8,27.4
					c10.2,12.5,20.2,25.1,20.3,37.2C475,341.8,474.9,341.9,474.9,342z"/>
				<path fill="#FBCB43" d="M379.8,343.9v122.3c0,7.2,18.8,13.1,42.1,13.1c23.2,0,42.1-5.9,42.1-13.1V343.9H379.8z"/>
				<path fill="#F5B400" d="M464,343.9c0,3.5-18.8,6.4-42.1,6.4c-23.2,0-42.1-2.9-42.1-6.4c0-3.5,18.8-6.4,42.1-6.4
					C445.1,337.4,464,340.3,464,343.9z"/>
				<path fill="#F5B400" d="M454.7,270.9c0,3.4-3.2,6.2-7.1,6.2h-52.2c-3.9,0-7.1-2.8-7.1-6.2v-7.1c0-3.5,3.2-6.2,7.1-6.2h52.2
					c3.9,0,7.1,2.8,7.1,6.2V270.9z"/>
				<path fill="#FFFFFF" d="M438.2,323.1c0,3.4-3.2,6.2-7.1,6.2h-1.5c-3.9,0-7.1-2.8-7.1-6.2v-33.8c0-3.4,3.2-6.2,7.1-6.2h1.5
					c3.9,0,7.1,2.8,7.1,6.2V323.1z"/>
			</g>
			<path fill="#FFFFFF" d="M455.2,445.6c0,3.4-3.2,6.2-7.1,6.2h-2.8c-3.9,0-7.1-2.8-7.1-6.2v-81c0-3.4,3.2-6.2,7.1-6.2h2.8
				c3.9,0,7.1,2.8,7.1,6.2V445.6z"/>
		</g>
		<path fill="#F2F2F2" d="M422.1,447.6c-42.8,6.6-54-6.6-54-6.6v-80.3c0,0,7.7,12.3,54,6.6V447.6z"/>
		<g>
			<g>
				<path fill="#F15723" d="M407.7,424.6c-6.6,4.8-13.7,7-19.8,4.7c-1.2-0.5-1.8-1.5-2.9-2.1c-0.6-0.2-1.5-0.1-2.3-0.2
					c-0.4,0-0.8-0.1-1.1-0.2c-6.1-2.8-9.4-8.9-9.6-16.8c-0.3-11.1,6.4-20.2,14.8-20.4c1.2,0,2.3,0,3.3,0.2c1.3,0.2,2.4,0.5,3.6,1
					c2.1,0.9,4.3,2.4,7,4.7c0.1,0.1,0.2,0.2,0.3,0.2c6.7,0.1,11.2,1.9,14.6,5.5C421,407.2,417.4,417.6,407.7,424.6z"/>
			</g>
			<g>
				<path fill="#79544E" d="M400.6,397.8c-0.4-0.2-0.8-0.6-0.9-1c0-0.2-0.6-4.2,2-7.1c1.5-1.7,3.8-2.6,6.7-2.8
					c0.8-0.1,1.5,0.5,1.6,1.2c0.1,0.7-0.6,1.3-1.4,1.4c-2.1,0.1-3.6,0.8-4.7,1.9c-1.9,2-1.4,5.1-1.4,5.1c0.1,0.7-0.4,1.4-1.3,1.5
					C401.2,398,400.9,397.9,400.6,397.8z"/>
			</g>
			<g>
				<path fill="#FFFFFF" d="M412.5,407c1.1,2.7,0.6,5.4-1.3,6c-1.8,0.6-4.2-1.2-5.4-3.9c-1.1-2.8-0.6-5.5,1.3-6
					C408.9,402.5,411.3,404.2,412.5,407z"/>
			</g>
		</g>
	</g>
</g>
<g>
	<path fill="#F9B39A" d="M422.8,410.2v26.9c0,16.5-14.1,29.9-31.4,29.9h-30c-15.9,0-29.1-11.3-31.1-25.9c-0.2-1.3-0.3-2.6-0.3-4
		v-26.9c0-6.7,2.3-12.8,6.2-17.8c-1.9-2.2-3-4.9-3-7.9c0-6.8,5.8-12.4,13-12.4h60.4c7.2,0,13,5.5,13,12.4c0,3-1.2,5.8-3,7.9
		C420.5,397.4,422.8,403.5,422.8,410.2z"/>
	<path fill="#F15723" d="M334.4,414.7v16.2v1c0,16.5,14.1,29.9,31.4,29.9h21.3c17.4,0,31.4-13.4,31.4-29.9v-1v-16.2H334.4z"/>
	<ellipse fill="#CC4139" cx="376.4" cy="414.8" rx="42" ry="3.8"/>
	<path fill="#FFFFFF" d="M421.5,384c0,7-6,12.7-13.3,12.7h-63.5c-7.4,0-13.3-5.7-13.3-12.7l0,0c0-7,6-12.7,13.3-12.7h63.5
		C415.5,371.3,421.5,377,421.5,384L421.5,384z"/>
	<path fill="#FFFFFF" d="M424.1,396.7c0,2.7-2.3,5-5.2,5H333c-2.9,0-5.2-2.2-5.2-5l0,0c0-2.8,2.3-5,5.2-5h85.9
		C421.8,391.8,424.1,394,424.1,396.7L424.1,396.7z"/>
	<path fill="#FFFFFF" d="M407.7,435.7c0,4-3.4,7.3-7.7,7.3l0,0c-4.2,0-7.7-3.3-7.7-7.3v-15.2c0-4,3.4-7.3,7.7-7.3l0,0
		c4.2,0,7.7,3.3,7.7,7.3V435.7z"/>
	<path fill="#CCCCCC" d="M353.3,389.2c0,1.2-1,2.2-2.3,2.2l0,0c-1.3,0-2.3-1-2.3-2.2v-5c0-1.2,1-2.2,2.3-2.2l0,0
		c1.3,0,2.3,1,2.3,2.2V389.2z"/>
	<path fill="#CCCCCC" d="M378.9,389.2c0,1.2-1,2.2-2.3,2.2l0,0c-1.3,0-2.3-1-2.3-2.2v-5c0-1.2,1-2.2,2.3-2.2l0,0
		c1.3,0,2.3,1,2.3,2.2V389.2z"/>
	<path fill="#CCCCCC" d="M404.6,389.2c0,1.2-1,2.2-2.3,2.2l0,0c-1.3,0-2.3-1-2.3-2.2v-5c0-1.2,1-2.2,2.3-2.2l0,0
		c1.3,0,2.3,1,2.3,2.2V389.2z"/>
	<path fill="#F15723" d="M418.5,390.9c0,1.3-1.1,2.3-2.4,2.3h-78.6c-1.3,0-2.4-1-2.4-2.3l0,0c0-1.3,1.1-2.3,2.4-2.3h78.6
		C417.4,388.7,418.5,389.7,418.5,390.9L418.5,390.9z"/>
	<path fill="#FFFFFF" d="M376,410.7v30.4h-45.6c-0.2-1.3-0.3-2.6-0.3-4v-26.4H376z"/>
	<g>
		<g>
			<path fill="#5F9653" d="M349.7,418.1c2.4-1.6,3.8-3.8,3.8-3.8s-2.7,0.2-5.3,1.6c0.8-2.2,0.1-4.1,0.1-4.1s-2.4,1.7-3.7,4
				c-1.3-1.5-3.6-1.9-3.6-1.9s-0.8,2.3,0.1,4.1c-2.6,0.1-5.2,1.4-5.2,1.4s1.4,1.5,3.8,1.8c-2.4,1.6-3.8,3.8-3.8,3.8s2.7-0.2,5.3-1.6
				c-0.8,2.3-0.1,4.1-0.1,4.1s2.4-1.7,3.7-4c1.3,1.5,3.6,1.9,3.6,1.9s0.8-2.3-0.1-4.1c2.6-0.1,5.2-1.4,5.2-1.4
				S352.2,418.4,349.7,418.1z"/>
			<path fill="#F15723" d="M358.3,422c3,4.5,3.8,13.4-0.8,16.3c-4.6,2.9-12.9-1.5-16-5.9c-3-4.5-1.7-10.4,2.9-13.3
				C349,416.2,355.2,417.5,358.3,422z"/>
		</g>
		<g>
			<ellipse fill="#F5815A" cx="343.5" cy="423.9" rx="1.2" ry="1.1"/>
			<ellipse fill="#F5815A" cx="352.5" cy="422.7" rx="1.5" ry="1.4"/>
			<path fill="#F5815A" d="M353.4,429.3c0,0.8-0.7,1.5-1.6,1.5c-0.9,0-1.6-0.7-1.6-1.5c0-0.8,0.7-1.5,1.6-1.5
				C352.7,427.8,353.4,428.5,353.4,429.3z"/>
			<path fill="#F5815A" d="M346.7,431.8c0,0.5-0.5,1-1,1c-0.6,0-1-0.4-1-1c0-0.5,0.5-1,1-1C346.3,430.8,346.7,431.2,346.7,431.8z"/>
			<path fill="#F5815A" d="M356.4,435.2c0,0.8-0.7,1.4-1.5,1.4c-0.8,0-1.5-0.6-1.5-1.4c0-0.8,0.7-1.4,1.5-1.4
				C355.7,433.8,356.4,434.4,356.4,435.2z"/>
		</g>
	</g>
</g>
<g>
	<g>
		<path fill="#E3483F" d="M273.8,375.3c5.8,26.2,6.9,51.4,4.1,73.5l4,18.2c0.4,1.6,0.2,3.1-0.3,4.5c-0.8,2.2-2.6,3.9-4.9,4.4
			c-0.2,0-0.3,0.1-0.5,0.1c-2.5,0.4-4.9-0.8-6.5-2.8c-0.1,0.4-0.2,0.7-0.3,1.1c-0.8,2.2-2.6,3.9-4.9,4.4c-0.2,0-0.3,0.1-0.5,0.1
			c-2.5,0.4-4.9-0.8-6.5-2.8c-0.1,0.4-0.2,0.7-0.3,1.1c-0.8,2.2-2.6,3.9-4.9,4.4c-0.2,0-0.3,0.1-0.5,0.1c-2.5,0.4-4.9-0.8-6.5-2.8
			c-0.1,0.4-0.2,0.7-0.3,1.1c-0.8,2.2-2.6,3.9-4.9,4.4c-0.2,0-0.3,0.1-0.5,0.1c-2.5,0.4-4.9-0.8-6.5-2.8c-0.1,0.4-0.2,0.7-0.3,1.1
			c-0.8,2.2-2.6,3.9-4.9,4.4c-0.2,0-0.3,0.1-0.5,0.1c-2.5,0.4-4.9-0.8-6.5-2.8c-0.1,0.4-0.2,0.7-0.3,1.1c-0.8,2.2-2.6,3.9-4.9,4.4
			c-0.2,0-0.3,0.1-0.5,0.1c-2.5,0.4-4.9-0.8-6.5-2.8c-0.1,0.4-0.2,0.7-0.3,1.1c-0.8,2.2-2.6,3.9-4.9,4.4c-0.2,0-0.3,0.1-0.5,0.1
			c-2.5,0.4-4.9-0.8-6.5-2.8c-0.1,0.4-0.2,0.7-0.3,1.1c-0.8,2.2-2.6,3.9-4.9,4.4c-0.2,0-0.3,0.1-0.5,0.1c-2.5,0.4-4.9-0.8-6.5-2.8
			c-0.1,0.4-0.2,0.7-0.3,1.1c-0.8,2.2-2.5,3.9-4.9,4.4c-0.2,0-0.3,0.1-0.5,0.1c-2.5,0.4-4.9-0.8-6.5-2.8c-0.1,0.4-0.2,0.7-0.3,1.1
			c-0.8,2.2-2.5,3.9-4.8,4.4c-3.8,0.8-7.6-1.8-8.5-5.9l-4.5-20.3c-11.3-18.5-20.5-41.1-26.1-66.4c-5.6-25.2-6.8-49.6-4.4-71.1
			l-3.2-14.5c-0.9-4.1,1.4-8.1,5.2-8.9c2.3-0.5,4.6,0.3,6.2,2c0.3,0.2,0.5,0.5,0.7,0.8c0.5-2.5,2.3-4.6,4.7-5.3
			c0.2-0.1,0.3-0.1,0.5-0.2c2.3-0.5,4.6,0.3,6.3,2c0.2,0.3,0.5,0.5,0.7,0.8c0.5-2.5,2.2-4.6,4.7-5.3c0.2-0.1,0.3-0.1,0.5-0.2
			c2.3-0.5,4.6,0.3,6.3,2c0.2,0.3,0.5,0.5,0.7,0.8c0.5-2.5,2.3-4.6,4.7-5.3c0.2-0.1,0.3-0.1,0.5-0.2c2.3-0.5,4.6,0.3,6.3,2
			c0.2,0.3,0.5,0.5,0.7,0.8c0.6-2.5,2.3-4.6,4.7-5.3c0.2-0.1,0.3-0.1,0.5-0.2c2.3-0.5,4.6,0.3,6.3,1.9c0.2,0.3,0.5,0.5,0.7,0.8
			c0.6-2.5,2.3-4.6,4.7-5.3c0.2-0.1,0.3-0.1,0.5-0.2c2.3-0.5,4.6,0.3,6.3,1.9c0.2,0.3,0.5,0.5,0.7,0.8c0.5-2.5,2.3-4.6,4.7-5.3
			c0.2-0.1,0.3-0.1,0.5-0.2c2.3-0.5,4.6,0.3,6.3,1.9c0.2,0.3,0.5,0.5,0.7,0.8c0.5-2.5,2.3-4.6,4.7-5.3c0.2-0.1,0.3-0.1,0.5-0.2
			c2.3-0.5,4.6,0.3,6.3,1.9c0.2,0.3,0.5,0.5,0.7,0.8c0.5-2.5,2.3-4.6,4.7-5.3c0.1-0.1,0.3-0.1,0.5-0.2c2.3-0.5,4.6,0.3,6.3,1.9
			c0.2,0.3,0.5,0.5,0.7,0.8c0.5-2.5,2.2-4.6,4.7-5.3c0.2-0.1,0.3-0.1,0.5-0.2c2.3-0.5,4.6,0.3,6.3,1.9c1,1,1.8,2.4,2.2,4l2.7,12.3
			C258.4,325.8,268,349.2,273.8,375.3z"/>
	</g>
	<g>
		<path fill="#EA6742" d="M273.8,375.3c5.8,26.2,6.9,51.4,4.1,73.5l4,18.2c0.4,1.6,0.2,3.1-0.3,4.5c-0.3-0.2-0.5-0.5-0.7-0.8
			c-0.5,2.5-2.2,4.6-4.6,5.3c-0.2,0.1-0.3,0.1-0.5,0.2c-2.3,0.5-4.6-0.3-6.2-1.9c-0.3-0.2-0.5-0.5-0.7-0.8c-0.5,2.5-2.2,4.6-4.7,5.3
			c-0.2,0.1-0.3,0.1-0.5,0.2c-2.3,0.5-4.6-0.3-6.2-1.9c-0.3-0.2-0.5-0.5-0.8-0.8c-0.5,2.5-2.2,4.6-4.6,5.3c-0.2,0.1-0.3,0.1-0.5,0.2
			c-2.3,0.5-4.6-0.3-6.2-1.9c-0.3-0.2-0.5-0.5-0.8-0.8c-0.5,2.5-2.2,4.6-4.6,5.3c-0.2,0.1-0.3,0.1-0.5,0.2c-2.3,0.5-4.6-0.3-6.2-1.9
			c-0.3-0.2-0.5-0.5-0.8-0.8c-0.5,2.5-2.2,4.6-4.6,5.3c-0.2,0.1-0.3,0.1-0.5,0.2c-2.3,0.5-4.6-0.3-6.3-1.9c-0.3-0.2-0.5-0.5-0.8-0.8
			c-0.5,2.5-2.2,4.6-4.6,5.3c-0.2,0.1-0.3,0.1-0.5,0.2c-2.3,0.5-4.6-0.3-6.3-1.9c-0.3-0.2-0.5-0.5-0.7-0.8c-0.5,2.5-2.2,4.6-4.6,5.3
			c-0.2,0.1-0.3,0.1-0.5,0.2c-2.3,0.5-4.6-0.3-6.2-1.9c-0.3-0.2-0.5-0.5-0.7-0.8c-0.5,2.5-2.2,4.6-4.6,5.3c-0.2,0.1-0.3,0.1-0.5,0.2
			c-2.3,0.5-4.6-0.3-6.3-1.9c-0.2-0.2-0.5-0.5-0.7-0.8c-0.5,2.5-2.2,4.6-4.6,5.3c-0.2,0.1-0.3,0.1-0.5,0.2c-2.3,0.5-4.6-0.3-6.3-1.9
			c-1-1-1.8-2.4-2.2-3.9l-4.5-20.3c-11.3-18.5-20.5-41.1-26.1-66.4c-5.6-25.2-6.8-49.6-4.4-71.1l-3.2-14.5c-0.4-1.6-0.2-3.2,0.3-4.5
			c0.8-2.2,2.6-3.9,4.9-4.4c0.2,0,0.4-0.1,0.5-0.1c2.5-0.4,4.9,0.8,6.4,2.8c0.1-0.4,0.2-0.7,0.3-1.1c0.8-2.2,2.6-3.9,4.8-4.4
			c0.2,0,0.4-0.1,0.6-0.1c2.5-0.4,4.9,0.8,6.4,2.8c0.1-0.4,0.2-0.7,0.3-1.1c0.8-2.2,2.5-3.9,4.8-4.4c0.2,0,0.4-0.1,0.6-0.1
			c2.5-0.4,4.9,0.8,6.4,2.8c0.1-0.4,0.2-0.7,0.3-1.1c0.8-2.2,2.6-3.9,4.8-4.4c0.2,0,0.4-0.1,0.5-0.1c2.5-0.4,4.9,0.8,6.4,2.8
			c0.1-0.4,0.2-0.7,0.3-1.1c0.8-2.2,2.6-3.9,4.8-4.4c0.2,0,0.4-0.1,0.5-0.1c2.5-0.4,4.9,0.8,6.4,2.8c0.1-0.4,0.2-0.7,0.3-1.1
			c0.8-2.2,2.6-3.9,4.8-4.4c0.2,0,0.3-0.1,0.5-0.1c2.5-0.4,4.9,0.8,6.4,2.8c0.1-0.4,0.2-0.7,0.3-1.1c0.8-2.2,2.5-3.9,4.8-4.4
			c0.2,0,0.4-0.1,0.6-0.1c2.5-0.4,4.9,0.8,6.4,2.8c0.1-0.4,0.2-0.7,0.3-1.1c0.8-2.2,2.6-3.9,4.8-4.4c0.2,0,0.4-0.1,0.5-0.1
			c2.5-0.4,4.9,0.8,6.5,2.8c0.1-0.4,0.2-0.7,0.3-1.1c0.8-2.2,2.5-3.9,4.8-4.4c0.2,0,0.4-0.1,0.6-0.1c2.5-0.4,4.9,0.8,6.5,2.8
			c0.1-0.4,0.2-0.7,0.3-1.1c1,1,1.8,2.4,2.2,4l2.7,12.3C258.4,325.8,268,349.2,273.8,375.3z"/>
	</g>
	<g>
		<path fill="#8D5C3E" d="M244.6,309.6c0.4,1.7-0.6,3.3-2.1,3.7l-112,24.9c-1.5,0.3-3.1-0.7-3.5-2.4l0,0c-0.4-1.7,0.6-3.3,2.1-3.7
			l112-24.9C242.7,306.8,244.2,307.9,244.6,309.6L244.6,309.6z"/>
	</g>
	<g>
		<path fill="#8D5C3E" d="M275.4,448.6c0.4,1.7-0.6,3.3-2.1,3.7l-112,24.9c-1.5,0.3-3.1-0.7-3.5-2.4l0,0c-0.4-1.7,0.6-3.3,2.1-3.7
			l112-24.9C273.5,445.8,275.1,446.9,275.4,448.6L275.4,448.6z"/>
	</g>
	<g>
		<path fill="#FFFFFF" d="M264,395.8c4.8,21.9-7.6,43.2-27.7,47.7l-35.6,7.9c-20.1,4.5-40.4-9.6-45.3-31.5l-6.4-29
			c-4.9-21.9,7.6-43.2,27.7-47.7l35.6-7.9c20.1-4.5,40.4,9.6,45.3,31.5L264,395.8z"/>
	</g>
	<g>
		<g>
			<g>
				<path fill="#F3AA43" d="M199.8,406.1c-1.3,4-16.4,29.5-18.1,31.3c-1.5,1.5-6.4,4.3-9.8-6.1c-0.6-1.8-1.1-4-1.6-6.7
					c-3.1-18.1,7.2-35,7.2-35s8.8,4.7,15.4,9.3C197.1,401.8,200.3,404.6,199.8,406.1z"/>
			</g>
			<g>
				<path fill="#FFC562" d="M193,398.9c-1.9,4.9-16.3,29.2-18,31c-0.6,0.6-1.7,1.4-3,1.5c-0.6-1.8-1.1-4-1.6-6.7
					c-3.1-18.1,7.2-35,7.2-35S186.4,394.3,193,398.9z"/>
			</g>
		</g>
		<g>
			<g>
				<path fill="#F3AA43" d="M220.7,384.7c3.8-1.2,28.2-16.2,29.9-18c1.5-1.5,4.3-6.7-5.2-10.8c-1.6-0.7-3.7-1.4-6.1-2
					c-16.7-4.2-32.9,6.1-32.9,6.1s3.9,9.7,7.9,16.9C216.8,381.6,219.2,385.2,220.7,384.7z"/>
			</g>
			<g>
				<path fill="#FFC562" d="M214.3,377c4.7-1.8,27.9-16.1,29.6-17.8c0.6-0.6,1.4-1.8,1.5-3.2c-1.6-0.7-3.7-1.4-6.1-2
					c-16.7-4.2-32.9,6.1-32.9,6.1S210.3,369.8,214.3,377z"/>
			</g>
		</g>
		<g>
			<path fill="#FFC562" d="M215.2,363.2l6.1,6.9c4.6,5.2,4.6,13.4-0.1,18.2l-17.7,18.1c-4.7,4.8-12.3,4.5-16.9-0.7l-6.1-6.9
				c-0.1-0.1-0.2-0.2-0.3-0.4c-4.4-5.2-4.2-13.1,0.4-17.9l17.7-18.1c4.6-4.7,12-4.5,16.6,0.4C215,363,215.1,363.1,215.2,363.2z"/>
		</g>
		<g>
			<path fill="#FFD894" d="M214.9,362.9c0.9,1,1.5,2.1,2,3.4c2.1,4.8,1.3,10.7-2.4,14.5l-17.7,18.1c-3.7,3.8-9.2,4.4-13.6,2
				c-1.1-0.6-2.1-1.4-3-2.4c-4.4-5.2-4.2-13.1,0.4-17.9l17.7-18.1C202.9,357.8,210.2,358,214.9,362.9z"/>
		</g>
	</g>
</g>
<g>
	<g>
		<path fill="#DBA954" d="M344.7,417.6c0,13.8-2.4,26.6-6.5,37.4v9.6c0,0.8-0.3,1.6-0.7,2.2c-0.7,1-1.8,1.7-3.1,1.7
			c-0.1,0-0.2,0-0.3,0c-1.4-0.1-2.5-1-3.1-2.1c-0.1,0.2-0.2,0.4-0.3,0.5c-0.7,1-1.8,1.7-3.1,1.7c-0.1,0-0.2,0-0.3,0
			c-1.4-0.1-2.5-1-3.1-2.1c-0.1,0.2-0.2,0.4-0.3,0.5c-0.7,1-1.8,1.7-3.1,1.7c-0.1,0-0.2,0-0.3,0c-1.4-0.1-2.5-1-3.1-2.1
			c-0.1,0.2-0.2,0.4-0.3,0.5c-0.7,1-1.8,1.7-3.1,1.7c-0.1,0-0.2,0-0.3,0c-1.4-0.1-2.5-1-3.1-2.1c-0.1,0.2-0.2,0.4-0.3,0.5
			c-0.7,1-1.8,1.7-3.1,1.7c-0.1,0-0.2,0-0.3,0c-1.4-0.1-2.5-1-3.1-2.1c-0.1,0.2-0.2,0.4-0.3,0.5c-0.7,1-1.8,1.7-3.1,1.7
			c-0.1,0-0.2,0-0.3,0c-1.4-0.1-2.5-1-3.1-2.1c-0.1,0.2-0.2,0.4-0.3,0.5c-0.7,1-1.8,1.7-3.1,1.7c-0.1,0-0.2,0-0.3,0
			c-1.4-0.1-2.5-1-3.1-2.1c-0.1,0.2-0.2,0.4-0.3,0.5c-0.7,1-1.8,1.7-3.1,1.7c-0.1,0-0.2,0-0.3,0c-1.4-0.1-2.5-1-3.1-2.1
			c-0.1,0.2-0.2,0.4-0.3,0.5c-0.7,1-1.8,1.7-3.1,1.7c-0.1,0-0.2,0-0.3,0c-1.4-0.1-2.5-1-3.1-2.1c-0.1,0.2-0.2,0.4-0.3,0.5
			c-0.7,1-1.8,1.7-3.1,1.7c-2.1,0-3.8-1.7-3.8-3.9v-10.7c-3.8-10.5-6.1-23-6.1-36.3c0-13.3,2.2-25.7,6.1-36.2v-7.7
			c0-2.2,1.7-3.9,3.8-3.9c1.3,0,2.4,0.7,3.1,1.7c0.1,0.2,0.2,0.3,0.3,0.5c0.6-1.2,1.7-2,3.1-2.1c0.1,0,0.2,0,0.3,0
			c1.3,0,2.4,0.7,3.1,1.7c0.1,0.2,0.2,0.3,0.3,0.5c0.6-1.2,1.7-2,3.1-2.1c0.1,0,0.2,0,0.3,0c1.3,0,2.4,0.7,3.1,1.7
			c0.1,0.2,0.2,0.3,0.3,0.5c0.6-1.2,1.7-2,3.1-2.1c0.1,0,0.2,0,0.3,0c1.3,0,2.4,0.7,3.1,1.7c0.1,0.2,0.2,0.3,0.3,0.5
			c0.6-1.2,1.7-2,3.1-2.1c0.1,0,0.2,0,0.3,0c1.3,0,2.4,0.7,3.1,1.7c0.1,0.2,0.2,0.3,0.3,0.5c0.6-1.2,1.7-2,3.1-2.1
			c0.1,0,0.2,0,0.3,0c1.3,0,2.4,0.7,3.1,1.7c0.1,0.2,0.2,0.3,0.3,0.5c0.6-1.2,1.7-2,3.1-2.1c0.1,0,0.2,0,0.3,0
			c1.3,0,2.4,0.7,3.1,1.7c0.1,0.2,0.2,0.3,0.3,0.5c0.6-1.2,1.7-2,3.1-2.1c0.1,0,0.2,0,0.3,0c1.3,0,2.4,0.7,3.1,1.7
			c0.1,0.2,0.2,0.3,0.3,0.5c0.6-1.2,1.7-2,3.1-2.1c0.1,0,0.2,0,0.3,0c1.3,0,2.4,0.7,3.1,1.7c0.1,0.2,0.2,0.3,0.3,0.5
			c0.6-1.2,1.7-2,3.1-2.1c0.1,0,0.2,0,0.3,0c1.3,0,2.4,0.7,3.1,1.7c0.4,0.6,0.7,1.4,0.7,2.2v6.5C342.3,391,344.7,403.9,344.7,417.6z
			"/>
	</g>
	<g>
		<path fill="#FFC562" d="M344.7,417.6c0,13.8-2.4,26.6-6.5,37.4v9.6c0,0.8-0.3,1.6-0.7,2.2c-0.1-0.2-0.2-0.3-0.3-0.5
			c-0.6,1.2-1.7,2-3.1,2.1c-0.1,0-0.2,0-0.3,0c-1.3,0-2.4-0.7-3.1-1.7c-0.1-0.2-0.2-0.3-0.3-0.5c-0.6,1.2-1.7,2-3.1,2.1
			c-0.1,0-0.2,0-0.3,0c-1.3,0-2.4-0.7-3.1-1.7c-0.1-0.2-0.2-0.3-0.3-0.5c-0.6,1.2-1.7,2-3.1,2.1c-0.1,0-0.2,0-0.3,0
			c-1.3,0-2.4-0.7-3.1-1.7c-0.1-0.2-0.2-0.3-0.3-0.5c-0.6,1.2-1.7,2-3.1,2.1c-0.1,0-0.2,0-0.3,0c-1.3,0-2.4-0.7-3.1-1.7
			c-0.1-0.2-0.2-0.3-0.3-0.5c-0.6,1.2-1.7,2-3.1,2.1c-0.1,0-0.2,0-0.3,0c-1.3,0-2.4-0.7-3.1-1.7c-0.1-0.2-0.2-0.3-0.3-0.5
			c-0.6,1.2-1.7,2-3.1,2.1c-0.1,0-0.2,0-0.3,0c-1.3,0-2.4-0.7-3.1-1.7c-0.1-0.2-0.2-0.3-0.3-0.5c-0.6,1.2-1.7,2-3.1,2.1
			c-0.1,0-0.2,0-0.3,0c-1.3,0-2.4-0.7-3.1-1.7c-0.1-0.2-0.2-0.3-0.3-0.5c-0.6,1.2-1.7,2-3.1,2.1c-0.1,0-0.2,0-0.3,0
			c-1.3,0-2.4-0.7-3.1-1.7c-0.1-0.2-0.2-0.3-0.3-0.5c-0.6,1.2-1.7,2-3.1,2.1c-0.1,0-0.2,0-0.3,0c-1.3,0-2.4-0.6-3.1-1.7
			c-0.4-0.6-0.7-1.4-0.7-2.2v-10.7c-3.9-10.5-6.1-23-6.1-36.3c0-13.3,2.2-25.7,6.1-36.2v-7.7c0-0.8,0.3-1.6,0.7-2.2
			c0.7-1,1.8-1.7,3.1-1.7c0.1,0,0.2,0,0.3,0c1.4,0.1,2.5,0.9,3.1,2.1c0.1-0.2,0.2-0.3,0.3-0.5c0.7-1,1.8-1.7,3.1-1.7
			c0.1,0,0.2,0,0.3,0c1.4,0.1,2.5,0.9,3.1,2.1c0.1-0.2,0.2-0.3,0.3-0.5c0.7-1,1.8-1.7,3.1-1.7c0.1,0,0.2,0,0.3,0
			c1.4,0.1,2.5,0.9,3.1,2.1c0.1-0.2,0.2-0.3,0.3-0.5c0.7-1,1.8-1.7,3.1-1.7c0.1,0,0.2,0,0.3,0c1.4,0.1,2.5,0.9,3.1,2.1
			c0.1-0.2,0.2-0.3,0.3-0.5c0.7-1,1.8-1.7,3.1-1.7c0.1,0,0.2,0,0.3,0c1.4,0.1,2.5,0.9,3.1,2.1c0.1-0.2,0.2-0.3,0.3-0.5
			c0.7-1,1.8-1.7,3.1-1.7c0.1,0,0.2,0,0.3,0c1.4,0.1,2.5,0.9,3.1,2.1c0.1-0.2,0.2-0.3,0.3-0.5c0.7-1,1.8-1.7,3.1-1.7
			c0.1,0,0.2,0,0.3,0c1.4,0.1,2.5,0.9,3.1,2.1c0.1-0.2,0.2-0.3,0.3-0.5c0.7-1,1.8-1.7,3.1-1.7c0.1,0,0.2,0,0.3,0
			c1.4,0.1,2.5,0.9,3.1,2.1c0.1-0.2,0.2-0.3,0.3-0.5c0.7-1,1.8-1.7,3.1-1.7c0.1,0,0.2,0,0.3,0c1.4,0.1,2.5,0.9,3.1,2.1
			c0.1-0.2,0.2-0.3,0.3-0.5c0.4,0.6,0.7,1.4,0.7,2.2v6.5C342.3,391,344.7,403.9,344.7,417.6z"/>
	</g>
	<g>
		<path fill="#8D5C3E" d="M336.9,381.4c0,0.9-0.7,1.6-1.6,1.6h-62.7c-0.9,0-1.6-0.7-1.6-1.6l0,0c0-0.9,0.7-1.6,1.6-1.6h62.7
			C336.2,379.8,336.9,380.5,336.9,381.4L336.9,381.4z"/>
	</g>
	<g>
		<path fill="#8D5C3E" d="M336.9,454.7c0,0.9-0.7,1.6-1.6,1.6h-62.7c-0.9,0-1.6-0.7-1.6-1.6l0,0c0-0.9,0.7-1.6,1.6-1.6h62.7
			C336.2,453.1,336.9,453.8,336.9,454.7L336.9,454.7z"/>
	</g>
	<g>
		<path fill="#FFE3B3" d="M337.1,426.8c0,11.5-9.1,20.9-20.4,20.9h-19.9c-11.3,0-20.4-9.3-20.4-20.9v-15.3
			c0-11.5,9.2-20.9,20.4-20.9h19.9c11.3,0,20.4,9.3,20.4,20.9V426.8z"/>
	</g>
	<g>
		<g>
			<path fill="#7D4C2E" d="M323.5,429.6v7.6c0,0.9-0.7,1.6-1.6,1.6h-38.7c-0.9,0-1.6-0.7-1.6-1.6v-19.8c0-0.9,0.7-1.6,1.6-1.6h31.8
				c-0.5,0.6-0.8,1.4-1,2.2c-0.1,0.4-0.1,0.9-0.1,1.3c0,0.5,0,0.9,0.1,1.3c0.6,2.6,2.9,4.6,5.7,4.7c0,0,0,0,0,0c0,0,0,0,0,0
				c0,0.1,0,0.1,0,0.2c0,0.4,0.1,0.8,0.2,1.2C320.5,428.2,321.8,429.4,323.5,429.6z"/>
		</g>
		<g>
			<g>
				<g>
					<path fill="#8D5C3E" d="M292.2,425c0,0.9-0.7,1.6-1.6,1.6h-5.4c-0.9,0-1.6-0.7-1.6-1.6v-5.5c0-0.9,0.7-1.6,1.6-1.6h5.4
						c0.9,0,1.6,0.7,1.6,1.6V425z"/>
				</g>
				<g>
					<path fill="#7D4C2E" d="M291,424.2c0,0.6-0.5,1.2-1.1,1.2H286c-0.6,0-1.1-0.5-1.1-1.2v-4c0-0.6,0.5-1.2,1.1-1.2h3.9
						c0.6,0,1.1,0.5,1.1,1.2V424.2z"/>
				</g>
			</g>
			<g>
				<g>
					<path fill="#8D5C3E" d="M292.2,435.3c0,0.9-0.7,1.6-1.6,1.6h-5.4c-0.9,0-1.6-0.7-1.6-1.6v-5.5c0-0.9,0.7-1.6,1.6-1.6h5.4
						c0.9,0,1.6,0.7,1.6,1.6V435.3z"/>
				</g>
				<g>
					<path fill="#7D4C2E" d="M291,434.5c0,0.6-0.5,1.2-1.1,1.2H286c-0.6,0-1.1-0.5-1.1-1.2v-4c0-0.6,0.5-1.2,1.1-1.2h3.9
						c0.6,0,1.1,0.5,1.1,1.2V434.5z"/>
				</g>
			</g>
		</g>
		<g>
			<g>
				<g>
					<path fill="#8D5C3E" d="M302,425c0,0.9-0.7,1.6-1.6,1.6H295c-0.9,0-1.6-0.7-1.6-1.6v-5.5c0-0.9,0.7-1.6,1.6-1.6h5.4
						c0.9,0,1.6,0.7,1.6,1.6V425z"/>
				</g>
				<g>
					<path fill="#7D4C2E" d="M300.8,424.2c0,0.6-0.5,1.2-1.1,1.2h-3.9c-0.6,0-1.1-0.5-1.1-1.2v-4c0-0.6,0.5-1.2,1.1-1.2h3.9
						c0.6,0,1.1,0.5,1.1,1.2V424.2z"/>
				</g>
			</g>
			<g>
				<g>
					<path fill="#8D5C3E" d="M302,435.3c0,0.9-0.7,1.6-1.6,1.6H295c-0.9,0-1.6-0.7-1.6-1.6v-5.5c0-0.9,0.7-1.6,1.6-1.6h5.4
						c0.9,0,1.6,0.7,1.6,1.6V435.3z"/>
				</g>
				<g>
					<path fill="#7D4C2E" d="M300.8,434.5c0,0.6-0.5,1.2-1.1,1.2h-3.9c-0.6,0-1.1-0.5-1.1-1.2v-4c0-0.6,0.5-1.2,1.1-1.2h3.9
						c0.6,0,1.1,0.5,1.1,1.2V434.5z"/>
				</g>
			</g>
		</g>
		<g>
			<g>
				<g>
					<path fill="#8D5C3E" d="M311.8,425c0,0.9-0.7,1.6-1.6,1.6h-5.4c-0.9,0-1.6-0.7-1.6-1.6v-5.5c0-0.9,0.7-1.6,1.6-1.6h5.4
						c0.9,0,1.6,0.7,1.6,1.6V425z"/>
				</g>
				<g>
					<path fill="#7D4C2E" d="M310.6,424.2c0,0.6-0.5,1.2-1.1,1.2h-3.9c-0.6,0-1.1-0.5-1.1-1.2v-4c0-0.6,0.5-1.2,1.1-1.2h3.9
						c0.6,0,1.1,0.5,1.1,1.2V424.2z"/>
				</g>
			</g>
			<g>
				<g>
					<path fill="#8D5C3E" d="M311.8,435.3c0,0.9-0.7,1.6-1.6,1.6h-5.4c-0.9,0-1.6-0.7-1.6-1.6v-5.5c0-0.9,0.7-1.6,1.6-1.6h5.4
						c0.9,0,1.6,0.7,1.6,1.6V435.3z"/>
				</g>
				<g>
					<path fill="#7D4C2E" d="M310.6,434.5c0,0.6-0.5,1.2-1.1,1.2h-3.9c-0.6,0-1.1-0.5-1.1-1.2v-4c0-0.6,0.5-1.2,1.1-1.2h3.9
						c0.6,0,1.1,0.5,1.1,1.2V434.5z"/>
				</g>
			</g>
		</g>
		<g>
			<g>
				<g>
					<path fill="#8D5C3E" d="M320,426.6h-5.4c-0.9,0-1.6-0.7-1.6-1.6v-5.5c0-0.7,0.5-1.4,1.2-1.6c-0.1,0.4-0.1,0.9-0.1,1.3
						c0,0.5,0,0.9,0.1,1.3c0.6,2.6,2.9,4.6,5.7,4.7c0,0,0,0,0,0c0,0,0,0,0,0c0,0.1,0,0.1,0,0.2C319.8,425.8,319.9,426.3,320,426.6z"
						/>
				</g>
				<g>
					<path fill="#7D4C2E" d="M319.8,425.2C319.8,425.2,319.8,425.2,319.8,425.2c-0.2,0.1-0.4,0.2-0.6,0.2h-3.9
						c-0.6,0-1.1-0.5-1.1-1.2v-3.7C314.7,423.2,317,425.2,319.8,425.2C319.8,425.2,319.8,425.2,319.8,425.2z"/>
				</g>
			</g>
			<g>
				<g>
					<path fill="#8D5C3E" d="M321.5,435.3c0,0.9-0.7,1.6-1.6,1.6h-5.4c-0.9,0-1.6-0.7-1.6-1.6v-5.5c0-0.9,0.7-1.6,1.6-1.6h5.4
						c0.9,0,1.6,0.7,1.6,1.6V435.3z"/>
				</g>
				<g>
					<path fill="#7D4C2E" d="M320.3,434.5c0,0.6-0.5,1.2-1.1,1.2h-3.9c-0.6,0-1.1-0.5-1.1-1.2v-4c0-0.6,0.5-1.2,1.1-1.2h3.9
						c0.6,0,1.1,0.5,1.1,1.2V434.5z"/>
				</g>
			</g>
		</g>
		<g>
			<path fill="#8D5C3E" d="M319.8,425.2C319.8,425.2,319.8,425.2,319.8,425.2C319.8,425.2,319.8,425.2,319.8,425.2L319.8,425.2z"/>
		</g>
	</g>
	<g>
		<g>
			<path fill="#E3972B" d="M330.8,417.2c0,8.2-6.5,14.9-14.5,14.9c-8,0-14.5-6.6-14.5-14.9c0-8.2,6.5-14.9,14.5-14.9
				C324.3,402.3,330.8,409,330.8,417.2z"/>
		</g>
		<g>
			<path fill="#FFC562" d="M330.8,414.2c0,8.2-6.5,14.9-14.5,14.9c-8,0-14.5-6.7-14.5-14.9c0-8.2,6.5-14.9,14.5-14.9
				C324.3,399.4,330.8,406,330.8,414.2z"/>
		</g>
		<g>
			<path fill="#8D5C3E" d="M314.8,410.2c0,1.5-1.2,2.8-2.8,2.8c-1.5,0-2.8-1.3-2.8-2.8c0-1.6,1.2-2.8,2.8-2.8
				C313.5,407.4,314.8,408.7,314.8,410.2z"/>
		</g>
		<g>
			<path fill="#8D5C3E" d="M318.2,421.6c0,1-0.8,1.7-1.7,1.7c-0.9,0-1.7-0.8-1.7-1.7c0-1,0.8-1.7,1.7-1.7
				C317.4,419.9,318.2,420.7,318.2,421.6z"/>
		</g>
		<g>
			<path fill="#8D5C3E" d="M325.8,417.1c0,1.6-1.2,2.8-2.8,2.8c-1.5,0-2.8-1.3-2.8-2.8c0-1.6,1.2-2.8,2.8-2.8
				C324.5,414.2,325.8,415.5,325.8,417.1z"/>
		</g>
		<g>
			<path fill="#8D5C3E" d="M323,407.4c0,0.8-0.6,1.4-1.4,1.4c-0.8,0-1.4-0.6-1.4-1.4c0-0.8,0.6-1.4,1.4-1.4
				C322.3,406,323,406.6,323,407.4z"/>
		</g>
		<g>
			<path fill="#8D5C3E" d="M311.2,419.2c0,1.2-0.9,2.1-2.1,2.1c-1.1,0-2.1-0.9-2.1-2.1c0-1.2,0.9-2.1,2.1-2.1
				C310.3,417.1,311.2,418,311.2,419.2z"/>
		</g>
		<g>
			<path fill="#8D5C3E" d="M316.5,403.9c0,0.9-0.7,1.6-1.5,1.6c-0.8,0-1.5-0.7-1.5-1.6c0-0.9,0.7-1.6,1.5-1.6
				C315.8,402.3,316.5,403,316.5,403.9z"/>
		</g>
	</g>
</g>
<g>
	<g>
		<path fill="#AD7C5E" d="M494.8,504.8c0,6.7-5.1,12.1-11.4,12.1H46.2c-6.3,0-11.4-5.4-11.4-12.1V444c0-6.7,5.1-12.1,11.4-12.1
			h437.1c6.3,0,11.4,5.4,11.4,12.1V504.8z"/>
		<path fill="#8D5C3E" d="M86.5,475.5c0,6.6-5,11.9-11.2,11.9c-6.2,0-11.2-5.3-11.2-11.9c0-6.5,5-11.9,11.2-11.9
			C81.4,463.7,86.5,469,86.5,475.5z"/>
		<path fill="#8D5C3E" d="M460.6,475.5c0,6.6-5,11.9-11.2,11.9c-6.2,0-11.2-5.3-11.2-11.9c0-6.5,5-11.9,11.2-11.9
			C455.6,463.7,460.6,469,460.6,475.5z"/>
	</g>
</g>
<text transform="matrix(0.9337 0.2507 -0.2593 0.9658 291.0209 161.6449)" fill="#B2B2B2" font-family="'Stencil'" font-size="45.3917">SOLD OUT</text>
</svg>
