<?xml version="1.0" encoding="utf-8"?>
<!-- Generator: Adobe Illustrator 18.1.1, SVG Export Plug-In . SVG Version: 6.00 Build 0)  -->
<svg version="1.1" id="Layer_1" xmlns="http://www.w3.org/2000/svg" xmlns:xlink="http://www.w3.org/1999/xlink" x="0px" y="0px"
	 viewBox="0 0 560 200" enable-background="new 0 0 560 200" xml:space="preserve">
<g>
	<path fill="#FFFFFF" d="M551.1,59.7c0.2,10.9-4.1,20.9-11.3,28c-7,7-16.7,11.2-27.3,11.2H5.8V51.6c0-16.3,13.3-29.5,29.7-29.5
		h476.2C532.8,22.2,550.6,38.7,551.1,59.7z"/>
	<path fill="#FFC94E" d="M101.4,22.2v130.9c0,5-3.8,9.5-8.8,9.8c-2.9,0.2-5.6-0.9-7.5-2.8c-1.5-1.5-2.5-3.6-2.8-5.9v-27.8
		c0-0.3,0-0.6,0-0.9c-0.2-2.3-1.2-4.3-2.8-5.8c-1.7-1.7-4.1-2.8-6.8-2.8c-5,0-9,3.7-9.5,8.5c0,0.3-0.1,0.6-0.1,1v18.1
		c0,0.3-0.1,0.7-0.2,1v21.6c0,5-3.8,9.5-8.8,9.8c-2.9,0.2-5.6-0.9-7.5-2.8c-1.5-1.5-2.5-3.6-2.8-5.9v-27.8c0-0.3,0-0.6,0-0.9
		c-0.2-2.3-1.2-4.3-2.8-5.8c-1.7-1.7-4.1-2.8-6.8-2.8c-5,0-9,3.7-9.5,8.5c0,0.3-0.1,0.6-0.1,1v18.1c-0.5,4.8-4.6,8.5-9.5,8.5
		c-2.6,0-5-1.1-6.8-2.8c-1.7-1.7-2.8-4.1-2.8-6.7V51.6c0-16.3,13.3-29.5,29.7-29.5H101.4z"/>
	<g>
		<polygon fill="#FFC94E" points="160,34.3 168.2,50.8 186.5,53.4 173.2,66.3 176.4,84.3 160,75.8 143.6,84.3 146.8,66.3 
			133.5,53.4 151.8,50.8 		"/>
		<polygon fill="#EDEDED" points="226.9,34.3 235.1,50.8 253.4,53.4 240.1,66.3 243.3,84.3 226.9,75.8 210.5,84.3 213.7,66.3 
			200.4,53.4 218.7,50.8 		"/>
		<polygon fill="#EDEDED" points="293.8,34.3 302,50.8 320.3,53.4 307,66.3 310.2,84.3 293.8,75.8 277.4,84.3 280.6,66.3 
			267.3,53.4 285.6,50.8 		"/>
		<polygon fill="#EDEDED" points="360.7,34.3 368.9,50.8 387.2,53.4 373.9,66.3 377.1,84.3 360.7,75.8 344.3,84.3 347.5,66.3 
			334.2,53.4 352.5,50.8 		"/>
		<polygon fill="#EDEDED" points="427.6,34.3 435.8,50.8 454.1,53.4 440.9,66.3 444,84.3 427.6,75.8 411.2,84.3 414.4,66.3 
			401.1,53.4 419.4,50.8 		"/>
	</g>
	<rect x="101.4" y="22.2" fill="#EDEDED" width="4.1" height="76.8"/>
	<path fill="#FFC94E" d="M532.6,40.1c21.8,31.3-12.6,65.5-44.1,43.8c-1.2-0.8-2.2-1.8-3-3c-21.8-31.3,12.6-65.5,44.1-43.8
		C530.8,38,531.8,39,532.6,40.1z"/>
	<g>
		<path fill="#332532" d="M499.3,53.5c3.2,4.6-1.8,9.6-6.5,6.4c-0.2-0.1-0.3-0.3-0.5-0.5c-3.2-4.6,1.8-9.6,6.5-6.4
			C499,53.1,499.1,53.3,499.3,53.5z"/>
		<path fill="#332532" d="M525.8,53.5c3.2,4.6-1.8,9.6-6.5,6.4c-0.2-0.1-0.3-0.3-0.5-0.5c-3.2-4.6,1.8-9.6,6.5-6.4
			C525.5,53.1,525.7,53.3,525.8,53.5z"/>
	</g>
	<g>
		<path fill="#332532" d="M514.9,71.1c-1,0-1.8-0.8-1.8-1.8c0-2.2-1.8-4-4.1-4c-2.2,0-4.1,1.8-4.1,4c0,1-0.8,1.8-1.8,1.8
			c-1,0-1.8-0.8-1.8-1.8c0-4.2,3.5-7.6,7.7-7.6c4.2,0,7.7,3.4,7.7,7.6C516.7,70.3,515.9,71.1,514.9,71.1z"/>
	</g>
	<path fill="#00BCE9" d="M531.5,70.9c0,2.6-2.1,4.7-4.7,4.7c-2.6,0-4.7-2.1-4.7-4.7c0-2.6,4.7-10.4,4.7-10.4S531.5,68.4,531.5,70.9z
		"/>
</g>
</svg>
