<?xml version="1.0" encoding="utf-8"?>
<!-- Generator: Adobe Illustrator 18.1.1, SVG Export Plug-In . SVG Version: 6.00 Build 0)  -->
<svg version="1.1" xmlns="http://www.w3.org/2000/svg" xmlns:xlink="http://www.w3.org/1999/xlink" x="0px" y="0px"
	 viewBox="0 0 560 300" enable-background="new 0 0 560 300" xml:space="preserve">
<g id="Layer_4">
	<g>
		<path fill="#FFBB7D" d="M48.6,164.8c5.1-14.4,2-31.2,9.5-44.5c7.2-12.8,22.6-18.9,37.3-20s29.3,1.5,44,1.6
			c14.7,0,30.4-3.2,40.6-13.8c9.2-9.6,12.4-23.8,21.9-33.2C209.7,47,221,43.6,232,41c11-2.6,22.3-4.7,31.6-11.1
			c9.3-6.3,16-18.1,12.6-28.8c-2.5-8-10-13.5-18-16c-8-2.4-16.5-2.2-24.9-2C172.9-15,112.4-13.3,52-11.5C31.1-10.9,8.4-9.7-7.6,3.9
			c-15.1,12.9-20.3,33.9-22.2,53.6c-2.9,29.7-0.1,60,8,88.7c3.5,12.5,7.3,28.4,15.1,39c5.7,7.8,18.4,6.7,26.7,4.6
			C32.7,186.5,44.1,177.3,48.6,164.8z"/>
	</g>
	<g>
		<path fill="#FFBB7D" d="M507.3,138.9c-5.1,14.4-1.8,31.2-9.2,44.6c-7.1,12.8-22.5,19-37.1,20.2c-14.6,1.3-29.3-1.4-44-1.3
			c-14.7,0-30.4,3.3-40.5,14c-9.1,9.7-12.3,23.9-21.7,33.3c-7.9,8-19.3,11.4-30.2,14c-10.9,2.6-22.3,4.9-31.6,11.2
			c-9.3,6.4-15.9,18.2-12.5,28.9c2.6,8,10.1,13.5,18.1,15.9c8,2.4,16.5,2.1,24.9,1.8c60.4-2.1,120.9-4.1,181.3-6.2
			c20.9-0.7,43.7-2.1,59.5-15.8c15-13,20.1-34,21.9-53.7c2.7-29.7-0.2-60-8.5-88.7c-3.6-12.4-7.5-28.4-15.3-38.9
			c-5.7-7.8-18.5-6.6-26.7-4.4C523,117,511.7,126.3,507.3,138.9z"/>
	</g>
</g>
<g id="Layer_3">
	<g>
		<g>
			<path fill="#F1AAB2" d="M321.4,201.2c-2.3,4.3-2.6,8.7-3.9,13.3c-1.6,5.7-0.8,11.8,0.2,17.5c2.4,12.5,8.6,24.7,18.3,33.1
				c4.6,4,10.2,6.1,16.2,4.1c12.3-4.2,22.8-17.2,29.2-28.1"/>
		</g>
		<g>
			<path fill="#F1AAB2" d="M368.9,185.8c-4.2,7.2-9.4,13.7-15.6,19.3c6.4,4.2,13.1,7.8,20.1,10.9c9.2-9.9,16.7-21.5,21.9-34"/>
		</g>
		<g>
			<path fill="#525798" d="M415.8,247.9c3.9,1.4,7.6,3.6,11.6,4.8c5.6,1.6,11.7,1.1,17.4-0.2c10.2-2.3,20-7.3,26.6-15.4
				c3.8-4.6,6.5-10.1,8.5-15.7c1.8-4.9,3.2-10,3.1-15.1c-0.1-7.3-3.2-14.4-7.9-19.9c-8.6-10.2-21-15.5-33.5-18.7
				c-2.7-0.7-4.2-1.2-6.9-0.4c-2.2,0.7-3.8,2.4-6.3,2.5c-5.1,0.2-9.7-2.8-14.2-5.3c-9.4-5.2-20.3-2.5-29.2,2.9
				c-9.2,5.6-16.1,14.5-21,24.1c6.8,6.1,17.1,4.9,26.2,5.7c2.6,0.2,5.4,0.7,7.5,2.3c2.8,2.1,4.1,5.8,4.1,9.3c0,3.5-1,6.9-2.1,10.3
				c-1.9,6.2-3.1,11.8-2.5,18.4c0.2,1.8,0.5,3.5,1.4,5.1C402.1,248.3,410.3,245.9,415.8,247.9z"/>
		</g>
		<g>
			<path fill="#FFC364" d="M447.4,251.7c0.5-0.1,1-0.3,1.6-0.5c0.2-0.1,0.4-0.1,0.6-0.2c0.5-0.2,1.1-0.4,1.6-0.5
				c0.2-0.1,0.3-0.1,0.5-0.2c0.7-0.3,1.4-0.5,2.1-0.8c1.5-0.6,2.9-1.3,4.3-2c0,0,0.1-0.1,0.1-0.1c0.6-0.3,1.3-0.7,1.9-1.1
				c0.1,0,0.1-0.1,0.2-0.1c0.7-0.4,1.3-0.8,1.9-1.2c1-3.2,1.7-6.5,1.5-9.8c-0.3-5.6-3-10.7-5-16c-5.6-14.9-5.5-30.8-0.2-45.6
				c-2.2-1.1-4.4-2-6.6-2.9c-0.1,0.2-0.3,0.5-0.4,0.7c-5,9.6-4.9,21-8.7,31.2c-6.5-0.3-13.4-0.6-19.8-1.9c-2.4-0.5-4.9-1.2-7.2-2
				c-2.2-0.7-4.4-1.9-6.7-2.4c-1.7-0.4-3.3-0.1-5.1-0.7c-2.1-0.7-4-1.6-5.9-2.8c-0.2-0.1-0.3-0.2-0.4-0.4c-0.1-0.2-0.1-0.4-0.1-0.6
				c0.4-8.7,1.8-17.7,4.8-25.9c0.1-0.4,0.9-2.8,1.6-4.4c-2.8-0.1-5.6,0.2-8.4,1c-3.1,9.2-6.9,18.4-8.7,27.9c-0.2,1-0.4,2.1-0.5,3.1
				c-0.2,1.7,0,1.8,1.6,2.2c1.5,0.4,3.1,0.6,4.5,1.3c0.3,0.2,0.6,0.3,1,0.5c1.5,0.3,2.9,0.9,4.1,1.8c0.4,0.3,0.8,0.7,1.2,1.1
				c1.2,0.6,2.5,1,3.8,1.1c-0.8,0.1-1.5,0.8-2.3,1c0.1,0.2,0.2,0.5,0.3,0.7c0.7,1.7,1.1,3.5,1.1,5.3c0,0.4,0,0.8,0,1.2
				c-0.1,4-1.3,7.9-2.8,11.7c-5.2,13.4,1.2,30.2,14.9,35.5c5.9,2.2,12.6,2.2,18.5,0c2.2-0.8,3.9-2.3,6-3.2c2.6-1.2,5.7-1.3,8.5-2
				C447,251.9,447.2,251.8,447.4,251.7z"/>
		</g>
		<g>
			<path fill="#657DDD" d="M445.3,168.7c-1.3-0.4-2.5-0.7-3.8-1c-2.7-0.7-4.2-1.2-6.9-0.4c-2.2,0.7-3.8,2.4-6.3,2.5
				c-5.1,0.2-9.7-2.8-14.2-5.3c-0.9-0.5-1.7-0.9-2.6-1.2c-1.7,5.3,0.2,11.6,4.5,15.3c4.9,4.2,12.3,4.8,18.2,2.1
				C439.3,178.3,443.2,173.8,445.3,168.7z"/>
		</g>
		<g>
			<path fill="#3B4272" d="M376.4,201.3c0.3,0.1,1.6-7.2,4.6-15.7c2.9-8.5,6.5-15,6.2-15.1c-0.1-0.1-1.2,1.5-2.6,4.1
				c-1.4,2.6-3.1,6.4-4.6,10.7c-1.5,4.3-2.5,8.3-3,11.3C376.4,199.4,376.3,201.3,376.4,201.3z"/>
		</g>
		<g>
			<g>
				<path fill="#FF65A7" d="M386.7,173.9c-1.3-2.5-3-4.7-5.4-6.2c-5.6-3.6-12.2-0.8-15.9,4.2c-5.2-3.3-12.4-3.7-16.4,1.6
					c-1.7,2.2-2.5,4.9-2.9,7.7c-0.7,5.7,0.8,11.6,3.6,16.6c1.6,3,3.8,5.7,6.7,7.5c2.9,1.8,6.6,2.4,9.7,1.1c1.9-0.8,3.4-2.2,4.8-3.7
					c1.9,0.9,3.8,1.7,5.8,1.7c3.4,0.1,6.6-1.8,8.7-4.4c2.1-2.7,3.1-6,3.7-9.4C390,185,389.4,179,386.7,173.9z"/>
			</g>
			<g>
				<path fill="#AC6C45" d="M367.4,179.2c0.4-0.1-1.6-4.7-1.8-10.6c-0.3-5.9,1.3-10.6,0.9-10.7c-0.1-0.1-0.7,1.1-1.3,3
					c-0.5,1.9-1,4.7-0.8,7.8c0.1,3.1,0.8,5.8,1.5,7.7C366.6,178.2,367.3,179.3,367.4,179.2z"/>
			</g>
			<g>
				<path fill="#AC6C45" d="M373.3,174.3c-0.1,0-0.5,0.7-1.4,1.6c-0.9,0.9-2.3,2-4.2,2.5c-1.9,0.5-3.7,0.3-4.9,0
					c-1.2-0.3-2-0.7-2-0.7c0,0.1,0.6,0.6,1.9,1.1c1.3,0.5,3.2,0.7,5.2,0.2c2-0.6,3.5-1.8,4.4-2.8
					C373.1,175.1,373.4,174.3,373.3,174.3z"/>
			</g>
		</g>
		<g>
			<path fill="#F1AAB2" d="M429.7,175.5c3.7-0.7,7.7-2.9,8.2-6.8c0.7-5.1-0.2-10.2-0.6-15.3c-0.4-5.7-0.3-11.4,0.4-17.1
				c-2.9,0.8-6.1,0.1-9.1,0.7c-3.8,0.7-7.5,1.8-11.2,2.8c-0.2,0.1-0.5,0.1-0.7,0.3c-0.2,0.2-0.3,0.5-0.4,0.8
				c-1.1,5-1.6,10.1-1.7,15.2c-0.1,4.3-1.5,9.7,0.9,13.6c1.9,3.2,6.6,5,10.2,5.7C427,175.8,428.3,175.8,429.7,175.5z"/>
		</g>
		<g opacity="0.16">
			<path fill="#FF65A7" d="M431.8,160.7c2.3-0.7,4.1-1.8,5.9-3.1c-0.1-1.4-0.3-2.8-0.4-4.1c-0.4-5.7-0.3-11.4,0.4-17.1
				c-2.9,0.8-6.1,0.1-9.1,0.7c-3.8,0.7-7.5,1.8-11.2,2.8c-0.2,0.1-0.5,0.1-0.7,0.3c-0.2,0.2-0.3,0.5-0.4,0.8
				c-1.1,5-1.6,10.1-1.7,15.2c-0.1,1.7-0.3,3.5-0.4,5.4C420,162.5,426.1,162.5,431.8,160.7z"/>
		</g>
		<g>
			<path fill="#484F87" d="M425,69.7c-1.6-3.2-2.5-6.7-2.4-10.3c0.1-3.6,1.4-7.1,3.8-9.7c3.9-4.4,10.3-5.6,16.2-5.6
				c4,0,8.1,0.5,11.8,1.9c3.7,1.4,7.2,3.9,9.4,7.2c1.1,1.7,1.9,3.7,2.6,5.6c1.1,3.1,2,6.5,1.2,9.8c-0.7,3.1-2.9,5.7-5.5,7.6
				c-2.6,1.9-5.5,3.2-8.5,4.4"/>
		</g>
		<g>
			<g>
				<path fill="#FF65A7" d="M441,72.3c0.1,0,0.6-0.7,1.3-2c0.8-1.4,1.8-3.4,2.8-6c1-2.6,1.9-5.8,2.3-9.5c0.2-1.8,0.2-3.8-0.1-5.8
					c-0.1-0.5-0.2-1-0.2-1.5c-0.1-0.5-0.2-1-0.3-1.5c-0.1-0.5-0.3-1.1-0.5-1.6c-0.3-0.5-0.7-1.1-1.4-1.4c-0.7-0.3-1.5-0.1-2,0.3
					c-0.5,0.4-0.9,0.9-1.2,1.4c-0.3,0.5-0.5,1-0.6,1.5c-0.1,0.5-0.3,1-0.4,1.5c-0.6,1.9-1,3.8-1.3,5.6c-0.6,3.6-0.7,7-0.6,9.7
					c0.1,2.8,0.4,5,0.7,6.5c0.3,1.5,0.6,2.3,0.6,2.3c0.2,0-0.5-3.4-0.5-8.9c0-2.7,0.2-6,0.9-9.5c0.3-1.8,0.7-3.6,1.3-5.5
					c0.3-0.9,0.5-1.9,1-2.7c0.2-0.4,0.5-0.8,0.8-1c0.3-0.2,0.6-0.3,0.9-0.2c0.6,0.2,1,1.2,1.2,2.1c0.1,0.5,0.2,1,0.3,1.4
					c0.1,0.5,0.2,1,0.2,1.4c0.2,1.9,0.2,3.8,0.1,5.6c-0.3,3.6-1.1,6.7-2,9.3c-0.9,2.6-1.8,4.6-2.4,6C441.2,71.5,440.9,72.3,441,72.3
					z"/>
			</g>
			<g>
				<path fill="#FF65A7" d="M438.7,73.9c0-0.1-0.7-0.6-2-1.5c-1.3-0.9-3.2-2.3-5.3-4.1c-2.1-1.9-4.5-4.3-6.6-7.4
					c-1-1.5-2-3.3-2.7-5.1c-0.4-0.9-0.7-1.9-1-2.9c-0.2-0.9-0.3-2,0.2-2.6c0.4-0.6,1.4-0.6,2.3-0.2c0.9,0.4,1.8,1,2.6,1.5
					c1.6,1.2,3,2.5,4.2,3.9c2.4,2.8,4,5.8,5.2,8.4c1.2,2.6,2.1,4.7,2.7,6.2c0.6,1.5,1,2.3,1.1,2.3c0.1,0-0.1-0.9-0.6-2.4
					c-0.5-1.5-1.2-3.7-2.4-6.4c-1.1-2.6-2.7-5.8-5.2-8.7c-1.2-1.5-2.7-2.9-4.4-4.2c-0.9-0.6-1.7-1.2-2.8-1.7
					c-0.5-0.2-1.1-0.4-1.8-0.4c-0.7,0-1.4,0.4-1.8,1c-0.4,0.6-0.6,1.3-0.6,1.9c0,0.6,0.1,1.2,0.2,1.7c0.3,1.1,0.6,2.1,1.1,3
					c0.8,1.9,1.8,3.7,2.9,5.3c2.2,3.2,4.7,5.6,6.9,7.4c2.2,1.8,4.2,3.1,5.6,3.9C437.9,73.6,438.7,74,438.7,73.9z"/>
			</g>
		</g>
		<g>
			<path fill="#525798" d="M464.7,119.8c2.8-10.9,3.5-22.4,2-33.6c-0.7-4.7-2.8-7.7-6.7-10.4c-3.5-2.5-7.7-3.8-11.9-4
				c-1.6-0.1-2.9,0-4.1-0.9c-1.1-0.9-1.8-2.2-3.1-3c-2.5-1.6-5.5-2.3-8.5-2.5c-4.7-0.2-9.5,0.9-14.2,0.4c-4.8-0.5-9.3-2.6-14.1-3
				c-4.2-0.3-8.9,1.2-12.6,3.2c-7.5,4-15.2,14.4-12.1,23.5c0.5,1.6,1.4,3,1.5,4.7c0.2,2.6-1.5,4.9-2.8,7.1
				c-2.6,4.3-4.3,9.4-3.5,14.4c0.8,5,4.4,9.7,9.3,10.5"/>
		</g>
		<g>
			<path fill="#E29CA6" d="M390.1,110.7c-4-0.3-8,2.4-9.2,6.2c-0.7,2.3-0.5,4.7-0.1,7c0.5,2.6,1.5,5.2,3,7.4
				c1.6,2.2,3.9,3.9,6.5,4.5"/>
		</g>
		<g>
			<g>
				<path fill="#AD597F" d="M391.6,132.6c0.2,0,0.3-1.1,0.2-2.9c0-1.8-0.3-4.3-1.2-6.9c-0.9-2.6-2.5-4.7-4-5.8
					c-1.4-1.2-2.6-1.4-2.6-1.3c-0.1,0.2,0.9,0.7,2.1,1.9c1.2,1.2,2.6,3.2,3.4,5.6c0.9,2.5,1.2,4.8,1.5,6.6
					C391.3,131.5,391.4,132.6,391.6,132.6z"/>
			</g>
			<g>
				<path fill="#AD597F" d="M386.7,128.7c0.3-0.1-0.2-2.3,0.1-4.9c0.2-2.7,1.2-4.7,0.9-4.8c-0.1-0.1-0.6,0.3-1,1.2
					c-0.5,0.8-0.9,2.1-1.1,3.6c-0.1,1.5,0.1,2.8,0.3,3.7C386.2,128.3,386.5,128.8,386.7,128.7z"/>
			</g>
		</g>
		<g>
			<path fill="#F1AAB2" d="M440.1,152.5c7.1-4,12.1-10.3,14.7-19.2c0,0.1,6.3-0.6,7-0.9c4.7-2.2,8-7,8.2-12
				c0.2-4.7-1.1-9.7-5.3-12.2c-2.4-1.4-5.4-1.7-8.1-0.9c0.5-7.1,0.1-12.6-3.8-18.9c-3.7-6.1-10.6-11.5-17.8-11.8
				c-8.4-0.4-17.2-2.4-25.3,0.7c-6.4,2.5-12.3,7.3-15.9,13.3c-2.1,3.6-2.2,6.5-2.8,10.5c-1.5,9.9-2.5,20-1.3,30
				c0.7,5.8,2.4,12.1,6.4,16.4c8.2,8.7,21.1,11.2,32.5,9C432.9,155.7,436.7,154.4,440.1,152.5z"/>
		</g>
		<path fill="#FFFFFF" d="M412.3,131.6c1,1.9,2.8,3.1,4.7,2.8c2.3-0.3,3.9-2.8,3.9-5.6C418.1,130.1,415.2,131.1,412.3,131.6z"/>
		<g opacity="0.16">
			<path fill="#FF65A7" d="M401.3,82.1c-2.1,1.2-4.3,2.4-5.7,4.3c-3.4,4.6,0,7.8,4.6,8.5c4.1,0.6,8.3-0.7,11.9-2.8
				c0.6,3.6,4,6.2,7.6,6.7c4.9,0.7,7.4-2.1,11.5-3.6c-1,0.4,4.3,9.9,4.9,10.8c2.3,3,6,6.2,9.8,7c8.6,1.7,3.9-17.4,2.5-20.7
				c-2.1-4.9-3.9-9.8-8.9-12.6c-2.9-1.7-6.3-2.2-9.5-2.6c-7.4-1.1-14.8-2.1-22.2-3.2"/>
		</g>
		<ellipse opacity="0.16" fill="#FF65A7" cx="437.4" cy="130.6" rx="10.8" ry="9.6"/>
		<path opacity="0.16" fill="#FF65A7" d="M389.7,131.1c0.5,3.9,1.4,8,3.2,11.6c4.9-0.4,9-3.9,9.5-8.4c0.6-5.3-3.8-10.1-9.7-10.7
			c-1.2-0.1-2.3-0.1-3.4,0.1C389.2,126.1,389.4,128.6,389.7,131.1z"/>
		<g>
			<path fill="#525798" d="M393.5,77.8c-2.4,2.3-2.2,6.8,0.1,9.3c2.2,2.5,5.8,3.3,9,2.9c3.2-0.4,6.2-2,9.2-3.4
				c1.3-0.7,2.6-1.3,3.9-2c-1.4,2.6-0.3,6.1,2,7.8c2.3,1.7,5.4,1.8,8.1,1c2.7-0.8,5.1-2.5,7.5-4.1c0.8,8.5,5.4,16.5,12,21.2
				c1.5,1.1,3.1,2,4.9,2.3c1.8,0.3,3.7,0,5.1-1.1c2.5-2.1,2.6-5.9,2.4-9.3c-0.2-3.9-0.6-7.9-1.7-11.6c-1.1-3.8-3-7.3-5.8-9.9
				c-2.6-2.4-6-3.7-9.3-4.8c-8.1-2.5-16.6-3.2-25-3.6c-7.4-0.3-15.4-0.2-21.6,4.1"/>
		</g>
		<g>
			<path fill="#E5A548" d="M455.6,207.5c-2.3,0.2-4.9,0.4-7.7,0.5c0.2-1.1,0.4-2.9,0.7-5.2c0.6-3.9,1.5-9.2,3-15
				c1.5-5.8,3.3-10.9,4.8-14.5c0.1-0.1,0.1-0.3,0.2-0.4c-0.2-0.1-0.5-0.2-0.7-0.3c-0.1,0.1-0.1,0.3-0.2,0.4
				c-1.6,3.6-3.6,8.7-5.1,14.6c-1.5,5.8-2.4,11.3-2.7,15.2c-0.2,2.4-0.3,4.2-0.3,5.3c-6.2,0.1-13.2-0.2-20.6-1.4
				c-11.4-1.7-21.5-4.6-29-7c0.3,0.3,0.7,0.6,1,0.9c1.2,0.6,2.5,1,3.8,1.1c-0.2,0-0.5,0.1-0.7,0.2c6.9,2.2,15.3,4.5,24.7,5.9
				c7.5,1.1,14.6,1.5,20.8,1.2c0,0.1,0,0.1,0,0.1c0,0,0,0,0.1-0.1c2.9-0.1,5.6-0.3,8-0.6C455.7,208.1,455.6,207.8,455.6,207.5z"/>
			<path fill="#E5A548" d="M393.5,197.5c0,0,0.1,0,0.1,0.1c0.1,0,0.1,0,0.2,0.1c0.2-1.1,0.4-3,0.7-5.5c0.5-4,1.4-9.5,2.6-15.6
				c1.2-5.8,2.6-11,3.7-14.9c-0.3,0-0.6,0-0.9,0.1c-1.3,3.8-2.7,8.9-3.9,14.6c-1.3,6.1-2,11.7-2.3,15.7
				C393.6,194.5,393.5,196.4,393.5,197.5z"/>
		</g>
		<g>
			
				<ellipse transform="matrix(0.7656 0.6433 -0.6433 0.7656 219.8324 -207.9557)" fill="#DCA146" cx="395.3" cy="197.7" rx="17.7" ry="41.4"/>
			<g>
				<path fill="#A5712B" d="M421.4,181.9c0-0.6-4.8-1-10.3-2.8c-5.6-1.8-9.7-4.3-10-3.8c-0.2,0.2,0.7,1.2,2.3,2.3
					c1.6,1.2,4.1,2.5,7,3.5c2.9,1,5.7,1.3,7.7,1.4C420.2,182.4,421.4,182.2,421.4,181.9z"/>
			</g>
			<g>
				<path fill="#A5712B" d="M415.4,194.8c0-0.6-6.6-0.5-14.2-2.6c-7.7-1.9-13.3-5.2-13.7-4.6c-0.1,0.2,1.1,1.3,3.4,2.7
					c2.3,1.4,5.7,2.9,9.7,3.9c4,1,7.7,1.3,10.4,1.3C413.8,195.4,415.4,195,415.4,194.8z"/>
			</g>
			<g>
				<path fill="#A5712B" d="M399.2,209.7c0.1-0.6-4.6-1.8-9.8-4.3c-5.3-2.5-9.1-5.4-9.5-4.9c-0.2,0.2,0.6,1.2,2.1,2.6
					c1.5,1.3,3.8,2.9,6.6,4.3c2.8,1.3,5.5,2.1,7.4,2.4C397.9,210,399.2,209.9,399.2,209.7z"/>
			</g>
			<g>
				<path fill="#A5712B" d="M390.4,219.8c0-0.6-4.7-1.1-9.8-3.6c-5.1-2.4-8.5-5.8-8.9-5.4c-0.2,0.2,0.4,1.3,1.7,2.7
					c1.3,1.5,3.5,3.2,6.3,4.5c2.8,1.3,5.5,1.9,7.5,2.1C389.2,220.3,390.4,220,390.4,219.8z"/>
			</g>
			<g opacity="0.19">
				<path fill="#DCA146" d="M368.7,229.4c3.5,3,9.4,2.5,16.2-0.7c0.1-0.3,0.3-0.6,0.4-0.9c3.8-9.7,1.1-21,4.2-31
					c1.6-5.4,4.9-10.1,8.4-14.4c5.8-7,12.6-13.2,20.1-18.2c-8.8-1.6-23.7,7.2-36.2,22.1C367.1,203.8,361.2,223.1,368.7,229.4z"/>
			</g>
		</g>
		<g>
			<path fill="#8DC0EF" d="M363.3,237.8l-21.6,5.9c-3.2,0.9-6.6-1-7.5-4.3l-14-51.4c-1.8-6.4,2-13.1,8.5-14.8l10-2.7
				c6.4-1.8,13.1,2,14.8,8.5l14,51.4C368.4,233.6,366.5,236.9,363.3,237.8z"/>
			
				<rect x="325.7" y="144.3" transform="matrix(0.9647 -0.2633 0.2633 0.9647 -30.9543 92.8779)" fill="#8DC0EF" width="10.5" height="35.3"/>
			<path fill="#FFC364" d="M352.7,228.6l-6.4,1.8c-3.8,1-7.8-1.2-8.9-5.1l-8.7-32c-1-3.8,1.2-7.8,5.1-8.9l6.4-1.8
				c3.8-1,7.8,1.2,8.9,5.1l8.7,32C358.8,223.6,356.5,227.6,352.7,228.6z"/>
			<path fill="#FF65A7" d="M336,155.7l-12.5,3.4l-2.8-10.3c-0.5-1.9,0.6-3.9,2.5-4.4l5.7-1.5c1.9-0.5,3.9,0.6,4.4,2.5L336,155.7z"/>
		</g>
		<g>
			<path fill="#657DDD" d="M316.6,199.3l10.2,48.8c0.7,3.4,3.7,5.9,7.2,5.9H414c3.5,0,6.5-2.5,7.2-5.9l10.2-48.8H316.6z"/>
			<path fill="#4C68C1" d="M433,204H315c-2.4,0-4.3-1.9-4.3-4.3v-2.1c0-2.4,1.9-4.3,4.3-4.3h118c2.4,0,4.3,1.9,4.3,4.3v2.1
				C437.3,202.1,435.4,204,433,204z"/>
			<g>
				<path fill="#4C68C1" d="M338.2,248.4L338.2,248.4c-1.2,0-2.1-1-2.1-2.1v-33.4c0-1.2,1-2.1,2.1-2.1l0,0c1.2,0,2.1,1,2.1,2.1v33.4
					C340.3,247.4,339.3,248.4,338.2,248.4z"/>
				<path fill="#4C68C1" d="M356.1,248.4L356.1,248.4c-1.2,0-2.1-1-2.1-2.1v-33.4c0-1.2,1-2.1,2.1-2.1l0,0c1.2,0,2.1,1,2.1,2.1v33.4
					C358.2,247.4,357.3,248.4,356.1,248.4z"/>
				<path fill="#4C68C1" d="M374,248.4L374,248.4c-1.2,0-2.1-1-2.1-2.1v-33.4c0-1.2,1-2.1,2.1-2.1l0,0c1.2,0,2.1,1,2.1,2.1v33.4
					C376.1,247.4,375.2,248.4,374,248.4z"/>
				<path fill="#4C68C1" d="M391.9,248.4L391.9,248.4c-1.2,0-2.1-1-2.1-2.1v-33.4c0-1.2,1-2.1,2.1-2.1l0,0c1.2,0,2.1,1,2.1,2.1v33.4
					C394,247.4,393.1,248.4,391.9,248.4z"/>
				<path fill="#4C68C1" d="M409.8,248.4L409.8,248.4c-1.2,0-2.1-1-2.1-2.1v-33.4c0-1.2,1-2.1,2.1-2.1l0,0c1.2,0,2.1,1,2.1,2.1v33.4
					C412,247.4,411,248.4,409.8,248.4z"/>
			</g>
			<g>
				<path fill="#FFC364" d="M386.9,235.4L386.9,235.4c-1.7,0.6-3.5-0.3-4.1-2l-10.3-29.6c-0.6-1.7,0.3-3.5,2-4.1l0,0
					c1.7-0.6,3.5,0.3,4.1,2l10.3,29.6C389.5,233,388.6,234.8,386.9,235.4z"/>
				<circle fill="#FFC364" cx="374" cy="198.7" r="7.9"/>
				<circle fill="#4C68C1" cx="374" cy="198.7" r="4.8"/>
			</g>
		</g>
		<g>
			<path fill="#F1AAB2" d="M486.8,207.8c-0.4-1.3-0.8-2.5-1.3-3.8c-2.6-6.7-7.7-16.4-14.5-19.7c-7.2-3.6-12.9,6.6-14.4,12.1
				c-3.6,12.9,0,27.6-6.4,39.3c-5.8,10.6-18.6,15.9-30.7,16.1c-8.4,0.1-16.5-2-24.6-4.2c-3.9,6.6-7.2,13.8-8.7,21.2
				c1.5,0.8,2.8,1.5,3.1,1.7c4.1,2,8.4,3.7,12.7,5c19,5.5,37.6,8.2,56.8,2.2C487.2,268.9,494.8,233.6,486.8,207.8z"/>
		</g>
		<g>
			<path fill="#525798" d="M487.1,207.6c-0.4-1.3-0.8-2.6-1.3-3.8c-2.6-6.7-7.8-16.5-14.6-19.9c-7.3-3.6-13,6.7-14.6,12.3
				c-3.6,13,0,27.9-6.5,39.7c-2.6,4.8-6.6,8.5-11.4,11.2c8.8,10.6,20.9,18.1,33.6,24C489.7,256.7,493.7,228.9,487.1,207.6z"/>
		</g>
		<g>
			<path fill="#FFFFFF" d="M443.3,243.5c0.1,0.1,0.8-0.6,2.2-1.8c1.3-1.3,3.2-3.1,5.2-5.8c0.9-1.4,1.9-3,2.6-4.8
				c0.7-1.8,1.2-3.9,1.5-6c0.6-4.3,0.9-9.1,1.2-14c0.3-5,0.8-9.7,1.7-13.8c0.9-4.1,2.6-7.7,4.8-10c2.2-2.3,4.8-3.1,6.6-3.4
				c0.4,0,0.8-0.1,1.2-0.1l0.9,0c0.5,0,0.7,0,0.7-0.1c0,0-0.2-0.1-0.7-0.2l-0.9-0.1c-0.4,0-0.8,0-1.2,0c-0.5,0-1,0.1-1.5,0.2
				c-0.6,0.1-1.2,0.3-1.8,0.5c-1.3,0.5-2.6,1.3-3.8,2.5c-2.4,2.3-4.3,6-5.3,10.3c-1,4.3-1.5,9-1.8,14c-0.3,5-0.5,9.7-1.1,14
				c-0.5,4.2-1.9,7.8-3.7,10.5c-1.8,2.7-3.6,4.6-4.8,6C443.9,242.7,443.2,243.5,443.3,243.5z"/>
		</g>
		<g>
			<path fill="#F1AAB2" d="M317.4,213.9c0.8-4,3.2-7.8,6.4-10.3c3.3-2.5,7.5-3.7,11.6-3.4c2.5,0.2,5.2,1.2,6.1,3.5
				c-1.1,0.3-2.2,0.2-3.3,0c-3.2-0.4-6.6-0.5-9.4,1.1c1.2,0.1,2.3,0.1,3.5,0.2c2.1,0.1,4.2,0.2,6.1,1c1.9,0.8,3.6,2.3,4.1,4.3
				c-0.3,0.2-0.7,0.2-1.1,0.1c-2.6-0.4-5-1.3-7.6-1.7c-2.6-0.3-5.5,0.1-7.2,2c3.8-0.5,7.7,0.2,11.1,1.8c0.9,0.4,1.9,1,2.1,2
				c0,0.2,0.1,0.4,0,0.5c-0.2,0.3-0.6,0.2-0.9,0.1c-4.3-1.2-9.1-2.1-13.1-0.1c2.5,0.5,5.1,1.1,7.4,2.2c1.1,0.5,2.3,1.2,2.7,2.3
				c0.1,0.2,0.1,0.4,0.1,0.6c-0.1,0.3-0.5,0.4-0.9,0.4c-2.9,0.2-5.8-1.4-8.6-0.7c-0.5,0.1-0.9,0.3-1.1,0.7c-0.1,0.3-0.1,0.6-0.1,0.9
				c0.4,4,1.1,8,0.6,11.9c-0.2,1.5-0.6,3-1.7,4c-1.1,1-3,1.1-3.9,0"/>
		</g>
		<g>
			<path fill="#F1AAB2" d="M392.4,271.5c-3.3-0.4-6.5-2-8.7-4.5c-2.5-2.7-2.9-5.7-3.7-9c-0.6-2.3-0.9-4.5-1-6.9
				c-0.1-2.3-0.6-4.6-1.6-6.7c-1.2-2.7-3.1-4.7-5-7c-0.3-0.4-0.6-0.9-0.3-1.3c0.2-0.2,0.4-0.3,0.7-0.3c0.9-0.1,1.8,0.2,2.6,0.7
				c2,1.3,3.4,2.9,4.4,5c0.9,1.8,2.4,5,2,7c0.7-3.6,0-7.5-1.8-10.7c-0.8-1.5-2-2.9-3-4.2c-1-1.4-2.6-2.2-3.1-3.9
				c-0.1-0.4-0.2-0.8,0-1.1c1.2-2.3,7.2,4.2,8,5.2c1.1,1.5,2,3.1,2.7,4.8c0.5,1.3,1.7,3.6,1.5,5c0.5-3.8-0.9-7.6-2.5-11
				c-0.7-1.4-1.1-2.6-1.6-4c-0.6-1.7-1.6-3.3-2.3-5c-0.1-0.3-0.3-0.6-0.2-1c0-0.3,0.2-0.7,0.6-0.8c0.2,0,0.4,0,0.5,0.1
				c1.8,0.6,3,2.1,3.9,3.6c2.3,3.9,3.9,8.3,4.7,12.8c-0.1-0.6,0.5-1.9,0.6-2.6c0.1-1,0.2-2.1,0.2-3.1c0-2.3-0.5-4.6-0.7-6.9
				c0-0.3,0-0.5,0-0.8c0.1-0.3,0.3-0.5,0.6-0.4c0.2,0,0.4,0.2,0.5,0.3c1.4,1.6,1.5,3.2,1.9,5.2c0.6,3.1,0.8,6.6,1.8,9.5
				c1.4,3.9,3.3,7.4,7.2,9.3c2.1,1,4.4,1.4,6.7,1.9c2.6,0.6,5.2,1,7.9,1.3c0.3,0,0.6,0.1,0.9,0.1"/>
		</g>
		<g opacity="0.16">
			<path fill="#FF65A7" d="M468.1,115.1c0.2,0.5,0.3,1,0.3,1.5c0,3.5-1,7.3-3.4,9.8c-1.9,2-4.7,3.3-7.5,3.4c-0.4,0-0.8,0-1.1-0.2
				c-0.2-0.2-0.4-0.4-0.5-0.6c-1-2-1.2-4.8-1.1-7c0.1-2.8,1.1-5.7,3-7.8c1.4-1.5,3.4-2.7,5.5-2.8C465.4,111.1,467.4,113,468.1,115.1
				z"/>
		</g>
		<g>
			<g>
				<g>
					<path fill="#AD597F" d="M464.3,111.3c0-0.1-1.4-0.2-3.4,0.7c-2,0.9-4.6,3-5.8,6.2c-0.6,1.6-0.8,3.3-0.7,4.7
						c0,1.5,0.3,2.7,0.5,3.8c0.5,2.1,1.1,3.3,1.2,3.3c0.2,0-0.1-1.3-0.4-3.4c-0.3-2.1-0.6-5,0.5-7.9c1.1-2.9,3.3-4.9,5-5.9
						C463,111.7,464.3,111.4,464.3,111.3z"/>
				</g>
				<g>
					<path fill="#AD597F" d="M459.1,128.5c0.2,0,0.5-0.7,1-1.9c0.4-1.2,1-3,1-5.1c0-2.1-0.8-3.9-1.6-5c-0.8-1.1-1.5-1.6-1.6-1.5
						c-0.1,0.1,0.4,0.8,0.9,1.9c0.5,1.1,1.1,2.7,1.2,4.6c0,1.9-0.3,3.6-0.6,4.9C459.1,127.6,459,128.4,459.1,128.5z"/>
				</g>
			</g>
			<g>
				<path fill="#AD597F" d="M417.8,124.8c-0.1-0.1-1.4,1.1-4.2,1.8c-0.7,0.2-1.4,0.3-2.2,0.3c-0.4,0-0.8,0-1.1-0.1
					c-0.2,0-0.3-0.2-0.3-0.2c0,0,0,0,0.1-0.1c1.5-1.1,3.1-2.7,3.9-4.9c0.7-2.2,0.4-4.4,0.1-6.3c-0.3-1.9-0.8-3.5-1.1-4.9
					c-0.8-2.7-1.4-4.4-1.5-4.4c-0.1,0,0.3,1.8,0.9,4.5c0.3,1.4,0.7,3,0.9,4.9c0.3,1.8,0.6,3.9-0.1,5.8c-0.3,1-0.9,1.8-1.5,2.6
					c-0.6,0.8-1.3,1.4-2.1,2c-0.2,0.2-0.5,0.7-0.2,1.1c0.2,0.4,0.5,0.5,0.8,0.6c0.2,0.1,0.6,0.1,0.8,0.1c0.2,0,0.4,0,0.7,0
					c0.9,0,1.7-0.2,2.4-0.4c1.4-0.4,2.4-1,3.1-1.5C417.6,125.2,417.9,124.9,417.8,124.8z"/>
			</g>
			<g>
				
					<ellipse transform="matrix(5.027006e-002 0.9987 -0.9987 5.027006e-002 501.5773 -291.4875)" fill="#AD597F" cx="404.1" cy="118" rx="3.4" ry="0.6"/>
			</g>
			<g>
				<ellipse fill="#AD597F" cx="427.3" cy="116.2" rx="0.6" ry="3.4"/>
			</g>
			
				<ellipse transform="matrix(0.9533 0.3019 -0.3019 0.9533 50.7517 -124.632)" fill="#AD597F" cx="428.6" cy="101.9" rx="6.7" ry="2.9"/>
			
				<ellipse transform="matrix(0.973 -0.2308 0.2308 0.973 -12.7852 95.3338)" fill="#AD597F" cx="401.1" cy="102.3" rx="6.7" ry="2.9"/>
		</g>
	</g>
</g>
<g id="Layer_1">
	<g id="Layer_2">
	</g>
	<g>
		<path fill="#FFFFFF" d="M325.6,87.1H102.7h-6.8h-19v41.6h18.6h7.2h237.2v-25.6C339.9,94.2,333.5,87.1,325.6,87.1z"/>
		<path fill="#F05161" d="M340.6,82.8h-47.3c-2.4,0-4.6,2-4.8,4.8c-0.1,1.6,0.4,3,1.3,4c0.7,0.8,1.7,1.4,2.8,1.5h13.5
			c0.1,0,0.3,0,0.4,0c1.1,0.1,2.1,0.7,2.8,1.5c0.8,0.9,1.4,2.2,1.4,3.6c0,2.7-1.8,4.9-4.1,5.1c-0.2,0-0.3,0-0.5,0h-8.8
			c-0.2,0-0.3,0-0.5,0.1h-10.5c-2.4,0-4.6,2-4.8,4.8c-0.1,1.6,0.4,3,1.3,4c0.7,0.8,1.7,1.4,2.8,1.5h13.5c0.1,0,0.3,0,0.4,0
			c1.1,0.1,2.1,0.7,2.8,1.5c0.8,0.9,1.4,2.2,1.4,3.6c0,2.7-1.8,4.9-4.1,5.1c-0.2,0-0.3,0-0.5,0h-8.8c-2.3,0.3-4.1,2.5-4.1,5.1
			c0,1.4,0.5,2.7,1.4,3.6c0.8,0.9,2,1.5,3.3,1.5h49.6c12.7,0,23.1-11.5,23.1-25.7l0,0C363.6,94.3,353.3,82.8,340.6,82.8z"/>
		<g>
			<polygon fill="#FFC94E" points="265.5,93.7 261.6,102.6 252.7,104 259.1,111 257.6,120.8 265.5,116.1 273.4,120.8 271.9,111 
				278.3,104 269.5,102.6 			"/>
			<polygon fill="#FFC94E" points="233.2,93.7 229.3,102.6 220.5,104 226.9,111 225.4,120.8 233.2,116.1 241.1,120.8 239.6,111 
				246,104 237.2,102.6 			"/>
			<polygon fill="#FFC94E" points="201,93.7 197,102.6 188.2,104 194.6,111 193.1,120.8 201,116.1 208.9,120.8 207.4,111 213.7,104 
				204.9,102.6 			"/>
			<polygon fill="#FFC94E" points="168.7,93.7 164.8,102.6 155.9,104 162.3,111 160.8,120.8 168.7,116.1 176.6,120.8 175.1,111 
				181.5,104 172.7,102.6 			"/>
			<polygon fill="#FFC94E" points="136.4,93.7 132.5,102.6 123.7,104 130.1,111 128.6,120.8 136.4,116.1 144.3,120.8 142.8,111 
				149.2,104 140.4,102.6 			"/>
		</g>
		<g>
			<path fill="#FFC94E" d="M352.2,99.1c8.2,15.9-6.5,32.3-20.8,23.1c-1.6-1.1-2.9-2.6-3.8-4.3c-8.2-15.9,6.5-32.3,20.8-23.1
				C350,95.9,351.3,97.4,352.2,99.1z"/>
			<g>
				<path fill="#332532" d="M335.3,104.8c1.3,2.4-0.9,4.9-3.1,3.4c-0.2-0.1-0.4-0.3-0.5-0.5c-1.3-2.4,0.9-4.9,3.1-3.4
					C335,104.4,335.1,104.6,335.3,104.8z"/>
				<path fill="#332532" d="M348,104.8c1.3,2.4-0.9,4.9-3.1,3.4c-0.2-0.1-0.4-0.3-0.5-0.5c-1.3-2.4,0.9-4.9,3.1-3.4
					C347.8,104.4,347.9,104.6,348,104.8z"/>
			</g>
			<path fill="#332532" d="M342.7,109.1H337c-0.5,0-0.9,0.4-0.9,1c0,2.3,1.7,4.1,3.7,4.1c2,0,3.7-1.9,3.7-4.1
				C343.6,109.5,343.2,109.1,342.7,109.1z"/>
		</g>
		<path fill="#F05161" d="M56.8,84.2v76.3c0,2.9,2,5.2,4.5,5.2c2.5,0,4.5-2.3,4.5-5.2c0,2.9,2,5.2,4.5,5.2c2.5,0,4.5-2.3,4.5-5.2
			c0,2.9,2,5.2,4.5,5.2c2.5,0,4.5-2.3,4.5-5.2c0,2.9,2,5.2,4.5,5.2c2.5,0,4.5-2.3,4.5-5.2c0,2.9,2,5.2,4.5,5.2
			c2.5,0,4.5-2.3,4.5-5.2c0,2.9,2,5.2,4.5,5.2c2.5,0,4.5-2.3,4.5-5.2V84.2H56.8z"/>
		<rect x="110.6" y="87.1" fill="#EDEDED" width="1.8" height="41.6"/>
		<rect x="56.8" y="147.8" fill="#FFC94E" width="53.8" height="4"/>
		<rect x="56.8" y="140" fill="#FFC94E" width="53.8" height="4"/>
	</g>
</g>
</svg>
