<?xml version="1.0" encoding="utf-8"?>
<!-- Generator: Adobe Illustrator 18.1.1, SVG Export Plug-In . SVG Version: 6.00 Build 0)  -->
<svg version="1.1" id="Layer_1" xmlns="http://www.w3.org/2000/svg" xmlns:xlink="http://www.w3.org/1999/xlink" x="0px" y="0px"
	 viewBox="0 0 100 100" enable-background="new 0 0 100 100" xml:space="preserve">
<g>
	<defs>
		<path id="SVGID_10_" d="M29.4,34.2c0-12,9.6-21.7,21.5-21.7c11.9,0,21.5,9.7,21.5,21.7c0,12-9.6,21.7-21.5,21.7
			C39,56,29.4,46.2,29.4,34.2 M19.4,34.2c0,34.7,31.4,54.3,31.4,54.3S82.3,69,82.3,34.2c0-17.5-14.1-31.8-31.4-31.8
			S19.4,16.7,19.4,34.2"/>
	</defs>
	<use xlink:href="#SVGID_10_"  overflow="visible" fill="#FFFFFF"/>
	<clipPath id="SVGID_1_">
		<use xlink:href="#SVGID_10_"  overflow="visible"/>
	</clipPath>
	<rect x="19.4" y="2.5" clip-path="url(#SVGID_1_)" fill="#FFFFFF" width="62.9" height="86.1"/>
</g>
<g>
	<defs>
		<rect id="SVGID_13_" width="100" height="100"/>
	</defs>
	<clipPath id="SVGID_2_">
		<use xlink:href="#SVGID_13_"  overflow="visible"/>
	</clipPath>
	<path clip-path="url(#SVGID_2_)" fill="#FFFFFF" d="M70.7,89.3c0,4.4-8.9,8-19.8,8c-10.9,0-19.8-3.6-19.8-8c0-2.8,3.7-5.3,9.2-6.8
		c5.2,4.9,9.4,7.5,9.6,7.6l1,0.6l1-0.6c0.2-0.1,4.4-2.7,9.6-7.6C67,84,70.7,86.4,70.7,89.3"/>
	<path clip-path="url(#SVGID_2_)" fill="#FFFFFF" d="M42.9,29.2h-0.4c0-4.9,3.7-9,8.4-9c4.6,0,8.4,4,8.4,9c0,4.9-3.7,9-8.4,9
		c-4.6,0-8.4-4-8.4-9H42.9h0.4c0,4.5,3.4,8.1,7.5,8.1c4.1,0,7.5-3.6,7.5-8.1c0-4.5-3.4-8.1-7.5-8.1c-4.1,0-7.5,3.6-7.5,8.1H42.9z"/>
</g>
<g>
	<defs>
		<path id="SVGID_16_" d="M41.9,27.6c-0.4,0-0.8,0.3-0.8,0.8v18.7c0,0.4,0.3,0.8,0.8,0.8h18c0.4,0,0.8-0.3,0.8-0.8V28.4
			c0-0.4-0.3-0.8-0.8-0.8H41.9z"/>
	</defs>
	<use xlink:href="#SVGID_16_"  overflow="visible" fill="#FFFFFF"/>
	<clipPath id="SVGID_3_">
		<use xlink:href="#SVGID_16_"  overflow="visible"/>
	</clipPath>
	<rect x="41.1" y="27.6" clip-path="url(#SVGID_3_)" fill="#FFFFFF" width="19.5" height="20.2"/>
</g>
</svg>
