<?xml version="1.0" encoding="utf-8"?>
<!-- Generator: Adobe Illustrator 18.1.1, SVG Export Plug-In . SVG Version: 6.00 Build 0)  -->
<svg version="1.1" xmlns="http://www.w3.org/2000/svg" xmlns:xlink="http://www.w3.org/1999/xlink" x="0px" y="0px"
	 viewBox="0 0 560 300" enable-background="new 0 0 560 300" xml:space="preserve">
<g id="Layer_4">
	<g>
		<path fill="#FFBB7D" d="M48.6,164.8c5.1-14.4,2-31.2,9.5-44.5c7.2-12.8,22.6-18.9,37.3-20s29.3,1.5,44,1.6
			c14.7,0,30.4-3.2,40.6-13.8c9.2-9.6,12.4-23.8,21.9-33.2C209.7,47,221,43.6,232,41c11-2.6,22.3-4.7,31.6-11.1
			c9.3-6.3,16-18.1,12.6-28.8c-2.5-8-10-13.5-18-16c-8-2.4-16.5-2.2-24.9-2C172.9-15,112.4-13.3,52-11.5C31.1-10.9,8.4-9.7-7.6,3.9
			c-15.1,12.9-20.3,33.9-22.2,53.6c-2.9,29.7-0.1,60,8,88.7c3.5,12.5,7.3,28.4,15.1,39c5.7,7.8,18.4,6.7,26.7,4.6
			C32.7,186.5,44.1,177.3,48.6,164.8z"/>
	</g>
	<g>
		<path fill="#FFBB7D" d="M507.3,138.9c-5.1,14.4-1.8,31.2-9.2,44.6c-7.1,12.8-22.5,19-37.1,20.2c-14.6,1.3-29.3-1.4-44-1.3
			c-14.7,0-30.4,3.3-40.5,14c-9.1,9.7-12.3,23.9-21.7,33.3c-7.9,8-19.3,11.4-30.2,14c-10.9,2.6-22.3,4.9-31.6,11.2
			c-9.3,6.4-15.9,18.2-12.5,28.9c2.6,8,10.1,13.5,18.1,15.9c8,2.4,16.5,2.1,24.9,1.8c60.4-2.1,120.9-4.1,181.3-6.2
			c20.9-0.7,43.7-2.1,59.5-15.8c15-13,20.1-34,21.9-53.7c2.7-29.7-0.2-60-8.5-88.7c-3.6-12.4-7.5-28.4-15.3-38.9
			c-5.7-7.8-18.5-6.6-26.7-4.4C523,117,511.7,126.3,507.3,138.9z"/>
	</g>
</g>
<g id="Layer_1">
	<g id="Layer_2">
	</g>
	<g>
		<g>
			<path fill="#454C82" d="M196.9,73.7c-5-5.9-5-15.4-0.1-21.4c4.7-5.6,12.5-7.4,19.8-7.1c6.2,0.3,12.4,2.1,17.9,5.2
				c11.8,6.6,17.3,24.2,3.9,32.5c-4.3,2.7-9.6,3.7-14.6,2.7"/>
		</g>
		<g>
			<path fill="#F1AAB2" d="M175.9,222.7c-0.3-1.2-1.4-1.9-2.4-2.6c-6.4-4.4-13.4-7.6-20.5-10.8c-1.6-0.7-3.3-1.5-5.1-1.5
				c-4.4-0.2-7.6,3.5-9.7,6.8c-2.6,4.2-5.4,8.2-8.4,12.2c-7.2-9-12.5-14.9-19.7-23.9c-1.4-2.2-2.7-4.5-3.7-6.9
				c-2.1-5.2,2.4-10.1,4.1-14.7c0.3-0.8,0.4-1.8-0.3-2.2c-1.9,0.6-3.1,1.8-4.3,3.3c-0.8,1-3.4,3.3-3.4,4.4c0-3.8,0.8-7.6,1.3-11.4
				c0.3-2.3,1-4.6,1-6.9c0-0.5,0-1.1-0.4-1.6c-1.5-1.9-2.3,2.1-2.5,2.9c-1.2,5.4-2.5,10.8-3.7,16.2c-0.3-6.4-1.1-12.8-2.4-19.1
				c-0.2-0.9-0.7-2.1-1.6-1.9c-0.8,0.2-0.9,1.2-0.9,2c0.2,6.4,0.3,12.8,0.5,19.2c-1-6.1-2.4-12.2-4-18.1c-0.1-0.3-0.2-0.7-0.5-0.9
				c-0.6-0.2-1.1,0.5-1.2,1.1c-0.7,3.1,0,5.8,0.5,8.7c0.6,3.1,0.3,6.7,0,9.8c-1.1-3.8-2.3-7.7-4.3-11.1c-0.3-0.4-0.9-0.9-1.2-0.5
				c-0.1,0.1-0.1,0.2-0.2,0.3c-0.5,2.5,0.3,5.6,0.6,8.1c0.4,3.4,0.5,6.8,0.3,10.2c-0.2,4.6-0.7,9.3,0.1,13.9
				c1.3,8,5.9,15.7,9.8,22.6c4.3,7.8,9.1,15.3,14.4,22.4c7,9.4,17.5,19.2,29.6,12.9c7.4-3.9,13-10.7,17.9-17.5
				c4-5.7,6.5-12.6,10.4-18.1C168.1,227.3,177.3,227.6,175.9,222.7z"/>
		</g>
		<g opacity="0.15">
			<path fill="#FF65A7" d="M173,222.4c0-0.9-0.1-1.9-0.2-2.8c-6.2-4.1-13-7.2-19.7-10.3c-1.6-0.7-3.3-1.5-5.1-1.5
				c-4.4-0.2-7.6,3.5-9.7,6.8c-1.7,2.8-3.6,5.5-5.5,8.2c2.6,4.6,5.8,8.9,9.1,13c3.1,3.7,6.3,7.3,10.2,10.1c1.1,0.8,2.4,1.6,3.6,2.3
				c3.9-5.6,6.3-12.4,10.2-17.8c1.2-1.6,4.5-2.3,7-3.4C173.1,225.4,173.1,223.9,173,222.4z"/>
		</g>
		<path fill="#F1AAB2" d="M154.9,485.8v13.9c0,0-23.4-3.7-24.5,11.6l51.3,0.8l-1-32.2"/>
		<path fill="#F1AAB2" d="M246.4,481.9l2.3,13.7c0,0,22.4-7.5,26.1,7.4l-50.5,9.3l-4.4-31.9"/>
		<polygon fill="#FFC364" points="148.4,357.7 150.4,489.4 185.3,490.2 187,353.3 		"/>
		<path fill="#D37F46" d="M154.9,497.3v2.4c0,0-23.4-3.7-24.5,11.6l51.3,0.8l-0.3-9.7c-2.5,0.6-4.8,1.7-6.8,3.2
			C169.1,501,162.1,498.1,154.9,497.3z"/>
		<polygon fill="#FFC364" points="231.4,354.5 251.4,484.7 217.2,491.3 192.7,356.6 		"/>
		<path fill="#D37F46" d="M248.3,493.2l0.4,2.4c0,0,22.4-7.5,26.1,7.4l-50.5,9.3l-1.3-9.6c2.5,0.2,5,0.9,7.3,2
			C234.9,499.2,241.3,495.2,248.3,493.2z"/>
		<g>
			<g>
				<path fill="#EFB35B" d="M180.8,354c-0.2,3.7-0.4,8.2-0.6,13.4c-0.6,15.2-1.4,36.3-1.9,59.5c-0.5,23.2-0.7,44.3-0.7,59.5
					c0,1.3,0,2.5,0,3.6l0.6,0c0-1.2,0-2.4,0-3.6c0.2-15.2,0.5-36.3,1-59.5c0.5-23.2,1.1-44.3,1.6-59.5c0.2-5.1,0.3-9.6,0.4-13.4
					L180.8,354z"/>
				<path fill="#EFB35B" d="M185.4,482.2c-5.1,0.2-10.7,0.3-16.6,0.2c-6.6-0.1-12.8-0.3-18.4-0.6l0,1.6c5.6,0.4,11.8,0.7,18.4,0.8
					c5.9,0.1,11.5-0.1,16.6-0.3L185.4,482.2z"/>
				<path fill="#EFB35B" d="M198.9,356.3c0.8,3.6,1.7,8,2.8,13.1c3.2,14.9,7.4,35.5,11.8,58.4c4.4,22.8,8.1,43.6,10.6,58.6
					c0.2,1.2,0.4,2.4,0.6,3.6l-0.6,0.1c-0.2-1.2-0.4-2.4-0.7-3.6c-2.7-15-6.5-35.7-10.9-58.5c-4.4-22.8-8.5-43.5-11.5-58.4
					c-1-5-1.9-9.4-2.7-13.2L198.9,356.3z"/>
				<path fill="#EFB35B" d="M215.7,483.4c5.1-0.7,10.6-1.5,16.4-2.6c6.5-1.2,12.6-2.4,18.1-3.7l0.2,1.5c-5.4,1.3-11.5,2.6-18,3.8
					c-5.8,1-11.4,1.8-16.5,2.5L215.7,483.4z"/>
			</g>
		</g>
		<g>
			<path fill="#F1AAB2" d="M271.4,245.2c-2.1-11.4-6-22.8-12.9-32.2c-3-4-6.6-9.9-12.1-7.9c-5.7,2.1-11.5,6.9-16.2,10.7
				c-0.6,0.5-1.3,1-1.6,1.8c-1.3,2.6,2.9,8.7,3.7,11.1c1.7,5.1,2.8,10.2,5,15.1c-8.9,0.7-17.7,4.1-26.2,6.6
				c-7.9,2.3-15.7,4.8-23.5,7.2c0.6,7.8,2.2,15.5,4.6,22.9c21.3,2.3,43.4,0.3,62.8-8.5c5-2.3,9.9-5.7,13.6-10
				C272.9,257,272.5,251.5,271.4,245.2z"/>
		</g>
		<g>
			<path fill="#525798" d="M209.5,148.2c0.8,1.1,2.1,1.7,3.4,1.9c1.3,0.2,2.7,0,4-0.2c1.5-0.3,3.1-0.6,4.4-1.3
				c2.5-1.3,4.3-3.7,5.3-6.3c1-2.6,1.4-5.4,1.8-8.2c-4.3,1.1-8.9,1.1-13.2,0.1"/>
		</g>
		<g>
			<path fill="#F4D13D" d="M158.5,112.8c-3.5-0.4-7-0.6-10.4-0.8c-0.2,0.5-0.5,0.9-0.7,1.4c3.7,0.2,7.4,0.4,11.1,0.8
				C159.4,114.3,159.4,112.9,158.5,112.8z"/>
		</g>
		<g>
			<path fill="#DB8F9A" d="M154.4,115.6c-3.6-0.3-7,2.7-8.1,6.2c-1.1,3.5-0.3,7.3,1.1,10.7c2.3,5.5,7.3,10.5,13.8,9.5"/>
		</g>
		<g>
			<path fill="#C1747F" d="M158.8,138c0.1,0,0.3-1.2,0.1-3.1c-0.2-1.9-0.9-4.5-2.3-7.1c-1.4-2.6-3.2-4.6-4.7-5.8
				c-1.5-1.2-2.6-1.7-2.6-1.6c-0.2,0.3,3.7,3,6.3,8C158.3,133.3,158.4,138.1,158.8,138z"/>
		</g>
		<g>
			<path fill="#F4D13D" d="M228.2,83.8c0,0.2,0.9,0.4,2.7,0.7c1.8,0.3,4.3,0.6,7.5,0.6c3.2,0,7.1-0.2,11.2-1.6
				c2-0.7,4.3-1.6,6.1-3.5c0.9-1,1.7-2.1,2-3.6c0.2-0.7,0.1-1.7-0.3-2.5c-0.4-0.8-1.2-1.3-1.8-1.7c-0.7-0.3-1.4-0.5-2-0.6
				c-0.6-0.1-1.3-0.2-1.9-0.2c-1.3,0-2.5,0.1-3.7,0.3c-2.4,0.4-4.5,1.1-6.5,1.8c-4,1.5-7.4,3.3-10.1,4.8c-5.5,3.2-8.6,5.6-8.5,5.8
				c0.2,0.3,3.6-1.6,9.3-4.4c2.8-1.4,6.2-3,10.1-4.3c1.9-0.6,4-1.3,6.1-1.6c1.1-0.2,2.2-0.2,3.2-0.2c0.5,0,1.1,0.1,1.6,0.2
				c0.5,0.1,1,0.2,1.4,0.4c0.4,0.2,0.7,0.4,0.8,0.7c0.1,0.2,0.2,0.5,0.1,0.9c-0.2,0.8-0.7,1.7-1.4,2.4c-1.4,1.4-3.3,2.4-5.1,3
				c-3.8,1.4-7.5,1.8-10.6,2c-3.1,0.2-5.7,0.1-7.4,0.2C229.2,83.6,228.2,83.6,228.2,83.8z"/>
		</g>
		<g>
			<path fill="#F4D13D" d="M223.7,83.7c-0.2,0.2,2.5,3,7,7.3c2.3,2.1,4.9,4.8,8.5,7.1c1.8,1.1,3.9,2.1,6.3,2.6
				c1.2,0.3,2.3,0.4,3.7,0.4c1.3-0.1,2.7-0.3,4-1.3c0.6-0.5,1.2-1.2,1.4-2.1c0.2-0.8,0.1-1.7-0.1-2.4c-0.5-1.4-1.4-2.4-2.3-3.2
				c-1.7-1.6-3.4-3-5.2-4.1c-3.6-2.3-7.2-3.7-10.3-4.4c-3.1-0.7-5.7-0.9-7.5-0.8c-1.8,0-2.7,0.3-2.7,0.4c0,0.4,3.9,0.2,9.8,2
				c2.9,0.9,6.2,2.4,9.5,4.6c1.7,1.1,3.3,2.4,4.8,4c0.8,0.7,1.4,1.5,1.7,2.3c0.2,0.8,0.1,1.4-0.5,1.9c-0.6,0.5-1.6,0.8-2.6,0.8
				c-1,0-2.1-0.1-3.1-0.3c-2-0.4-4-1.3-5.7-2.2c-3.4-2-6.1-4.6-8.5-6.5C227,85.8,224,83.4,223.7,83.7z"/>
		</g>
		<g>
			<path fill="#525798" d="M224.5,80.3c3.8,1.5,7.5,3.7,9.7,7.1c3.9,6.2,4.3,14,3.5,21.1c-0.7,6.5-2,15.9-6.7,20.8
				c-3-2.8-5.1-6.5-5.9-10.5c-1.3-6.5,0.6-13.7-2.3-19.6c-1.4-3-4-5.3-5.1-8.4c-0.8-2.2-1-4.8-2.3-6.7c-1.3-1.9-5.8-4.5-2.3-6.5
				C215.9,76,221.9,79.3,224.5,80.3z"/>
		</g>
		<g>
			<path fill="#F1AAB2" d="M206.3,156.4c6.9-3.5,10.6-10.7,13.9-17.4c2.5,0.9,5.3,0.2,7.5-1.3c3.3-2.2,7.2-6.5,7-10.7
				c-0.2-3.4-0.4-8-2.3-11c-2.4-3.7-7.4-5.1-11.6-3.9c0.2-6.1,1.2-11.2-0.7-17.3c-1.6-5.1-4.6-9.6-9.2-12.3
				c-11.2-6.5-24.2-6.4-35.9-1.4c-6.5,2.8-12.4,7.4-15.8,13.6c-4.7,8.4-4.8,18.5-4.2,28.1c0.6,8.8,1.7,18,6.3,25.5
				c4.6,7.6,13.6,13.1,22.3,11.1c0.4,3.5,0.5,7,0.3,10.5c-2.4,0.3-4.8,0.9-7.1,1.8c3.1,5.3,9.2,8.4,15.3,9.2
				c6.1,0.8,12.3-0.4,18.3-1.9c1.9-0.5,3.9-1,5.6-2.2c1.6-1.2,2.8-3.1,2.6-5.1c-3.7-1.2-8.8-1-12.1-3.3c-2.8-1.9-2-7.8-2.2-10.9
				C204.8,157.2,205.6,156.8,206.3,156.4z"/>
		</g>
		<path fill="#D37F46" d="M178.8,170c0,0-19.9-1.1-32.1,21.3c-10.1,18.5-13.5,25-13.5,25s7.3,8.9,16.4,10.2
			c9.2,1.3,38.7,9.6,38.7,9.6l13.8,20.2l24.3,17.6l2.5,3.6l-1.5-51.2l3.7,7.9c0,0,21-3.8,32.7-18.5c0,0-17.4-23.9-20.2-28
			c-3.5-5.1-8.8-12.9-32.7-17.8C211,169.9,195,185.5,178.8,170z"/>
		<g>
			<g>
				<path fill="#C1747F" d="M228.5,116.5c0-0.1-0.3-0.2-1-0.1c-0.6,0-1.5,0.2-2.5,0.8c-1,0.5-2,1.5-2.8,2.7
					c-0.8,1.3-1.4,2.8-1.7,4.4c-0.7,3.3-0.4,6.4,0.1,8.5c0.5,2.1,1.2,3.3,1.4,3.2c0.2-0.1-0.2-1.3-0.6-3.4c-0.3-2.1-0.5-5,0.2-8.1
					c0.3-1.5,0.8-3,1.5-4.1c0.7-1.2,1.5-2,2.4-2.6C227.2,116.7,228.6,116.7,228.5,116.5z"/>
			</g>
			<g>
				<path fill="#C1747F" d="M224,133.8c0.1,0.1,0.7-0.5,1.2-1.6c0.5-1.1,0.8-2.9,0.5-4.8c-0.3-1.9-1.2-3.5-2-4.4
					c-0.8-0.9-1.5-1.3-1.6-1.2c-0.1,0.1,0.4,0.7,1,1.7c0.6,1,1.2,2.4,1.5,4.1c0.3,1.7,0.1,3.3-0.2,4.4
					C224.1,133,223.8,133.7,224,133.8z"/>
			</g>
		</g>
		<g>
			<path fill="#C1747F" d="M184.1,129.1c0-0.1-0.4,0.1-1.2,0.2c-0.7,0.1-1.8,0.3-3.1,0c-1.1-0.3-3.2-1.1-1.8-2.3
				c0.6-0.7,1.3-1.3,2-2c0.7-0.7,1.4-1.6,1.8-2.7c0.9-2.2,0.6-4.3,0.2-6.1c-0.4-1.8-0.9-3.3-1.4-4.7c-0.8-2.6-1.4-4.2-1.6-4.2
				c-0.2,0,0.2,1.7,0.8,4.4c0.3,1.3,0.8,2.9,1.1,4.6c0.3,1.7,0.5,3.7-0.2,5.5c-0.7,1.8-2.3,3-3.5,4.4c-0.3,0.4-0.7,0.9-0.6,1.6
				c0.1,0.7,0.5,1.1,0.9,1.4c0.8,0.5,1.6,0.7,2.3,0.8c1.4,0.2,2.6-0.1,3.4-0.3C183.8,129.4,184.1,129.1,184.1,129.1z"/>
		</g>
		<g>
			<path fill="#C1747F" d="M189,130.7c-0.2-0.1-0.5,0.5-1.2,1.2c-0.7,0.7-1.7,1.7-3,2.2c-1.3,0.6-2.7,0.6-3.7,0.5
				c-1-0.1-1.6-0.4-1.7-0.2c-0.1,0.1,0.4,0.7,1.5,1c1.1,0.4,2.7,0.4,4.3-0.2c1.6-0.7,2.7-1.9,3.2-2.8
				C189,131.4,189.1,130.8,189,130.7z"/>
		</g>
		<g>
			<ellipse fill="#C1747F" cx="171.1" cy="121.5" rx="0.6" ry="3.4"/>
		</g>
		<g>
			<path fill="#C1747F" d="M193.2,123.2c0.3,0,0.5-1.6,0.4-3.5c-0.1-1.9-0.4-3.4-0.8-3.4c-0.3,0-0.5,1.6-0.4,3.5
				C192.6,121.7,192.9,123.3,193.2,123.2z"/>
		</g>
		<circle opacity="0.15" fill="#FF65A7" cx="203.1" cy="135.2" r="8.8"/>
		<path opacity="0.15" fill="#FF65A7" d="M169.3,138c0-4.9-4-8.8-8.8-8.8c-1.8,0-3.5,0.6-4.9,1.5c0.7,5.6,2,11.2,4.7,16.1
			c0.1,0,0.2,0,0.2,0C165.4,146.9,169.3,142.9,169.3,138z"/>
		
			<ellipse transform="matrix(0.9532 0.3023 -0.3023 0.9532 40.6314 -54.068)" fill="#C1747F" cx="195" cy="104.3" rx="5.8" ry="3.3"/>
		
			<ellipse transform="matrix(0.9291 -0.3698 0.3698 0.9291 -26.8385 69.4603)" fill="#C1747F" cx="167.8" cy="104.7" rx="5.8" ry="3.3"/>
		<g>
			<path fill="#525798" d="M228.6,100.1c0.1-7.3-1.4-14.9-7.5-19.4c-6.7-5-15.2-7.3-23.2-8.5c-7.4-1.1-15-2.2-22.5-1.3
				c-7.5,0.9-15,4.2-19.3,10.4c-4.4,6.2-5,14.4-5.4,22c6.5-0.1,13,0,19.5,0.2c1.2-4.1,2.4-8.1,3.6-12.2c0.2,3.8,0.4,7.7,0.6,11.5
				c7.3,0.5,14.6,1,21.9,1.5c0.4,0,0.8,0.1,1.2-0.1c0.4-0.2,0.7-0.7,0.9-1.1c1.8-3.6,3.6-7.2,5.4-10.8c0.7,4.2,1.1,8.4,1.1,12.6
				c3.3,0.3,6.7,0.5,10,0.5c-0.1,3.9,2.2,7.9,5.7,9.6c0.6,0.3,1.2,0.5,1.8,0.5c1.2-0.1,2-1.1,2.7-2
				C227.6,109.4,228.5,104.7,228.6,100.1z"/>
		</g>
		<g>
			<path fill="#AC6C45" d="M261.8,213.1c-0.2-0.2-0.4-0.5-0.5-0.7c-0.4,0.4-0.8,0.7-1.3,1.1c-1,0.9-2.2,1.8-3.4,2.8
				c-2.5,1.8-5.3,3.7-8.5,5.3c-3.2,1.6-6.3,2.9-9.2,3.9c-1.5,0.5-2.9,0.9-4.2,1.2c-1.3,0.4-2.6,0.6-3.7,0.8
				c-0.6,0.1-1.2,0.2-1.7,0.3l0.3,0.7c0.5-0.1,1-0.1,1.5-0.2c1.2-0.2,2.5-0.4,3.8-0.7c1.4-0.3,2.8-0.7,4.3-1.1c3-1,6.2-2.2,9.4-3.9
				c3.2-1.7,6.1-3.6,8.6-5.5c1.2-1,2.4-1.9,3.4-2.9C261,213.8,261.4,213.4,261.8,213.1z"/>
		</g>
		<g>
			<path fill="#AC6C45" d="M255.9,210.5c-0.1-0.1-1.4,0.6-3.6,1.9c-2.1,1.3-5,3.1-8.3,4.9c-3.3,1.8-6.5,3.1-8.8,3.9
				c-2.3,0.8-3.8,1.1-3.8,1.3c0,0.1,1.6,0.1,4-0.5c2.5-0.6,5.7-1.8,9.1-3.6c3.4-1.8,6.2-3.8,8.2-5.3
				C254.8,211.6,256,210.6,255.9,210.5z"/>
		</g>
		<path fill="#AC6C45" d="M157.7,224.7c3.4,0.8,5.6,0.9,5.7,0.8c0-0.2-2.1-0.6-5.4-1.6c-1.7-0.5-3.6-1.2-5.7-2.1
			c-2.1-0.9-4.4-2-6.6-3.4c-2.3-1.4-4.3-2.9-6.1-4.3c-1.3-1-2.4-2.1-3.4-3c-0.2,0.3-0.3,0.6-0.4,0.8c0.9,1,2,2,3.2,3
			c1.8,1.5,3.9,3,6.2,4.4c2.3,1.4,4.7,2.5,6.8,3.4C154,223.6,156,224.3,157.7,224.7z"/>
		<g>
			<path fill="#AC6C45" d="M160.7,218.1c0.1-0.3-4.9-1.6-10.6-4.4c-5.7-2.7-9.8-5.9-10-5.6c-0.2,0.2,3.7,3.8,9.5,6.6
				C155.4,217.6,160.7,218.3,160.7,218.1z"/>
		</g>
		<path fill="#AC6C45" d="M195.9,252c7.2-0.2,14.1-1.1,20.2-2.3c2.5-0.6,5-1.1,7.3-1.8l-0.3-0.9c-2.3,0.6-4.7,1.1-7.2,1.7
			c-6.1,1.1-12.9,2-20,2.2c-7.2,0.1-14-0.4-20.1-1.2c-3.1-0.5-6-0.9-8.7-1.6c-1.3-0.3-2.7-0.6-3.9-0.9c-1.2-0.3-2.4-0.7-3.5-1
			c-1.4-0.4-2.7-0.8-3.9-1.2c-0.1,0.1-0.2,0.3-0.3,0.6c1.2,0.5,2.5,0.9,3.9,1.3c1.2,0.3,2.3,0.7,3.6,1.1c1.2,0.4,2.6,0.6,3.9,1
			c2.7,0.7,5.6,1.2,8.7,1.7C181.8,251.6,188.7,252.1,195.9,252z"/>
		<g>
			<path fill="#AC6C45" d="M230.7,258.1c0-0.1-1.1,0.3-3,1c-1.9,0.7-4.7,1.6-8.2,2.6c-3.5,0.9-7.7,2-12.5,2.8
				c-4.8,0.8-10,1.3-15.6,1.4c-11.1,0.3-21.1-1.2-28.2-2.9c-3.5-0.8-6.3-1.9-8.1-2.8c-1.8-0.9-2.7-1.6-2.8-1.6c0,0,0.2,0.2,0.6,0.6
				c0.4,0.3,1.1,0.8,1.9,1.4c1.8,1.1,4.5,2.3,8.1,3.2c7.1,1.9,17.2,3.6,28.4,3.3c5.6-0.1,10.9-0.7,15.7-1.5c4.8-0.8,9-2,12.5-3
				c3.5-1.1,6.3-2.2,8.2-3C229.7,258.7,230.7,258.2,230.7,258.1z"/>
		</g>
		<path fill="#3D447A" d="M223.1,246.8l8.7-24.8c0,0-13.9-21.8-6.7-49c-1.8-0.7-3.6-1.4-5.4-2c-2.3,6.2-4.6,20.9-5.6,28.2
			c-0.4,2.9-2.4,5.3-5.1,6.4c-19.5,7.5-40.8-2.2-42.2-6.8c-1.3-4.1-0.1-21.4,0.3-26.9c-1.2,0.3-2.4,0.8-3.5,1.3l-3.5,22.7
			c0,0-14.3,14.9-10.4,30.8c3.9,16,6.2,18.3,6.2,18.3s-3.5,6.9-7.5,26.4c-3.9,19.5-11.8,87.8-11.8,87.8s58.2,20.8,115.7-6.8
			L223.1,246.8z"/>
		<path fill="#6B75C1" d="M198.2,259.5c-11.1,1-22.3,0.7-33.2-1.4v27.7c0,10.5,8.5,19,19,19h6.9c10.5,0,19-8.5,19-19v-27.8
			C205.9,258.8,202.1,259.2,198.2,259.5z"/>
		<path fill="#6B75C1" d="M198.2,259.5c-11.1,1-22.3,0.7-33.2-1.4v27.7c0,10.5,8.5,19,19,19h6.9c10.5,0,19-8.5,19-19v-27.8
			C205.9,258.8,202.1,259.2,198.2,259.5z"/>
		<g>
			<path fill="#657DDD" d="M194.5,213.1l-28.8,2l-0.6-8.1c-0.1-1.9,1.3-3.5,3.1-3.6l22.1-1.6c1.9-0.1,3.5,1.3,3.6,3.1L194.5,213.1z"
				/>
			<path fill="#FFC364" d="M215.3,290.7l-59.2,4.2c-1.9,0.1-3.5-1.3-3.6-3.1l-5.5-77c-0.1-1.9,1.3-3.5,3.1-3.6l59.2-4.2
				c1.9-0.1,3.5,1.3,3.6,3.1l5.5,77C218.6,289,217.2,290.6,215.3,290.7z"/>
			<g>
				<path fill="#EFAD2B" d="M159.7,290.6c-2,0-3.7-1.6-3.8-3.6l-4.8-68.1c-0.1-2.1,1.4-3.9,3.5-4.1l50.9-3.6
					c2.1-0.1,3.9,1.5,4.1,3.5l4.8,68.1c0.1,1-0.3,2-0.9,2.8c-0.7,0.8-1.6,1.2-2.6,1.3l-50.9,3.6
					C159.9,290.6,159.8,290.6,159.7,290.6z M205.8,212.2c-0.1,0-0.1,0-0.2,0l-50.9,3.6c-1.6,0.1-2.9,1.5-2.7,3.2l4.8,68.1
					c0.1,1.6,1.5,2.8,3.2,2.7l50.9-3.6c0.8-0.1,1.5-0.4,2-1c0.5-0.6,0.8-1.4,0.7-2.1l-4.8-68.1C208.6,213.4,207.3,212.2,205.8,212.2
					z"/>
			</g>
		</g>
		<path fill="#4C589E" d="M250.5,345.9c-13.3,4.9-30.6,10-50.1,12.1c-11.3,1.2-22.2,1.1-31.9,0.2c-4.9-0.4-9.5-1.2-13.8-2
			c-2.1-0.4-4.2-0.9-6.2-1.3c-2-0.5-3.9-0.9-5.6-1.5c-1.9-0.6-3.7-1.1-5.4-1.7c0,0.4-0.1,0.8-0.1,1.1c1.6,0.6,3.4,1.2,5.2,1.7
			c1.8,0.6,3.7,1.1,5.7,1.6c2,0.5,4.1,1,6.2,1.5c4.3,0.9,9,1.7,13.9,2.1c9.9,1,20.9,1.1,32.3-0.1c11.4-1.2,22.1-3.5,31.7-6.2
			c6.8-2,13.1-4.1,18.6-6.2L250.5,345.9z"/>
		<g>
			<g>
				<g>
					<path fill="#F4D13D" d="M216,113.2c7.4,0.2,29.5-1.6,30,9.6c0,0.9,1.5,1,1.4,0.1c-0.2-5-3.6-7.6-8.2-9
						c-7.3-2.2-15.7-1.9-23.2-2.1C215.2,111.8,215.1,113.2,216,113.2L216,113.2z"/>
				</g>
			</g>
			<g>
				<g>
					<path fill="#F4D13D" d="M161.9,135.7c-9.2-0.5-16.3-8.3-15.8-17.5c0.5-9.2,8.3-16.3,17.5-15.8c9.2,0.5,16.3,8.3,15.8,17.5
						C178.9,129.1,171.1,136.2,161.9,135.7z M163.5,104c-8.3-0.4-15.5,6-15.9,14.4c-0.4,8.3,6,15.5,14.4,15.9
						c8.3,0.4,15.5-6,15.9-14.4C178.3,111.5,171.9,104.4,163.5,104z"/>
				</g>
				<g>
					<path fill="#F4D13D" d="M201.3,137c-9.2-0.5-16.3-8.3-15.8-17.5c0.5-9.2,8.3-16.3,17.5-15.8c9.2,0.5,16.3,8.3,15.8,17.5
						S210.5,137.5,201.3,137z M202.9,105.2c-8.3-0.4-15.5,6-15.9,14.4c-0.4,8.3,6,15.5,14.4,15.9c8.3,0.4,15.5-6,15.9-14.4
						C217.7,112.8,211.3,105.7,202.9,105.2z"/>
				</g>
				<g>
					<g>
						<path fill="#F4D13D" d="M186.2,120.7c0-0.3,0.1-0.7,0.1-1c0.1-0.3,0.1-0.2,0,0.3c0-0.3,0.1-0.6,0.2-0.9
							c-1.9-2.7-6.2-2.9-8.1,0.4c-0.5,0.8,0.7,1.6,1.2,0.8c1.6-2.8,5.5-2.3,6.3,0.8c0.1,0.2,0.2,0.4,0.4,0.5
							C186.2,121.2,186.2,120.9,186.2,120.7z"/>
					</g>
				</g>
			</g>
		</g>
		<g>
			<circle fill="#EFAD2B" cx="219.6" cy="196" r="10.3"/>
			<g>
				<ellipse fill="#5646A1" cx="214.6" cy="193.7" rx="0.8" ry="1.4"/>
				<ellipse fill="#5646A1" cx="224.5" cy="193.7" rx="0.8" ry="1.4"/>
			</g>
			<g>
				<path fill="#CE4576" d="M216.5,194.4C216.5,194.5,216.5,194.5,216.5,194.4c0,1.7,1.4,3.1,3.1,3.1c1.7,0,3.1-1.4,3.1-3.1
					c0,0,0,0,0,0H216.5z"/>
				<path fill="#FF5C9E" d="M219.6,197.6c0.9,0,1.7-0.4,2.2-1c-0.5-0.7-1.3-1.1-2.2-1.1s-1.7,0.4-2.2,1.1
					C217.9,197.2,218.7,197.6,219.6,197.6z"/>
			</g>
		</g>
		<g>
			<path fill="#F1AAB2" d="M271.4,245.2c-0.9-4.7-2-9.3-3.6-13.9c-2.9,0.9-5.9,1.6-8.8,2.2c-6.8,1.4-13.7,2.3-20.6,3.3
				c-1.2,0.2-2.4,0.3-3.6,0.5c0.7,2.2,1.4,4.3,2.4,6.4c-8.9,0.7-17.7,4.1-26.2,6.6c-2.8,0.8-5.6,1.7-8.5,2.6
				c-6.7,1.4-13,4.1-20.1,3.8c-2.5-0.1-5-0.5-7.4,0c-0.3,0.1-0.6,0.1-0.7,0.4c-0.2,0.3,0.1,0.7,0.4,1c1.2,1,2.9,1.3,4.4,1.5
				c1.9,0.3,3.9,0.6,5.8,0.9c-6.2,2.4-13.4,3.1-18.5,7.4c-0.8,0.7-1.5,1.5-1.7,2.5c1.6,0.6,3.4-0.4,5-1.1c3-1.5,6.2-2.4,9.6-2.9
				c-5.6,2.1-11,5.1-14.4,10c-0.3,0.4-0.6,0.9-0.6,1.4c0,0.5,0.3,1.1,0.9,1.1c0.4,0,0.7-0.3,1-0.5c3.7-3.5,8.1-6.3,12.9-8.2
				c-3,2.2-6,4.4-8.6,7c-1.4,1.5-2.8,3.2-3,5.2c0,0.3,0,0.8,0.3,0.9c0.3,0.1,0.7-0.1,0.9-0.3c3.6-2.8,7.3-5.5,10.9-8.3
				c-2.7,2.9-5.5,5.9-6.9,9.6c-0.4,0.9-0.4,2.3,0.6,2.5c3-2.1,4.8-5.8,8.2-7.1c2.9-1.1,6.1-0.2,9.1,0.4c1.5,0.3,3,0.6,4.5,0.8
				c0,0,0,0,0,0c0,0,0,0,0.1,0c2.2,0.3,4.5,0.4,6.8,0.4c18.2,0.8,36.5-1.8,53-9.2c5-2.3,9.9-5.7,13.6-10
				C272.9,257,272.5,251.5,271.4,245.2z"/>
		</g>
		<path fill="#F2985A" d="M209.3,192.4c0,0,6.4-10.2,6.6-21.3c-1.5-0.4-3.1-0.8-4.9-1.1c0,0-16,15.6-32.2,0c0,0-1.1-0.1-3,0.1
			c-0.9,4.7-2.1,13.7-0.3,21.2l18.6-12.5L209.3,192.4z"/>
		<path fill="#AC6C45" d="M213.2,176.3c0.4-2,0.6-4,0.7-5.7c-0.3-0.1-0.5-0.1-0.8-0.2c-0.1,1.7-0.4,3.7-0.8,5.7
			c-1.2,6.3-3.5,11.2-3.9,12.4c-0.5-0.8-3-3.6-5.9-7c-1.6-1.9-3-3.7-4-5.1c-0.2,0-0.4,0.1-0.6,0.1c0.9,1.5,2.2,3.5,4,5.5
			c3.1,3.6,5.9,6.2,6.5,6.6c0,0.1,0,0.1,0,0.1c0,0,0,0,0.1-0.1c0,0,0,0,0,0c0,0,0,0,0,0c0.3-0.3,1-1.5,1.8-3.3
			C211.4,183.1,212.5,180,213.2,176.3z"/>
		<path fill="#AC6C45" d="M189.7,176.3c-1.2,1-2.5,2-4,3.2c-4.2,3.3-7.9,6-8.9,6.9c0.1-1.4,0.1-5.1,0.5-9.5c0.3-2.7,0.6-5.1,0.9-6.9
			c-0.2,0-0.4,0-0.6,0c-0.4,1.8-0.9,4.1-1.1,6.8c-0.5,4.7-0.1,8.7,0.1,9.8c0,0,0,0.1,0,0.1c0,0,0,0,0.1,0c0,0.2,0.1,0.2,0.1,0.2
			c0,0,0.1-0.1,0.1-0.3c0.4-0.2,1.4-0.8,2.7-1.6c1.8-1.1,4.2-2.8,6.7-4.8c1.6-1.3,3.1-2.5,4.4-3.6
			C190.4,176.5,190,176.4,189.7,176.3z"/>
		<g>
			<path fill="#C1747F" d="M137.8,240.7c0.1-0.1-0.5-1.9-1.9-4.8c-1.4-2.9-3.5-6.8-6.4-10.8c-2.8-4-5.8-7.3-8.1-9.6
				c-2.3-2.3-3.9-3.5-4-3.4c-0.3,0.3,5.5,5.7,11.1,13.6C134.2,233.7,137.4,240.9,137.8,240.7z"/>
		</g>
		<g>
			<path fill="#C1747F" d="M254.2,240.7c0-0.2-1.9-0.1-4.9,0.2c-3,0.3-7.1,0.9-11.6,1.8c-4.5,0.9-8.6,1.9-11.5,2.8
				c-2.9,0.9-4.6,1.5-4.6,1.7c0.1,0.3,7.3-1.6,16.3-3.3C246.9,242,254.2,241,254.2,240.7z"/>
		</g>
	</g>
</g>
<g id="Layer_3">
	<g>
		<g>
			<path fill="#F1AAB2" d="M364.2,212.1c-3-2.1-5.8-3.7-8.1-6.7c-1.7-2.2-3-4.6-5.2-6.4c-10.4-8.4-19.2,7.5-25.4,14.3
				c-5.5-10.8-11-21.4-16.3-32.3c-1.1-3.9-0.7-8.2,0.8-11.8c0.8-1.8,1.8-3.6,2.5-5.5c0.5-1.3,0.1-2.9-1.7-2.1
				c-0.8,0.3-1.5,1.2-2.1,1.8c-0.9,0.9-1.7,1.8-2.5,2.8c-0.3,0.4-2,2.2-1.9,2.7c-0.9-4.9,0.2-9.9,0.7-14.9c0.2-1.9,0.7-4.6-0.1-6.4
				c-0.3-0.7-1-1.7-1.8-1.2c-0.5,0.3-0.5,1.3-0.6,1.8c-0.5,2-0.9,4.1-1.3,6.1c-0.4,2.1-0.8,4.3-1.1,6.4c-0.3,1.8-0.9,4.1-0.8,6
				c-0.6-7.3-2-14.5-4.2-21.4c-0.1-0.4-0.3-0.9-0.7-1.2c-0.6-0.4-1.6,0-1.9,0.7c-0.3,0.7-0.2,1.5-0.1,2.3c0.8,6.1,1.6,12.3,2.4,18.4
				c-2.1-4.6-4.3-9.2-6.4-13.7c-0.4-0.9-1.3-3.2-2.5-3.5c-1.2-0.3-1.5,1-1.3,1.9c0.5,1.8,1.2,3.6,1.9,5.4c1.3,3.7,2.5,7.3,3.8,11
				c-0.9-2.5-3.2-5.1-5-7c-1-1.1-2.1-2.4-3.5-3c-0.5-0.2-1.3-0.5-1.8,0c-0.7,0.9,0.5,2.5,1,3.2c1.3,1.9,2.5,3.9,3.4,6
				c1.5,3.5,1.9,8.1,1.6,11.8c-0.3,4.2,0.2,8.1,1.1,12.1c2.3,19.2,8,37.3,18.7,53.5c7.8,11.7,20.5,11.4,30.8,3.4
				c5.6-4.4,13.4-9.5,17.2-15.7C355.1,229.1,366,213.3,364.2,212.1z"/>
		</g>
		<g opacity="7.000000e-002">
			<path fill="#E05A90" d="M364.2,212.1c-3-2.1-5.8-3.7-8.1-6.7c-1.7-2.2-3-4.6-5.2-6.4c-9.2-7.4-17.1,4.1-23.1,11.6
				c5.5,9.9,13.5,18.3,23,24.4c1.2-1.3,2.3-2.7,3.2-4.1C355.1,229.1,366,213.3,364.2,212.1z"/>
		</g>
		<g>
			<path fill="#F1AAB2" d="M429.1,249.4c0.6,12.1,0.8,24.3-2.2,36.1c-0.6,2.4-2.2,5.1-2.4,7.5c-0.2,2.5,1.6,4.5,2.8,6.5
				c3,5.3,5.6,10.8,7.7,16.5c9.1-6.4,12.4-16.6,17.1-26.1c6.4-12.9,8.5-26.7,8.5-40.9c0-13.6-1.8-27.6-7.4-40.1
				c-1.6-3.6-2.1-7.4-3.8-10.9c-0.3-0.6-0.6-1.1-1.1-1.4c-0.6-0.3-1.2-0.3-1.8-0.2c-4.4,0.5-8.4,1.5-12,4.1
				c-3.7,2.7-8.1,5.8-12.7,6.5C425.8,221,428.4,234.9,429.1,249.4z"/>
		</g>
		<g opacity="7.000000e-002">
			<path fill="#E05A90" d="M454.9,215.2c0.2-0.2,0.4-0.3,0.5-0.5c-0.7-1.9-1.4-3.8-2.2-5.7c-1.6-3.6-2.1-7.4-3.8-10.9
				c-0.3-0.6-0.6-1.1-1.1-1.4c-0.6-0.3-1.2-0.3-1.8-0.2c-4.4,0.5-8.4,1.5-12,4.1c-3.7,2.7-8.1,5.8-12.7,6.5
				c2.3,7.9,4.2,15.8,5.5,23.8c3.1-1.2,6.2-2.6,9.2-4C443,223.7,449.5,220.1,454.9,215.2z"/>
		</g>
		<g>
			<path fill="#314584" d="M423.4,111.6c2.1-7.3,3.3-14.8,3.3-22.4c0-3.9-0.2-7.7-0.7-11.6c-0.4-3.2-0.6-7-2.5-9.7
				c-2.3-3.1-6-5.2-9.8-4.6c-0.5,0.1-0.9,0.2-1.4,0c-0.3-0.1-0.6-0.4-0.8-0.7c-1.9-2.2-3.7-4.8-6.3-6.1c-2.6-1.3-5.5-2.5-8.3-3.3
				c-10.9-3.2-21.8-1.9-32.7,0.8c-5.3,1.3-10.5,2.9-15,6.1c-5.7,4-8.4,9.7-9.9,16.4c-2.4,11-0.6,24,1.9,34.9"/>
		</g>
		<g>
			<path fill="#E29CA6" d="M344.9,101.7c-3.7-0.3-7.1,2.7-8.2,6.3c-1.1,3.6-0.3,7.5,1.2,10.9c2.2,5.2,7,10.1,13.1,9.4"/>
		</g>
		<g>
			<path fill="#C4707D" d="M349.1,123.1c0.1,0,0.2-1.2-0.2-3c-0.4-1.8-1.2-4.2-2.7-6.6c-1.5-2.4-3.4-4.2-4.8-5.3
				c-1.5-1.1-2.5-1.5-2.6-1.4c-0.2,0.3,3.6,2.8,6.4,7.3C348.1,118.7,348.8,123.2,349.1,123.1z"/>
		</g>
		<g>
			<path fill="#C4707D" d="M345.9,122.7c0.1-0.2-0.6-0.6-1.4-1.4c-0.8-0.8-1.8-2.2-2.2-4c-0.4-1.7-0.1-3.4,0.3-4.5
				c0.4-1.1,0.8-1.8,0.6-1.9c-0.1-0.1-0.8,0.4-1.4,1.6c-0.6,1.2-1.1,3.1-0.7,5.1c0.5,2,1.7,3.6,2.8,4.3
				C345,122.7,345.9,122.8,345.9,122.7z"/>
		</g>
		<g>
			<path fill="#F1AAB2" d="M397.9,143.4c7.1-3.6,10.9-10.9,14.2-17.8c2.5,0.9,5.4,0.2,7.6-1.3c7-4.6,9.4-14.9,4.7-22.1
				c-2.4-3.8-7.6-5.2-11.9-4c0.2-6.3,1.2-11.5-0.7-17.7c-1.6-5.2-4.7-9.8-9.4-12.5c-11.5-6.7-24.7-6.5-36.7-1.5
				c-6.7,2.8-12.6,7.6-16.2,13.9c-4.8,8.5-4.9,18.9-4.3,28.7c0.6,9,1.7,18.4,6.4,26.1c4.6,7.5,14.3,13.5,23.3,12.8
				c0,2.7,0.4,5.3-0.1,7.9c-0.2,1,0.1,0.9-0.7,1.4c-0.5,0.3-1.7,0.3-2.3,0.4c-0.4,0.1-4.2,1.3-4.2,1.3c3.1,5.5,9.4,8.6,15.6,9.4
				c6.2,0.8,12.6-0.5,18.7-2c2-0.5,4-1,5.7-2.2c1.7-1.2,2.9-3.2,2.6-5.2c-3.8-1.2-9-1.1-12.4-3.4c-2.8-2-2-8-2.3-11.1
				C396.3,144.2,397.2,143.8,397.9,143.4z"/>
		</g>
		<path fill="#F1AAB2" d="M347.2,473.4v13.9c0,0-23.4-3.7-24.5,11.6l51.3,0.8l-1-32.2"/>
		<path fill="#F1AAB2" d="M438.7,469.5l2.3,13.7c0,0,22.4-7.5,26.1,7.4l-50.5,9.3l-4.4-31.9"/>
		<polygon fill="#3D447A" points="340.7,345.3 342.7,477 377.6,477.8 379.3,340.8 		"/>
		<path fill="#525798" d="M347.2,484.8v2.4c0,0-23.4-3.7-24.5,11.6l51.3,0.8l-0.3-9.7c-2.5,0.6-4.8,1.7-6.8,3.2
			C361.4,488.5,354.4,485.6,347.2,484.8z"/>
		<path fill="#657DDD" d="M373.1,341.6c-0.2,3.7-0.4,8.2-0.6,13.4c-0.6,15.2-1.4,36.3-1.9,59.5c-0.5,23.2-0.7,44.3-0.7,59.5
			c0,1.3,0,2.5,0,3.6l0.6,0c0-1.2,0-2.4,0-3.6c0.2-15.2,0.5-36.3,1-59.5c0.5-23.2,1.1-44.3,1.6-59.5c0.2-5.1,0.3-9.6,0.4-13.4
			L373.1,341.6z"/>
		<polygon fill="#3D447A" points="423.7,342.1 443.7,472.3 409.5,478.9 385,344.2 		"/>
		<path fill="#657DDD" d="M377.7,469.7c-5.1,0.2-10.7,0.3-16.6,0.2c-6.6-0.1-12.8-0.3-18.4-0.6l0,1.6c5.6,0.4,11.8,0.7,18.4,0.8
			c5.9,0.1,11.5-0.1,16.6-0.3L377.7,469.7z"/>
		<path fill="#525798" d="M440.6,480.8l0.4,2.4c0,0,22.4-7.5,26.1,7.4l-50.5,9.3l-1.3-9.6c2.5,0.2,5,0.9,7.3,2
			C427.2,486.8,433.6,482.8,440.6,480.8z"/>
		<path fill="#657DDD" d="M391.2,343.8c0.8,3.6,1.7,8,2.8,13.1c3.2,14.9,7.4,35.5,11.8,58.4c4.4,22.8,8.1,43.6,10.6,58.6
			c0.2,1.2,0.4,2.4,0.6,3.6l-0.6,0.1c-0.2-1.2-0.4-2.4-0.7-3.6c-2.7-15-6.5-35.7-10.9-58.5c-4.4-22.8-8.5-43.5-11.5-58.4
			c-1-5-1.9-9.4-2.7-13.2L391.2,343.8z"/>
		<path fill="#657DDD" d="M408,470.9c5.1-0.7,10.6-1.5,16.4-2.6c6.5-1.2,12.6-2.4,18.1-3.7l0.2,1.5c-5.4,1.3-11.5,2.6-18,3.8
			c-5.8,1-11.4,1.8-16.5,2.5L408,470.9z"/>
		<g>
			<path fill="#C4707D" d="M376.7,114.5c0-0.1-0.5,0-1.2,0.1c-0.7,0.1-1.9,0.1-3.1-0.3c-1.1-0.4-3.1-1.4-1.7-2.5
				c0.6-0.6,1.4-1.2,2.2-1.9c0.8-0.7,1.6-1.5,2.1-2.6c1-2.1,0.9-4.4,0.7-6.2c-0.3-1.9-0.7-3.5-1-4.9c-0.6-2.7-1.1-4.4-1.3-4.4
				c-0.2,0,0,1.8,0.4,4.5c0.2,1.4,0.5,3,0.7,4.8c0.2,1.8,0.2,3.8-0.7,5.6c-0.9,1.7-2.6,2.9-4,4.2c-0.3,0.3-0.8,0.8-0.8,1.5
				c0,0.7,0.4,1.2,0.8,1.5c0.8,0.6,1.5,0.9,2.3,1.1c1.5,0.4,2.7,0.2,3.4-0.1C376.4,114.8,376.7,114.5,376.7,114.5z"/>
		</g>
		<g>
			
				<ellipse transform="matrix(-8.182669e-002 0.9966 -0.9966 -8.182669e-002 499.1101 -248.5502)" fill="#C4707D" cx="364" cy="105.6" rx="3.4" ry="0.6"/>
		</g>
		<g>
			<path fill="#C4707D" d="M386.5,109.3c0.3,0,0.6-1.6,0.7-3.5c0.1-1.9-0.2-3.5-0.5-3.5c-0.3,0-0.6,1.5-0.7,3.5
				C385.9,107.7,386.2,109.3,386.5,109.3z"/>
		</g>
		<circle opacity="7.000000e-002" fill="#E05A90" cx="394.6" cy="121.7" r="9"/>
		<path opacity="7.000000e-002" fill="#E05A90" d="M360.1,124.6c0-5-4-9-9-9c-1.9,0-3.6,0.6-5,1.5c0.7,5.8,2.1,11.4,4.8,16.5
			c0.1,0,0.2,0,0.2,0C356.1,133.7,360.1,129.6,360.1,124.6z"/>
		<path fill="#525798" d="M371.1,157.5c0,0-19.9-1.1-32.1,21.3c-10.1,18.5-13.5,25-13.5,25s7.3,8.9,16.4,10.2
			c9.2,1.3,38.7,9.6,38.7,9.6l13.8,20.2l24.3,17.6l3.3,2.7l-1.5-51.2l3.7,7.9c0,0,20.3-2.9,31.9-17.6c0,0-18.2-23.9-21-27.9
			c-3.5-5.1-8-13-31.9-17.9C403.3,157.5,387.3,173.1,371.1,157.5z"/>
		<path fill="#6B75C1" d="M350,212.2c3.4,0.8,5.6,0.9,5.7,0.8c0-0.2-2.1-0.6-5.4-1.6c-1.7-0.5-3.6-1.2-5.7-2.1
			c-2.1-0.9-4.4-2-6.6-3.4c-2.3-1.4-4.3-2.9-6.1-4.3c-1.3-1-2.4-2.1-3.4-3c-0.2,0.3-0.3,0.6-0.4,0.8c0.9,1,2,2,3.2,3
			c1.8,1.5,3.9,3,6.2,4.4c2.3,1.4,4.7,2.5,6.8,3.4C346.3,211.2,348.3,211.8,350,212.2z"/>
		<g>
			<path fill="#6B75C1" d="M353,205.6c0.1-0.3-4.9-1.6-10.6-4.4c-5.7-2.7-9.8-5.9-10-5.6c-0.2,0.2,3.7,3.8,9.5,6.6
				C347.7,205.1,353,205.9,353,205.6z"/>
		</g>
		<path fill="#D37F46" d="M419,234l3.5-24c0,0-12.1-22.4-5-49.6c-1.8-0.7-3.6-1.4-5.4-2c-2.3,6.2-4.6,20.9-5.6,28.2
			c-0.4,2.9-2.4,5.3-5.1,6.4c-19.5,7.5-39.4-2.1-40.9-6.6c-1.3-4.1,0.2-21.5,0.6-27.1c-1.2,0.3-4.1,0.8-5.2,1.3l-2.6,16.9
			c-0.5,3.5-1.5,6.8-3,10c-3.1,6.5-8.1,19.6-5.3,31c3.9,16,3.2,14,3.2,14s-3.5,6.9-7.5,26.4c-3.9,19.5-11.8,87.8-11.8,87.8
			s58.2,20.8,115.7-6.8L419,234z"/>
		<path fill="#AC6C45" d="M442.8,333.5c-13.3,4.9-30.6,10-50.1,12.1c-11.3,1.2-22.2,1.1-31.9,0.2c-4.9-0.4-9.5-1.2-13.8-2
			c-2.1-0.4-4.2-0.9-6.2-1.3c-2-0.5-3.9-0.9-5.6-1.5c-1.9-0.6-3.7-1.1-5.4-1.7c0,0.4-0.1,0.8-0.1,1.1c1.6,0.6,3.4,1.2,5.2,1.7
			c1.8,0.6,3.7,1.1,5.7,1.6c2,0.5,4.1,1,6.2,1.5c4.3,0.9,9,1.7,13.9,2.1c9.9,1,20.9,1.1,32.3-0.1c11.4-1.2,22.1-3.5,31.7-6.2
			c6.8-2,13.1-4.1,18.6-6.2L442.8,333.5z"/>
		<g>
			<path fill="#C4707D" d="M383.2,115c-0.2-0.1-0.7,0.6-1.8,1.5c-1.1,0.9-2.8,1.8-4.8,2.2c-2,0.3-4-0.1-5.2-0.6
				c-1.3-0.5-2-1-2.2-0.9c-0.1,0.1,0.5,0.9,1.8,1.6c1.3,0.7,3.4,1.4,5.8,1c2.3-0.4,4.2-1.6,5.2-2.7C383.1,116,383.4,115,383.2,115z"
				/>
		</g>
		
			<ellipse transform="matrix(0.9413 -0.3375 0.3375 0.9413 -8.923 127.0213)" fill="#C4707D" cx="360.8" cy="89.2" rx="6.4" ry="3.3"/>
		
			<ellipse transform="matrix(0.985 0.1725 -0.1725 0.985 21.2502 -65.315)" fill="#C4707D" cx="386.5" cy="89.6" rx="6.4" ry="3.3"/>
		<g>
			<path fill="#6B75C1" d="M454.1,200.6c-0.2-0.2-0.4-0.5-0.5-0.7c-0.4,0.4-0.8,0.7-1.3,1.1c-1,0.9-2.2,1.8-3.4,2.8
				c-2.5,1.8-5.3,3.7-8.5,5.3c-3.2,1.6-6.3,2.9-9.2,3.9c-1.5,0.5-2.9,0.9-4.2,1.2c-1.3,0.4-2.6,0.6-3.7,0.8
				c-0.6,0.1-1.2,0.2-1.7,0.3l0.3,0.7c0.5-0.1,1-0.1,1.5-0.2c1.2-0.2,2.5-0.4,3.8-0.7c1.4-0.3,2.8-0.7,4.3-1.1c3-1,6.2-2.2,9.4-3.9
				c3.2-1.7,6.1-3.6,8.6-5.5c1.2-1,2.4-1.9,3.4-2.9C453.4,201.4,453.7,201,454.1,200.6z"/>
		</g>
		<g>
			<path fill="#6B75C1" d="M448.2,198c-0.1-0.1-1.4,0.6-3.6,1.9c-2.1,1.3-5,3.1-8.3,4.9c-3.3,1.8-6.5,3.1-8.8,3.9
				c-2.3,0.8-3.8,1.1-3.8,1.3c0,0.1,1.6,0.1,4-0.5c2.5-0.6,5.7-1.8,9.1-3.6c3.4-1.8,6.2-3.8,8.2-5.3
				C447.1,199.1,448.3,198.1,448.2,198z"/>
		</g>
		<g opacity="7.000000e-002">
			<path fill="#E05A90" d="M351.6,77.8c2.8,2.8,6.7,4.2,10.6,4.4c3.9,0.2,7.8-0.7,11.5-2c1.5,3.9,5.3,6.5,9.3,7.3
				c4.1,0.8,8.3-0.2,12-2.1c0.4,3.2,0.8,6.5,2,9.5c1.2,3,3.3,5.8,6.3,7.1c3,1.3,6.8,0.9,8.9-1.6c0.8-1,1.4-2.2,1.8-3.4
				c3-8.3,2.6-18.2-2.6-25.4c-5.3-7.4-14.7-10.8-23.7-12c-7.6-1-16-0.6-22.1,4"/>
		</g>
		<g>
			<path fill="#314584" d="M351.5,69c-1.7,2.7-0.2,6.5,2.5,8.3c2.7,1.7,6.1,1.9,9.2,1.5c5.3-0.6,10.4-2.3,14.9-5.1
				c-0.8,3,0.9,6.3,3.5,8c2.6,1.7,6,1.9,9,1.3c3.1-0.6,5.9-2,8.7-3.4c-0.4,3.5-0.2,7.1,0.4,10.6c0.5,3.1,1.5,6.3,3.8,8.6
				c2.2,2.2,6,3.2,8.7,1.4c1.6-1.1,2.6-3,3.2-4.9c2.6-8.2,0.2-17.5-5.3-24c-5.5-6.6-13.7-10.6-22.2-11.8s-17.2,0.1-25.3,2.7
				c-4.1,1.3-8.2,3.1-11.3,6.1"/>
		</g>
		<g opacity="7.000000e-002">
			<path fill="#E05A90" d="M423.8,116.3c-1.2,2.3-2.7,3.6-4.9,5.1c-0.5,0.3-4.1,3-4.5,1.8c-1.2-3.2-1.9-7.1-1.7-10.6
				c0.2-3.3,1.5-6.6,3.9-8.9c0.6-0.6,1.3-1.1,2.1-1.4c1.2-0.4,2.7,0,3.7,0.8s1.8,1.9,2.2,3.2C425.8,109.5,425.3,113.3,423.8,116.3z"
				/>
		</g>
		<g>
			<g>
				<path fill="#C4707D" d="M420.6,102.6c0-0.1-0.3-0.2-1-0.1c-0.6,0-1.6,0.2-2.6,0.8c-1,0.6-2.1,1.5-2.9,2.8
					c-0.8,1.3-1.4,2.9-1.8,4.5c-0.7,3.4-0.4,6.6,0.1,8.7c0.6,2.2,1.3,3.4,1.4,3.3c0.2-0.1-0.2-1.4-0.6-3.5c-0.3-2.1-0.5-5.1,0.2-8.3
					c0.3-1.6,0.9-3,1.6-4.2c0.7-1.2,1.6-2.1,2.4-2.7C419.2,102.8,420.7,102.8,420.6,102.6z"/>
			</g>
			<g>
				<path fill="#C4707D" d="M416,120.3c0.1,0.1,0.7-0.5,1.2-1.7c0.5-1.2,0.9-3,0.6-4.9c-0.3-2-1.2-3.6-2-4.5c-0.9-1-1.6-1.3-1.7-1.2
					c-0.1,0.1,0.4,0.7,1,1.7c0.6,1,1.3,2.5,1.5,4.2c0.3,1.7,0.1,3.3-0.2,4.5C416.1,119.5,415.8,120.2,416,120.3z"/>
			</g>
		</g>
		<path fill="#AC6C45" d="M387.8,236.8c6.7-0.1,13.1-0.7,18.9-1.4c2.9-0.4,5.6-0.8,8.2-1.4c1.3-0.3,2.5-0.5,3.7-0.7
			c0.2,0,0.4-0.1,0.6-0.1l0.2-1.3c-0.3,0.1-0.7,0.1-1,0.2c-1.2,0.2-2.4,0.4-3.7,0.6c-2.5,0.5-5.3,0.8-8.1,1.2
			c-5.7,0.7-12.1,1.2-18.7,1.3c-6.7,0.1-13-0.2-18.8-0.7c-2.9-0.3-5.6-0.5-8.2-0.9c-1.3-0.2-2.5-0.3-3.7-0.5
			c-1.2-0.2-2.3-0.4-3.4-0.6c-2.1-0.4-4-0.7-5.7-1.1c0.1,0.6,0.2,0.9,0.2,1c1.6,0.4,3.3,0.9,5.3,1.2c1.1,0.2,2.2,0.5,3.4,0.7
			c1.2,0.2,2.4,0.4,3.7,0.6c2.6,0.5,5.3,0.7,8.2,1.1C374.6,236.5,381,236.9,387.8,236.8z"/>
		<path fill="#6B75C1" d="M401.6,179.9c0,0,6.4-10.2,6.6-21.3c-1.5-0.4-3.1-0.8-4.9-1.1c0,0-16,15.6-32.2,0c0,0-1.1-0.1-3,0.1
			c-0.9,4.7-2.1,13.7-0.3,21.2l18.6-12.5L401.6,179.9z"/>
		<g>
			<path fill="#525798" d="M382.7,164c-1.1,0.8-2.4,1.6-3.8,2.5c-4.4,2.8-8.2,4.7-8.8,5.3c0.1-1.1,0.1-4.8,0.5-9.2
				c0.2-1.9,0.4-3.6,0.7-5c0,0,0,0-0.1-0.1c0,0-0.2,0-0.7,0c-0.3,1.4-0.6,3.1-0.8,5c-0.5,5.3,0,9.6,0.2,9.6c0,0,0.1-0.1,0.1-0.2
				c0.6-0.1,4.7-1.8,9.3-4.7c1.7-1,3.2-2.1,4.4-3.1C383.4,164.2,383.1,164.1,382.7,164z"/>
			<path fill="#525798" d="M401.9,175.3C401.9,175.3,401.8,175.3,401.9,175.3c0.1,0,0.8-1.2,1.6-3.3c0.8-2.1,1.8-5.1,2.5-8.5
				c0.4-1.9,0.6-3.6,0.8-5.2c-0.3-0.1-0.5-0.1-0.8-0.2c-0.2,1.6-0.5,3.4-0.9,5.2C403.8,169.6,401.9,174.5,401.9,175.3
				c-0.4-0.6-4.1-3.1-8-6.8c-1.6-1.5-3.1-3-4.2-4.3c-0.3,0-0.5,0.1-0.8,0.1c1.1,1.4,2.6,3.1,4.5,4.8
				C397.6,173.2,401.8,175.5,401.9,175.3z"/>
		</g>
		<g>
			<ellipse fill="#AC6C45" cx="355.6" cy="189.5" rx="0.1" ry="0.4"/>
		</g>
		<path fill="#AC6C45" d="M401.1,201c3.5-0.6,6.7-1.6,9.5-2.7c0,0.2,0.1,0.3,0.1,0.3c0,0,0-0.1,0.1-0.4c1.1-0.5,2.2-1,3.1-1.5
			c1.2-0.6,2.3-1.3,3.2-1.9c0-0.2-0.1-0.4-0.1-0.5c-1,0.6-2.1,1.3-3.4,1.9c-0.9,0.4-1.8,0.9-2.8,1.3c0-0.2,0-0.4,0-0.7
			c0-1.6,0-3.2,0-4.8c0-4,0.1-9.6,0.9-15.7c0.8-6.1,2.3-11.5,3.8-15.2c0.2-0.4,0.3-0.8,0.5-1.2c-0.2-0.1-0.3-0.1-0.5-0.2
			c-0.2,0.4-0.4,0.8-0.5,1.2c-1.6,3.7-3.3,9.2-4,15.3c-0.8,6.2-0.8,11.8-0.6,15.8c0.1,2,0.2,3.7,0.3,4.8c0,0.3,0,0.5,0.1,0.7
			c-2.8,1.1-6,2-9.6,2.6c-5,0.8-10.5,0.9-16.3,0.2c-5.8-0.7-11.2-1.9-15.9-3.6c-4.7-1.7-8.8-3.8-11.9-5.9c-0.4-0.2-0.7-0.5-1.1-0.7
			c0.1-0.7,0.2-2.3,0.4-4.5c0.2-3,0.6-7.1,1.2-11.7c0.6-4.5,1.3-8.6,1.8-11.6c0.2-1.1,0.4-2.1,0.5-2.8c-0.1,0-0.3,0.1-0.4,0.1
			c-0.2,0.7-0.4,1.6-0.6,2.6c-0.7,2.9-1.5,7-2,11.6c-0.6,4.6-0.9,8.7-0.9,11.7c-0.1,2.1,0,3.7,0,4.4c-2-1.4-3.5-2.8-4.7-4
			c-0.1,0.1-0.1,0.3-0.2,0.4c1.4,1.5,3.3,3.2,5.8,4.9c3.1,2.2,7.2,4.4,12,6.1c4.8,1.7,10.3,3,16.1,3.7
			C390.4,201.9,396.1,201.8,401.1,201z"/>
		<g>
			<circle fill="#EFAD2B" cx="409.5" cy="190.3" r="10.3"/>
			<g>
				<ellipse fill="#5646A1" cx="404.5" cy="188" rx="0.8" ry="1.4"/>
				<ellipse fill="#5646A1" cx="414.4" cy="188" rx="0.8" ry="1.4"/>
			</g>
			<g>
				<path fill="#CE4576" d="M406.4,188.8C406.4,188.8,406.4,188.8,406.4,188.8c0,1.8,1.4,3.1,3.1,3.1c1.7,0,3.1-1.4,3.1-3.1
					c0,0,0,0,0,0H406.4z"/>
				<path fill="#FF5C9E" d="M409.5,191.9c0.9,0,1.7-0.4,2.2-1c-0.5-0.7-1.3-1.1-2.2-1.1c-0.9,0-1.7,0.4-2.2,1.1
					C407.8,191.5,408.6,191.9,409.5,191.9z"/>
			</g>
		</g>
		<g>
			<path fill="#BA6B36" d="M390.5,247.1c-11.1,1-22.3,0.7-33.2-1.4v27.7c0,10.5,8.5,19,19,19h6.9c10.5,0,19-8.5,19-19v-27.8
				C398.3,246.3,394.4,246.8,390.5,247.1z"/>
			<path fill="#D37F46" d="M400.3,250.3c0.6-0.1,1.2-0.3,1.8-0.4v-0.7c-0.6,0.1-1.3,0.3-1.9,0.4c-1.7,0.4-3.6,0.6-5.6,0.9
				c-3.9,0.5-8.3,0.9-12.8,1.1c-4.6,0.1-8.9,0-12.9-0.3c-2-0.2-3.9-0.3-5.6-0.6c-1.8-0.2-3.4-0.5-4.9-0.7c-0.4-0.1-0.8-0.1-1.2-0.2
				v0.6c0.3,0.1,0.7,0.1,1.1,0.2c1.5,0.3,3.1,0.6,4.9,0.8c1.8,0.3,3.6,0.4,5.6,0.7c4,0.3,8.4,0.5,13,0.4c4.6-0.2,9-0.6,12.9-1.2
				C396.7,250.9,398.6,250.6,400.3,250.3z"/>
		</g>
		<g>
			<path fill="#C4707D" d="M330.2,227.2c0.1,0-0.2-2-1.1-5.1c-0.9-3.1-2.3-7.3-4.2-11.8c-1.9-4.5-4-8.4-5.6-11.2
				c-1.6-2.8-2.8-4.4-2.9-4.3c-0.1,0.1,0.8,1.8,2.2,4.7c1.4,2.8,3.3,6.8,5.2,11.2c1.9,4.5,3.4,8.6,4.5,11.6
				C329.4,225.4,330,227.3,330.2,227.2z"/>
		</g>
	</g>
</g>
</svg>
