<?xml version="1.0" encoding="utf-8"?>
<!-- Generator: Adobe Illustrator 18.1.1, SVG Export Plug-In . SVG Version: 6.00 Build 0)  -->
<svg version="1.1" id="Layer_1" xmlns="http://www.w3.org/2000/svg" xmlns:xlink="http://www.w3.org/1999/xlink" x="0px" y="0px"
	 viewBox="0 0 1000 200" enable-background="new 0 0 1000 200" xml:space="preserve">
<rect fill="#FEC111" width="1000" height="200"/>
<rect y="177.5" opacity="0.4" fill="#FFFFFF" width="1000" height="25.4"/>
<g>
	<polygon fill="#FFFFFF" points="347.5,12.9 351.9,16.8 359.9,18.9 351.9,21 347.5,24.9 343.1,21 335,18.9 343.1,16.8 	"/>
	<polygon fill="#FFFFFF" points="943.2,84.4 947.6,88.2 955.7,90.4 947.6,92.5 943.2,96.4 938.8,92.5 930.8,90.4 938.8,88.2 	"/>
	<polygon fill="#FFFFFF" points="77.1,2.9 81.5,6.7 89.6,8.9 81.5,11 77.1,14.8 72.7,11 64.7,8.9 72.7,6.7 	"/>
	<path fill="#F9BFCA" d="M217.2,47.8c3.4,3.1-3.4,6.3-9.9,4.3c-0.6-0.2-1.2-0.5-1.6-0.9c-3.4-3.1,3.4-6.3,9.9-4.3
		C216.2,47.1,216.7,47.4,217.2,47.8z"/>
	<ellipse fill="#F9BFCA" cx="408.3" cy="28.5" rx="6.7" ry="3.2"/>
	<path fill="#F47621" d="M975.1,6.6c3.4,3.1-3.4,6.3-9.9,4.3c-0.6-0.2-1.2-0.5-1.6-0.9c-3.4-3.1,3.4-6.3,9.9-4.3
		C974.1,5.9,974.7,6.2,975.1,6.6z"/>
	<path fill="#F47621" d="M452.3,78.9c3.4,3.1-3.4,6.3-9.9,4.3c-0.6-0.2-1.2-0.5-1.6-0.9c-3.4-3.1,3.4-6.3,9.9-4.3
		C451.2,78.2,451.8,78.5,452.3,78.9z"/>
	<ellipse fill="#F47621" cx="33.7" cy="126.3" rx="7.6" ry="3.7"/>
</g>
<g>
	<g>
		<path fill="#F47621" d="M789.7,128.7c0,0-0.1,0-0.1,0.1l-2,0.5l-0.2,0.1l-31.7,7.5l-0.4,0.1l-2.3,0.5c-1.3,0.1-0.9-1.3-0.5-2.4
			c0.4-0.9,0.3-1.8,0.1-2.7l-5.6-28.2l6.7-1.6l15.9-3.8l0.4-0.1l6.9-1.6l10.3,27c0.4,0.9,0.8,1.7,1.6,2.3
			C789.6,127.2,790.7,128.2,789.7,128.7z"/>
		<g>
			
				<path fill="none" stroke="#552A22" stroke-width="1.08" stroke-linecap="round" stroke-linejoin="round" stroke-miterlimit="10" d="
				M753.8,104.5l-0.5-1.8c-0.1-0.2-1.8-5.5,0.5-9.2c1-1.6,2.6-2.7,4.8-3.3c2.2-0.5,4.2-0.3,6,0.7c4,2.2,5.5,7.2,5.6,7.8l0.5,1.7"/>
		</g>
		<path opacity="0.4" fill="#FFFFFF" d="M747,104.2l8.7,32.6l-0.4,0.1l-2.3,0.5c-1.3,0.1-0.9-1.3-0.5-2.4c0.4-0.9,0.3-1.8,0.1-2.7
			L747,104.2z"/>
		<path opacity="0.4" fill="#FFFFFF" d="M789.7,128.7l-2.1,0.5l-0.2,0.1l0,0l-10.6-32.2l10.3,27c0.4,0.9,0.8,1.7,1.6,2.3
			C789.6,127.2,790.7,128.2,789.7,128.7z"/>
	</g>
	<g>
		<g>
			<path fill="#7297BF" d="M790.3,142.8l-33.7-5.8c-1.1-0.4-0.2-1.4,0.7-2.1c0.7-0.6,1-1.4,1.3-2.2l5.8-25.3l31.1,5.3l-5.1,25.4
				c-0.1,0.8-0.1,1.7,0.3,2.4C791.1,141.5,791.5,142.8,790.3,142.8z"/>
		</g>
		<path opacity="0.4" fill="#FFFFFF" d="M760.2,137.6l-3.6-0.6c-1.1-0.4-0.2-1.4,0.7-2.1c0.7-0.6,1-1.4,1.3-2.2l5.8-25.3
			L760.2,137.6z"/>
		<path opacity="0.4" fill="#FFFFFF" d="M790.3,142.8l-3.1-0.5l8.1-29.5l-5.1,25.4c-0.1,0.8-0.1,1.7,0.3,2.4
			C791.1,141.5,791.5,142.8,790.3,142.8z"/>
		<g>
			
				<path fill="none" stroke="#552A22" stroke-width="1.08" stroke-linecap="round" stroke-linejoin="round" stroke-miterlimit="10" d="
				M771,110.1l0.5-1.8c0-0.2,1.1-5.6,4.9-8c1.7-1.1,3.7-1.4,5.9-1c2.2,0.4,3.9,1.4,5,3c2.5,3.5,1.3,8.6,1.2,9.2l-0.4,1.7"/>
		</g>
	</g>
	<g>
		<g>
			<g>
				<g>
					
						<path fill="none" stroke="#552A22" stroke-width="1.08" stroke-linecap="round" stroke-linejoin="round" stroke-miterlimit="10" d="
						M726.1,109.2l92.8,3.7v27.3l-59.1,8.7h-21.5c-1.1,0-2.1-0.4-2.9-1.1l0,0c-0.6-0.5-1-1.2-1.1-1.9L726.1,109.2z"/>
					
						<path fill="none" stroke="#552A22" stroke-width="1.08" stroke-linecap="round" stroke-linejoin="round" stroke-miterlimit="10" d="
						M771.6,151.8h-30.3c-2.3,0-4.5,0.7-6.2,2l0,0c-2,1.5-3.2,3.8-3.2,6.2l0,0c0,2.4,1.2,4.6,3.2,6.2l0,0c1.7,1.3,3.9,2,6.2,2h30.3
						h37.7c2.5,0,4.9,0.9,6.7,2.4h0c1.9,1.6,3,3.9,3,6.3v2.1"/>
					<path fill="#7297BF" d="M814.3,113.9c0,0.1,0,0.2,0,0.3c0,1.6,1.5,2.9,3.3,2.9c0.1,0,0.2,0,0.3,0c2.3-0.2,3.2-2.8,1.6-4.3
						l-0.5-0.4C817.4,110.9,814.4,111.8,814.3,113.9z"/>
					<path fill="#7297BF" d="M817.8,135.8c-0.1,0-0.2,0-0.3,0c-1.8,0-3.2,1.4-3.3,2.9c0,0.1,0,0.2,0,0.3c0.2,2.1,3.1,2.9,4.7,1.4
						l0.5-0.4C821.1,138.6,820.1,136,817.8,135.8z"/>
					
						<polygon fill="none" stroke="#552A22" stroke-width="1.08" stroke-linecap="round" stroke-linejoin="round" stroke-miterlimit="10" points="
						741.5,180 741.5,171.5 749.9,171.5 					"/>
					
						<line fill="none" stroke="#552A22" stroke-width="1.08" stroke-linecap="round" stroke-linejoin="round" stroke-miterlimit="10" x1="745.7" y1="168.2" x2="745.7" y2="171.5"/>
					
						<polygon fill="none" stroke="#552A22" stroke-width="1.08" stroke-linecap="round" stroke-linejoin="round" stroke-miterlimit="10" points="
						803.1,180 803.1,171.5 811.5,171.5 					"/>
					
						<line fill="none" stroke="#552A22" stroke-width="1.08" stroke-linecap="round" stroke-linejoin="round" stroke-miterlimit="10" x1="807.3" y1="168.2" x2="807.3" y2="171.5"/>
					
						<polyline fill="none" stroke="#552A22" stroke-width="1.08" stroke-linecap="round" stroke-linejoin="round" stroke-miterlimit="10" points="
						715.2,91.1 722.4,96.4 726.1,109.2 749,151.8 					"/>
					
						<line fill="none" stroke="#552A22" stroke-width="1.08" stroke-linecap="round" stroke-linejoin="round" stroke-miterlimit="10" x1="738.9" y1="109.7" x2="747.5" y2="148.9"/>
					
						<line fill="none" stroke="#552A22" stroke-width="1.08" stroke-linecap="round" stroke-linejoin="round" stroke-miterlimit="10" x1="752.4" y1="110.2" x2="758.9" y2="148.9"/>
					
						<line fill="none" stroke="#552A22" stroke-width="1.08" stroke-linecap="round" stroke-linejoin="round" stroke-miterlimit="10" x1="765.3" y1="110.8" x2="771" y2="147.2"/>
					
						<line fill="none" stroke="#552A22" stroke-width="1.08" stroke-linecap="round" stroke-linejoin="round" stroke-miterlimit="10" x1="778.4" y1="111.3" x2="783" y2="145.5"/>
					
						<line fill="none" stroke="#552A22" stroke-width="1.08" stroke-linecap="round" stroke-linejoin="round" stroke-miterlimit="10" x1="792.6" y1="111.8" x2="795.4" y2="143.6"/>
					
						<line fill="none" stroke="#552A22" stroke-width="1.08" stroke-linecap="round" stroke-linejoin="round" stroke-miterlimit="10" x1="806.1" y1="112.4" x2="808.1" y2="141.8"/>
					
						<line fill="none" stroke="#552A22" stroke-width="1.08" stroke-linecap="round" stroke-linejoin="round" stroke-miterlimit="10" x1="819" y1="122.4" x2="728.9" y2="122.4"/>
					
						<polyline fill="none" stroke="#552A22" stroke-width="1.08" stroke-linecap="round" stroke-linejoin="round" stroke-miterlimit="10" points="
						819,130.6 756.5,135 731.9,135 					"/>
					<ellipse fill="#7297BF" cx="741.5" cy="180" rx="8.4" ry="7.5"/>
					
						<ellipse fill="none" stroke="#552A22" stroke-width="1.08" stroke-linecap="round" stroke-linejoin="round" stroke-miterlimit="10" cx="741.5" cy="180" rx="3" ry="2.7"/>
					<ellipse fill="#7297BF" cx="803.1" cy="180" rx="8.4" ry="7.5"/>
					
						<ellipse fill="none" stroke="#552A22" stroke-width="1.08" stroke-linecap="round" stroke-linejoin="round" stroke-miterlimit="10" cx="803.1" cy="180" rx="3" ry="2.7"/>
				</g>
			</g>
		</g>
	</g>
	<g>
		<g>
			<g>
				<g>
					<g>
						<path fill="#7297BF" d="M712,188.4c-5.4,1.3-12-1.4-14.9-2.1c-1.9-0.5-3.1-0.7-3.7-0.8c-0.4-0.1-0.7-0.3-0.9-0.6
							c-0.1-0.1-0.2-0.3-0.2-0.5c0,0,0-0.1-0.1-0.1c-0.6-1.7-0.2-4,0.3-5.9c0,0,0-0.1,0-0.1v0c0.4-1.5,0.9-2.6,0.9-2.6l7.6-1.9
							c0,0,1.2,0.9,2.6,2.2c0,0,0.1,0.1,0.1,0.1c0.4,0.3,0.8,0.7,1.2,1.1c0,0,0.1,0.1,0.1,0.1c0.5,0.4,0.9,0.9,1.4,1.3
							c0,0,0.1,0.1,0.1,0.1c0.2,0.2,0.3,0.3,0.4,0.5c0.6,0.7,1.6,1.4,2.7,2h0c0,0,0.1,0,0.1,0.1c2.5,1.4,5.5,2.4,6,2.9
							c0.1,0,0.1,0.1,0.1,0.2c0,0,0.1,0.1,0.1,0.1C716.8,185.4,716.8,187.2,712,188.4z"/>
						<path fill="#FFFFFF" d="M716.2,184.5c-0.5,1-1.4,1.9-2.7,2.5c-1.3,0.6-2.8,0.9-4.8,0.9c-0.2,0-0.3,0-0.5,0
							c-2.7,0-5.5-0.5-8.1-1.4c-0.6-0.2-1.3-0.5-1.9-0.7c-0.7-0.3-1.5-0.6-2.2-0.8c-1.4-0.5-2.6-0.7-3.7-0.6c0,0,0-0.1-0.1-0.1
							c0.8,0,1.6,0.1,2.5,0.3c0,0,0.1,0,0.1,0c0.4,0.1,0.8,0.2,1.2,0.4c0.8,0.2,1.5,0.6,2.2,0.8c0.6,0.2,1.2,0.5,1.9,0.7
							c2,0.7,4.2,1.2,6.4,1.3c0,0,0.1,0,0.1,0c0.6,0,1.3,0,1.9,0c2,0,3.5-0.3,4.8-0.9c1.3-0.6,2.2-1.5,2.6-2.5
							C716.1,184.4,716.1,184.4,716.2,184.5z"/>
						<path fill="#FFFFFF" d="M709.9,181.3c-2,1.7-3.2,4.1-3.2,6.5v0c0,0,0,0.1-0.1,0.1c0,0,0,0,0,0c0,0-0.1,0-0.1-0.1v0
							c0-2.5,1.2-4.9,3.2-6.6h0C709.8,181.2,709.8,181.2,709.9,181.3z"/>
						<path fill="#FFFFFF" d="M694.8,184.6L694.8,184.6c0,0.1,0,0.1-0.1,0.1h0c0,0-0.1,0-0.1-0.1c0,0,0,0,0-0.1
							c0.1-1.2-0.1-2.4-0.4-3.4c-0.4-1.1-1-2.1-1.8-2.8c0,0,0-0.1,0-0.1c0.9,0.7,1.5,1.7,1.9,2.9
							C694.8,182.1,694.9,183.3,694.8,184.6z"/>
						<path fill="#FFFFFF" d="M703.8,176.1c-1.6,0.9-3.1,2.2-4.2,3.6c0,0,0,0-0.1,0c0,0,0,0,0,0c0,0,0-0.1,0-0.1
							c1.2-1.4,2.6-2.6,4.2-3.6C703.7,176.1,703.8,176.1,703.8,176.1z"/>
						<path fill="#FFFFFF" d="M705.1,177.3c-1.6,0.9-3.1,2.2-4.2,3.6c0,0,0,0-0.1,0c0,0,0,0,0,0c0,0,0-0.1,0-0.1
							c1.2-1.4,2.6-2.6,4.2-3.6C705,177.3,705.1,177.3,705.1,177.3z"/>
						<path fill="#FFFFFF" d="M706.6,178.8c-1.2,0.8-2.3,1.8-3.2,3c0,0,0,0-0.1,0c0,0,0,0,0,0c0,0,0-0.1,0-0.1
							C704.1,180.5,705.2,179.5,706.6,178.8C706.5,178.7,706.5,178.7,706.6,178.8z"/>
					</g>
					<path fill="#FFFFFF" d="M693.5,169.8l0,6c0,0,1.5,1.4,4,0.5c2.5-0.9,3.6-2.4,3.6-2.4l-0.3-4.2H693.5z"/>
				</g>
				<g>
					<g>
						<path fill="#7297BF" d="M667.7,179.2c0,0.1,0,0.2,0,0.2c-0.2,1-1,2-3.3,2.2c-4.5,0.4-8.2-5.4-9-7.3c-0.9-1.9-5.1-6.2-6-7.5
							c-0.6-0.9-0.9-1.3-0.1-2.5c0,0,0.1-0.1,0.1-0.1c0.3-0.5,0.9-1.2,1.6-2.1c0.9-1.1,2.1-1.7,3.2-2.1c0.1,0,0.1,0,0.2,0
							c2.2-0.7,4.4-0.5,4.4-0.5c0.4,3.8,4.9,6.2,4.9,6.2c0,0.6,0.1,1.2,0.3,1.9c0,0,0,0.1,0,0.1c0.1,0.5,0.2,1,0.3,1.4
							c0,0,0,0.1,0,0.1c0.2,0.6,0.3,1.2,0.5,1.7c0,0,0,0.1,0,0.1c0.4,1.2,0.8,2.2,1.2,3.2c0,0,0,0.1,0.1,0.1c0.5,1.3,1,2.2,1.2,2.6
							C667.4,177.5,667.7,178.4,667.7,179.2z"/>
						<path fill="#FFFFFF" d="M667.7,179.2c0,0.1,0,0.2,0,0.2c-0.7,0.7-2,1.3-3,1.3h-0.1c-1.8-0.1-3.6-0.9-5.2-2.4
							c-1.2-1.2-2.1-2.6-3-4l-0.3-0.5c-2.1-3.3-4.4-6.5-7-9.6c0,0,0.1-0.1,0.1-0.1c0.7,0.8,1.3,1.6,1.9,2.4c0,0,0.1,0.1,0.1,0.1
							c1.8,2.3,3.5,4.7,5,7.1l0.3,0.5c0.9,1.4,1.8,2.8,2.9,4c1.5,1.5,3.3,2.3,5.1,2.4h0.1C665.6,180.7,667.1,180,667.7,179.2z"/>
						<path fill="#FFFFFF" d="M666,174.3c-2.7,0.3-5.2,1.4-7,3.2c0,0,0,0-0.1,0s0,0,0,0c0,0,0-0.1,0-0.1c1.9-1.8,4.4-2.9,7.1-3.2
							C666,174.3,666,174.3,666,174.3z"/>
						<path fill="#FFFFFF" d="M654.3,160c-0.5,2.4-1.5,4.7-3,6.8c0,0,0,0,0,0c0,0,0,0-0.1,0c0,0,0,0,0,0c0,0,0-0.1,0-0.1
							c0,0,0,0,0,0c1.4-2,2.4-4.3,2.9-6.6C654.2,160,654.2,160,654.3,160z"/>
						<path fill="#FFFFFF" d="M663.8,167.6c-1.5,0.1-2.9,0.3-4.4,0.6h0c0,0-0.1,0-0.1,0c0,0,0-0.1,0.1-0.1c1.4-0.4,2.9-0.6,4.4-0.6
							C663.8,167.5,663.8,167.6,663.8,167.6z"/>
						<path fill="#FFFFFF" d="M664.2,169.2c-1.3,0.1-2.6,0.3-3.9,0.6c0,0,0,0,0,0c0,0-0.1,0-0.1,0c0,0,0-0.1,0.1-0.1
							c1.3-0.3,2.6-0.5,3.9-0.6C664.1,169.1,664.2,169.1,664.2,169.2z"/>
						<path fill="#FFFFFF" d="M664.8,171c-1.3,0.1-2.6,0.3-3.9,0.6h0c0,0-0.1,0-0.1,0c0,0,0-0.1,0.1-0.1c1.3-0.3,2.6-0.5,3.9-0.6
							C664.7,171,664.7,171,664.8,171z"/>
					</g>
					<path fill="#FFFFFF" d="M660.8,157.7l-2.1,1.7c0,0,0,3.3,1.8,4.8c1.8,1.5,3,1.3,3,1.3l2.4-2L660.8,157.7z"/>
				</g>
			</g>
			<g>
				<g>
					<polygon fill="#7297BF" points="683.2,123.8 681.2,136 659.8,156.7 666.3,164 692.4,147.3 692,134.2 					"/>
					
						<path fill="none" stroke="#552A22" stroke-width="1.08" stroke-linecap="round" stroke-linejoin="round" stroke-miterlimit="10" d="
						M685.9,133.7c-0.2,2-1.1,3.4-2.4,5c-1.3,1.6-2.9,2.9-4.5,4.2c-6,5.1-11.6,10.6-17.2,16"/>
					
						<line fill="none" stroke="#552A22" stroke-width="1.08" stroke-linecap="round" stroke-linejoin="round" stroke-miterlimit="10" x1="662" y1="154.5" x2="668.7" y2="162.6"/>
				</g>
				<g>
					<g>
						<path fill="#7297BF" d="M674.9,99.6c-0.1,0,1.3,9.9,1.5,10.7c1.8,8.2,5.7,15.7,9.3,23.4c0.7,1.4,1.4,2.9,2.1,4.3
							c0.4,0.9,1.9,3,1.8,3.9c0,0-1.8,16.3,3.1,28h8.8c0,0,2.4-25,1.8-35c-0.6-10.1,1.2-30.6,1.2-30.6S675.2,99.6,674.9,99.6z"/>
						
							<path fill="none" stroke="#552A22" stroke-width="1.08" stroke-linecap="round" stroke-linejoin="round" stroke-miterlimit="10" d="
							M682.6,126.6l7.1,15.2c0,0-0.8,11.8,0.6,18.6c1.5,7.3,2.5,9.3,2.5,9.3"/>
						
							<path fill="none" stroke="#552A22" stroke-width="1.08" stroke-linecap="round" stroke-linejoin="round" stroke-miterlimit="10" d="
							M701.6,169.8c0,0,0.3-2.7,0.8-8.3c0.5-5.6,1-19.7,1.1-24.2c0.1-4.4-2.3-25.2-2.3-25.2l1.2-3.6"/>
						
							<path fill="none" stroke="#552A22" stroke-width="1.08" stroke-linecap="round" stroke-linejoin="round" stroke-miterlimit="10" d="
							M679.9,103.7c2.2,11.1,5.6,22.1,9.9,32.7c0.8,2,1.7,4,2.1,6.1c0.5,2.3,0.4,4.7,0.4,7.1c0,6.6,0.7,13.3,2,19.8"/>
						
							<path fill="none" stroke="#552A22" stroke-width="1.08" stroke-linecap="round" stroke-linejoin="round" stroke-miterlimit="10" d="
							M682.6,114.4c0,0,7.9-3.5,9.4-10.4"/>
					</g>
					
						<line fill="none" stroke="#552A22" stroke-width="1.08" stroke-linecap="round" stroke-linejoin="round" stroke-miterlimit="10" x1="692.1" y1="167.9" x2="701.8" y2="167.8"/>
				</g>
			</g>
		</g>
		<g>
			<g>
				<g>
					<path fill="#FFFFFF" d="M699.4,50.1c0,1,0,2.1,0,3.5c0.1,3.8-1,3.2-1,3.2c-4.8,0.5-8.9-10.5-8.9-10.5c1-1.8,2.1-5.9,2.1-5.9
						l2.1,1.8l5.9,5.2C699.5,47.3,699.4,48.3,699.4,50.1z"/>
					<path fill="#F9BFCA" d="M699.5,47.3c0,0-0.1,1-0.1,2.8c-0.5,0.5-1.2,0.7-2.4,0.4c-4.2-1.2-4.5-8.9-4.5-8.9l1.1,0.6L699.5,47.3z
						"/>
				</g>
				<g>
					<path fill="#552A22" d="M706.7,32.6c0,0.1,0,0.3,0,0.4c0,0.6,0.1,1.3-0.1,1.8c0,0.1-0.2,0.5-0.2,0.5c-0.4-0.5-0.6-1.1-0.8-1.7
						c-0.2-0.6-0.4-1.1-0.6-1.7c-0.2-0.5-0.4-1.1-0.5-1.6c-0.1-0.5-0.1-1.7,0.8-1.6c1,0.1,1.4,1.5,1.5,2.2
						C706.7,31.5,706.7,32,706.7,32.6z"/>
					<path fill="#FFFFFF" d="M706.7,34.9c0,0.4,0,0.9,0,1.4c0,1-0.1,2-0.2,3.2c0,0.2,0,0.4-0.1,0.5c0,0.4-0.1,0.8-0.2,1.1
						c0,0.2-0.1,0.4-0.1,0.5c-0.2,1-0.4,1.9-0.8,2.7c0,0,0,0,0,0c-0.8,1.8-2,3.1-4,3.3c-2.1,0.2-4-0.5-5.5-1.6c0,0,0,0,0,0
						c-1-0.7-1.9-1.7-2.7-2.6c-0.1-0.1-0.2-0.2-0.3-0.4c-0.3-0.3-0.5-0.7-0.7-1c-0.4-0.5-0.7-1-0.9-1.4c-1.2-2.1-2.4-5.4-2.4-5.9
						c0,0-0.6-8.1,7.1-9.1c5.9-0.8,9,2.7,10.2,6.1c0.2,0.6,0.4,1.2,0.5,1.8C706.6,34.1,706.7,34.5,706.7,34.9z"/>
					<g>
						<g>
							<path fill="#552A22" d="M693.6,29.5c-0.3-0.8-0.8-1.6-1.5-2.1c-0.8-0.5-1.9-0.6-2.6-0.1c-0.3,0.2-0.5,0.4-0.7,0.7
								c-0.5,0.6-0.9,1.3-1.1,2.1c-0.3,1.3,0.2,2.7,1.1,3.8c0.5,0.6,1.1,1,1.7,1.4c0.5,0.3,1.4,0.9,2,0.7c0.7-0.2,1-1.2,1.2-1.7
								c0.3-0.7,0.4-1.5,0.4-2.2C694.1,31.2,693.9,30.3,693.6,29.5z"/>
							<path fill="#552A22" d="M696.4,30.7c1.3,0,2.6-0.4,3.6-1.1c0.6-0.4,1.2-0.9,2-0.9c0.4,0,0.7,0.2,1,0.3
								c0.6,0.2,1.1,0.3,1.8,0.4c0.5,0,1,0,1.5-0.2c1.2-0.4,2.1-1.4,2.4-2.5c0.5-1.9-0.4-4-2.2-5c-0.7-0.4-1.6-0.7-2.4-0.5
								c-0.4,0.1-0.8,0.3-1.2,0.5c-0.9,0.4-1.7,0.7-2.7,0.8c-0.9,0.1-1.8-0.1-2.8-0.2c-1.5-0.2-3-0.3-4.5,0c-1.5,0.3-2.9,1-3.7,2.1
								c-0.9,1.1-1.1,2.7-0.3,3.8c0.4,0.6,0.9,1,1.5,1.3c0.5,0.2,1.1,0.3,1.6,0.2c0.5-0.1,0.8-0.4,1.3-0.1
								C694.3,30.2,695.1,30.7,696.4,30.7z"/>
						</g>
						<path fill="#552A22" d="M684.9,29.2c-0.3,0.3-0.6,0.7-0.7,1.1c-0.1,0.3-0.1,0.7-0.1,1c0,0.5,0.1,1.1,0.3,1.6
							c0.5,1,1.4,1.8,2.2,2.7c0.3,0.4,0.6,0.8,1.1,1.1c0.7,0.5,1.7,0.5,2.4,0.1c0.8-0.5,1-1.5,1.1-2.4c0.2-1.5,0.2-3.1,0-4.6
							c-0.1-0.8-0.6-2.6-1.7-2.8c-0.4-0.1-1,0.3-1.4,0.4c-0.6,0.2-1.1,0.4-1.7,0.7C685.9,28.3,685.3,28.8,684.9,29.2z"/>
					</g>
					<path fill="#552A22" d="M687.3,37.6c0.5,1,0.4,2.1,0.5,3.1c0,0.5,0.1,1,0.3,1.4c0.3,0.4,0.7,0.8,1.3,1c0.5,0.1,1.1,0,1.5-0.3
						s0.7-0.6,0.9-1c0.3-0.7,0.4-1.4,0.3-2.1c-0.1-0.4-0.2-0.8-0.4-1.2c-0.3-0.4-0.7-0.7-1.2-0.9c-0.8-0.3-1.7-0.5-2.5-0.4"/>
					<g>
						<path fill="#FFFFFF" d="M692.9,37.5c0,0-2.9-4.6-5.1-2.2c-2.8,3,2.5,6.3,4.6,6.2L692.9,37.5z"/>
						<g>
							
								<path fill="none" stroke="#552A22" stroke-width="1.08" stroke-linecap="round" stroke-linejoin="round" stroke-miterlimit="10" d="
								M690.9,36.2c-0.2-0.3-0.6-0.6-1-0.7c-0.7-0.2-1.3,0.1-1.7,0.6c-0.2,0.4-0.3,0.9-0.2,1.4c0.2,0.8,0.7,1.6,1.4,2.1
								c0.2,0.2,0.5,0.3,0.8,0.4c0.5,0.1,0.7-0.1,1.1-0.3"/>
							
								<path fill="none" stroke="#552A22" stroke-width="1.08" stroke-linecap="round" stroke-linejoin="round" stroke-miterlimit="10" d="
								M690.3,35.7c0.3,0.3,0.3,0.7,0.4,1.1c0.1,1.1,0.1,2.2-0.1,3.2"/>
						</g>
					</g>
					<g>
						<path fill="#552A22" d="M706.2,41c-0.6-2-3.8-1.9-5.4-1.5c-1.6,0.5-3.5,1.1-5.2,0.4c-1.2-0.6-1.6-2.1-2.1-3.1
							c-0.4-0.8-0.9-1.5-1.6-2c-0.2-0.1-0.7-0.4-0.8-0.1c0,0.1,0,0.2,0,0.3c0.1,0.4,0.4,0.8,0.6,1.2c0.6,0.9,0.8,1.9,0.8,3
							c0,1-0.2,2.1,0,3.1c0.1,0.4,0.3,0.9,0.6,1.3c0.6,1,1.6,1.9,2.7,2.6c0,0,0,0,0,0c0.4,0.3,0.9,0.5,1.3,0.7
							c1.9,1,4.3,1.4,6.2,0.1c1-0.6,1.6-1.6,2.1-2.6c0,0,0,0,0,0C705.8,43.4,706.1,42.3,706.2,41C706.3,41.1,706.3,41.1,706.2,41z
							 M705,41.9c-0.1,0.3-0.2,0.7-0.5,1c-0.1,0.1-0.3,0.3-0.5,0.4c-1.2,0.6-2.7,0.6-3.9,0.1c-0.2-0.1-0.5-0.2-0.6-0.4
							c-0.4-0.4-0.3-1.1-0.1-1.6c0.1-0.3,0.3-0.6,0.7-0.8c0.4-0.2,1-0.2,1.4-0.1c1,0,2.9-0.7,3.4,0.6
							C705.1,41.2,705.1,41.6,705,41.9z"/>
						<g>
							<g>
								
									<path fill="none" stroke="#552A22" stroke-width="1.08" stroke-linecap="round" stroke-linejoin="round" stroke-miterlimit="10" d="
									M699.9,40.9c0,0,2.2,1.1,4,0.2"/>
								
									<path fill="none" stroke="#552A22" stroke-width="1.08" stroke-linecap="round" stroke-linejoin="round" stroke-miterlimit="10" d="
									M701.2,41.9c0,0,1.1,0.6,2.1,0.1"/>
							</g>
							<g>
								<path fill="#552A22" d="M704.6,35.5c0,0.3,0.3,0.5,0.6,0.4c0.3,0,0.5-0.3,0.5-0.6c0-0.3-0.3-0.5-0.6-0.4
									C704.7,34.9,704.5,35.2,704.6,35.5z"/>
								<path fill="#552A22" d="M698.7,34.8c-0.3,0-0.6,0.3-0.5,0.6c0,0.3,0.3,0.5,0.7,0.5c0.3,0,0.6-0.3,0.5-0.6
									C699.4,35,699.1,34.8,698.7,34.8z"/>
							</g>
							
								<path fill="none" stroke="#552A22" stroke-width="1.08" stroke-linecap="round" stroke-linejoin="round" stroke-miterlimit="10" d="
								M704,32.9c-0.8,1.6-0.8,3.5-0.1,5.1c0.2,0.4,0.4,0.8,0.2,1.1c-0.1,0.3-0.5,0.5-0.9,0.7"/>
							<g>
								<path fill="#552A22" d="M695.6,33.2c-0.2,0.3-0.3,0.6,0,0.8c0.3,0.2,0.6,0.1,1-0.1c0.8-0.4,1.8-0.6,2.7-0.6
									c0.7,0,1.4-0.3,1-1.1c-0.2-0.5-0.6-0.7-1.1-0.6c-0.6,0.1-1.2,0.3-1.8,0.5C696.7,32.3,696,32.6,695.6,33.2z"/>
								<path fill="#552A22" d="M706.6,33.6L706.6,33.6c-0.5,0-1-0.2-1.4-0.3c-0.2-0.1-0.3-0.1-0.4-0.2c-0.1-0.1-0.1-0.3-0.1-0.5
									c0-0.2,0-0.3,0.1-0.5c0.1-0.2,0.4-0.4,0.6-0.4c0.2,0,0.5,0,0.9,0.1C706.3,32.4,706.5,33,706.6,33.6z"/>
							</g>
						</g>
					</g>
				</g>
			</g>
			<g>
				<g>
					<path fill="#F47621" d="M704.2,108.5L704,112c0,0,3.3-0.4,3.3-1.8C707.3,110.2,705.7,108.7,704.2,108.5z"/>
					<path fill="#F47621" d="M704.2,108.5L704,112c0,0,3.3-0.4,3.3-1.8C707.3,110.2,705.7,108.7,704.2,108.5z"/>
				</g>
				<path fill="#F47621" d="M699.2,51.2l4.2,3.7c0,0-0.9,2.1-0.7,3.5c0.2,1.4,1.2,6.1,1.2,12.1c0,6,3.1,29.6,3.3,33.4
					c0.2,3.7,0.1,6.4,0.1,6.4s-0.7-1-6.3-3l-1.6-52.5L699.2,51.2z"/>
				<g>
					
						<path fill="none" stroke="#552A22" stroke-width="1.08" stroke-linecap="round" stroke-linejoin="round" stroke-miterlimit="10" d="
						M700,57.3c0,0,1.3-2.4,3.3-2.4"/>
					
						<line fill="none" stroke="#552A22" stroke-width="1.08" stroke-linecap="round" stroke-linejoin="round" stroke-miterlimit="10" x1="700.9" y1="56.2" x2="702.6" y2="57.7"/>
					
						<path fill="none" stroke="#552A22" stroke-width="1.08" stroke-linecap="round" stroke-linejoin="round" stroke-miterlimit="10" d="
						M700.7,56.4c1.8,16.9,1.4,34.1,0.9,51"/>
				</g>
			</g>
			<g>
				<path fill="#7297BF" d="M699.3,54.8c0,0,1.5,4.2,1.6,11.9c0.1,7.6,0,37.9,0,37.9l-6.4-0.5l1.3-48.7L699.3,54.8z"/>
				<g>
					<path fill="#F47621" d="M689.5,46.3c0,0-8.4,4.6-10.9,8.2c-2.5,3.5-4.8,41.8-6.7,48.5l22,5.7c0,0,2.5-11.5,3.5-23.7
						c1.1-12.1,2.5-20,1.5-22.6c-1-2.6-1.8-3.9-1.8-4.8c0-0.9,0.6-1.9-0.1-2.7S692.2,51.6,689.5,46.3z"/>
					<path fill="none" stroke="#F9BFCA" stroke-width="2.6489" stroke-miterlimit="10" d="M668.1,88.7c0,0,3.3-34.4,12.1-36.7
						c0,0,5.9-1.7,8,6.1c2.1,7.8-2.7,33.3-2.7,33.3"/>
					
						<line fill="none" stroke="#552A22" stroke-width="1.08" stroke-linecap="round" stroke-linejoin="round" stroke-miterlimit="10" x1="677.7" y1="86.4" x2="675.1" y2="103.6"/>
					<g>
						
							<path fill="none" stroke="#552A22" stroke-width="1.08" stroke-linecap="round" stroke-linejoin="round" stroke-miterlimit="10" d="
							M684.9,49c0,0,4.5,6.9,6.7,9c0,0,1.8-3.2,5.2-3.3"/>
						
							<path fill="none" stroke="#552A22" stroke-width="1.08" stroke-linecap="round" stroke-linejoin="round" stroke-miterlimit="10" d="
							M696.1,54.8c0.3,1-0.2,2-0.1,3.1c0.1,0.7,0.4,1.3,0.6,1.9c1.5,3.5,1.3,7.5,0.9,11.3c-1.1,12.5-3,24.9-5,37.2"/>
					</g>
				</g>
			</g>
			<g>
				<path fill="#F9BFCA" d="M690.2,89.7c0,1-0.1,2.7-0.2,4.7c0,0,0,0.1,0,0.1c0,0.5,0,1-0.1,1.5c0,0.1,0,0.1,0,0.2
					c-0.1,2.2-0.3,4.6-0.5,7c0,0.1,0,0.1,0,0.2c-0.2,1.6-0.3,3.1-0.5,4.6c0,0.1,0,0.1,0,0.2c-0.4,2.6-0.8,4.9-1.4,6.8
					c0,0.1,0,0.1,0,0.2c-0.5,1.5-1,2.6-1.7,3.3c-0.8,0.8-2,1.4-3.5,1.8c-0.3,0.1-0.5,0.1-0.8,0.2c-6.5,1.3-16.9-0.7-18.5-4.3
					c-0.1-0.3-0.2-0.6-0.3-1c0-0.1,0-0.1,0-0.2c-0.1-0.7-0.2-1.7-0.2-2.8V112c0-1.4,0.1-3.1,0.2-4.9c0-0.1,0-0.1,0-0.2
					c0.1-1,0.2-2,0.3-3c0,0,0-0.1,0-0.1c0.2-2.2,0.5-4.5,0.8-6.7c0,0,0-0.1,0-0.1c0.4-3.2,0.9-6.2,1.2-8.4c0,0,0-0.1,0-0.1
					c0.1-0.7,0.2-1.4,0.3-1.9c0.1-0.8,1.2-1.1,1.8-0.6c1.8,1.4,5.1,3.5,9.7,3.6c5.1,0.1,9.9-0.5,12.1-0.8
					C689.6,88.6,690.2,89.1,690.2,89.7z"/>
				<path fill="#FFFFFF" d="M690,94.4c0,0,0,0.1,0,0.1c-0.9,0.1-1.8,0.1-2.8,0.1c-3.3,0-6.7-0.4-10-1.2c-4.4-1-8.5-2.7-12.2-5
					c0,0,0-0.1,0-0.1C672.3,92.8,681.3,95,690,94.4z"/>
				<path fill="#FFFFFF" d="M690,96.1c0,0.1,0,0.1,0,0.2c-2.5,1.3-5.5,2.1-8.8,2.4c-1.2,0.1-2.4,0.2-3.7,0.2c-2.2,0-4.6-0.2-7.4-0.5
					c-2-0.3-4.2-0.6-6.3-1.2c0,0,0-0.1,0-0.1c2.1,0.6,4.3,1,6.3,1.2c4.4,0.6,7.9,0.7,11.1,0.4C684.5,98.2,687.4,97.3,690,96.1z"/>
				<path fill="#FFFFFF" d="M689.4,103.3c0,0.1,0,0.1,0,0.2c-1.4,0.7-3,1.3-4.7,1.8c-2.4,0.6-5,0.9-8.1,0.9c-1.3,0-2.6-0.1-4.1-0.2
					c-2.1-0.2-5-0.5-7.7-1.3c-0.7-0.2-1.3-0.5-1.9-0.7c0,0,0-0.1,0-0.1c0.6,0.3,1.3,0.5,1.9,0.7c2.7,0.9,5.5,1.1,7.6,1.3
					c4.9,0.4,8.7,0.1,12.1-0.8C686.4,104.6,688,104,689.4,103.3z"/>
				<path fill="#FFFFFF" d="M688.9,108.1c0,0.1,0,0.1,0,0.2c-1.1,0.5-2.2,1-3.4,1.3c-2.5,0.7-5.1,0.8-7.2,0.8c-0.1,0-0.2,0-0.3,0
					c-6.2,0-11.3-1.1-15.1-3.3c0-0.1,0-0.1,0-0.2c3.8,2.2,8.9,3.2,15.1,3.3c2.1,0,4.9-0.1,7.5-0.8
					C686.6,109.1,687.7,108.6,688.9,108.1z"/>
				<path fill="#FFFFFF" d="M687.4,115c0,0.1,0,0.1,0,0.2c-2.7,0.8-5.5,1.2-8.3,1.2c-1.4,0-2.8-0.1-4.2-0.3
					c-3.2-0.5-6.2-1.5-8.8-2.5c-1.2-0.4-2.4-0.9-3.7-1.5V112c1.2,0.5,2.5,1,3.7,1.5c2.6,0.9,5.6,2,8.8,2.4
					C679.1,116.6,683.4,116.2,687.4,115z"/>
				<path fill="#FFFFFF" d="M682.2,120.3c-0.3,0.1-0.5,0.1-0.8,0.2c-0.6,0-1.1,0-1.7,0c-1.8,0-3.5-0.1-5.2-0.4
					c-4.3-0.8-8.4-2.5-11.8-4.9c0-0.1,0-0.1,0-0.2c3.4,2.5,7.5,4.2,11.9,5C677.1,120.4,679.7,120.5,682.2,120.3z"/>
			</g>
			<g>
				<g>
					<path fill="#FFFFFF" d="M683.2,78.7l24.1,11.6l-3.2,4.4c0,0-18.8-2.8-27.1-7.4c0,0-4.2-2.6-3.2-6.8L683.2,78.7z"/>
					<path fill="#F47621" d="M680.9,52.1c0,0-3.6,0.7-6.4,7.3c-2.7,6.6-3.8,19-3.3,21.3c0.5,2.3,1.5,4.1,2.3,4.2
						c0.8,0.2,5.3-5,9.4-6.5c4.1-1.5,4-2.5,4-2.5s1.7-9.4,1.3-13.2C687.8,59,689.1,53.9,680.9,52.1z"/>
					<g>
						
							<path fill="none" stroke="#552A22" stroke-width="1.08" stroke-linecap="round" stroke-linejoin="round" stroke-miterlimit="10" d="
							M681.9,52.5c0,0,4.2,0.9,4.9,7c0.7,6-1.3,15.8-1.3,15.8"/>
						
							<path fill="none" stroke="#552A22" stroke-width="1.08" stroke-linecap="round" stroke-linejoin="round" stroke-miterlimit="10" d="
							M687.8,59.8c0,0-0.2,4.2-1.3,9.1"/>
						<g>
							
								<path fill="none" stroke="#552A22" stroke-width="1.08" stroke-linecap="round" stroke-linejoin="round" stroke-miterlimit="10" d="
								M671,80.4c0,0,2-3.9,7.5-4.6c5.5-0.7,7.1-0.8,8.1,0c1,0.8-1.3,1.8-2.7,2.3c-1.4,0.5-4.1,1.9-6.5,3.9c-2.4,2-3.1,2.8-3.7,3"/>
							
								<path fill="none" stroke="#552A22" stroke-width="1.08" stroke-linecap="round" stroke-linejoin="round" stroke-miterlimit="10" d="
								M671.8,82.9c0,0,2.5-2.9,7.8-5"/>
							
								<path fill="none" stroke="#552A22" stroke-width="1.08" stroke-linecap="round" stroke-linejoin="round" stroke-miterlimit="10" d="
								M686.7,76c0,0-6.6,2-9.7,4.6"/>
						</g>
					</g>
					<g>
						<path fill="#FFFFFF" d="M707.3,90.3c0,0,7.5-2.6,8.5-2.3c1,0.3,3.7,2.5,3.7,3.2c0.1,0.7-0.5,2.9-1,3.3
							c-0.5,0.5-4.4,1.5-5.2,1.7c-0.8,0.2-3.7-0.1-3.8-1.4c0,0-1.2,1.1-2.9,1.2c-1.7,0.1-3.4-1.7-3.4-1.7L707.3,90.3z"/>
						
							<path fill="none" stroke="#552A22" stroke-width="1.08" stroke-linecap="round" stroke-linejoin="round" stroke-miterlimit="10" d="
							M711.8,94.5c0,0-2.1-0.8-2.4,0.4"/>
						
							<path fill="none" stroke="#552A22" stroke-width="1.08" stroke-linecap="round" stroke-linejoin="round" stroke-miterlimit="10" d="
							M717.1,90.3c0,0,0.9,1,1,1.8c0.1,0.8-0.1,2.2-0.5,2.9"/>
						
							<path fill="none" stroke="#552A22" stroke-width="1.08" stroke-linecap="round" stroke-linejoin="round" stroke-miterlimit="10" d="
							M715.2,91.1c0,0,1.1,1.2,1,2.3c-0.1,1.1-0.6,2.3-0.6,2.3"/>
						
							<path fill="none" stroke="#552A22" stroke-width="1.08" stroke-linecap="round" stroke-linejoin="round" stroke-miterlimit="10" d="
							M713.1,92c0,0,1.1,1.1,1,2.1c0,1-0.4,2.1-0.4,2.1"/>
					</g>
				</g>
			</g>
		</g>
	</g>
</g>
<g>
	<g>
		<g>
			<rect x="409.9" y="112.5" fill="#F47621" width="106.2" height="66.9"/>
			<g>
				<g>
					<path fill="#F9BFCA" d="M427,127.8h-7.3V122c0-1,1.6-1.7,3.6-1.7l0,0c2,0,3.6,0.8,3.6,1.7V127.8z"/>
					<path fill="#F9BFCA" d="M446.7,127.8h-7.3V122c0-1,1.6-1.7,3.6-1.7l0,0c2,0,3.6,0.8,3.6,1.7V127.8z"/>
					<path fill="#F9BFCA" d="M466.5,127.8h-7.3V122c0-1,1.6-1.7,3.6-1.7l0,0c2,0,3.6,0.8,3.6,1.7V127.8z"/>
					<path fill="#F9BFCA" d="M486.2,127.8H479V122c0-1,1.6-1.7,3.6-1.7l0,0c2,0,3.6,0.8,3.6,1.7V127.8z"/>
					<path fill="#F9BFCA" d="M506,127.8h-7.3V122c0-1,1.6-1.7,3.6-1.7l0,0c2,0,3.6,0.8,3.6,1.7V127.8z"/>
				</g>
				<g>
					<path fill="#F9BFCA" d="M427,137.9h-7.3v-5.7c0-1,1.6-1.7,3.6-1.7l0,0c2,0,3.6,0.8,3.6,1.7V137.9z"/>
					<path fill="#F9BFCA" d="M446.7,137.9h-7.3v-5.7c0-1,1.6-1.7,3.6-1.7l0,0c2,0,3.6,0.8,3.6,1.7V137.9z"/>
					<path fill="#F9BFCA" d="M466.5,137.9h-7.3v-5.7c0-1,1.6-1.7,3.6-1.7l0,0c2,0,3.6,0.8,3.6,1.7V137.9z"/>
					<path fill="#F9BFCA" d="M486.2,137.9H479v-5.7c0-1,1.6-1.7,3.6-1.7l0,0c2,0,3.6,0.8,3.6,1.7V137.9z"/>
					<path fill="#F9BFCA" d="M506,137.9h-7.3v-5.7c0-1,1.6-1.7,3.6-1.7l0,0c2,0,3.6,0.8,3.6,1.7V137.9z"/>
				</g>
				<g>
					<path fill="#F9BFCA" d="M427,148.1h-7.3v-5.7c0-1,1.6-1.7,3.6-1.7l0,0c2,0,3.6,0.8,3.6,1.7V148.1z"/>
					<path fill="#F9BFCA" d="M446.7,148.1h-7.3v-5.7c0-1,1.6-1.7,3.6-1.7l0,0c2,0,3.6,0.8,3.6,1.7V148.1z"/>
					<path fill="#F9BFCA" d="M466.5,148.1h-7.3v-5.7c0-1,1.6-1.7,3.6-1.7l0,0c2,0,3.6,0.8,3.6,1.7V148.1z"/>
					<path fill="#F9BFCA" d="M486.2,148.1H479v-5.7c0-1,1.6-1.7,3.6-1.7l0,0c2,0,3.6,0.8,3.6,1.7V148.1z"/>
					<path fill="#F9BFCA" d="M506,148.1h-7.3v-5.7c0-1,1.6-1.7,3.6-1.7l0,0c2,0,3.6,0.8,3.6,1.7V148.1z"/>
				</g>
			</g>
			<g>
				<g>
					<g>
						<path fill="#F9BFCA" d="M437.9,176.2h-13.3v-8.8c0-1.8,3-3.2,6.7-3.2l0,0c3.7,0,6.7,1.4,6.7,3.2V176.2z"/>
						
							<line fill="none" stroke="#F47621" stroke-width="1.0069" stroke-miterlimit="10" x1="424" y1="171.5" x2="438.7" y2="171.5"/>
					</g>
					<g>
						<path fill="#F9BFCA" d="M459.8,176.2h-13.3v-8.8c0-1.8,3-3.2,6.7-3.2l0,0c3.7,0,6.7,1.4,6.7,3.2V176.2z"/>
						
							<line fill="none" stroke="#F47621" stroke-width="1.0069" stroke-miterlimit="10" x1="446" y1="171.5" x2="460.7" y2="171.5"/>
					</g>
					<g>
						<path fill="#F9BFCA" d="M481.8,176.2h-13.3v-8.8c0-1.8,3-3.2,6.7-3.2l0,0c3.7,0,6.7,1.4,6.7,3.2V176.2z"/>
						
							<line fill="none" stroke="#F47621" stroke-width="1.0069" stroke-miterlimit="10" x1="468" y1="171.5" x2="482.7" y2="171.5"/>
					</g>
					<g>
						<path fill="#F9BFCA" d="M503.8,176.2h-13.3v-8.8c0-1.8,3-3.2,6.7-3.2l0,0c3.7,0,6.7,1.4,6.7,3.2V176.2z"/>
						
							<line fill="none" stroke="#F47621" stroke-width="1.0069" stroke-miterlimit="10" x1="490" y1="171.5" x2="504.7" y2="171.5"/>
					</g>
				</g>
				<g>
					<polygon fill="#FFFFFF" points="424.7,160.3 503.1,160.3 509.9,167.2 417.9,167.2 					"/>
					<rect x="425.2" y="152" fill="#FDEFED" width="77.4" height="6.1"/>
				</g>
			</g>
			<g>
				
					<line fill="none" stroke="#FFFFFF" stroke-width="1.08" stroke-linecap="round" stroke-linejoin="round" stroke-miterlimit="10" x1="409.9" y1="114.9" x2="516.2" y2="114.9"/>
				
					<line fill="none" stroke="#FFFFFF" stroke-width="1.08" stroke-linecap="round" stroke-linejoin="round" stroke-miterlimit="10" x1="412.3" y1="112.5" x2="412.3" y2="114.8"/>
				
					<line fill="none" stroke="#FFFFFF" stroke-width="1.08" stroke-linecap="round" stroke-linejoin="round" stroke-miterlimit="10" x1="415.8" y1="112.5" x2="415.8" y2="114.8"/>
				
					<line fill="none" stroke="#FFFFFF" stroke-width="1.08" stroke-linecap="round" stroke-linejoin="round" stroke-miterlimit="10" x1="419.3" y1="112.5" x2="419.3" y2="114.8"/>
				
					<line fill="none" stroke="#FFFFFF" stroke-width="1.08" stroke-linecap="round" stroke-linejoin="round" stroke-miterlimit="10" x1="422.8" y1="112.5" x2="422.8" y2="114.8"/>
				
					<line fill="none" stroke="#FFFFFF" stroke-width="1.08" stroke-linecap="round" stroke-linejoin="round" stroke-miterlimit="10" x1="426.3" y1="112.5" x2="426.3" y2="114.8"/>
				
					<line fill="none" stroke="#FFFFFF" stroke-width="1.08" stroke-linecap="round" stroke-linejoin="round" stroke-miterlimit="10" x1="429.9" y1="112.5" x2="429.9" y2="114.8"/>
				
					<line fill="none" stroke="#FFFFFF" stroke-width="1.08" stroke-linecap="round" stroke-linejoin="round" stroke-miterlimit="10" x1="433.4" y1="112.5" x2="433.4" y2="114.8"/>
				
					<line fill="none" stroke="#FFFFFF" stroke-width="1.08" stroke-linecap="round" stroke-linejoin="round" stroke-miterlimit="10" x1="436.9" y1="112.5" x2="436.9" y2="114.8"/>
				
					<line fill="none" stroke="#FFFFFF" stroke-width="1.08" stroke-linecap="round" stroke-linejoin="round" stroke-miterlimit="10" x1="440.4" y1="112.5" x2="440.4" y2="114.8"/>
				
					<line fill="none" stroke="#FFFFFF" stroke-width="1.08" stroke-linecap="round" stroke-linejoin="round" stroke-miterlimit="10" x1="443.9" y1="112.5" x2="443.9" y2="114.8"/>
				
					<line fill="none" stroke="#FFFFFF" stroke-width="1.08" stroke-linecap="round" stroke-linejoin="round" stroke-miterlimit="10" x1="447.5" y1="112.5" x2="447.5" y2="114.8"/>
				
					<line fill="none" stroke="#FFFFFF" stroke-width="1.08" stroke-linecap="round" stroke-linejoin="round" stroke-miterlimit="10" x1="451" y1="112.5" x2="451" y2="114.8"/>
				
					<line fill="none" stroke="#FFFFFF" stroke-width="1.08" stroke-linecap="round" stroke-linejoin="round" stroke-miterlimit="10" x1="454.5" y1="112.5" x2="454.5" y2="114.8"/>
				
					<line fill="none" stroke="#FFFFFF" stroke-width="1.08" stroke-linecap="round" stroke-linejoin="round" stroke-miterlimit="10" x1="458" y1="112.5" x2="458" y2="114.8"/>
				
					<line fill="none" stroke="#FFFFFF" stroke-width="1.08" stroke-linecap="round" stroke-linejoin="round" stroke-miterlimit="10" x1="461.5" y1="112.5" x2="461.5" y2="114.8"/>
				
					<line fill="none" stroke="#FFFFFF" stroke-width="1.08" stroke-linecap="round" stroke-linejoin="round" stroke-miterlimit="10" x1="465.1" y1="112.5" x2="465.1" y2="114.8"/>
				
					<line fill="none" stroke="#FFFFFF" stroke-width="1.08" stroke-linecap="round" stroke-linejoin="round" stroke-miterlimit="10" x1="468.6" y1="112.5" x2="468.6" y2="114.8"/>
				
					<line fill="none" stroke="#FFFFFF" stroke-width="1.08" stroke-linecap="round" stroke-linejoin="round" stroke-miterlimit="10" x1="472.1" y1="112.5" x2="472.1" y2="114.8"/>
				
					<line fill="none" stroke="#FFFFFF" stroke-width="1.08" stroke-linecap="round" stroke-linejoin="round" stroke-miterlimit="10" x1="475.6" y1="112.5" x2="475.6" y2="114.8"/>
				
					<line fill="none" stroke="#FFFFFF" stroke-width="1.08" stroke-linecap="round" stroke-linejoin="round" stroke-miterlimit="10" x1="479.1" y1="112.5" x2="479.1" y2="114.8"/>
				
					<line fill="none" stroke="#FFFFFF" stroke-width="1.08" stroke-linecap="round" stroke-linejoin="round" stroke-miterlimit="10" x1="482.7" y1="112.5" x2="482.7" y2="114.8"/>
				
					<line fill="none" stroke="#FFFFFF" stroke-width="1.08" stroke-linecap="round" stroke-linejoin="round" stroke-miterlimit="10" x1="486.2" y1="112.5" x2="486.2" y2="114.8"/>
				
					<line fill="none" stroke="#FFFFFF" stroke-width="1.08" stroke-linecap="round" stroke-linejoin="round" stroke-miterlimit="10" x1="489.7" y1="112.5" x2="489.7" y2="114.8"/>
				
					<line fill="none" stroke="#FFFFFF" stroke-width="1.08" stroke-linecap="round" stroke-linejoin="round" stroke-miterlimit="10" x1="493.2" y1="112.5" x2="493.2" y2="114.8"/>
				
					<line fill="none" stroke="#FFFFFF" stroke-width="1.08" stroke-linecap="round" stroke-linejoin="round" stroke-miterlimit="10" x1="496.7" y1="112.5" x2="496.7" y2="114.8"/>
				
					<line fill="none" stroke="#FFFFFF" stroke-width="1.08" stroke-linecap="round" stroke-linejoin="round" stroke-miterlimit="10" x1="500.3" y1="112.5" x2="500.3" y2="114.8"/>
				
					<line fill="none" stroke="#FFFFFF" stroke-width="1.08" stroke-linecap="round" stroke-linejoin="round" stroke-miterlimit="10" x1="503.8" y1="112.5" x2="503.8" y2="114.8"/>
				
					<line fill="none" stroke="#FFFFFF" stroke-width="1.08" stroke-linecap="round" stroke-linejoin="round" stroke-miterlimit="10" x1="507.3" y1="112.5" x2="507.3" y2="114.8"/>
				
					<line fill="none" stroke="#FFFFFF" stroke-width="1.08" stroke-linecap="round" stroke-linejoin="round" stroke-miterlimit="10" x1="510.8" y1="112.5" x2="510.8" y2="114.8"/>
				
					<line fill="none" stroke="#FFFFFF" stroke-width="1.08" stroke-linecap="round" stroke-linejoin="round" stroke-miterlimit="10" x1="514.3" y1="112.5" x2="514.3" y2="114.8"/>
			</g>
		</g>
	</g>
	<g>
		<rect x="9.8" y="125.6" fill="#FFFFFF" width="88.6" height="53.7"/>
		<g>
			<path fill="#7297BF" d="M9.9,125.6v14.1h88.6v-14.1C98.5,125.6,9.9,125.8,9.9,125.6z"/>
			
				<line fill="none" stroke="#FFFFFF" stroke-width="1.08" stroke-linecap="round" stroke-linejoin="round" stroke-miterlimit="10" x1="12.6" y1="125.8" x2="12.6" y2="139.7"/>
			
				<line fill="none" stroke="#FFFFFF" stroke-width="1.08" stroke-linecap="round" stroke-linejoin="round" stroke-miterlimit="10" x1="16.1" y1="125.8" x2="16.1" y2="139.7"/>
			
				<line fill="none" stroke="#FFFFFF" stroke-width="1.08" stroke-linecap="round" stroke-linejoin="round" stroke-miterlimit="10" x1="19.7" y1="125.8" x2="19.7" y2="139.7"/>
			
				<line fill="none" stroke="#FFFFFF" stroke-width="1.08" stroke-linecap="round" stroke-linejoin="round" stroke-miterlimit="10" x1="23.2" y1="125.8" x2="23.2" y2="139.7"/>
			
				<line fill="none" stroke="#FFFFFF" stroke-width="1.08" stroke-linecap="round" stroke-linejoin="round" stroke-miterlimit="10" x1="26.8" y1="125.8" x2="26.8" y2="139.7"/>
			
				<line fill="none" stroke="#FFFFFF" stroke-width="1.08" stroke-linecap="round" stroke-linejoin="round" stroke-miterlimit="10" x1="30.4" y1="125.8" x2="30.4" y2="139.7"/>
			
				<line fill="none" stroke="#FFFFFF" stroke-width="1.08" stroke-linecap="round" stroke-linejoin="round" stroke-miterlimit="10" x1="33.9" y1="125.8" x2="33.9" y2="139.7"/>
			
				<line fill="none" stroke="#FFFFFF" stroke-width="1.08" stroke-linecap="round" stroke-linejoin="round" stroke-miterlimit="10" x1="37.5" y1="125.8" x2="37.5" y2="139.7"/>
			
				<line fill="none" stroke="#FFFFFF" stroke-width="1.08" stroke-linecap="round" stroke-linejoin="round" stroke-miterlimit="10" x1="41" y1="125.8" x2="41" y2="139.7"/>
			
				<line fill="none" stroke="#FFFFFF" stroke-width="1.08" stroke-linecap="round" stroke-linejoin="round" stroke-miterlimit="10" x1="44.6" y1="125.8" x2="44.6" y2="139.7"/>
			
				<line fill="none" stroke="#FFFFFF" stroke-width="1.08" stroke-linecap="round" stroke-linejoin="round" stroke-miterlimit="10" x1="48.1" y1="125.8" x2="48.1" y2="139.7"/>
			
				<line fill="none" stroke="#FFFFFF" stroke-width="1.08" stroke-linecap="round" stroke-linejoin="round" stroke-miterlimit="10" x1="51.7" y1="125.8" x2="51.7" y2="139.7"/>
			
				<line fill="none" stroke="#FFFFFF" stroke-width="1.08" stroke-linecap="round" stroke-linejoin="round" stroke-miterlimit="10" x1="55.3" y1="125.8" x2="55.3" y2="139.7"/>
			
				<line fill="none" stroke="#FFFFFF" stroke-width="1.08" stroke-linecap="round" stroke-linejoin="round" stroke-miterlimit="10" x1="58.8" y1="125.8" x2="58.8" y2="139.7"/>
			
				<line fill="none" stroke="#FFFFFF" stroke-width="1.08" stroke-linecap="round" stroke-linejoin="round" stroke-miterlimit="10" x1="62.4" y1="125.8" x2="62.4" y2="139.7"/>
			
				<line fill="none" stroke="#FFFFFF" stroke-width="1.08" stroke-linecap="round" stroke-linejoin="round" stroke-miterlimit="10" x1="65.9" y1="125.8" x2="65.9" y2="139.7"/>
			
				<line fill="none" stroke="#FFFFFF" stroke-width="1.08" stroke-linecap="round" stroke-linejoin="round" stroke-miterlimit="10" x1="69.5" y1="125.8" x2="69.5" y2="139.7"/>
			
				<line fill="none" stroke="#FFFFFF" stroke-width="1.08" stroke-linecap="round" stroke-linejoin="round" stroke-miterlimit="10" x1="73" y1="125.8" x2="73" y2="139.7"/>
			
				<line fill="none" stroke="#FFFFFF" stroke-width="1.08" stroke-linecap="round" stroke-linejoin="round" stroke-miterlimit="10" x1="76.6" y1="125.8" x2="76.6" y2="139.7"/>
			
				<line fill="none" stroke="#FFFFFF" stroke-width="1.08" stroke-linecap="round" stroke-linejoin="round" stroke-miterlimit="10" x1="80.2" y1="125.8" x2="80.2" y2="139.7"/>
			
				<line fill="none" stroke="#FFFFFF" stroke-width="1.08" stroke-linecap="round" stroke-linejoin="round" stroke-miterlimit="10" x1="83.7" y1="125.8" x2="83.7" y2="139.7"/>
			
				<line fill="none" stroke="#FFFFFF" stroke-width="1.08" stroke-linecap="round" stroke-linejoin="round" stroke-miterlimit="10" x1="87.3" y1="125.8" x2="87.3" y2="139.7"/>
			
				<line fill="none" stroke="#FFFFFF" stroke-width="1.08" stroke-linecap="round" stroke-linejoin="round" stroke-miterlimit="10" x1="90.8" y1="125.8" x2="90.8" y2="139.7"/>
			
				<line fill="none" stroke="#FFFFFF" stroke-width="1.08" stroke-linecap="round" stroke-linejoin="round" stroke-miterlimit="10" x1="94.4" y1="125.8" x2="94.4" y2="139.7"/>
			
				<line fill="none" stroke="#FFFFFF" stroke-width="1.08" stroke-linecap="round" stroke-linejoin="round" stroke-miterlimit="10" x1="97.9" y1="125.8" x2="97.9" y2="139.7"/>
		</g>
		<g>
			
				<rect x="21.6" y="143.3" fill="none" stroke="#552A22" stroke-width="1.08" stroke-linecap="round" stroke-linejoin="round" stroke-miterlimit="10" width="11.4" height="11.4"/>
			
				<line fill="none" stroke="#552A22" stroke-width="1.08" stroke-linecap="round" stroke-linejoin="round" stroke-miterlimit="10" x1="27.2" y1="143.2" x2="27.2" y2="154.7"/>
			
				<line fill="none" stroke="#552A22" stroke-width="1.08" stroke-linecap="round" stroke-linejoin="round" stroke-miterlimit="10" x1="21.6" y1="146.4" x2="33" y2="146.4"/>
			
				<line fill="none" stroke="#552A22" stroke-width="1.08" stroke-linecap="round" stroke-linejoin="round" stroke-miterlimit="10" x1="21.6" y1="150.5" x2="33" y2="150.5"/>
		</g>
		<g>
			
				<rect x="49.6" y="143.3" fill="none" stroke="#552A22" stroke-width="1.08" stroke-linecap="round" stroke-linejoin="round" stroke-miterlimit="10" width="11.4" height="11.4"/>
			
				<line fill="none" stroke="#552A22" stroke-width="1.08" stroke-linecap="round" stroke-linejoin="round" stroke-miterlimit="10" x1="55.3" y1="143.2" x2="55.3" y2="154.7"/>
			
				<line fill="none" stroke="#552A22" stroke-width="1.08" stroke-linecap="round" stroke-linejoin="round" stroke-miterlimit="10" x1="49.6" y1="146.4" x2="61.1" y2="146.4"/>
			
				<line fill="none" stroke="#552A22" stroke-width="1.08" stroke-linecap="round" stroke-linejoin="round" stroke-miterlimit="10" x1="49.6" y1="150.5" x2="61.1" y2="150.5"/>
		</g>
		<g>
			
				<rect x="76.8" y="143.3" fill="none" stroke="#552A22" stroke-width="1.08" stroke-linecap="round" stroke-linejoin="round" stroke-miterlimit="10" width="11.4" height="11.4"/>
			
				<line fill="none" stroke="#552A22" stroke-width="1.08" stroke-linecap="round" stroke-linejoin="round" stroke-miterlimit="10" x1="82.4" y1="143.2" x2="82.4" y2="154.7"/>
			
				<line fill="none" stroke="#552A22" stroke-width="1.08" stroke-linecap="round" stroke-linejoin="round" stroke-miterlimit="10" x1="76.8" y1="146.4" x2="88.2" y2="146.4"/>
			
				<line fill="none" stroke="#552A22" stroke-width="1.08" stroke-linecap="round" stroke-linejoin="round" stroke-miterlimit="10" x1="76.8" y1="150.5" x2="88.2" y2="150.5"/>
		</g>
		<g>
			
				<rect x="37.3" y="162.8" fill="none" stroke="#552A22" stroke-width="1.08" stroke-linecap="round" stroke-linejoin="round" stroke-miterlimit="10" width="54.1" height="14.4"/>
			<g>
				<g>
					
						<line fill="none" stroke="#552A22" stroke-width="1.08" stroke-linecap="round" stroke-linejoin="round" stroke-miterlimit="10" x1="37.3" y1="175.5" x2="91.4" y2="175.5"/>
					
						<line fill="none" stroke="#552A22" stroke-width="1.08" stroke-linecap="round" stroke-linejoin="round" stroke-miterlimit="10" x1="37.3" y1="164.4" x2="91.3" y2="164.4"/>
					
						<line fill="none" stroke="#552A22" stroke-width="1.08" stroke-linecap="round" stroke-linejoin="round" stroke-miterlimit="10" x1="40.1" y1="162.8" x2="40.1" y2="177.2"/>
					
						<line fill="none" stroke="#552A22" stroke-width="1.08" stroke-linecap="round" stroke-linejoin="round" stroke-miterlimit="10" x1="88.1" y1="162.8" x2="88.1" y2="177.2"/>
				</g>
				<g>
					<rect x="17.6" y="162.7" fill="#7297BF" width="15.4" height="14.6"/>
					<g>
						
							<rect x="19.6" y="163.6" fill="none" stroke="#FAF4E9" stroke-width="0.1906" stroke-miterlimit="10" width="4.1" height="5"/>
						
							<rect x="26.5" y="163.6" fill="none" stroke="#FAF4E9" stroke-width="0.1906" stroke-miterlimit="10" width="4.1" height="5"/>
						
							<rect x="19.6" y="170.5" fill="none" stroke="#FAF4E9" stroke-width="0.1906" stroke-miterlimit="10" width="4.1" height="5"/>
						
							<rect x="26.5" y="170.5" fill="none" stroke="#FAF4E9" stroke-width="0.1906" stroke-miterlimit="10" width="4.1" height="5"/>
					</g>
				</g>
			</g>
		</g>
		<polygon fill="#F47621" points="17.1,157.6 91,157.6 97.4,164.1 10.7,164.1 		"/>
		<rect x="9.9" y="177.9" fill="#7297BF" width="88.6" height="1.4"/>
	</g>
	<g>
		<path fill="#F47621" d="M145.4,172.4c-3.3-0.2-6.4-1.2-7.8-2.8c-0.7-0.7-0.9-1.6-0.6-2.4c0.6-1.3,2.7-2.3,3.5-3.5
			c0.9-1.4,0.1-2.9,1.3-4.2c0.6-0.6,1.6-1.2,3-1.5c1.3-0.3,2.9-0.3,4.2-0.1c4.8,0.9,4.1,4.1,5.3,6.1c0.6,1.1,1.7,2.1,2.1,3.2
			c0.5,1.3-0.1,2.7-2.1,3.7C152,172.2,148.6,172.6,145.4,172.4z"/>
		<g>
			
				<line fill="none" stroke="#552A22" stroke-width="1.08" stroke-linecap="round" stroke-linejoin="round" stroke-miterlimit="10" x1="147.4" y1="161.3" x2="147.4" y2="179.3"/>
			
				<line fill="none" stroke="#552A22" stroke-width="1.08" stroke-linecap="round" stroke-linejoin="round" stroke-miterlimit="10" x1="144.7" y1="162.1" x2="147.3" y2="163.4"/>
			
				<line fill="none" stroke="#552A22" stroke-width="1.08" stroke-linecap="round" stroke-linejoin="round" stroke-miterlimit="10" x1="147.5" y1="165.8" x2="150.7" y2="164.5"/>
			
				<line fill="none" stroke="#552A22" stroke-width="1.08" stroke-linecap="round" stroke-linejoin="round" stroke-miterlimit="10" x1="143.4" y1="166.5" x2="147.3" y2="168.1"/>
			
				<line fill="none" stroke="#552A22" stroke-width="1.08" stroke-linecap="round" stroke-linejoin="round" stroke-miterlimit="10" x1="147.5" y1="170.1" x2="151.5" y2="168.6"/>
		</g>
	</g>
	<g>
		<path fill="#F47621" d="M349,172.4c-3.3-0.2-6.4-1.2-7.8-2.8c-0.7-0.7-0.9-1.6-0.6-2.4c0.6-1.3,2.7-2.3,3.5-3.5
			c0.9-1.4,0.1-2.9,1.3-4.2c0.6-0.6,1.6-1.2,3-1.5c1.3-0.3,2.9-0.3,4.2-0.1c4.8,0.9,4.1,4.1,5.3,6.1c0.6,1.1,1.7,2.1,2.1,3.2
			c0.5,1.3-0.1,2.7-2.1,3.7C355.6,172.2,352.2,172.6,349,172.4z"/>
		<g>
			
				<line fill="none" stroke="#552A22" stroke-width="1.08" stroke-linecap="round" stroke-linejoin="round" stroke-miterlimit="10" x1="351" y1="161.3" x2="351" y2="179.3"/>
			
				<line fill="none" stroke="#552A22" stroke-width="1.08" stroke-linecap="round" stroke-linejoin="round" stroke-miterlimit="10" x1="348.3" y1="162.1" x2="350.9" y2="163.4"/>
			
				<line fill="none" stroke="#552A22" stroke-width="1.08" stroke-linecap="round" stroke-linejoin="round" stroke-miterlimit="10" x1="351.1" y1="165.8" x2="354.3" y2="164.5"/>
			
				<line fill="none" stroke="#552A22" stroke-width="1.08" stroke-linecap="round" stroke-linejoin="round" stroke-miterlimit="10" x1="347" y1="166.5" x2="350.9" y2="168.1"/>
			
				<line fill="none" stroke="#552A22" stroke-width="1.08" stroke-linecap="round" stroke-linejoin="round" stroke-miterlimit="10" x1="351.1" y1="170.1" x2="355.1" y2="168.6"/>
		</g>
	</g>
	<g>
		<path fill="#F9BFCA" d="M121.3,172.4c-3.3-0.2-6.4-1.2-7.8-2.8c-0.7-0.7-0.9-1.6-0.6-2.4c0.6-1.3,2.7-2.3,3.5-3.5
			c0.9-1.4,0.1-2.9,1.3-4.2c0.6-0.6,1.6-1.2,3-1.5c1.3-0.3,2.9-0.3,4.2-0.1c4.8,0.9,4.1,4.1,5.3,6.1c0.6,1.1,1.7,2.1,2.1,3.2
			c0.5,1.3-0.1,2.7-2.1,3.7C128,172.2,124.5,172.6,121.3,172.4z"/>
		<g>
			
				<line fill="none" stroke="#552A22" stroke-width="1.08" stroke-linecap="round" stroke-linejoin="round" stroke-miterlimit="10" x1="123.3" y1="161.3" x2="123.3" y2="179.3"/>
			
				<line fill="none" stroke="#552A22" stroke-width="1.08" stroke-linecap="round" stroke-linejoin="round" stroke-miterlimit="10" x1="120.6" y1="162.1" x2="123.2" y2="163.4"/>
			
				<line fill="none" stroke="#552A22" stroke-width="1.08" stroke-linecap="round" stroke-linejoin="round" stroke-miterlimit="10" x1="123.4" y1="165.8" x2="126.7" y2="164.5"/>
			
				<line fill="none" stroke="#552A22" stroke-width="1.08" stroke-linecap="round" stroke-linejoin="round" stroke-miterlimit="10" x1="119.4" y1="166.5" x2="123.2" y2="168.1"/>
			
				<line fill="none" stroke="#552A22" stroke-width="1.08" stroke-linecap="round" stroke-linejoin="round" stroke-miterlimit="10" x1="123.4" y1="170.1" x2="127.4" y2="168.6"/>
		</g>
	</g>
	<g>
		<path fill="#F9BFCA" d="M279.5,172.4c-3.3-0.2-6.4-1.2-7.8-2.8c-0.7-0.7-0.9-1.6-0.6-2.4c0.6-1.3,2.7-2.3,3.5-3.5
			c0.9-1.4,0.1-2.9,1.3-4.2c0.6-0.6,1.6-1.2,3-1.5c1.3-0.3,2.9-0.3,4.2-0.1c4.8,0.9,4.1,4.1,5.3,6.1c0.6,1.1,1.7,2.1,2.1,3.2
			c0.5,1.3-0.1,2.7-2.1,3.7C286.2,172.2,282.7,172.6,279.5,172.4z"/>
		<g>
			
				<line fill="none" stroke="#552A22" stroke-width="1.08" stroke-linecap="round" stroke-linejoin="round" stroke-miterlimit="10" x1="281.5" y1="161.3" x2="281.5" y2="179.3"/>
			
				<line fill="none" stroke="#552A22" stroke-width="1.08" stroke-linecap="round" stroke-linejoin="round" stroke-miterlimit="10" x1="278.8" y1="162.1" x2="281.4" y2="163.4"/>
			
				<line fill="none" stroke="#552A22" stroke-width="1.08" stroke-linecap="round" stroke-linejoin="round" stroke-miterlimit="10" x1="281.6" y1="165.8" x2="284.9" y2="164.5"/>
			
				<line fill="none" stroke="#552A22" stroke-width="1.08" stroke-linecap="round" stroke-linejoin="round" stroke-miterlimit="10" x1="277.6" y1="166.5" x2="281.4" y2="168.1"/>
			
				<line fill="none" stroke="#552A22" stroke-width="1.08" stroke-linecap="round" stroke-linejoin="round" stroke-miterlimit="10" x1="281.6" y1="170.1" x2="285.6" y2="168.6"/>
		</g>
	</g>
	<path fill="#F47621" d="M19.5,179.4c0.4-0.5,0.1-1.1-0.8-1.4c-0.9-0.3-2.2-0.3-3,0c0.3-0.5,0.3-1.1-0.3-1.6
		c-0.6-0.5-1.8-0.8-2.9-0.7c-0.8,0.1-1.6,0.4-2,0.7c-0.5,0.3-0.8,0.7-1,1.1c-0.5-0.4-1.6-0.6-2.5-0.4c-0.9,0.1-1.6,0.6-1.6,1
		c-0.4-0.3-1.2-0.5-1.9-0.3c-0.7,0.1-1.2,0.5-1.1,0.8c-0.4-0.2-1.2-0.2-1.7-0.1c-0.5,0.2-0.7,0.6-0.4,0.8L19.5,179.4z"/>
</g>
</svg>
