<?xml version="1.0" encoding="utf-8"?>
<!-- Generator: Adobe Illustrator 18.1.1, SVG Export Plug-In . SVG Version: 6.00 Build 0)  -->
<svg version="1.1" xmlns="http://www.w3.org/2000/svg" xmlns:xlink="http://www.w3.org/1999/xlink" x="0px" y="0px"
	 viewBox="0 0 500 500" enable-background="new 0 0 500 500" xml:space="preserve">
<g id="Background_Complete">
	<g>
		<g>
			<rect x="127" y="82.8" fill="#F5F5F5" width="48.3" height="153.2"/>
		</g>
		<g>
			<rect x="151.2" y="82.8" fill="#EBEBEB" width="24.2" height="152.8"/>
		</g>
		<g>
			<rect x="132.5" y="67.8" fill="#F5F5F5" width="17.1" height="15"/>
		</g>
		<g>
			<rect x="145.5" y="67.8" fill="#EBEBEB" width="4.1" height="15"/>
		</g>
		<g>
			<polyline fill="#E0E0E0" points="123,82.8 123,82 176.8,82 176.8,82.8 			"/>
		</g>
		<g>
			<rect x="136.6" y="89.4" fill="#FAFAFA" width="4.1" height="8.6"/>
		</g>
		<g>
			<g>
				<ellipse fill="#E0E0E0" cx="139.1" cy="101.4" rx="12.1" ry="0.2"/>
			</g>
		</g>
		<g>
			<g>
				<rect x="160.9" y="89.4" fill="#E0E0E0" width="4.1" height="8.6"/>
			</g>
			<g>
				<g>
					<ellipse fill="#E0E0E0" cx="163.5" cy="101.4" rx="12.1" ry="0.2"/>
				</g>
			</g>
		</g>
		<g>
			<g>
				<rect x="160.9" y="106.5" fill="#E0E0E0" width="4.1" height="8.6"/>
			</g>
			<g>
				<g>
					<ellipse fill="#E0E0E0" cx="163.5" cy="118.6" rx="12.1" ry="0.2"/>
				</g>
			</g>
		</g>
		<g>
			<g>
				<rect x="160.9" y="124.2" fill="#E0E0E0" width="4.1" height="8.6"/>
			</g>
			<g>
				<g>
					<ellipse fill="#E0E0E0" cx="163.5" cy="136.2" rx="12.1" ry="0.2"/>
				</g>
			</g>
		</g>
		<g>
			<g>
				<rect x="160.9" y="141.8" fill="#E0E0E0" width="4.1" height="8.6"/>
			</g>
			<g>
				<g>
					<ellipse fill="#E0E0E0" cx="163.5" cy="153.8" rx="12.1" ry="0.2"/>
				</g>
			</g>
		</g>
		<g>
			<g>
				<rect x="160.9" y="159" fill="#E0E0E0" width="4.1" height="8.6"/>
			</g>
			<g>
				<g>
					<ellipse fill="#E0E0E0" cx="163.5" cy="171" rx="12.1" ry="0.2"/>
				</g>
			</g>
		</g>
		<g>
			<g>
				<rect x="160.9" y="176.2" fill="#E0E0E0" width="4.1" height="8.6"/>
			</g>
			<g>
				<rect x="160.9" y="193.6" fill="#E0E0E0" width="4.1" height="8.6"/>
			</g>
			<g>
				<g>
					<ellipse fill="#E0E0E0" cx="163.5" cy="188.2" rx="12.1" ry="0.2"/>
				</g>
			</g>
		</g>
		<g>
			<rect x="136.6" y="106.8" fill="#FAFAFA" width="4.1" height="8.6"/>
		</g>
		<g>
			<g>
				<ellipse fill="#E0E0E0" cx="139.1" cy="118.8" rx="12.1" ry="0.2"/>
			</g>
		</g>
		<g>
			<rect x="136.6" y="124.2" fill="#FAFAFA" width="4.1" height="8.6"/>
		</g>
		<g>
			<g>
				<ellipse fill="#E0E0E0" cx="139.1" cy="136.2" rx="12.1" ry="0.2"/>
			</g>
		</g>
		<g>
			<rect x="136.6" y="141.6" fill="#FAFAFA" width="4.1" height="8.6"/>
		</g>
		<g>
			<g>
				<ellipse fill="#E0E0E0" cx="139.1" cy="153.6" rx="12.1" ry="0.2"/>
			</g>
		</g>
		<g>
			<rect x="136.6" y="159" fill="#FAFAFA" width="4.1" height="8.6"/>
		</g>
		<g>
			<g>
				<ellipse fill="#E0E0E0" cx="139.1" cy="171" rx="12.1" ry="0.2"/>
			</g>
		</g>
		<g>
			<rect x="136.6" y="176.4" fill="#FAFAFA" width="4.1" height="8.6"/>
		</g>
		<g>
			<g>
				<ellipse fill="#E0E0E0" cx="139.1" cy="188.4" rx="12.1" ry="0.2"/>
			</g>
		</g>
		<g>
			<g>
				<rect x="136.6" y="193.8" fill="#FAFAFA" width="4.1" height="8.6"/>
			</g>
		</g>
	</g>
	<g>
		<g>
			<rect x="304.1" y="115.3" fill="#F5F5F5" width="48.3" height="153.2"/>
		</g>
		<g>
			<rect x="328.2" y="115.3" fill="#EBEBEB" width="24.2" height="152.8"/>
		</g>
		<g>
			<rect x="309.6" y="100.3" fill="#F5F5F5" width="17.1" height="15"/>
		</g>
		<g>
			<rect x="322.6" y="100.3" fill="#EBEBEB" width="4.1" height="15"/>
		</g>
		<g>
			<polyline fill="#E0E0E0" points="300,115.3 300,114.5 353.8,114.5 353.8,115.3 			"/>
		</g>
		<g>
			<rect x="313.6" y="121.9" fill="#FAFAFA" width="4.1" height="8.6"/>
		</g>
		<g>
			<g>
				<ellipse fill="#E0E0E0" cx="316.2" cy="133.9" rx="12.1" ry="0.2"/>
			</g>
		</g>
		<g>
			<g>
				<rect x="338" y="121.9" fill="#E0E0E0" width="4.1" height="8.6"/>
			</g>
			<g>
				<g>
					<ellipse fill="#E0E0E0" cx="340.5" cy="133.9" rx="12.1" ry="0.2"/>
				</g>
			</g>
		</g>
		<g>
			<g>
				<rect x="338" y="139" fill="#E0E0E0" width="4.1" height="8.6"/>
			</g>
			<g>
				<g>
					<ellipse fill="#E0E0E0" cx="340.5" cy="151" rx="12.1" ry="0.2"/>
				</g>
			</g>
		</g>
		<g>
			<g>
				<rect x="338" y="156.7" fill="#E0E0E0" width="4.1" height="8.6"/>
			</g>
			<g>
				<g>
					<ellipse fill="#E0E0E0" cx="340.5" cy="168.7" rx="12.1" ry="0.2"/>
				</g>
			</g>
		</g>
		<g>
			<g>
				<rect x="338" y="174.3" fill="#E0E0E0" width="4.1" height="8.6"/>
			</g>
			<g>
				<g>
					<ellipse fill="#E0E0E0" cx="340.5" cy="186.3" rx="12.1" ry="0.2"/>
				</g>
			</g>
		</g>
		<g>
			<g>
				<rect x="338" y="191.5" fill="#E0E0E0" width="4.1" height="8.6"/>
			</g>
			<g>
				<g>
					<ellipse fill="#E0E0E0" cx="340.5" cy="203.5" rx="12.1" ry="0.2"/>
				</g>
			</g>
		</g>
		<g>
			<g>
				<rect x="338" y="208.7" fill="#E0E0E0" width="4.1" height="8.6"/>
			</g>
			<g>
				<rect x="338" y="226.1" fill="#E0E0E0" width="4.1" height="8.6"/>
			</g>
			<g>
				<g>
					<ellipse fill="#E0E0E0" cx="340.5" cy="220.7" rx="12.1" ry="0.2"/>
				</g>
			</g>
		</g>
		<g>
			<rect x="313.6" y="139.3" fill="#FAFAFA" width="4.1" height="8.6"/>
		</g>
		<g>
			<g>
				<ellipse fill="#E0E0E0" cx="316.2" cy="151.3" rx="12.1" ry="0.2"/>
			</g>
		</g>
		<g>
			<rect x="313.6" y="156.7" fill="#FAFAFA" width="4.1" height="8.6"/>
		</g>
		<g>
			<g>
				<ellipse fill="#E0E0E0" cx="316.2" cy="168.7" rx="12.1" ry="0.2"/>
			</g>
		</g>
		<g>
			<rect x="313.6" y="174.1" fill="#FAFAFA" width="4.1" height="8.6"/>
		</g>
		<g>
			<g>
				<ellipse fill="#E0E0E0" cx="316.2" cy="186.1" rx="12.1" ry="0.2"/>
			</g>
		</g>
		<g>
			<rect x="313.6" y="191.5" fill="#FAFAFA" width="4.1" height="8.6"/>
		</g>
		<g>
			<g>
				<ellipse fill="#E0E0E0" cx="316.2" cy="203.5" rx="12.1" ry="0.2"/>
			</g>
		</g>
		<g>
			<rect x="313.6" y="208.9" fill="#FAFAFA" width="4.1" height="8.6"/>
		</g>
		<g>
			<g>
				<ellipse fill="#E0E0E0" cx="316.2" cy="220.9" rx="12.1" ry="0.2"/>
			</g>
		</g>
		<g>
			<g>
				<rect x="313.6" y="226.2" fill="#FAFAFA" width="4.1" height="8.6"/>
			</g>
		</g>
	</g>
	<g>
		<g>
			<g>
				<rect x="334.5" y="174.8" fill="#EBEBEB" width="78.3" height="103.2"/>
			</g>
			<g>
				<rect x="376.1" y="174.8" fill="#E0E0E0" width="36.7" height="103.2"/>
			</g>
		</g>
		<g>
			<g>
				<rect x="350.9" y="188.8" fill="#F5F5F5" width="7" height="17.1"/>
			</g>
			<g>
				<rect x="350.9" y="255.7" fill="#F5F5F5" width="7" height="17.1"/>
			</g>
			<g>
				<g>
					<ellipse fill="#F5F5F5" cx="355.3" cy="212.6" rx="20.8" ry="0.3"/>
				</g>
			</g>
		</g>
		<g>
			<g>
				<rect x="350.9" y="222.5" fill="#F5F5F5" width="7" height="17.1"/>
			</g>
			<g>
				<g>
					<ellipse fill="#F5F5F5" cx="355.3" cy="246.3" rx="20.8" ry="0.3"/>
				</g>
			</g>
		</g>
		<g>
			<rect x="383.9" y="188.8" fill="#F5F5F5" width="7" height="17.1"/>
		</g>
		<g>
			<rect x="399.1" y="188.8" fill="#F5F5F5" width="7" height="17.1"/>
		</g>
		<g>
			<rect x="383.9" y="221.2" fill="#F5F5F5" width="7" height="17.1"/>
		</g>
		<g>
			<rect x="399.1" y="221.2" fill="#F5F5F5" width="7" height="17.1"/>
		</g>
		<g>
			<rect x="383.9" y="253.6" fill="#F5F5F5" width="7" height="17.1"/>
		</g>
		<g>
			<rect x="399.1" y="253.6" fill="#F5F5F5" width="7" height="17.1"/>
		</g>
		<g>
			<rect x="328.6" y="171.2" fill="#E0E0E0" width="90" height="3.7"/>
		</g>
		<g>
			<g>
				<path fill="#EBEBEB" d="M413.3,175.3c0,0.2-17.5,0.3-39.1,0.3c-21.6,0-39.1-0.2-39.1-0.3c0-0.2,17.5-0.3,39.1-0.3
					C395.8,174.9,413.3,175.1,413.3,175.3z"/>
			</g>
		</g>
	</g>
	<g>
		<g>
			<g>
				<polygon fill="#EBEBEB" points="157.4,280.1 86.3,280.1 86,167.7 157.1,167.7 				"/>
			</g>
			<g>
				<rect x="121.5" y="167.7" fill="#E0E0E0" width="35.6" height="112.4"/>
			</g>
			<g>
				<rect x="94.1" y="145.5" fill="#EBEBEB" width="25.1" height="22.1"/>
			</g>
			<g>
				<rect x="113.2" y="145.5" fill="#E0E0E0" width="6" height="22.1"/>
			</g>
			<g>
				<rect x="80" y="166.4" fill="#E0E0E0" width="79.1" height="1.3"/>
			</g>
			<g>
				<rect x="100" y="177.3" fill="#FFFFFF" width="6" height="12.7"/>
			</g>
			<g>
				<g>
					<ellipse fill="#E0E0E0" cx="103.8" cy="195" rx="17.8" ry="0.2"/>
				</g>
			</g>
			<g>
				<g>
					<rect x="135.9" y="177.3" fill="#F5F5F5" width="6" height="12.7"/>
				</g>
				<g>
					<g>
						<ellipse fill="#EBEBEB" cx="139.6" cy="195" rx="17.8" ry="0.2"/>
					</g>
				</g>
			</g>
			<g>
				<g>
					<rect x="135.9" y="202.5" fill="#F5F5F5" width="6" height="12.7"/>
				</g>
				<g>
					<g>
						<ellipse fill="#EBEBEB" cx="139.6" cy="220.2" rx="17.8" ry="0.2"/>
					</g>
				</g>
			</g>
			<g>
				<g>
					<rect x="135.9" y="228.5" fill="#F5F5F5" width="6" height="12.7"/>
				</g>
				<g>
					<g>
						<ellipse fill="#EBEBEB" cx="139.6" cy="246.2" rx="17.8" ry="0.2"/>
					</g>
				</g>
			</g>
			<g>
				<g>
					<rect x="135.9" y="254.5" fill="#F5F5F5" width="6" height="12.7"/>
				</g>
				<g>
					<g>
						<ellipse fill="#EBEBEB" cx="139.6" cy="272.1" rx="17.8" ry="0.2"/>
					</g>
				</g>
			</g>
			<g>
				<rect x="100" y="202.9" fill="#FFFFFF" width="6" height="12.7"/>
			</g>
			<g>
				<g>
					<ellipse fill="#E0E0E0" cx="103.8" cy="220.6" rx="17.8" ry="0.2"/>
				</g>
			</g>
			<g>
				<rect x="100" y="228.5" fill="#FFFFFF" width="6" height="12.7"/>
			</g>
			<g>
				<g>
					<ellipse fill="#E0E0E0" cx="103.8" cy="246.2" rx="17.8" ry="0.2"/>
				</g>
			</g>
			<g>
				<rect x="100" y="254.1" fill="#FFFFFF" width="6" height="12.7"/>
			</g>
			<g>
				<g>
					<ellipse fill="#E0E0E0" cx="103.8" cy="271.8" rx="17.8" ry="0.2"/>
				</g>
			</g>
		</g>
	</g>
	<g>
		<g>
			<g>
				<g>
					<path fill="#F5F5F5" d="M439.2,144.9c0.4-2.7-3.5-5-6.4-5.2c-1.4-0.1-2.8,0.1-4.1-0.4c-2.8-1-4-4.7-6.7-5.8
						c-2.1-0.9-4.5-0.1-6.5,0.9c-2,1-4,2.3-6.2,2.4c-1.9,0.1-4.1-0.6-5.8,0.4c-1.3,0.7-1.9,2.2-3.1,3c-1.1,0.8-2.6,1-4.1,1.1
						c-1.4,0.1-2.9,0.1-4.2,0.7c-1.3,0.6-2.4,2-2.1,3.4L439.2,144.9z"/>
				</g>
			</g>
		</g>
	</g>
	<g>
		<g>
			<g>
				<g>
					<path fill="#EBEBEB" d="M318.8,67c0.6-4.3-5.4-7.8-10-8.2c-2.2-0.2-4.4,0.2-6.5-0.6c-4.4-1.5-6.2-7.3-10.5-9.1
						c-3.2-1.4-7-0.1-10.1,1.4c-3.1,1.6-6.2,3.6-9.8,3.8c-3.1,0.2-6.4-0.9-9,0.6c-2,1.1-3,3.4-4.9,4.8c-1.8,1.3-4.1,1.6-6.4,1.7
						c-2.2,0.1-4.5,0.1-6.6,1.1c-2,0.9-3.7,3.1-3.3,5.3L318.8,67z"/>
				</g>
			</g>
		</g>
	</g>
	<g>
		<g>
			<g>
				<g>
					<path fill="#F5F5F5" d="M113.2,126.2c0.5-3.4-4.3-6.2-8-6.5c-1.7-0.1-3.5,0.1-5.1-0.4c-3.5-1.2-5-5.8-8.4-7.3
						c-2.6-1.1-5.6-0.1-8.1,1.1c-2.5,1.3-5,2.8-7.8,3c-2.4,0.2-5.1-0.7-7.2,0.4c-1.6,0.9-2.4,2.7-3.9,3.8c-1.4,1.1-3.3,1.3-5.1,1.4
						c-1.8,0.1-3.6,0.1-5.2,0.9c-1.6,0.7-3,2.4-2.6,4.2L113.2,126.2z"/>
				</g>
			</g>
		</g>
	</g>
</g>
<g id="Background_Simple" display="none">
	<g display="inline">
		<path fill="#F5F5F5" d="M398.2,105.8l-1.9-3.2C380.2,76,351,60,320.2,61.9c-4,0.3-7.9,0.8-11.8,1.6c-28,6-52.3,27.2-62.4,54.3
			c-5.9,15.9-7.6,34.3-18.9,47c-14.7,16.5-39.6,17-61.4,16.3c-21.9-0.7-46.8-0.1-61.4,16.4c-9.1,10.4-12,25.1-11.3,39
			c2,36.7,27.5,69.5,60.1,85.9c32.5,16.3,70.8,17.8,106.5,10.6c49.9-10.1,97.3-37.7,125.8-80.3C413.8,210,421.1,151.8,398.2,105.8z"
			/>
	</g>
	<g display="inline">
		<circle fill="#F5F5F5" cx="143.2" cy="98.2" r="25.4"/>
	</g>
</g>
<g id="Locations">
	<g>
		<g>
			<path fill="#FF725E" d="M77.8,201.4c-11.3,0.3-20.6,9.5-20.8,20.8c-0.1,4.9,1.4,9.3,4,13l0,0l0.2,0.3c0,0,0,0,0,0l15.1,20.6
				c1.3,1.8,4.1,1.8,5.3-0.1l13.7-20.3c2.6-3.9,4.4-8.1,4.4-12.9C99.7,210.8,89.9,201.1,77.8,201.4z M78.3,238.3
				c-8.9,0-16.1-7.2-16.1-16.1c0-8.9,7.2-16.1,16.1-16.1s16.1,7.2,16.1,16.1C94.4,231.1,87.2,238.3,78.3,238.3z"/>
		</g>
		<g opacity="0.3">
			<path d="M77.8,201.4c-11.3,0.3-20.6,9.5-20.8,20.8c-0.1,4.9,1.4,9.3,4,13l0,0l0.2,0.3c0,0,0,0,0,0l15.1,20.6
				c1.3,1.8,4.1,1.8,5.3-0.1l13.7-20.3c2.6-3.9,4.4-8.1,4.4-12.9C99.7,210.8,89.9,201.1,77.8,201.4z M78.3,238.3
				c-8.9,0-16.1-7.2-16.1-16.1c0-8.9,7.2-16.1,16.1-16.1s16.1,7.2,16.1,16.1C94.4,231.1,87.2,238.3,78.3,238.3z"/>
		</g>
		<g>
			<path fill="#FFA446" d="M76.6,201.4c-11.3,0.3-20.6,9.5-20.8,20.8c-0.1,4.9,1.4,9.3,4,13l0,0l0.2,0.3c0,0,0,0,0,0l15.1,20.6
				c1.3,1.8,4.1,1.8,5.3-0.1l13.7-20.3c2.6-3.9,4.4-8.1,4.4-12.9C98.4,210.8,88.6,201.1,76.6,201.4z M77.1,235.4
				c-6.7,0-12.2-5.4-12.2-12.2c0-6.7,5.4-12.2,12.2-12.2c6.7,0,12.2,5.4,12.2,12.2C89.2,230,83.8,235.4,77.1,235.4z"/>
		</g>
	</g>
	<g>
		<g>
			<path fill="#FF725E" d="M412.9,181.2c-8.6,0.2-15.7,7.2-15.9,15.9c-0.1,3.7,1.1,7.1,3.1,9.9l0,0l0.2,0.2c0,0,0,0,0,0l11.5,15.7
				c1,1.4,3.1,1.3,4-0.1l10.4-15.5c2-3,3.3-6.1,3.3-9.9C429.5,188.3,422,181,412.9,181.2z M413.2,209.3c-6.8,0-12.2-5.5-12.2-12.2
				c0-6.8,5.5-12.2,12.2-12.2c6.8,0,12.2,5.5,12.2,12.2C425.5,203.8,420,209.3,413.2,209.3z"/>
		</g>
		<g opacity="0.3">
			<path d="M412.9,181.2c-8.6,0.2-15.7,7.2-15.9,15.9c-0.1,3.7,1.1,7.1,3.1,9.9l0,0l0.2,0.2c0,0,0,0,0,0l11.5,15.7
				c1,1.4,3.1,1.3,4-0.1l10.4-15.5c2-3,3.3-6.1,3.3-9.9C429.5,188.3,422,181,412.9,181.2z M413.2,209.3c-6.8,0-12.2-5.5-12.2-12.2
				c0-6.8,5.5-12.2,12.2-12.2c6.8,0,12.2,5.5,12.2,12.2C425.5,203.8,420,209.3,413.2,209.3z"/>
		</g>
		<g>
			<path fill="#FFA446" d="M411.9,181.2c-8.6,0.2-15.7,7.2-15.9,15.9c-0.1,3.7,1.1,7.1,3.1,9.9l0,0l0.2,0.2c0,0,0,0,0,0l11.5,15.7
				c1,1.4,3.1,1.3,4-0.1l10.4-15.5c2-3,3.3-6.1,3.3-9.9C428.6,188.3,421.1,181,411.9,181.2z M412.3,207.1c-5.1,0-9.3-4.1-9.3-9.3
				c0-5.1,4.1-9.3,9.3-9.3c5.1,0,9.3,4.1,9.3,9.3C421.6,202.9,417.4,207.1,412.3,207.1z"/>
		</g>
	</g>
</g>
<g id="Map">
	<g>
		<g>
			<g>
				<polygon fill="#FFFFFF" points="89.5,278.2 18.1,455.6 152,433.5 250.2,455.6 350.8,433.5 485.3,459.2 413.3,278.2 332.9,258 
					251.7,273.4 168.7,258 				"/>
			</g>
			<g>
				<g>
					<path fill="#263238" d="M89.5,278.2c0,0,0.4-0.1,1.3-0.4c0.9-0.2,2.2-0.6,3.9-1c3.5-0.9,8.6-2.2,15.3-4
						c13.5-3.5,33.3-8.5,58.6-15l0,0l0,0c22.9,4.3,51,9.5,83,15.4l-0.1,0c24.3-4.6,51.7-9.9,81.2-15.5l0,0l0,0
						c25,6.3,52,13.1,80.4,20.2l0.1,0l0,0.1c22,55.3,46.3,116.4,72,181l0.2,0.4l-0.5-0.1c-22.1-4.2-45.5-8.7-69.2-13.2
						c-22.1-4.2-43.9-8.4-65.3-12.5l0.1,0c-34.6,7.6-68.2,14.9-100.6,22l-0.1,0l-0.1,0c-34.2-7.7-67-15-98.2-22l0.1,0
						c-49.2,8.1-94.2,15.5-133.9,22l-0.3,0.1l0.1-0.3c22.1-54.8,40-99.1,52.3-129.7c6.2-15.3,11-27.2,14.3-35.3
						c1.6-4,2.9-7.1,3.7-9.2C89.1,279.2,89.5,278.2,89.5,278.2s-0.4,1.1-1.2,3.1c-0.8,2.1-2.1,5.2-3.7,9.2c-3.2,8.1-8,20-14.2,35.3
						c-12.3,30.7-30.1,75-52.2,129.8l-0.2-0.3c39.7-6.5,84.7-14,133.9-22.1l0,0l0,0c31.2,7,64,14.3,98.2,22l-0.1,0
						c32.4-7.1,66-14.5,100.6-22l0.1,0l0.1,0c21.4,4.1,43.2,8.2,65.3,12.5c23.7,4.5,47.1,9,69.2,13.2l-0.3,0.3
						c-25.7-64.6-50-125.7-72-181l0.2,0.1c-28.4-7.2-55.4-14-80.3-20.3l0.1,0c-29.5,5.6-56.9,10.8-81.2,15.4l0,0l0,0
						c-32.1-6-60.1-11.2-83-15.5l0.1,0c-25.3,6.4-45.1,11.5-58.6,14.9c-6.7,1.7-11.9,3-15.4,3.9c-1.7,0.4-3,0.8-3.9,1
						C90,278.1,89.5,278.2,89.5,278.2z"/>
				</g>
			</g>
		</g>
		<g>
			<polygon fill="#FFFFFF" points="93.7,283 30.6,446.6 151.4,427 251.7,450.2 350.8,426.4 474,450.2 409.1,283 334.1,264.5 
				251.7,280 167.5,264.5 			"/>
		</g>
		<g>
			<polygon fill="#455A64" points="37.6,428.4 133.6,406.2 130.1,385.5 138.1,380.5 125.7,332.2 87.3,299.6 			"/>
		</g>
		<g>
			<polygon fill="#EBEBEB" points="30.6,446.6 35.3,434.5 196.3,397.1 205,421.1 202.2,426 172,431.7 151.4,427 			"/>
		</g>
		<g>
			<polygon fill="#EBEBEB" points="205,394.7 211.4,418.6 230,426.6 256.4,414.9 311.7,398.8 294.4,372.8 			"/>
		</g>
		<g>
			<polygon fill="#E0E0E0" points="140.7,403.6 170.6,397.1 164.7,377.6 142.9,382.9 137.1,387 			"/>
		</g>
		<g>
			<polygon fill="#455A64" points="134.6,339.1 145.5,374.8 162.4,371 159.4,357.3 196.7,349 			"/>
		</g>
		<g>
			<polygon fill="#EBEBEB" points="90.1,292.3 137.1,330 199.5,341.8 266,325.3 235.6,277 167.5,264.5 93.7,283 			"/>
		</g>
		<g>
			<polygon fill="#EBEBEB" points="244.7,278.7 342.3,428.4 350.8,426.4 256.4,279.1 251.7,280 			"/>
		</g>
		<g>
			<polygon fill="#E0E0E0" points="165.7,361.1 178,397.1 287.8,369 267.5,334.5 			"/>
		</g>
		<g>
			<polyline fill="#E0E0E0" points="226.7,444.4 227.8,442.8 235,432.1 252.3,426.6 264.2,417.7 315.8,403.6 331.8,431 251.7,450.2 
							"/>
		</g>
		<g>
			<polygon fill="#E0E0E0" points="318.1,267.5 343.9,296.3 409.1,283 334.1,264.5 			"/>
		</g>
		<g>
			<polygon fill="#E0E0E0" points="422.8,318.3 375,331.6 350.8,299.6 410.8,287.2 			"/>
		</g>
		<g>
			<polygon fill="#EBEBEB" points="261.5,278.1 311.7,350.2 369.6,333.6 311.7,268.7 			"/>
		</g>
		<g>
			<polygon fill="#E0E0E0" points="401.9,436.3 459.8,413.6 474,450.2 			"/>
		</g>
		<g>
			<polygon fill="#455A64" points="341.3,345.9 372.7,337.7 406,377.6 373.6,388.4 			"/>
		</g>
		<g>
			<polygon fill="#E0E0E0" points="379.8,334.5 414.9,374.6 441.2,365.8 423.9,321 			"/>
		</g>
		<g>
			<polygon fill="#455A64" points="406,426.9 379.8,390.6 443.1,370.4 455.9,403.6 447.7,411.9 			"/>
		</g>
		<g>
			<polygon fill="#E0E0E0" points="314.8,355.6 362.8,428.4 392.4,434.4 398,431.9 337.1,348.8 			"/>
		</g>
		<g>
			<polygon fill="#E0E0E0" points="117.8,409.9 105.8,353.6 63.6,360.9 37.6,428.4 			"/>
		</g>
		<g>
			<polygon fill="#455A64" points="156.6,267.2 156.6,293 165.7,294.1 190.9,323.5 212.6,321 222.9,336 199.5,341.8 137.1,330 
				90.1,292.3 93.7,283 			"/>
		</g>
		<g>
			<polygon fill="#E0E0E0" points="288.6,273.3 324,325 354.6,316.8 311.7,268.7 			"/>
		</g>
		<g>
			<polygon fill="#EBEBEB" points="392.7,326.7 379.8,306.7 414.5,296.9 422.8,318.3 			"/>
		</g>
		<g>
			<polygon fill="#EBEBEB" points="341.3,395.7 358.1,389.9 390.6,434.1 362.8,428.4 			"/>
		</g>
		<g>
			<polygon fill="#455A64" points="186.4,435.1 202,433.2 207.2,425.6 226.7,431.7 221.6,443.2 			"/>
		</g>
		<g>
			<g>
				<path fill="#263238" d="M93.7,283c0,0,1.6-0.4,4.9-1.2c3.2-0.8,8-2,14.3-3.6c12.6-3.2,31-7.8,54.6-13.7l0,0l0,0
					c23,4.2,51.5,9.4,84.2,15.4l-0.1,0c24.6-4.6,52.5-9.9,82.4-15.5l0,0l0,0c23.4,5.8,48.6,12,75,18.4l0.1,0l0,0.1
					c19.9,51.2,41.8,107.7,64.9,167.2l0.2,0.4l-0.5-0.1c-19.7-3.8-40.6-7.9-61.8-11.9c-20.8-4-41.2-8-61.4-11.9l0.1,0
					c-34.1,8.2-67.2,16.1-99.1,23.8l-0.1,0l-0.1,0c-35.1-8.1-68.7-15.9-100.3-23.2l0.1,0c-44.4,7.2-85,13.8-120.8,19.6l-0.3,0.1
					l0.1-0.3c19.5-50.6,35.3-91.5,46.3-119.8c5.5-14.1,9.7-25.1,12.6-32.5c1.4-3.7,2.5-6.5,3.3-8.5C93.3,283.9,93.7,283,93.7,283
					s-0.4,1-1.1,2.9c-0.7,1.9-1.8,4.8-3.2,8.5c-2.9,7.5-7.1,18.4-12.5,32.6c-10.9,28.3-26.6,69.2-46.1,119.8l-0.2-0.3
					c35.9-5.8,76.4-12.5,120.8-19.7l0,0l0,0c31.6,7.3,65.2,15.1,100.3,23.2l-0.1,0c31.8-7.7,65-15.6,99.1-23.8l0.1,0l0.1,0
					c20.1,3.9,40.6,7.9,61.4,11.9c21.2,4.1,42.1,8.1,61.8,11.9l-0.3,0.3c-23.1-59.5-45-116.1-64.9-167.3l0.2,0.1
					c-26.4-6.5-51.5-12.7-75-18.5l0.1,0c-30,5.6-57.8,10.8-82.4,15.4l0,0l0,0c-32.7-6-61.2-11.3-84.2-15.5l0.1,0
					c-23.6,5.9-42.1,10.5-54.6,13.6c-6.3,1.6-11.1,2.7-14.3,3.5C95.4,282.6,93.7,283,93.7,283z"/>
			</g>
		</g>
		<g opacity="0.2">
			<polygon points="250.2,455.6 251.7,273.4 168.7,258 152,433.5 			"/>
		</g>
		<g opacity="0.2">
			<polygon points="332.9,258 350.8,433.5 485.3,459.2 413.3,278.2 			"/>
		</g>
	</g>
</g>
<g id="Character">
	<g>
		<g>
			<g>
				<path fill="#FF725E" d="M252.3,101.1c-58,1.3-105.3,48.6-106.7,106.6c-0.6,24.8,7.1,47.8,20.6,66.5l0,0l1.1,1.4
					c0.1,0.1,0.1,0.1,0.2,0.2l77.4,105.3c6.8,9.3,20.8,9,27.2-0.6l70-104c13.2-20.2,22.3-41.3,22.3-66.2
					C364.3,149.1,313.9,99.7,252.3,101.1z M254.9,289.9c-45.4,0-82.2-36.8-82.2-82.2s36.8-82.2,82.2-82.2s82.2,36.8,82.2,82.2
					S300.3,289.9,254.9,289.9z"/>
			</g>
			<g opacity="0.3">
				<path d="M252.3,101.1c-58,1.3-105.3,48.6-106.7,106.6c-0.6,24.8,7.1,47.8,20.6,66.5l0,0l1.1,1.4c0.1,0.1,0.1,0.1,0.2,0.2
					l77.4,105.3c6.8,9.3,20.8,9,27.2-0.6l70-104c13.2-20.2,22.3-41.3,22.3-66.2C364.3,149.1,313.9,99.7,252.3,101.1z M254.9,289.9
					c-45.4,0-82.2-36.8-82.2-82.2s36.8-82.2,82.2-82.2s82.2,36.8,82.2,82.2S300.3,289.9,254.9,289.9z"/>
			</g>
			<g>
				<path fill="#FFA446" d="M245.9,101.1c-58,1.3-105.3,48.6-106.7,106.6c-0.6,24.8,7.1,47.8,20.6,66.5l0,0l1.1,1.4
					c0.1,0.1,0.1,0.1,0.2,0.2l77.4,105.3c6.8,9.3,20.8,9,27.2-0.6l70-104c13.2-20.2,22.3-41.3,22.3-66.2
					C357.8,149.1,307.4,99.7,245.9,101.1z M248.5,289.9c-45.4,0-82.2-36.8-82.2-82.2s36.8-82.2,82.2-82.2s82.2,36.8,82.2,82.2
					S293.8,289.9,248.5,289.9z"/>
			</g>
			<g opacity="0.3">
				<g>
					<path d="M295.7,269.7c-1.3,1.5-88.2,24.4-89.5,25.9c16.7,5.1,37,9.5,54.4,8.5c9.8-0.6,20-2.3,27.8-8.4
						C296.2,289.7,300.5,278.3,295.7,269.7z"/>
				</g>
			</g>
			<g>
				<g>
					<g>
						<g>
							<path fill="#263238" d="M212.7,103.8c-5,5.3-7.3,13.1-5.7,20.2c0.8,3.5,2.3,7.3,0.4,10.3c-1.9,3-6.3,3.5-8.1,6.5
								c-2.1,3.6,0.7,8,0.4,12.1c-0.3,3.9-3.9,7.2-7.8,7.2c5,3,10.8,4.6,16.6,4.6c1.2-2.1,2.4-4.2,3.6-6.2c-1.4,2.2-0.5,5.3,1.4,7.1
								c1.9,1.8,4.5,2.5,7.1,3c12.3,2.1,25.4-2,34.3-10.6"/>
						</g>
					</g>
					<g>
						<g>
							<path fill="#263238" d="M282.9,125.5c-1.3-2.6-3.1-4.8-4-7.5c-2.1-5.8-0.1-12.8-3.8-17.8c-2.6-3.5-7.2-4.8-11.5-5.5
								c-4.3-0.7-8.9-1.1-12.4-3.7c-2.6-1.9-4.3-4.8-6.8-6.7c-3.7-2.7-8.5-3.1-13.1-2.8c-4.7,0.4-9.4,1.5-13.3,4.1
								c-3.9,2.6-6.8,6.9-6.9,11.6c0,2.3,0.6,4.6,0.2,6.8c-0.4,2.5-2,4.6-2.9,6.9c-1.8,5,0.4,11.1,5,13.8l37.5,36.6
								c7,1.6,22.8-3.7,27.2-9.4C282.5,146.4,286,132,282.9,125.5z"/>
						</g>
					</g>
					<g>
						<g>
							<g>
								<g>
									<g>
										<g>
											<g>
												<g>
													<path fill="#FFBE9D" d="M213.4,119.5c0-9.5,5.5-21.5,15-21.1l29.9,5.6c2.9,0.1,5.2,2.4,5.3,5.3l1.3,71.2
														c0.1,0,0.1,0,0.2,0c0,0-5.4,20.4-25.2,15.6c-3.9-1-6-5.1-7-9.4l-0.2,0c0-0.5-0.1-1-0.1-1.5c-1-5-0.7-9.7-0.7-9.7l0,0
														c-0.4-5.7-0.6-8.1-0.6-8c0,0-12.2-1.2-15.7-16.9C213.8,143,213.4,130.1,213.4,119.5z"/>
												</g>
											</g>
										</g>
									</g>
								</g>
								<g>
									<g>
										<g>
											<g>
												<g>
													<g>
														<g>
															<g>
																<g>
																	<g>
																		<g>
																			<g>
																				<g>
																					<g>
																						<g>
																							<g>
																								<g>
																									<g>
																										<g>
																											<g>
																												<g>
																													<path fill="#263238" d="M240.8,129.3c0,1.1,1,1.9,2.1,1.9c1.1,0,2-0.9,2-2c0-1.1-1-1.9-2.1-1.9
																														C241.7,127.3,240.8,128.2,240.8,129.3z"/>
																												</g>
																											</g>
																										</g>
																									</g>
																								</g>
																							</g>
																						</g>
																					</g>
																				</g>
																			</g>
																		</g>
																	</g>
																	<g>
																		<g>
																			<g>
																				<g>
																					<g>
																						<g>
																							<g>
																								<g>
																									<g>
																										<g>
																											<g>
																												<g>
																													<path fill="#263238" d="M220.2,130.8c0,1.1,1,1.9,2.1,1.9c1.1,0,2-0.9,2-2c0-1.1-1-1.9-2.1-1.9
																														C221,128.9,220.1,129.8,220.2,130.8z"/>
																												</g>
																											</g>
																										</g>
																									</g>
																								</g>
																							</g>
																						</g>
																					</g>
																				</g>
																			</g>
																		</g>
																	</g>
																	<g>
																		<g>
																			<g>
																				<g>
																					<g>
																						<g>
																							<g>
																								<g>
																									<g>
																										<g>
																											<g>
																												<g>
																													<g>
																														<path fill="#263238" d="M215.8,126.4c0.3,0.3,2-1.1,4.3-1.1c2.4,0,4.1,1.4,4.4,1.1
																															c0.1-0.1-0.1-0.8-0.9-1.4c-0.7-0.6-2-1.3-3.5-1.3c-1.5,0-2.7,0.6-3.5,1.3
																															C216,125.6,215.7,126.2,215.8,126.4z"/>
																													</g>
																												</g>
																											</g>
																										</g>
																									</g>
																								</g>
																							</g>
																						</g>
																					</g>
																				</g>
																			</g>
																		</g>
																	</g>
																</g>
																<g>
																	<g>
																		<g>
																			<g>
																				<g>
																					<g>
																						<g>
																							<g>
																								<g>
																									<g>
																										<g>
																											<g>
																												<g>
																													<g>
																														<path fill="#263238" d="M237.8,125.8c0.3,0.3,2-1.3,4.5-1.5c2.5-0.3,4.5,0.9,4.7,0.6
																															c0.1-0.2-0.2-0.7-1.1-1.3c-0.9-0.5-2.3-1-3.8-0.9c-1.6,0.2-2.8,0.9-3.5,1.6
																															C237.9,125.1,237.7,125.7,237.8,125.8z"/>
																													</g>
																												</g>
																											</g>
																										</g>
																									</g>
																								</g>
																							</g>
																						</g>
																					</g>
																				</g>
																			</g>
																		</g>
																	</g>
																</g>
																<g>
																	<g>
																		<g>
																			<g>
																				<g>
																					<g>
																						<g>
																							<g>
																								<g>
																									<g>
																										<g>
																											<g>
																												<g>
																													<g>
																														<path fill="#263238" d="M231.2,141.7c0-0.1-1.4-0.3-3.6-0.4c-0.6,0-1.1-0.1-1.2-0.5
																															c-0.2-0.4,0-1,0.3-1.7c0.4-1.4,0.9-2.8,1.4-4.3c1.9-6.2,3.2-11.2,3-11.3c-0.2-0.1-2,4.9-3.9,11
																															c-0.5,1.5-0.9,3-1.3,4.4c-0.2,0.6-0.5,1.4-0.2,2.2c0.2,0.4,0.6,0.7,1,0.8c0.4,0.1,0.7,0.1,1,0.1
																															C229.8,141.9,231.2,141.9,231.2,141.7z"/>
																													</g>
																												</g>
																											</g>
																										</g>
																									</g>
																								</g>
																							</g>
																						</g>
																					</g>
																				</g>
																			</g>
																		</g>
																	</g>
																</g>
																<g>
																	<g>
																		<g>
																			<g>
																				<g>
																					<g>
																						<g>
																							<g>
																								<g>
																									<g>
																										<g>
																											<g>
																												<g>
																													<path fill="#EB996E" d="M231.3,167.6c0,0,10.6,0,20.8-7c0,0-4.4,11.2-20.3,10.7L231.3,167.6z"/>
																												</g>
																											</g>
																										</g>
																									</g>
																								</g>
																							</g>
																						</g>
																					</g>
																				</g>
																			</g>
																		</g>
																	</g>
																</g>
																<g>
																	<g>
																		<g>
																			<g>
																				<g>
																					<g>
																						<g>
																							<g>
																								<g>
																									<g>
																										<g>
																											<g>
																												<g>
																													<path fill="#FF725E" d="M232.4,146.9c0.7-1.1,2.1-1.7,3.4-1.7c1,0,1.9,0.4,2.6,1.2
																														c0.6,0.7,0.8,1.8,0.3,2.6c-0.5,0.9-1.8,1.1-2.8,0.9c-1.1-0.2-2-0.9-2.9-1.5c-0.2-0.2-0.5-0.4-0.7-0.6
																														C232.2,147.6,232.2,147.2,232.4,146.9"/>
																												</g>
																											</g>
																										</g>
																									</g>
																								</g>
																							</g>
																						</g>
																					</g>
																				</g>
																			</g>
																		</g>
																	</g>
																</g>
																<g>
																	<g>
																		<g>
																			<g>
																				<g>
																					<g>
																						<g>
																							<g>
																								<g>
																									<g>
																										<g>
																											<g>
																												<g>
																													<g>
																														<path fill="#263238" d="M237.7,142.8c-0.4,0-0.2,2.4-2.1,4.2c-1.9,1.8-4.4,1.7-4.4,2
																															c0,0.2,0.6,0.4,1.7,0.4c1,0,2.5-0.5,3.7-1.6c1.2-1.1,1.6-2.5,1.6-3.5
																															C238.1,143.4,237.8,142.8,237.7,142.8z"/>
																													</g>
																												</g>
																											</g>
																										</g>
																									</g>
																								</g>
																							</g>
																						</g>
																					</g>
																				</g>
																			</g>
																		</g>
																	</g>
																</g>
															</g>
														</g>
													</g>
													<g>
														<g>
															<g>
																<g>
																	<g>
																		<g>
																			<g>
																				<g>
																					<g>
																						<g>
																							<g>
																								<g>
																									<g>
																										<path fill="#263238" d="M237,118.5c0.3,0.6,2.4,0.2,5,0.3c2.6,0.1,4.7,0.7,5,0.2c0.1-0.3-0.3-0.8-1.1-1.3
																											c-0.9-0.5-2.2-1-3.8-1.1c-1.5-0.1-2.9,0.3-3.8,0.7C237.3,117.7,236.9,118.2,237,118.5z"/>
																									</g>
																								</g>
																							</g>
																						</g>
																					</g>
																				</g>
																			</g>
																		</g>
																	</g>
																</g>
															</g>
														</g>
													</g>
													<g>
														<g>
															<g>
																<g>
																	<g>
																		<g>
																			<g>
																				<g>
																					<g>
																						<g>
																							<g>
																								<g>
																									<g>
																										<path fill="#263238" d="M217.1,119.7c0.5,0.5,2.1-0.2,4.2-0.3c2.1-0.2,3.8,0.1,4.2-0.4
																											c0.2-0.3-0.1-0.7-0.9-1.2c-0.8-0.4-2.1-0.7-3.5-0.6c-1.4,0.1-2.6,0.7-3.3,1.2
																											C217.1,118.9,216.8,119.5,217.1,119.7z"/>
																									</g>
																								</g>
																							</g>
																						</g>
																					</g>
																				</g>
																			</g>
																		</g>
																	</g>
																</g>
															</g>
														</g>
													</g>
												</g>
											</g>
										</g>
									</g>
								</g>
							</g>
						</g>
					</g>
					<g>
						<g>
							<g>
								<g>
									<g>
										<g>
											<g>
												<path fill="#263238" d="M265,105.4c-1.8-2-4.5-2.8-7.1-3.4c-11.2-2.6-22.7-3.9-34.2-3.8c-1.1,2.5,0.7,5.5,3,6.9
													c2.4,1.4,5.2,1.7,7.9,2.3c2.7,0.6,5.5,1.7,6.9,4.1c1.5,2.5,1,5.8,2.3,8.4c2.3,4.4,9.1,5,11.4,9.5
													c1.7,3.4,0.2,7.4,0.2,11.2c0,4.3,2.2,8.5,5.7,11c2.8,2,6.3,2.8,9.6,2.4c-1.1-13.5-2.2-27-3.3-40.5
													C267.2,110.5,266.8,107.5,265,105.4z"/>
											</g>
										</g>
									</g>
								</g>
							</g>
						</g>
					</g>
					<g>
						<g>
							<g>
								<path fill="#263238" d="M296.7,135.5c-2.4-1.6-5.3-2.9-6.5-5.5c-1.8-3.8,0.7-8.9-1.8-12.2c-2.3-3-7.8-2.1-10-5.2
									c-1.7-2.4-0.5-5-1.3-7.2c-0.8-2.2-4.4-3.8-6.7-3.2l-14.6,29.1c-0.5,9.1-1.5,14.1,1.1,19.1c1.4,2.7,3.2,5.3,4,8.3
									c0.8,3,0.5,6.5-1.7,8.6c11.1-0.7,20.5-7.8,29.2-14.7c3.1-2.4,6.1-4.8,9.2-7.3c1-0.8,2-1.6,2.4-2.7
									C301.3,140,299.1,137.1,296.7,135.5z"/>
							</g>
						</g>
					</g>
					<g>
						<g>
							<g>
								<g>
									<path fill="#455A64" d="M288.5,149.8c0,0-0.4,0.2-1.1,0.4c-0.8,0.2-1.9,0.4-3.4,0.2c-1.5-0.1-3.3-0.6-5.1-1.9
										c-1.8-1.2-3.3-3.3-4-6c-0.3-1.3-0.4-2.8-0.2-4.2c0.2-1.5,0.8-2.9,1.5-4.4c0.6-1.4,1.3-2.9,1.5-4.5c0.2-1.6-0.1-3.4-1.2-4.6
										c-1.2-1.2-3.1-1.3-4.9-1.7c-0.9-0.2-1.9-0.6-2.6-1.4c-0.7-0.8-1-1.8-1.2-2.8c-0.3-2,0.3-4,0.4-5.9c0.1-1,0-1.9-0.4-2.8
										c-0.4-0.9-1-1.6-1.9-2c-1.7-0.9-3.8-0.8-5.7-0.7c-2,0.1-4.1,0-5.9-0.9c-1.8-0.8-3.4-2.1-4.4-3.6c-1.1-1.6-1.7-3.4-2.2-5
										c-0.5-1.7-1-3.3-1.8-4.8c-0.8-1.4-1.9-2.6-3.1-3.5c-2.5-1.8-5.4-2.5-8.1-2.4c-2.6,0.1-4.9,1.2-6.6,2.4
										c-1.7,1.2-2.9,2.6-3.8,3.8c-1.7,2.5-2,4.1-2.1,4.1c0,0,0-0.1,0.1-0.3c0.1-0.2,0.1-0.5,0.3-0.9c0.3-0.7,0.7-1.8,1.5-3.1
										c0.8-1.3,2-2.7,3.8-4c1.7-1.3,4-2.3,6.8-2.5c2.7-0.2,5.8,0.5,8.4,2.4c1.3,0.9,2.5,2.2,3.3,3.7c0.8,1.5,1.3,3.2,1.8,4.9
										c0.5,1.7,1.1,3.4,2.1,4.9c1,1.5,2.5,2.7,4.2,3.4c1.7,0.8,3.6,0.9,5.6,0.8c1.9-0.1,4.1-0.2,6.1,0.8c1,0.5,1.8,1.3,2.2,2.3
										c0.4,1,0.5,2.1,0.4,3.1c-0.1,2-0.7,3.9-0.5,5.8c0.1,0.9,0.4,1.8,1,2.4c0.6,0.6,1.4,1,2.3,1.2c0.9,0.2,1.8,0.3,2.7,0.6
										c0.9,0.2,1.8,0.6,2.5,1.3c1.4,1.4,1.6,3.4,1.4,5c-0.2,1.7-1,3.2-1.6,4.7c-0.6,1.4-1.2,2.8-1.5,4.2
										c-0.2,1.4-0.1,2.8,0.2,4.1c0.6,2.5,2.1,4.6,3.8,5.8c1.7,1.2,3.5,1.8,4.9,1.9C286.9,150.5,288.5,149.7,288.5,149.8z"/>
								</g>
							</g>
						</g>
					</g>
					<g>
						<g>
							<g>
								<g>
									<path fill="#263238" d="M300.4,128.9c0,0,0.3,0.2,0.5,0.8c0.2,0.6,0.4,1.6-0.1,2.8c-0.2,0.6-0.6,1.2-1.2,1.7
										c-0.6,0.5-1.4,0.8-2.3,1c-1.7,0.3-3.9-0.5-5.2-2.4c-0.6-0.9-1.1-2-1.2-3.2c-0.2-1.2,0-2.5,0.3-3.7c0.5-2.5,1.8-5,1.4-7.8
										c-0.2-1.3-0.7-2.8-1.8-3.6c-1.1-0.9-2.7-0.9-4.2-0.7c-1.5,0.2-3.1,0.6-4.8,0.2c-0.8-0.2-1.6-0.7-2.2-1.4
										c-0.6-0.7-0.9-1.5-1.1-2.3c-0.4-1.7-0.3-3.4-0.3-4.9c0-1.6-0.3-3.1-0.9-4.5c-1.2-2.8-3.5-4.9-6-6c-2.6-1.1-5.3-0.9-7.8-0.7
										c-2.5,0.2-4.9,0.4-7.1-0.1c-2.1-0.5-3.9-1.4-5.3-2.4c-1.4-1-2.4-2.1-3.2-3.1c-1.5-2-1.8-3.3-1.8-3.3c0.1,0,0.5,1.3,2,3.1
										c0.8,0.9,1.8,2,3.2,2.9c1.4,1,3.1,1.8,5.2,2.2c2.1,0.5,4.4,0.3,6.9,0c2.5-0.2,5.4-0.5,8.1,0.7c2.7,1.1,5.1,3.3,6.4,6.3
										c0.6,1.5,1,3.1,0.9,4.7c0,1.6-0.1,3.2,0.3,4.8c0.4,1.5,1.4,2.9,2.9,3.2c1.5,0.4,3,0,4.6-0.2c1.5-0.2,3.3-0.2,4.6,0.8
										c1.3,1,1.9,2.6,2,4c0.2,1.5-0.1,2.9-0.4,4.2c-0.4,1.3-0.8,2.5-1.1,3.8c-0.3,1.2-0.4,2.4-0.3,3.5c0.1,1.1,0.5,2.2,1.1,3
										c1.2,1.8,3.2,2.5,4.8,2.3c0.8-0.1,1.6-0.4,2.1-0.8c0.6-0.4,0.9-1,1.2-1.5c0.5-1.1,0.4-2.1,0.2-2.6
										C300.6,129.2,300.4,128.9,300.4,128.9z"/>
								</g>
							</g>
						</g>
					</g>
					<g>
						<g>
							<g>
								<g>
									<path fill="#263238" d="M186,151.6c0.1,0-0.4,1.1,0.4,2.9c0.4,0.8,1.3,1.7,2.6,2c1.3,0.2,2.9-0.3,3.9-1.7
										c0.5-0.7,0.7-1.5,0.6-2.4c-0.1-0.9-0.4-1.8-0.8-2.7c-0.8-1.8-2.3-3.6-2.5-6.1c-0.2-2.4,0.7-4.9,2.4-6.8
										c0.9-0.9,2-1.7,3.2-2.3c1.2-0.6,2.5-0.9,3.8-1.1c1.3-0.3,2.6-0.5,3.7-0.9c1.1-0.5,2.1-1.2,2.7-2.2c0.6-1,0.7-2.2,0.6-3.4
										c-0.1-1.2-0.4-2.3-0.8-3.3c-0.8-2.1-1.7-4.2-1.9-6.3c-0.2-2.1,0.3-4.1,1.2-5.6c0.9-1.6,2.1-2.6,3.1-3.5
										c1.1-0.9,2-1.6,2.6-2.4c1.3-1.4,1.4-2.6,1.5-2.6c0,0,0,0.1,0,0.2c0,0.1,0,0.3-0.1,0.6c-0.2,0.5-0.5,1.2-1.1,2
										c-0.6,0.8-1.5,1.6-2.5,2.5c-1,0.9-2.2,2-3,3.5c-0.8,1.5-1.3,3.4-1.1,5.3c0.2,2,1.1,4,1.9,6.1c0.4,1.1,0.7,2.3,0.8,3.5
										c0.1,1.2,0,2.6-0.7,3.7c-0.6,1.2-1.8,2.1-3,2.5c-1.2,0.5-2.6,0.7-3.8,1c-1.3,0.2-2.5,0.5-3.7,1.1c-1.1,0.5-2.1,1.3-3,2.1
										c-1.7,1.7-2.5,4.1-2.3,6.3c0.1,2.2,1.5,4,2.4,5.9c0.4,0.9,0.8,1.9,0.8,2.9c0.1,1-0.2,2-0.7,2.7c-1.1,1.5-2.9,2.1-4.3,1.8
										c-1.4-0.3-2.3-1.4-2.8-2.2c-0.4-0.9-0.5-1.7-0.4-2.2C185.8,151.9,186,151.6,186,151.6z"/>
								</g>
							</g>
						</g>
					</g>
				</g>
				<g>
					<g>
						<path fill="#455A64" d="M189.7,212.6c0,0,1.7-13.4,8.2-20.2c6.5-6.7,33.6-15.1,33.6-15.1s1.1,9.6,7.6,11.9
							c6.9,2.5,14.7,1.5,19.7-4.3c4.9-5.7,6.3-12.9,6.3-12.9s32.4,3,37.7,11.9c5.3,8.9,12.1,43.3,12.1,43.3l-30.3,6.4l4.1,59.3
							h-80.5l1.6-55.6l-21.9,3.1L189.7,212.6z"/>
					</g>
					<g>
						<path fill="#263238" d="M278.5,235.5c0,0-0.1-0.5-0.1-1.3c0-0.9,0-2.1,0-3.6c0-3.1,0-7.3,0.1-12c0.1-4.7,0.2-8.9,0.4-12
							c0.1-1.5,0.1-2.8,0.2-3.6c0.1-0.9,0.1-1.3,0.2-1.3c0,0,0.1,0.5,0.1,1.3c0,0.9,0,2.1,0,3.6c0,3.1,0,7.3-0.1,12
							c-0.1,4.7-0.2,8.9-0.4,12c-0.1,1.5-0.1,2.8-0.2,3.6C278.6,235,278.6,235.5,278.5,235.5z"/>
					</g>
					<g>
						
							<ellipse transform="matrix(-0.2762 -0.9611 0.9611 -0.2762 47.2771 484.8093)" fill="#263238" cx="206.2" cy="224.6" rx="14.1" ry="0.3"/>
					</g>
					<g>
						<path fill="#263238" d="M299.3,181.7c0,0.1-1.4,0.4-3.6,1.2c-2.2,0.8-5.1,2.4-7.9,4.7c-2.7,2.4-4.6,5.1-5.8,7.1
							c-1.1,2.1-1.6,3.5-1.7,3.4c0,0,0-0.4,0.2-1c0.2-0.6,0.5-1.6,1.1-2.6c1-2.2,3-5,5.7-7.4c2.8-2.4,5.9-3.9,8.2-4.7
							c1.1-0.4,2.1-0.6,2.8-0.7C299,181.7,299.3,181.6,299.3,181.7z"/>
					</g>
					<g>
						
							<ellipse transform="matrix(-0.2463 -0.9692 0.9692 -0.2463 54.0032 440.8263)" fill="#263238" cx="198.4" cy="199.4" rx="4.4" ry="0.3"/>
					</g>
				</g>
				<g>
					<path fill="#FFBE9D" d="M309.4,228.2c0,0-9.1,46.1-10.1,50c-1,3.9-2.7,14.6-13.7,16.7c-14.8,3-73.1,0.9-73.1,0.9l11-13.9
						l50.9-14.3l7-33.5L309.4,228.2z"/>
				</g>
				<g>
					<path fill="#EB996E" d="M222.6,274.2c0,0,0.2,0.4,0.4,1.1c0.2,0.7,0.5,1.8,0.6,3.1c0.3,2.6-0.1,6.4-2.1,10
						c-1,1.8-2.1,3.4-3.3,4.6c-1.2,1.3-2.6,2.1-3.9,2.6c-1.3,0.5-2.3,0.6-3.1,0.7c-0.7,0-1.1,0-1.1,0c0-0.1,1.7-0.1,4-1.1
						c1.2-0.5,2.5-1.4,3.6-2.6c1.2-1.2,2.2-2.8,3.2-4.5c1.9-3.4,2.3-7.1,2.2-9.7C223,275.8,222.5,274.2,222.6,274.2z"/>
				</g>
				<g>
					<g>
						<path fill="#FFBE9D" d="M173.8,219.7c0,0,8.2,27.6,11.6,39.6c3.6,12.7,11.5,41.5,28.4,36.4c12.8-3.9,9.1-20.5,9.1-20.5
							l-13.1-37.9l-10.2,1.7l-9.9-25.6L173.8,219.7z"/>
					</g>
					<g>
						<g>
							<path fill="#EB996E" d="M218.4,276.3c-0.2,0,0.9-2.4,0-6.2c-0.4-1.9-1.3-4.1-2.7-6.2c-1.4-2.2-3.3-4.3-5.3-6.5
								c-2-2.2-3.9-4.4-5.3-6.6c-1.5-2.2-2.5-4.3-3.4-6.1c-0.8-1.8-1.3-3.3-1.6-4.4c-0.3-1.1-0.4-1.7-0.4-1.7c0.1,0,0.3,0.6,0.7,1.6
								c0.4,1,1,2.5,1.8,4.3c0.9,1.8,2,3.8,3.4,6c1.4,2.2,3.3,4.3,5.3,6.5c2,2.2,3.9,4.4,5.3,6.6c1.4,2.2,2.3,4.5,2.7,6.5
								c0.4,2,0.3,3.6,0.1,4.7c-0.1,0.5-0.2,1-0.4,1.2C218.5,276.2,218.4,276.3,218.4,276.3z"/>
						</g>
					</g>
					<g>
						<g>
							<g>
								<g>
									<g>
										<path fill="#FFBE9D" d="M189.7,213.3c0,0,0.1-11-0.9-14.1l-7.8-17.4c0,0-2-1.2-3,2.2c-0.9,3.4,2.1,7,2.1,7l0.2,4.6
											l-3.2-2.6l-6.1-11.4c0,0-4.2-8.3-5.3-7c-1.1,1.3-0.7,4,1.1,7.6c1.8,3.6,4.1,8.1,4.1,8.1s0.6,1.4-1.5-0.6
											c-2.1-2.1-6.8-12.2-7.8-13.5c-1-1.3-2.3-5-4.4-4.1c-2.1,0.8,0.6,5.3,0.6,5.3l6.7,15c0,0-3.9-5.7-4.6-6.6
											c-0.7-1-2.3-4.2-3.6-5.9c-1.3-1.7-2.7-2.3-3.6-1.9c-1.7,0.7-1.2,2.3-1.2,2.3l7.2,12.4c0,0,3.6,5.6,3.6,6
											c0,0.4-3.1-1.8-3.1-1.8l-3-3.8c0,0-3.2-5.7-4.9-5.4c-1.7,0.3-1.4,1.6-1.4,1.6l6,10.4l8.7,11.2l9.3,9.3l5.4-1.7
											L189.7,213.3z"/>
									</g>
								</g>
							</g>
						</g>
					</g>
					<g>
						<g>
							<path fill="#EB996E" d="M172.5,211.4c0.1,0,0.2-1.4,0.6-3.5c0.3-2.1,1.1-5.2,3.6-7.1c1.1-0.9,2.4-1.4,3.6-1.4l0.4,0l0-0.5
								c-0.1-2.1-0.1-4.2-0.1-5.5c0-1.4-0.2-2.2-0.3-2.2c-0.1,0-0.1,0.8-0.2,2.2c-0.1,1.4-0.3,3.3-0.2,5.7l0.4-0.5
								c-1.4,0-3,0.5-4.2,1.5c-1.4,1.1-2.3,2.6-2.8,3.9c-0.5,1.4-0.7,2.7-0.8,3.8C172.2,210.1,172.4,211.4,172.5,211.4z"/>
						</g>
					</g>
				</g>
			</g>
		</g>
	</g>
</g>
</svg>
